<svg width="38" height="38" viewBox="0 0 38 38" fill="none" xmlns="http://www.w3.org/2000/svg">
<g filter="url(#filter0_di_39_1792)">
<mask id="mask0_39_1792" style="mask-type:alpha" maskUnits="userSpaceOnUse" x="4" y="0" width="30" height="30">
<circle cx="18.69" cy="14.69" r="14.69" fill="#D9D9D9"/>
</mask>
<g mask="url(#mask0_39_1792)">
<path d="M57.6864 -1.22479H-1.89722V29.9806H57.6864V-1.22479Z" fill="white"/>
<path d="M57.6368 -1.3421H-1.89673V1.12637H57.6368V-1.3421Z" fill="#D01D32"/>
<path d="M57.6368 3.48639H-1.89673V5.9548H57.6368V3.48639Z" fill="#D01D32"/>
<path d="M57.6368 8.31464H-1.89673V10.7831H57.6368V8.31464Z" fill="#D01D32"/>
<path d="M57.6368 13.1431H-1.89673V15.6115H57.6368V13.1431Z" fill="#D01D32"/>
<path d="M57.6368 17.9714H-1.89673V20.44H57.6368V17.9714Z" fill="#D01D32"/>
<path d="M57.6368 22.8H-1.89673V25.2685H57.6368V22.8Z" fill="#D01D32"/>
<path d="M57.6368 27.6282H-1.89673V30.0966H57.6368V27.6282Z" fill="#D01D32"/>
<path d="M21.8788 -1.34253H-1.89868V15.6121H21.8788V-1.34253Z" fill="#3B3871"/>
<path d="M6.05588 1.04626L6.27834 1.73836H6.99847L6.41594 2.16609L6.63841 2.85818L6.05588 2.43047L5.47335 2.85818L5.69581 2.16609L5.11328 1.73836H5.83341L6.05588 1.04626Z" fill="white"/>
<path d="M6.05588 4.4455L6.27834 5.13761H6.99847L6.41594 5.56533L6.63841 6.25741L6.05588 5.82971L5.47335 6.25741L5.69581 5.56533L5.11328 5.13761H5.83341L6.05588 4.4455Z" fill="white"/>
<path d="M6.05588 7.8446L6.27834 8.5367H6.99847L6.41594 8.96443L6.63841 9.65652L6.05588 9.22881L5.47335 9.65652L5.69581 8.96443L5.11328 8.5367H5.83341L6.05588 7.8446Z" fill="white"/>
<path d="M6.05588 11.2437L6.27834 11.9358H6.99847L6.41594 12.3635L6.63841 13.0556L6.05588 12.6279L5.47335 13.0556L5.69581 12.3635L5.11328 11.9358H5.83341L6.05588 11.2437Z" fill="white"/>
<path d="M10.0283 1.04626L10.2508 1.73836H10.9709L10.3884 2.16609L10.6108 2.85818L10.0283 2.43047L9.44576 2.85818L9.66823 2.16609L9.08569 1.73836H9.80582L10.0283 1.04626Z" fill="white"/>
<path d="M10.0283 4.4455L10.2508 5.13761H10.9709L10.3884 5.56533L10.6108 6.25741L10.0283 5.82971L9.44576 6.25741L9.66823 5.56533L9.08569 5.13761H9.80582L10.0283 4.4455Z" fill="white"/>
<path d="M10.0283 7.8446L10.2508 8.5367H10.9709L10.3884 8.96443L10.6108 9.65652L10.0283 9.22881L9.44576 9.65652L9.66823 8.96443L9.08569 8.5367H9.80582L10.0283 7.8446Z" fill="white"/>
<path d="M10.0283 11.2437L10.2508 11.9358H10.9709L10.3884 12.3635L10.6108 13.0556L10.0283 12.6279L9.44576 13.0556L9.66823 12.3635L9.08569 11.9358H9.80582L10.0283 11.2437Z" fill="white"/>
<path d="M14.0009 1.04626L14.2234 1.73836H14.9435L14.361 2.16609L14.5835 2.85818L14.0009 2.43047L13.4184 2.85818L13.6409 2.16609L13.0583 1.73836H13.7785L14.0009 1.04626Z" fill="white"/>
<path d="M14.0009 4.4455L14.2234 5.13761H14.9435L14.361 5.56533L14.5835 6.25741L14.0009 5.82971L13.4184 6.25741L13.6409 5.56533L13.0583 5.13761H13.7785L14.0009 4.4455Z" fill="white"/>
<path d="M14.0009 7.8446L14.2234 8.5367H14.9435L14.361 8.96443L14.5835 9.65652L14.0009 9.22881L13.4184 9.65652L13.6409 8.96443L13.0583 8.5367H13.7785L14.0009 7.8446Z" fill="white"/>
<path d="M14.0009 11.2437L14.2234 11.9358H14.9435L14.361 12.3635L14.5835 13.0556L14.0009 12.6279L13.4184 13.0556L13.6409 12.3635L13.0583 11.9358H13.7785L14.0009 11.2437Z" fill="white"/>
<path d="M17.9734 1.04626L18.1958 1.73836H18.916L18.3334 2.16609L18.5559 2.85818L17.9734 2.43047L17.3908 2.85818L17.6133 2.16609L17.0308 1.73836H17.7509L17.9734 1.04626Z" fill="white"/>
<path d="M17.9734 4.4455L18.1958 5.13761H18.916L18.3334 5.56533L18.5559 6.25741L17.9734 5.82971L17.3908 6.25741L17.6133 5.56533L17.0308 5.13761H17.7509L17.9734 4.4455Z" fill="white"/>
<path d="M17.9734 7.8446L18.1958 8.5367H18.916L18.3334 8.96443L18.5559 9.65652L17.9734 9.22881L17.3908 9.65652L17.6133 8.96443L17.0308 8.5367H17.7509L17.9734 7.8446Z" fill="white"/>
<path d="M17.9734 11.2437L18.1958 11.9358H18.916L18.3334 12.3635L18.5559 13.0556L17.9734 12.6279L17.3908 13.0556L17.6133 12.3635L17.0308 11.9358H17.7509L17.9734 11.2437Z" fill="white"/>
<path d="M4.04318 -0.693237L4.26565 -0.00114053H4.98578L4.40325 0.426574L4.62571 1.11868L4.04318 0.690956L3.46065 1.11868L3.68312 0.426574L3.10059 -0.00114053H3.82071L4.04318 -0.693237Z" fill="white"/>
<path d="M4.04318 2.70581L4.26565 3.39792H4.98578L4.40325 3.82562L4.62571 4.51774L4.04318 4.09001L3.46065 4.51774L3.68312 3.82562L3.10059 3.39792H3.82071L4.04318 2.70581Z" fill="white"/>
<path d="M4.04318 6.10504L4.26565 6.79714H4.98578L4.40325 7.22486L4.62571 7.91696L4.04318 7.48924L3.46065 7.91696L3.68312 7.22486L3.10059 6.79714H3.82071L4.04318 6.10504Z" fill="white"/>
<path d="M4.04318 9.50391L4.26565 10.196H4.98578L4.40325 10.6237L4.62571 11.3158L4.04318 10.8881L3.46065 11.3158L3.68312 10.6237L3.10059 10.196H3.82071L4.04318 9.50391Z" fill="white"/>
<path d="M4.04318 12.903L4.26565 13.5951H4.98578L4.40325 14.0228L4.62571 14.7149L4.04318 14.2872L3.46065 14.7149L3.68312 14.0228L3.10059 13.5951H3.82071L4.04318 12.903Z" fill="white"/>
<path d="M8.06882 -0.693237L8.29128 -0.00114053H9.01124L8.42888 0.426574L8.65135 1.11868L8.06882 0.690956L7.48628 1.11868L7.70875 0.426574L7.12622 -0.00114053H7.84618L8.06882 -0.693237Z" fill="white"/>
<path d="M8.06882 2.70581L8.29128 3.39792H9.01124L8.42888 3.82562L8.65135 4.51774L8.06882 4.09001L7.48628 4.51774L7.70875 3.82562L7.12622 3.39792H7.84618L8.06882 2.70581Z" fill="white"/>
<path d="M8.06882 6.10504L8.29128 6.79714H9.01124L8.42888 7.22486L8.65135 7.91696L8.06882 7.48924L7.48628 7.91696L7.70875 7.22486L7.12622 6.79714H7.84618L8.06882 6.10504Z" fill="white"/>
<path d="M8.06882 9.50391L8.29128 10.196H9.01124L8.42888 10.6237L8.65135 11.3158L8.06882 10.8881L7.48628 11.3158L7.70875 10.6237L7.12622 10.196H7.84618L8.06882 9.50391Z" fill="white"/>
<path d="M8.06882 12.903L8.29128 13.5951H9.01124L8.42888 14.0228L8.65135 14.7149L8.06882 14.2872L7.48628 14.7149L7.70875 14.0228L7.12622 13.5951H7.84618L8.06882 12.903Z" fill="white"/>
<path d="M12.0149 -0.693237L12.2373 -0.00114053H12.9575L12.3749 0.426574L12.5974 1.11868L12.0149 0.690956L11.4323 1.11868L11.6548 0.426574L11.0723 -0.00114053H11.7924L12.0149 -0.693237Z" fill="white"/>
<path d="M12.0149 2.70581L12.2373 3.39792H12.9575L12.3749 3.82562L12.5974 4.51774L12.0149 4.09001L11.4323 4.51774L11.6548 3.82562L11.0723 3.39792H11.7924L12.0149 2.70581Z" fill="white"/>
<path d="M12.0149 6.10504L12.2373 6.79714H12.9575L12.3749 7.22486L12.5974 7.91696L12.0149 7.48924L11.4323 7.91696L11.6548 7.22486L11.0723 6.79714H11.7924L12.0149 6.10504Z" fill="white"/>
<path d="M12.0149 9.50391L12.2373 10.196H12.9575L12.3749 10.6237L12.5974 11.3158L12.0149 10.8881L11.4323 11.3158L11.6548 10.6237L11.0723 10.196H11.7924L12.0149 9.50391Z" fill="white"/>
<path d="M12.0149 12.903L12.2373 13.5951H12.9575L12.3749 14.0228L12.5974 14.7149L12.0149 14.2872L11.4323 14.7149L11.6548 14.0228L11.0723 13.5951H11.7924L12.0149 12.903Z" fill="white"/>
<path d="M15.9607 -0.693237L16.1831 -0.00114053H16.9033L16.3207 0.426574L16.5432 1.11868L15.9607 0.690956L15.3781 1.11868L15.6006 0.426574L15.0181 -0.00114053H15.7382L15.9607 -0.693237Z" fill="white"/>
<path d="M15.9607 2.70581L16.1831 3.39792H16.9033L16.3207 3.82562L16.5432 4.51774L15.9607 4.09001L15.3781 4.51774L15.6006 3.82562L15.0181 3.39792H15.7382L15.9607 2.70581Z" fill="white"/>
<path d="M15.9607 6.10504L16.1831 6.79714H16.9033L16.3207 7.22486L16.5432 7.91696L15.9607 7.48924L15.3781 7.91696L15.6006 7.22486L15.0181 6.79714H15.7382L15.9607 6.10504Z" fill="white"/>
<path d="M15.9607 9.50391L16.1831 10.196H16.9033L16.3207 10.6237L16.5432 11.3158L15.9607 10.8881L15.3781 11.3158L15.6006 10.6237L15.0181 10.196H15.7382L15.9607 9.50391Z" fill="white"/>
<path d="M15.9607 12.903L16.1831 13.5951H16.9033L16.3207 14.0228L16.5432 14.7149L15.9607 14.2872L15.3781 14.7149L15.6006 14.0228L15.0181 13.5951H15.7382L15.9607 12.903Z" fill="white"/>
<path d="M19.9861 -0.693237L20.2088 -0.00114053H20.9287L20.3462 0.426574L20.5687 1.11868L19.9861 0.690956L19.4038 1.11868L19.6262 0.426574L19.0437 -0.00114053H19.7637L19.9861 -0.693237Z" fill="white"/>
<path d="M19.9861 2.70581L20.2088 3.39792H20.9287L20.3462 3.82562L20.5687 4.51774L19.9861 4.09001L19.4038 4.51774L19.6262 3.82562L19.0437 3.39792H19.7637L19.9861 2.70581Z" fill="white"/>
<path d="M19.9861 6.10504L20.2088 6.79714H20.9287L20.3462 7.22486L20.5687 7.91696L19.9861 7.48924L19.4038 7.91696L19.6262 7.22486L19.0437 6.79714H19.7637L19.9861 6.10504Z" fill="white"/>
<path d="M19.9861 9.50391L20.2088 10.196H20.9287L20.3462 10.6237L20.5687 11.3158L19.9861 10.8881L19.4038 11.3158L19.6262 10.6237L19.0437 10.196H19.7637L19.9861 9.50391Z" fill="white"/>
<path d="M19.9861 12.903L20.2088 13.5951H20.9287L20.3462 14.0228L20.5687 14.7149L19.9861 14.2872L19.4038 14.7149L19.6262 14.0228L19.0437 13.5951H19.7637L19.9861 12.903Z" fill="white"/>
</g>
</g>
<defs>
<filter id="filter0_di_39_1792" x="0" y="0" width="37.3799" height="37.38" filterUnits="userSpaceOnUse" color-interpolation-filters="sRGB">
<feFlood flood-opacity="0" result="BackgroundImageFix"/>
<feColorMatrix in="SourceAlpha" type="matrix" values="0 0 0 0 0 0 0 0 0 0 0 0 0 0 0 0 0 0 127 0" result="hardAlpha"/>
<feOffset dy="4"/>
<feGaussianBlur stdDeviation="2"/>
<feComposite in2="hardAlpha" operator="out"/>
<feColorMatrix type="matrix" values="0 0 0 0 0 0 0 0 0 0 0 0 0 0 0 0 0 0 0.25 0"/>
<feBlend mode="normal" in2="BackgroundImageFix" result="effect1_dropShadow_39_1792"/>
<feBlend mode="normal" in="SourceGraphic" in2="effect1_dropShadow_39_1792" result="shape"/>
<feColorMatrix in="SourceAlpha" type="matrix" values="0 0 0 0 0 0 0 0 0 0 0 0 0 0 0 0 0 0 127 0" result="hardAlpha"/>
<feOffset dy="4"/>
<feGaussianBlur stdDeviation="2"/>
<feComposite in2="hardAlpha" operator="arithmetic" k2="-1" k3="1"/>
<feColorMatrix type="matrix" values="0 0 0 0 0.423529 0 0 0 0 0.423529 0 0 0 0 0.423529 0 0 0 0.49 0"/>
<feBlend mode="normal" in2="shape" result="effect2_innerShadow_39_1792"/>
</filter>
</defs>
</svg>
