<svg width="28" height="29" viewBox="0 0 28 29" fill="none" xmlns="http://www.w3.org/2000/svg">
<path d="M16.1951 23.3236C16.1948 21.7797 16.1992 20.2358 16.1898 18.6919C16.1884 18.4717 16.2458 18.407 16.4672 18.41C17.3786 18.4223 18.2904 18.4095 19.2019 18.4197C19.4008 18.4219 19.4672 18.3659 19.4967 18.1616C19.6647 16.9961 19.8525 15.8335 20.0318 14.6696C20.0845 14.3278 20.0819 14.3269 19.749 14.3268C18.6513 14.3265 17.5536 14.3213 16.456 14.3312C16.2513 14.3331 16.1859 14.2847 16.1897 14.0692C16.2033 13.2928 16.1934 12.516 16.1955 11.7394C16.1968 11.2845 16.2661 10.8429 16.5 10.4445C16.8705 9.81308 17.4615 9.5499 18.1544 9.51227C18.7574 9.47953 19.3632 9.48965 19.9676 9.49575C20.1709 9.49781 20.2628 9.46448 20.2591 9.22373C20.2441 8.24147 20.2533 7.25884 20.2511 6.27636C20.2509 6.16292 20.2912 6.03239 20.1014 6.00578C18.7101 5.81069 17.317 5.59558 15.9129 5.84799C13.6169 6.26072 12.1728 7.80879 11.8912 10.1411C11.7471 11.3341 11.8405 12.5338 11.8204 13.7304C11.8104 14.3265 11.8189 14.3267 11.2208 14.3267C10.3184 14.3267 9.41606 14.3318 8.51382 14.3226C8.32245 14.3207 8.26009 14.3705 8.26155 14.5709C8.27029 15.7685 8.27141 16.9663 8.25989 18.1639C8.25776 18.3851 8.3321 18.4216 8.53088 18.4196C9.54474 18.4097 10.5588 18.42 11.5727 18.4112C11.768 18.4095 11.8232 18.4679 11.8228 18.6636C11.8173 21.7702 11.8149 24.8767 11.8257 27.9832C11.8267 28.2797 11.6947 28.237 11.5074 28.2017C8.72604 27.6765 6.30515 26.439 4.27633 24.4549C1.95571 22.1854 0.57996 19.424 0.130758 16.2004C-0.665303 10.4877 2.22979 4.73031 7.27926 1.97025C13.2268 -1.2807 20.517 0.126841 24.8197 5.38051C26.7591 7.74857 27.8163 10.4811 27.9794 13.5503C28.3397 20.3339 23.9449 26.3365 17.3998 28.0073C17.076 28.0899 16.7422 28.1328 16.4187 28.2165C16.2111 28.2702 16.192 28.1862 16.1926 28.0115C16.1976 26.4489 16.1955 24.8863 16.1951 23.3236Z" fill="#FF9E18"/>
</svg>
