<svg width="83" height="37" viewBox="0 0 83 37" fill="none" xmlns="http://www.w3.org/2000/svg">
<g style="mix-blend-mode:luminosity" opacity="0.05">
<mask id="mask0_39_1704" style="mask-type:alpha" maskUnits="userSpaceOnUse" x="0" y="0" width="83" height="37">
<rect width="83" height="37" rx="18.5" transform="matrix(-1 0 0 1 83 0)" fill="#B6B6B6"/>
</mask>
<g mask="url(#mask0_39_1704)">
<path d="M-0.15445 -3.17871H86.2854V38.8475H-0.15445V-3.17871Z" fill="white"/>
<path d="M-0.0828843 3.16602H86.2844V6.49038H-0.0828843V3.16602Z" fill="#D01D32"/>
<path d="M-0.0828843 9.66858H86.2844V12.993H-0.0828843V9.66858Z" fill="#D01D32"/>
<path d="M-0.0828843 16.1714H86.2844V19.4958H-0.0828843V16.1714Z" fill="#D01D32"/>
<path d="M-0.0828843 22.674H86.2844V25.9985H-0.0828843V22.674Z" fill="#D01D32"/>
<path d="M-0.0828843 29.1768H86.2844V32.5012H-0.0828843V29.1768Z" fill="#D01D32"/>
<path d="M-0.0828843 35.6792H86.2844V39.0036H-0.0828843V35.6792Z" fill="#D01D32"/>
<path d="M51.7923 -3.33716H86.2871V19.4966H51.7923V-3.33716Z" fill="#3B3871"/>
<path d="M80.5102 -0.120117L80.1875 0.811972H79.1428L79.9879 1.38802L79.6651 2.32011L80.5102 1.74408L81.3553 2.32011L81.0326 1.38802L81.8777 0.811972H80.833L80.5102 -0.120117Z" fill="white"/>
<path d="M80.5102 4.45776L80.1875 5.38988H79.1428L79.9879 5.96591L79.6651 6.89799L80.5102 6.32197L81.3553 6.89799L81.0326 5.96591L81.8777 5.38988H80.833L80.5102 4.45776Z" fill="white"/>
<path d="M80.5102 9.0354L80.1875 9.96749H79.1428L79.9879 10.5435L79.6651 11.4756L80.5102 10.8996L81.3553 11.4756L81.0326 10.5435L81.8777 9.96749H80.833L80.5102 9.0354Z" fill="white"/>
<path d="M80.5102 13.6132L80.1875 14.5452H79.1428L79.9879 15.1213L79.6651 16.0534L80.5102 15.4773L81.3553 16.0534L81.0326 15.1213L81.8777 14.5452H80.833L80.5102 13.6132Z" fill="white"/>
<path d="M74.747 -0.120117L74.4243 0.811972H73.3796L74.2247 1.38802L73.9019 2.32011L74.747 1.74408L75.5921 2.32011L75.2694 1.38802L76.1145 0.811972H75.0698L74.747 -0.120117Z" fill="white"/>
<path d="M74.747 4.45776L74.4243 5.38988H73.3796L74.2247 5.96591L73.9019 6.89799L74.747 6.32197L75.5921 6.89799L75.2694 5.96591L76.1145 5.38988H75.0698L74.747 4.45776Z" fill="white"/>
<path d="M74.747 9.0354L74.4243 9.96749H73.3796L74.2247 10.5435L73.9019 11.4756L74.747 10.8996L75.5921 11.4756L75.2694 10.5435L76.1145 9.96749H75.0698L74.747 9.0354Z" fill="white"/>
<path d="M74.747 13.6132L74.4243 14.5452H73.3796L74.2247 15.1213L73.9019 16.0534L74.747 15.4773L75.5921 16.0534L75.2694 15.1213L76.1145 14.5452H75.0698L74.747 13.6132Z" fill="white"/>
<path d="M68.9844 -0.120117L68.6616 0.811972H67.6169L68.462 1.38802L68.1393 2.32011L68.9844 1.74408L69.8294 2.32011L69.5067 1.38802L70.3518 0.811972H69.3071L68.9844 -0.120117Z" fill="white"/>
<path d="M68.9844 4.45776L68.6616 5.38988H67.6169L68.462 5.96591L68.1393 6.89799L68.9844 6.32197L69.8294 6.89799L69.5067 5.96591L70.3518 5.38988H69.3071L68.9844 4.45776Z" fill="white"/>
<path d="M68.9844 9.0354L68.6616 9.96749H67.6169L68.462 10.5435L68.1393 11.4756L68.9844 10.8996L69.8294 11.4756L69.5067 10.5435L70.3518 9.96749H69.3071L68.9844 9.0354Z" fill="white"/>
<path d="M68.9844 13.6132L68.6616 14.5452H67.6169L68.462 15.1213L68.1393 16.0534L68.9844 15.4773L69.8294 16.0534L69.5067 15.1213L70.3518 14.5452H69.3071L68.9844 13.6132Z" fill="white"/>
<path d="M63.2209 -0.120117L62.8982 0.811972H61.8535L62.6986 1.38802L62.3758 2.32011L63.2209 1.74408L64.066 2.32011L63.7433 1.38802L64.5884 0.811972H63.5437L63.2209 -0.120117Z" fill="white"/>
<path d="M63.2209 4.45776L62.8982 5.38988H61.8535L62.6986 5.96591L62.3758 6.89799L63.2209 6.32197L64.066 6.89799L63.7433 5.96591L64.5884 5.38988H63.5437L63.2209 4.45776Z" fill="white"/>
<path d="M63.2209 9.0354L62.8982 9.96749H61.8535L62.6986 10.5435L62.3758 11.4756L63.2209 10.8996L64.066 11.4756L63.7433 10.5435L64.5884 9.96749H63.5437L63.2209 9.0354Z" fill="white"/>
<path d="M63.2209 13.6132L62.8982 14.5452H61.8535L62.6986 15.1213L62.3758 16.0534L63.2209 15.4773L64.066 16.0534L63.7433 15.1213L64.5884 14.5452H63.5437L63.2209 13.6132Z" fill="white"/>
<path d="M57.4582 -0.120117L57.1355 0.811972H56.0908L56.9359 1.38802L56.6131 2.32011L57.4582 1.74408L58.3033 2.32011L57.9806 1.38802L58.8257 0.811972H57.781L57.4582 -0.120117Z" fill="white"/>
<path d="M57.4582 4.45776L57.1355 5.38988H56.0908L56.9359 5.96591L56.6131 6.89799L57.4582 6.32197L58.3033 6.89799L57.9806 5.96591L58.8257 5.38988H57.781L57.4582 4.45776Z" fill="white"/>
<path d="M57.4582 9.0354L57.1355 9.96749H56.0908L56.9359 10.5435L56.6131 11.4756L57.4582 10.8996L58.3033 11.4756L57.9806 10.5435L58.8257 9.96749H57.781L57.4582 9.0354Z" fill="white"/>
<path d="M57.4582 13.6132L57.1355 14.5452H56.0908L56.9359 15.1213L56.6131 16.0534L57.4582 15.4773L58.3033 16.0534L57.9806 15.1213L58.8257 14.5452H57.781L57.4582 13.6132Z" fill="white"/>
<path d="M83.3532 2.11487L83.0305 3.04697H81.9858L82.8311 3.62299L82.5081 4.55511L83.3532 3.97906L84.1983 4.55511L83.8756 3.62299L84.7207 3.04697H83.6762L83.3532 2.11487Z" fill="white"/>
<path d="M83.3532 6.69263L83.0305 7.62472H81.9858L82.8311 8.20076L82.5081 9.13285L83.3532 8.55681L84.1983 9.13285L83.8756 8.20076L84.7207 7.62472H83.6762L83.3532 6.69263Z" fill="white"/>
<path d="M83.3532 11.2701L83.0305 12.2022H81.9858L82.8311 12.7783L82.5081 13.7104L83.3532 13.1343L84.1983 13.7104L83.8756 12.7783L84.7207 12.2022H83.6762L83.3532 11.2701Z" fill="white"/>
<path d="M83.3532 15.8479L83.0305 16.78H81.9858L82.8311 17.356L82.5081 18.2881L83.3532 17.7121L84.1983 18.2881L83.8756 17.356L84.7207 16.78H83.6762L83.3532 15.8479Z" fill="white"/>
<path d="M77.667 2.11487L77.3442 3.04697H76.2995L77.1446 3.62299L76.8219 4.55511L77.667 3.97906L78.5121 4.55511L78.1893 3.62299L79.0344 3.04697H77.9897L77.667 2.11487Z" fill="white"/>
<path d="M77.667 6.69263L77.3442 7.62472H76.2995L77.1446 8.20076L76.8219 9.13285L77.667 8.55681L78.5121 9.13285L78.1893 8.20076L79.0344 7.62472H77.9897L77.667 6.69263Z" fill="white"/>
<path d="M77.667 11.2701L77.3442 12.2022H76.2995L77.1446 12.7783L76.8219 13.7104L77.667 13.1343L78.5121 13.7104L78.1893 12.7783L79.0344 12.2022H77.9897L77.667 11.2701Z" fill="white"/>
<path d="M77.667 15.8479L77.3442 16.78H76.2995L77.1446 17.356L76.8219 18.2881L77.667 17.7121L78.5121 18.2881L78.1893 17.356L79.0344 16.78H77.9897L77.667 15.8479Z" fill="white"/>
<path d="M71.8274 2.11487L71.5046 3.04697H70.4602L71.305 3.62299L70.9823 4.55511L71.8274 3.97906L72.6725 4.55511L72.3497 3.62299L73.1948 3.04697H72.1504L71.8274 2.11487Z" fill="white"/>
<path d="M71.8274 6.69263L71.5046 7.62472H70.4602L71.305 8.20076L70.9823 9.13285L71.8274 8.55681L72.6725 9.13285L72.3497 8.20076L73.1948 7.62472H72.1504L71.8274 6.69263Z" fill="white"/>
<path d="M71.8274 11.2701L71.5046 12.2022H70.4602L71.305 12.7783L70.9823 13.7104L71.8274 13.1343L72.6725 13.7104L72.3497 12.7783L73.1948 12.2022H72.1504L71.8274 11.2701Z" fill="white"/>
<path d="M71.8274 15.8479L71.5046 16.78H70.4602L71.305 17.356L70.9823 18.2881L71.8274 17.7121L72.6725 18.2881L72.3497 17.356L73.1948 16.78H72.1504L71.8274 15.8479Z" fill="white"/>
<path d="M66.1028 2.11487L65.78 3.04697H64.7353L65.5804 3.62299L65.2577 4.55511L66.1028 3.97906L66.9479 4.55511L66.6251 3.62299L67.4702 3.04697H66.4255L66.1028 2.11487Z" fill="white"/>
<path d="M66.1028 6.69263L65.78 7.62472H64.7353L65.5804 8.20076L65.2577 9.13285L66.1028 8.55681L66.9479 9.13285L66.6251 8.20076L67.4702 7.62472H66.4255L66.1028 6.69263Z" fill="white"/>
<path d="M66.1028 11.2701L65.78 12.2022H64.7353L65.5804 12.7783L65.2577 13.7104L66.1028 13.1343L66.9479 13.7104L66.6251 12.7783L67.4702 12.2022H66.4255L66.1028 11.2701Z" fill="white"/>
<path d="M66.1028 15.8479L65.78 16.78H64.7353L65.5804 17.356L65.2577 18.2881L66.1028 17.7121L66.9479 18.2881L66.6251 17.356L67.4702 16.78H66.4255L66.1028 15.8479Z" fill="white"/>
<path d="M60.3784 2.11487L60.0557 3.04697H59.0109L59.856 3.62299L59.5333 4.55511L60.3784 3.97906L61.2235 4.55511L60.9008 3.62299L61.7458 3.04697H60.7011L60.3784 2.11487Z" fill="white"/>
<path d="M60.3784 6.69263L60.0557 7.62472H59.0109L59.856 8.20076L59.5333 9.13285L60.3784 8.55681L61.2235 9.13285L60.9008 8.20076L61.7458 7.62472H60.7011L60.3784 6.69263Z" fill="white"/>
<path d="M60.3784 11.2701L60.0557 12.2022H59.0109L59.856 12.7783L59.5333 13.7104L60.3784 13.1343L61.2235 13.7104L60.9008 12.7783L61.7458 12.2022H60.7011L60.3784 11.2701Z" fill="white"/>
<path d="M60.3784 15.8479L60.0557 16.78H59.0109L59.856 17.356L59.5333 18.2881L60.3784 17.7121L61.2235 18.2881L60.9008 17.356L61.7458 16.78H60.7011L60.3784 15.8479Z" fill="white"/>
<path d="M54.5386 2.11487L54.2156 3.04697H53.1711L54.0162 3.62299L53.6935 4.55511L54.5386 3.97906L55.3834 4.55511L55.0607 3.62299L55.9058 3.04697H54.8613L54.5386 2.11487Z" fill="white"/>
<path d="M54.5386 6.69263L54.2156 7.62472H53.1711L54.0162 8.20076L53.6935 9.13285L54.5386 8.55681L55.3834 9.13285L55.0607 8.20076L55.9058 7.62472H54.8613L54.5386 6.69263Z" fill="white"/>
<path d="M54.5386 11.2701L54.2156 12.2022H53.1711L54.0162 12.7783L53.6935 13.7104L54.5386 13.1343L55.3834 13.7104L55.0607 12.7783L55.9058 12.2022H54.8613L54.5386 11.2701Z" fill="white"/>
<path d="M54.5386 15.8479L54.2156 16.78H53.1711L54.0162 17.356L53.6935 18.2881L54.5386 17.7121L55.3834 18.2881L55.0607 17.356L55.9058 16.78H54.8613L54.5386 15.8479Z" fill="white"/>
</g>
</g>
</svg>
