<svg width="29" height="29" viewBox="0 0 29 29" fill="none" xmlns="http://www.w3.org/2000/svg">
<path d="M14.7442 0C6.88376 0 0.511627 6.37213 0.511627 14.2326C0.511627 22.093 6.88376 28.4651 14.7442 28.4651C22.6046 28.4651 28.9767 22.093 28.9767 14.2326C28.9767 6.37214 22.6046 0 14.7442 0ZM23.4706 15.4695C23.4776 16.5462 23.5105 17.6281 23.347 18.6949C22.9574 21.2357 21.1955 22.7766 18.5558 22.8925C16.0084 23.0042 13.4593 23.0076 10.9121 22.8905C8.12771 22.7626 6.3091 21.0699 6.10838 18.2854C5.91288 15.5734 5.91223 12.8478 6.11004 10.1358C6.31323 7.34992 8.17445 5.66225 10.9699 5.54152C12.2308 5.48707 13.4914 5.48104 15.0405 5.48101C16.1969 5.49355 17.644 5.43706 19.0828 5.60801C21.5274 5.89846 23.1238 7.50857 23.3702 9.95681C23.5547 11.7901 23.4587 13.6315 23.4706 15.4695Z" fill="#FF9E18"/>
<path d="M21.8955 12.8931C21.8978 11.9876 21.904 11.0814 21.8159 10.1776C21.6515 8.49007 20.7028 7.43971 19.0359 7.19252C17.6149 6.98178 16.1775 7.08449 14.8862 7.05396C13.4339 7.0659 12.1193 7.03223 10.8085 7.13866C8.92735 7.2914 7.79329 8.37914 7.67811 10.2522C7.51526 12.9005 7.50953 15.5549 7.68067 18.2028C7.802 20.0799 8.94067 21.1896 10.8218 21.2982C13.4327 21.4488 16.0485 21.449 18.6591 21.298C20.561 21.188 21.6621 20.0645 21.8173 18.1688C21.9611 16.4128 21.8911 14.6519 21.8955 12.8931ZM14.7349 18.7078C12.2523 18.6978 10.2543 16.6892 10.2621 14.2113C10.2698 11.7273 12.2772 9.72604 14.7529 9.73411C17.2351 9.7422 19.2262 11.743 19.2266 14.2296C19.2271 16.7023 17.2056 18.7177 14.7349 18.7078ZM19.4204 10.5986C18.8383 10.6031 18.3637 10.137 18.3603 9.55737C18.3569 8.99639 18.8154 8.52704 19.378 8.51543C19.9669 8.50328 20.4458 8.95638 20.4558 9.53508C20.4659 10.1173 20.0016 10.5942 19.4204 10.5986Z" fill="#FF9E18"/>
<path d="M14.7513 11.3079C13.1473 11.3013 11.8389 12.6064 11.8388 14.2132C11.8387 15.8295 13.1311 17.1316 14.7369 17.133C16.3473 17.1343 17.6398 15.8453 17.6495 14.2283C17.6591 12.6244 16.3591 11.3145 14.7513 11.3079Z" fill="#FF9E18"/>
</svg>
