<svg width="28" height="29" viewBox="0 0 28 29" fill="none" xmlns="http://www.w3.org/2000/svg">
<path d="M14 0.232544C6.26801 0.232544 0 6.50056 0 14.2325C0 21.9645 6.26801 28.2325 14 28.2325C21.732 28.2325 28 21.9645 28 14.2325C28 6.50056 21.732 0.232544 14 0.232544ZM9.98539 17.7812V22.2283H6.70003V11.6013C6.77521 11.5969 6.83624 11.5902 6.89727 11.5902C7.85451 11.5895 8.81179 11.5939 9.76897 11.5858C9.94422 11.5844 9.9893 11.6383 9.98883 11.8088C9.98345 13.7996 9.98539 15.7904 9.98539 17.7812ZM8.34306 10.0235C7.31507 10.0362 6.45656 9.1899 6.44827 8.15557C6.43971 7.0886 7.26852 6.2424 8.32832 6.23604C9.36606 6.22981 10.214 7.0634 10.2235 8.09925C10.2333 9.16173 9.40407 10.0103 8.34306 10.0235ZM22.4128 21.9592V22.2257H19.1795V21.9846C19.1795 20.1179 19.1811 18.2512 19.1787 16.3846C19.1779 15.7925 19.0202 15.2551 18.5586 14.8523C17.3727 13.8178 15.4241 14.4977 15.093 16.0605C15.056 16.2354 15.0388 16.4178 15.0384 16.5968C15.0345 18.3871 15.036 20.1775 15.036 21.9678V22.2291H11.8136V21.9846C11.8136 18.6051 11.8159 15.2257 11.8084 11.8462C11.8079 11.6299 11.8684 11.5819 12.0751 11.5848C12.9146 11.5966 13.7544 11.5897 14.594 11.5897H14.8368V13.0389C14.8613 13.0573 14.8858 13.0758 14.9103 13.0942C14.9321 13.0466 14.9448 12.9916 14.9769 12.9523C16.3862 11.2293 19.2841 10.7355 21.191 12.4767C21.8291 13.0593 22.1277 13.8414 22.328 14.6594C22.3884 14.9058 22.4086 15.1675 22.4093 15.4224C22.4154 17.6013 22.4128 19.7803 22.4128 21.9592Z" fill="#FF9E18"/>
</svg>
