<svg width="91" height="58" viewBox="0 0 91 58" fill="none" xmlns="http://www.w3.org/2000/svg">
<path fill-rule="evenodd" clip-rule="evenodd" d="M0.116117 42.2181L4.63321 42.1704L4.54427 48.4064L10.3016 42.1704H11.3941L12.4564 48.3581L16.944 42.1704H18.4197L12.2208 50.5384H10.0065L9.32694 44.7551L3.86523 50.5384H1.82811L1.85765 43.3029C1.55257 42.7981 0.971956 42.5791 0.116124 42.6466C-0.0387079 42.5038 -0.0387142 42.3606 0.116117 42.2181Z" fill="#1E1E1C"/>
<path fill-rule="evenodd" clip-rule="evenodd" d="M22.8323 42.4973L28.023 41.8429L27.3505 43.9748C28.2532 43.297 29.1566 42.7652 30.06 42.3241C31.146 41.7941 35.4593 41.1654 35.2238 43.6993L32.5028 50.4244H29.7702L32.1837 44.3287C32.5393 42.333 29.2385 42.752 26.7345 45.3629L24.6443 50.4244H21.8298L24.4782 44.0225C24.6337 43.1221 24.3847 42.8329 22.7304 42.8842C22.5537 42.8267 22.5967 42.602 22.8323 42.4973Z" fill="#1E1E1C"/>
<path fill-rule="evenodd" clip-rule="evenodd" d="M43.5298 46.6818L44.0587 45.416C44.4933 43.8756 44.0723 42.5273 42.2118 42.6933C38.7177 43.0537 35.3445 49.5466 39.6094 49.5119C41.2188 49.5228 42.7017 48.1791 43.5298 46.6818ZM42.4746 49.2068C39.9108 50.9529 34.9781 51.4911 34.6842 48.0937C34.5199 46.1862 36.0453 43.9059 38.285 42.6616C39.6342 41.9113 41.1983 41.6669 42.4886 41.7395C43.6871 41.8076 44.6494 42.208 44.9856 43.1992L46.3943 39.8282C46.6976 38.9507 46.19 38.5586 44.8531 38.5985C44.6646 38.5644 44.7382 38.1451 45.0729 38.0892L49.9426 37.6975L44.9003 50.4152H41.9698L42.4746 49.2068Z" fill="#1E1E1C"/>
<path fill-rule="evenodd" clip-rule="evenodd" d="M48.7496 42.4973L53.9415 41.8429L53.2678 43.9748C54.1712 43.297 54.822 42.7652 55.7247 42.3241C56.8107 41.7947 61.1247 41.1654 60.8891 43.6993L60.8118 43.8895C61.6293 43.2766 62.4132 42.7698 63.2111 42.3241C64.2964 41.7174 68.6097 41.0379 68.3748 43.6993L65.6534 50.4244H62.985L65.4926 44.3287C65.8424 42.1415 62.747 42.6685 60.2707 45.2278L58.1675 50.4244H55.4349L57.8484 44.3287C58.2047 42.333 55.1559 42.7519 52.6524 45.3629L50.5622 50.4244H47.7473L50.3957 44.0225C50.5516 43.1221 50.3027 42.8328 48.6483 42.8842C48.4717 42.8267 48.5147 42.602 48.7496 42.4973Z" fill="#0038A8"/>
<path fill-rule="evenodd" clip-rule="evenodd" d="M79.9086 42.3075L85.0993 41.6533L84.4261 43.7852C85.3295 43.1073 85.9986 42.3868 86.9013 41.9461C87.4808 41.6628 89.0451 41.4065 90.3436 41.613L89.0898 43.522C88.3978 42.7398 85.8166 43.1904 83.8107 45.1738L81.7207 50.235H78.9062L81.554 43.8332C81.7101 42.9327 81.461 42.6436 79.806 42.6944C79.6294 42.6374 79.673 42.4124 79.9086 42.3075Z" fill="#0038A8"/>
<path fill-rule="evenodd" clip-rule="evenodd" d="M74.5329 47.9052L75.2562 46.2457C72.7814 46.1629 71.063 46.7173 70.4418 48.1983C70.0877 49.0819 70.7097 49.7314 72.3092 49.368C73.275 49.096 74.0024 48.6078 74.5329 47.9052ZM75.4946 45.6979C72.0784 45.433 68.2945 46.4203 67.4553 48.3515C66.48 50.8904 71.0424 51.2055 73.904 49.3503L73.5006 50.2774H76.5582L78.7171 44.4447C80.3142 41.0614 74.8285 41.205 72.3334 42.0013C71.0954 42.3964 70.07 43.0925 69.3151 44.1697H72.7279C73.2338 41.913 77.0487 41.7395 76.3969 43.6238L75.4946 45.6979Z" fill="#0038A8"/>
<path d="M46.9662 52.4875H47.979L47.1976 54.5163H49.0423L49.821 52.4875H50.8377L48.7665 57.8647H47.7572L48.6944 55.4229H46.8485L45.9078 57.8647H44.9023L46.9662 52.4875Z" fill="#70706F"/>
<path d="M59.0546 52.3523C59.7929 52.3523 60.3435 52.5899 60.7061 53.0652C61.0686 53.5404 61.1596 54.1434 60.9791 54.8746C60.8405 55.4352 60.5678 55.9633 60.1615 56.4593C59.7549 56.9552 59.2832 57.3359 58.7459 57.6015C58.2087 57.8673 57.6343 58 57.0225 58C56.2574 58 55.7023 57.7734 55.3575 57.3201C55.0126 56.8669 54.9317 56.2698 55.1148 55.529C55.3225 54.6882 55.7741 53.9657 56.4694 53.3612C57.2448 52.6887 58.1065 52.3523 59.0546 52.3523ZM58.7822 53.3064C58.397 53.3064 58.0226 53.3996 57.6586 53.5861C57.2944 53.7725 56.9716 54.0406 56.6901 54.3902C56.4087 54.74 56.2221 55.1012 56.1299 55.474C56.0208 55.9152 56.0637 56.2893 56.2583 56.5962C56.4528 56.9034 56.8035 57.057 57.3105 57.057C57.8978 57.057 58.4479 56.8498 58.961 56.4356C59.474 56.0212 59.8038 55.518 59.9501 54.9258C60.0712 54.4359 60.0237 54.0436 59.8079 53.7488C59.5919 53.4538 59.2502 53.3064 58.7822 53.3064Z" fill="#70706F"/>
<path d="M67.715 52.4875H68.6304L68.6165 56.2344L71.4014 52.4875H72.2714L71.0154 57.8647H70.0724L70.8236 54.6479L68.4326 57.8647H67.6618L67.6775 54.4871L65.9845 57.8647H65.0195L67.715 52.4875Z" fill="#70706F"/>
<path d="M78.4999 52.4875H81.3912L81.0316 53.4417H79.1554L78.7264 54.553H80.6127L80.2558 55.4996H78.3611L77.8109 56.9253H79.7181L79.3641 57.8647H76.436L78.4999 52.4875Z" fill="#70706F"/>
<path fill-rule="evenodd" clip-rule="evenodd" d="M25.8274 17.8414L26.4379 34.5514L28.3796 32.6254L25.8274 17.8414Z" fill="#0038A8"/>
<path fill-rule="evenodd" clip-rule="evenodd" d="M9.43262 38.9953L23.4111 29.8567L26.0914 30.355L9.43262 38.9953Z" fill="#0038A8"/>
<path fill-rule="evenodd" clip-rule="evenodd" d="M39.8674 39.8175L22.6545 34.4455L21.8855 32.458L39.8674 39.8175Z" fill="#0038A8"/>
<path fill-rule="evenodd" clip-rule="evenodd" d="M24.8561 31.6777L25.7838 32.0836L25.8609 32.7704L25.0487 33.2382L24.1599 32.8638L24.0828 32.1459L24.8561 31.6777Z" fill="#0038A8"/>
<path fill-rule="evenodd" clip-rule="evenodd" d="M22.7786 35.2253L24.7134 35.8546L18.872 50.4488H15.6206L22.7786 35.2253Z" fill="#0038A8"/>
<path d="M19.6525 34.6418L9.19531 40.0658H19.1067C19.0981 38.2751 19.2724 36.4598 19.6525 34.6418Z" fill="#FF9E18"/>
<path d="M25.1861 23.3345L24.9531 16.9539L19.8211 14.915L22.3943 21.395L10.2761 19.9695L17.5593 29.7677L10.6788 30.7905L15.1002 34.2848L20.9068 30.4886C21.9587 27.8321 23.4143 25.4301 25.1861 23.3345Z" fill="#FF9E18"/>
<path d="M73.5637 35.1009L79.0177 30.7905L72.137 29.7677L79.4204 19.9695L67.3021 21.395L69.8437 14.915L63.3977 17.4885L64.7924 5.36377L54.9996 12.6512L54.0074 5.76759L49.6685 11.2247L44.8335 0L39.9984 11.2247L35.6913 5.76759L34.6674 12.6512L24.8745 5.36377L25.6145 11.6625L27.2538 21.1602C28.692 19.8127 30.2737 18.6311 31.9711 17.6431C37.6733 14.3566 44.6469 13.2405 51.4957 15.0699C58.3761 16.9299 63.8322 21.3644 67.1177 27.0694C69.3771 30.9585 70.6118 35.438 70.5823 40.0658H84.456L84.7514 39.938L73.5637 35.1009Z" fill="#FF9E18"/>
</svg>
