<svg width="29" height="29" viewBox="0 0 29 29" fill="none" xmlns="http://www.w3.org/2000/svg">
<path d="M14.2558 0C6.39539 0 0.0232544 6.37214 0.0232544 14.2326C0.0232544 22.093 6.39539 28.4651 14.2558 28.4651C22.1162 28.4651 28.4884 22.093 28.4884 14.2326C28.4884 6.37214 22.1162 0 14.2558 0ZM23.1186 16.73C23.1186 18.7517 21.4645 20.4058 19.4429 20.4058H9.06877C7.0471 20.4058 5.39301 18.7517 5.39301 16.73V11.7351C5.39301 9.71343 7.0471 8.05933 9.06877 8.05933H19.4429C21.4645 8.05933 23.1186 9.71343 23.1186 11.7351V16.73Z" fill="#FF9E18"/>
<path d="M16.8346 14.0205L12.822 11.6996C12.6624 11.6073 12.4628 11.7225 12.4628 11.9069V16.44C12.4628 16.6222 12.6582 16.7377 12.8177 16.6497L16.8304 14.4373C16.9935 14.3474 16.9959 14.1137 16.8346 14.0205Z" fill="#FF9E18"/>
</svg>
