<svg width="431" height="68" viewBox="0 0 431 68" fill="none" xmlns="http://www.w3.org/2000/svg">
<rect x="431" y="68" width="431" height="68" transform="rotate(-180 431 68)" fill="url(#paint0_linear_296_264)"/>
<path d="M45.905 47.2195V22.7195H56.51C58.7033 22.7195 60.5933 23.0811 62.18 23.8045C63.7667 24.5045 64.9917 25.5195 65.855 26.8495C66.7183 28.1795 67.15 29.7661 67.15 31.6095C67.15 33.4295 66.7183 35.0045 65.855 36.3345C64.9917 37.6411 63.7667 38.6445 62.18 39.3445C60.5933 40.0445 58.7033 40.3945 56.51 40.3945H49.055L51.575 37.9095V47.2195H45.905ZM61.48 47.2195L55.355 38.3295H61.41L67.605 47.2195H61.48ZM51.575 38.5395L49.055 35.8795H56.195C57.945 35.8795 59.2517 35.5061 60.115 34.7595C60.9783 33.9895 61.41 32.9395 61.41 31.6095C61.41 30.2561 60.9783 29.2061 60.115 28.4595C59.2517 27.7128 57.945 27.3395 56.195 27.3395H49.055L51.575 24.6445V38.5395ZM80.6023 47.4995C78.4556 47.4995 76.5656 47.0795 74.9323 46.2395C73.3223 45.3995 72.074 44.2561 71.1873 42.8095C70.3006 41.3395 69.8573 39.6711 69.8573 37.8045C69.8573 35.9145 70.289 34.2461 71.1523 32.7995C72.039 31.3295 73.2406 30.1861 74.7573 29.3695C76.274 28.5295 77.989 28.1095 79.9023 28.1095C81.7456 28.1095 83.4023 28.5061 84.8723 29.2995C86.3656 30.0695 87.544 31.1895 88.4073 32.6595C89.2706 34.1061 89.7023 35.8445 89.7023 37.8745C89.7023 38.0845 89.6906 38.3295 89.6673 38.6095C89.644 38.8661 89.6206 39.1111 89.5973 39.3445H74.3023V36.1595H86.7273L84.6273 37.1045C84.6273 36.1245 84.429 35.2728 84.0323 34.5495C83.6356 33.8261 83.0873 33.2661 82.3873 32.8695C81.6873 32.4495 80.8706 32.2395 79.9373 32.2395C79.004 32.2395 78.1756 32.4495 77.4523 32.8695C76.7523 33.2661 76.204 33.8378 75.8073 34.5845C75.4106 35.3078 75.2123 36.1711 75.2123 37.1745V38.0145C75.2123 39.0411 75.434 39.9511 75.8773 40.7445C76.344 41.5145 76.9856 42.1095 77.8023 42.5295C78.6423 42.9261 79.6223 43.1245 80.7423 43.1245C81.7456 43.1245 82.6206 42.9728 83.3673 42.6695C84.1373 42.3661 84.8373 41.9111 85.4673 41.3045L88.3723 44.4545C87.509 45.4345 86.424 46.1928 85.1173 46.7295C83.8106 47.2428 82.3056 47.4995 80.6023 47.4995ZM102.192 54.2895C100.419 54.2895 98.704 54.0678 97.0474 53.6245C95.414 53.2045 94.049 52.5628 92.9524 51.6995L95.1224 47.7795C95.9157 48.4328 96.919 48.9461 98.1324 49.3195C99.3691 49.7161 100.582 49.9145 101.772 49.9145C103.709 49.9145 105.109 49.4828 105.972 48.6195C106.859 47.7561 107.302 46.4728 107.302 44.7695V41.9345L107.652 37.2095L107.582 32.4495V28.3895H112.762V44.0695C112.762 47.5695 111.852 50.1478 110.032 51.8045C108.212 53.4611 105.599 54.2895 102.192 54.2895ZM101.352 46.3095C99.6024 46.3095 98.0157 45.9361 96.5924 45.1895C95.1924 44.4195 94.0607 43.3578 93.1974 42.0045C92.3574 40.6278 91.9374 39.0295 91.9374 37.2095C91.9374 35.3661 92.3574 33.7678 93.1974 32.4145C94.0607 31.0378 95.1924 29.9761 96.5924 29.2295C98.0157 28.4828 99.6024 28.1095 101.352 28.1095C102.939 28.1095 104.339 28.4361 105.552 29.0895C106.766 29.7195 107.711 30.7111 108.387 32.0645C109.064 33.3945 109.402 35.1095 109.402 37.2095C109.402 39.2861 109.064 41.0011 108.387 42.3545C107.711 43.6845 106.766 44.6761 105.552 45.3295C104.339 45.9828 102.939 46.3095 101.352 46.3095ZM102.437 41.8295C103.394 41.8295 104.246 41.6428 104.992 41.2695C105.739 40.8728 106.322 40.3245 106.742 39.6245C107.162 38.9245 107.372 38.1195 107.372 37.2095C107.372 36.2761 107.162 35.4711 106.742 34.7945C106.322 34.0945 105.739 33.5578 104.992 33.1845C104.246 32.7878 103.394 32.5895 102.437 32.5895C101.481 32.5895 100.629 32.7878 99.8824 33.1845C99.1357 33.5578 98.5407 34.0945 98.0974 34.7945C97.6774 35.4711 97.4674 36.2761 97.4674 37.2095C97.4674 38.1195 97.6774 38.9245 98.0974 39.6245C98.5407 40.3245 99.1357 40.8728 99.8824 41.2695C100.629 41.6428 101.481 41.8295 102.437 41.8295ZM117.844 47.2195V28.3895H123.304V47.2195H117.844ZM117.389 25.9745L122.114 20.9345H127.994L121.659 25.9745H117.389ZM134.707 47.4995C133.097 47.4995 131.545 47.3128 130.052 46.9395C128.582 46.5428 127.415 46.0528 126.552 45.4695L128.372 41.5495C129.235 42.0861 130.25 42.5295 131.417 42.8795C132.607 43.2061 133.773 43.3695 134.917 43.3695C136.177 43.3695 137.063 43.2178 137.577 42.9145C138.113 42.6111 138.382 42.1911 138.382 41.6545C138.382 41.2111 138.172 40.8845 137.752 40.6745C137.355 40.4411 136.818 40.2661 136.142 40.1495C135.465 40.0328 134.718 39.9161 133.902 39.7995C133.108 39.6828 132.303 39.5311 131.487 39.3445C130.67 39.1345 129.923 38.8311 129.247 38.4345C128.57 38.0378 128.022 37.5011 127.602 36.8245C127.205 36.1478 127.007 35.2728 127.007 34.1995C127.007 33.0095 127.345 31.9595 128.022 31.0495C128.722 30.1395 129.725 29.4278 131.032 28.9145C132.338 28.3778 133.902 28.1095 135.722 28.1095C137.005 28.1095 138.312 28.2495 139.642 28.5295C140.972 28.8095 142.08 29.2178 142.967 29.7545L141.147 33.6395C140.237 33.1028 139.315 32.7411 138.382 32.5545C137.472 32.3445 136.585 32.2395 135.722 32.2395C134.508 32.2395 133.622 32.4028 133.062 32.7295C132.502 33.0561 132.222 33.4761 132.222 33.9895C132.222 34.4561 132.42 34.8061 132.817 35.0395C133.237 35.2728 133.785 35.4595 134.462 35.5995C135.138 35.7395 135.873 35.8678 136.667 35.9845C137.483 36.0778 138.3 36.2295 139.117 36.4395C139.933 36.6495 140.668 36.9528 141.322 37.3495C141.998 37.7228 142.547 38.2478 142.967 38.9245C143.387 39.5778 143.597 40.4411 143.597 41.5145C143.597 42.6811 143.247 43.7195 142.547 44.6295C141.847 45.5161 140.832 46.2161 139.502 46.7295C138.195 47.2428 136.597 47.4995 134.707 47.4995ZM154.665 47.4995C152.449 47.4995 150.722 46.9395 149.485 45.8195C148.249 44.6761 147.63 42.9845 147.63 40.7445V24.2245H153.09V40.6745C153.09 41.4678 153.3 42.0861 153.72 42.5295C154.14 42.9495 154.712 43.1595 155.435 43.1595C156.299 43.1595 157.034 42.9261 157.64 42.4595L159.11 46.3095C158.55 46.7061 157.874 47.0095 157.08 47.2195C156.31 47.4061 155.505 47.4995 154.665 47.4995ZM144.725 33.0095V28.8095H157.78V33.0095H144.725ZM162.175 47.2195V28.3895H167.39V33.7095L166.655 32.1695C167.215 30.8395 168.114 29.8361 169.35 29.1595C170.587 28.4595 172.092 28.1095 173.865 28.1095V33.1495C173.632 33.1261 173.422 33.1145 173.235 33.1145C173.049 33.0911 172.85 33.0795 172.64 33.0795C171.147 33.0795 169.934 33.5111 169 34.3745C168.09 35.2145 167.635 36.5328 167.635 38.3295V47.2195H162.175ZM187.431 47.2195V43.5445L187.081 42.7395V36.1595C187.081 34.9928 186.72 34.0828 185.996 33.4295C185.296 32.7761 184.211 32.4495 182.741 32.4495C181.738 32.4495 180.746 32.6128 179.766 32.9395C178.81 33.2428 177.993 33.6628 177.316 34.1995L175.356 30.3845C176.383 29.6611 177.62 29.1011 179.066 28.7045C180.513 28.3078 181.983 28.1095 183.476 28.1095C186.346 28.1095 188.575 28.7861 190.161 30.1395C191.748 31.4928 192.541 33.6045 192.541 36.4745V47.2195H187.431ZM181.691 47.4995C180.221 47.4995 178.961 47.2545 177.911 46.7645C176.861 46.2511 176.056 45.5628 175.496 44.6995C174.936 43.8361 174.656 42.8678 174.656 41.7945C174.656 40.6745 174.925 39.6945 175.461 38.8545C176.021 38.0145 176.896 37.3611 178.086 36.8945C179.276 36.4045 180.828 36.1595 182.741 36.1595H187.746V39.3445H183.336C182.053 39.3445 181.166 39.5545 180.676 39.9745C180.21 40.3945 179.976 40.9195 179.976 41.5495C179.976 42.2495 180.245 42.8095 180.781 43.2295C181.341 43.6261 182.1 43.8245 183.056 43.8245C183.966 43.8245 184.783 43.6145 185.506 43.1945C186.23 42.7511 186.755 42.1095 187.081 41.2695L187.921 43.7895C187.525 45.0028 186.801 45.9245 185.751 46.5545C184.701 47.1845 183.348 47.4995 181.691 47.4995ZM205.183 47.4995C202.966 47.4995 201.24 46.9395 200.003 45.8195C198.766 44.6761 198.148 42.9845 198.148 40.7445V24.2245H203.608V40.6745C203.608 41.4678 203.818 42.0861 204.238 42.5295C204.658 42.9495 205.23 43.1595 205.953 43.1595C206.816 43.1595 207.551 42.9261 208.158 42.4595L209.628 46.3095C209.068 46.7061 208.391 47.0095 207.598 47.2195C206.828 47.4061 206.023 47.4995 205.183 47.4995ZM195.243 33.0095V28.8095H208.298V33.0095H195.243ZM221.457 47.4995C219.31 47.4995 217.42 47.0795 215.787 46.2395C214.177 45.3995 212.928 44.2561 212.042 42.8095C211.155 41.3395 210.712 39.6711 210.712 37.8045C210.712 35.9145 211.143 34.2461 212.007 32.7995C212.893 31.3295 214.095 30.1861 215.612 29.3695C217.128 28.5295 218.843 28.1095 220.757 28.1095C222.6 28.1095 224.257 28.5061 225.727 29.2995C227.22 30.0695 228.398 31.1895 229.262 32.6595C230.125 34.1061 230.557 35.8445 230.557 37.8745C230.557 38.0845 230.545 38.3295 230.522 38.6095C230.498 38.8661 230.475 39.1111 230.452 39.3445H215.157V36.1595H227.582L225.482 37.1045C225.482 36.1245 225.283 35.2728 224.887 34.5495C224.49 33.8261 223.942 33.2661 223.242 32.8695C222.542 32.4495 221.725 32.2395 220.792 32.2395C219.858 32.2395 219.03 32.4495 218.307 32.8695C217.607 33.2661 217.058 33.8378 216.662 34.5845C216.265 35.3078 216.067 36.1711 216.067 37.1745V38.0145C216.067 39.0411 216.288 39.9511 216.732 40.7445C217.198 41.5145 217.84 42.1095 218.657 42.5295C219.497 42.9261 220.477 43.1245 221.597 43.1245C222.6 43.1245 223.475 42.9728 224.222 42.6695C224.992 42.3661 225.692 41.9111 226.322 41.3045L229.227 44.4545C228.363 45.4345 227.278 46.1928 225.972 46.7295C224.665 47.2428 223.16 47.4995 221.457 47.4995ZM255.654 47.2195V43.5445L255.304 42.7395V36.1595C255.304 34.9928 254.942 34.0828 254.219 33.4295C253.519 32.7761 252.434 32.4495 250.964 32.4495C249.961 32.4495 248.969 32.6128 247.989 32.9395C247.032 33.2428 246.216 33.6628 245.539 34.1995L243.579 30.3845C244.606 29.6611 245.842 29.1011 247.289 28.7045C248.736 28.3078 250.206 28.1095 251.699 28.1095C254.569 28.1095 256.797 28.7861 258.384 30.1395C259.971 31.4928 260.764 33.6045 260.764 36.4745V47.2195H255.654ZM249.914 47.4995C248.444 47.4995 247.184 47.2545 246.134 46.7645C245.084 46.2511 244.279 45.5628 243.719 44.6995C243.159 43.8361 242.879 42.8678 242.879 41.7945C242.879 40.6745 243.147 39.6945 243.684 38.8545C244.244 38.0145 245.119 37.3611 246.309 36.8945C247.499 36.4045 249.051 36.1595 250.964 36.1595H255.969V39.3445H251.559C250.276 39.3445 249.389 39.5545 248.899 39.9745C248.432 40.3945 248.199 40.9195 248.199 41.5495C248.199 42.2495 248.467 42.8095 249.004 43.2295C249.564 43.6261 250.322 43.8245 251.279 43.8245C252.189 43.8245 253.006 43.6145 253.729 43.1945C254.452 42.7511 254.977 42.1095 255.304 41.2695L256.144 43.7895C255.747 45.0028 255.024 45.9245 253.974 46.5545C252.924 47.1845 251.571 47.4995 249.914 47.4995ZM277.151 28.1095C278.644 28.1095 279.974 28.4128 281.141 29.0195C282.331 29.6028 283.264 30.5128 283.941 31.7495C284.617 32.9628 284.956 34.5261 284.956 36.4395V47.2195H279.496V37.2795C279.496 35.7628 279.157 34.6428 278.481 33.9195C277.827 33.1961 276.894 32.8345 275.681 32.8345C274.817 32.8345 274.036 33.0211 273.336 33.3945C272.659 33.7445 272.122 34.2928 271.726 35.0395C271.352 35.7861 271.166 36.7428 271.166 37.9095V47.2195H265.706V21.2495H271.166V33.6045L269.941 32.0295C270.617 30.7695 271.586 29.8011 272.846 29.1245C274.106 28.4478 275.541 28.1095 277.151 28.1095ZM299.001 47.4995C296.995 47.4995 295.21 47.0795 293.646 46.2395C292.106 45.3995 290.881 44.2561 289.971 42.8095C289.085 41.3395 288.641 39.6711 288.641 37.8045C288.641 35.9145 289.085 34.2461 289.971 32.7995C290.881 31.3295 292.106 30.1861 293.646 29.3695C295.21 28.5295 296.995 28.1095 299.001 28.1095C300.985 28.1095 302.758 28.5295 304.321 29.3695C305.885 30.1861 307.11 31.3178 307.996 32.7645C308.883 34.2111 309.326 35.8911 309.326 37.8045C309.326 39.6711 308.883 41.3395 307.996 42.8095C307.11 44.2561 305.885 45.3995 304.321 46.2395C302.758 47.0795 300.985 47.4995 299.001 47.4995ZM299.001 43.0195C299.911 43.0195 300.728 42.8095 301.451 42.3895C302.175 41.9695 302.746 41.3745 303.166 40.6045C303.586 39.8111 303.796 38.8778 303.796 37.8045C303.796 36.7078 303.586 35.7745 303.166 35.0045C302.746 34.2345 302.175 33.6395 301.451 33.2195C300.728 32.7995 299.911 32.5895 299.001 32.5895C298.091 32.5895 297.275 32.7995 296.551 33.2195C295.828 33.6395 295.245 34.2345 294.801 35.0045C294.381 35.7745 294.171 36.7078 294.171 37.8045C294.171 38.8778 294.381 39.8111 294.801 40.6045C295.245 41.3745 295.828 41.9695 296.551 42.3895C297.275 42.8095 298.091 43.0195 299.001 43.0195ZM312.976 47.2195V28.3895H318.191V33.7095L317.456 32.1695C318.016 30.8395 318.914 29.8361 320.151 29.1595C321.388 28.4595 322.893 28.1095 324.666 28.1095V33.1495C324.433 33.1261 324.223 33.1145 324.036 33.1145C323.849 33.0911 323.651 33.0795 323.441 33.0795C321.948 33.0795 320.734 33.5111 319.801 34.3745C318.891 35.2145 318.436 36.5328 318.436 38.3295V47.2195H312.976ZM338.232 47.2195V43.5445L337.882 42.7395V36.1595C337.882 34.9928 337.52 34.0828 336.797 33.4295C336.097 32.7761 335.012 32.4495 333.542 32.4495C332.539 32.4495 331.547 32.6128 330.567 32.9395C329.61 33.2428 328.794 33.6628 328.117 34.1995L326.157 30.3845C327.184 29.6611 328.42 29.1011 329.867 28.7045C331.314 28.3078 332.784 28.1095 334.277 28.1095C337.147 28.1095 339.375 28.7861 340.962 30.1395C342.549 31.4928 343.342 33.6045 343.342 36.4745V47.2195H338.232ZM332.492 47.4995C331.022 47.4995 329.762 47.2545 328.712 46.7645C327.662 46.2511 326.857 45.5628 326.297 44.6995C325.737 43.8361 325.457 42.8678 325.457 41.7945C325.457 40.6745 325.725 39.6945 326.262 38.8545C326.822 38.0145 327.697 37.3611 328.887 36.8945C330.077 36.4045 331.629 36.1595 333.542 36.1595H338.547V39.3445H334.137C332.854 39.3445 331.967 39.5545 331.477 39.9745C331.01 40.3945 330.777 40.9195 330.777 41.5495C330.777 42.2495 331.045 42.8095 331.582 43.2295C332.142 43.6261 332.9 43.8245 333.857 43.8245C334.767 43.8245 335.584 43.6145 336.307 43.1945C337.03 42.7511 337.555 42.1095 337.882 41.2695L338.722 43.7895C338.325 45.0028 337.602 45.9245 336.552 46.5545C335.502 47.1845 334.149 47.4995 332.492 47.4995Z" fill="white"/>
<path d="M367.049 19.0974L381.951 35.1462L367.049 51.195" stroke="#FAFAFA" stroke-opacity="0.5" stroke-width="2" stroke-linecap="round"/>
<path d="M379.659 16.8049L396.854 35.1464L379.659 53.4879" stroke="#FAFAFA" stroke-opacity="0.7" stroke-width="2" stroke-linecap="round"/>
<defs>
<linearGradient id="paint0_linear_296_264" x1="431" y1="102" x2="862" y2="102" gradientUnits="userSpaceOnUse">
<stop stop-color="#FF9E18" stop-opacity="0.7"/>
<stop offset="0.5" stop-color="#F89B24" stop-opacity="0.3"/>
<stop offset="1" stop-color="#FF9E18" stop-opacity="0.7"/>
</linearGradient>
</defs>
</svg>
