<svg width="1512" height="397" viewBox="0 0 1512 397" fill="none" xmlns="http://www.w3.org/2000/svg">
<rect x="-3" y="297" width="1515" height="101" fill="white"/>
<path d="M-48.7837 328.493C-67.6809 328.493 -83 343.829 -83 362.747C-83 381.664 -67.6809 397 -48.7837 397L506.784 397C525.681 397 541 381.664 541 362.747C541 343.829 525.681 328.493 506.784 328.493L-48.7837 328.493Z" fill="url(#paint0_linear_121_605)"/>
<path d="M-32.5697 306.377C-48.119 306.377 -60.7241 318.996 -60.7241 334.562C-60.7241 350.128 -48.119 362.747 -32.5697 362.747L411.49 362.747C427.039 362.747 439.644 350.128 439.644 334.562C439.644 318.996 427.039 306.377 411.49 306.377H-32.5697Z" stroke="url(#paint1_linear_121_605)" stroke-width="3" stroke-miterlimit="10"/>
<g clip-path="url(#clip0_121_605)">
<path style="mix-blend-mode:multiply" opacity="0.75" d="M1771.66 0.0534564L1104.99 396.366L1501.31 1063.04L2167.98 666.724L1771.66 0.0534564Z" fill="url(#paint2_linear_121_605)"/>
</g>
<defs>
<linearGradient id="paint0_linear_121_605" x1="-83" y1="362.747" x2="541" y2="362.747" gradientUnits="userSpaceOnUse">
<stop stop-color="#1D429B"/>
<stop offset="0.27" stop-color="#1D429B" stop-opacity="0.9216"/>
<stop offset="0.62" stop-color="#1D429B" stop-opacity="0.7396"/>
<stop offset="1" stop-color="#1D429B" stop-opacity="0.7"/>
</linearGradient>
<linearGradient id="paint1_linear_121_605" x1="-2.63623" y1="445.584" x2="381.773" y2="223.89" gradientUnits="userSpaceOnUse">
<stop stop-color="#F89B24"/>
<stop offset="0.12" stop-color="#F89B24" stop-opacity="0.9604"/>
<stop offset="0.28" stop-color="#F89B24" stop-opacity="0.8281"/>
<stop offset="0.45" stop-color="#F89B24" stop-opacity="0.6561"/>
<stop offset="0.64" stop-color="#F89B24" stop-opacity="0.4356"/>
<stop offset="0.84" stop-color="#F89B24" stop-opacity="0.2304"/>
<stop offset="1" stop-color="#F89B24" stop-opacity="0.3"/>
</linearGradient>
<linearGradient id="paint2_linear_121_605" x1="2167.98" y1="666.723" x2="1105" y2="396.365" gradientUnits="userSpaceOnUse">
<stop stop-color="#C4C4C4"/>
<stop offset="0.1" stop-color="#CACACA"/>
<stop offset="0.69" stop-color="#F0F0F0"/>
<stop offset="1" stop-color="white"/>
</linearGradient>
<clipPath id="clip0_121_605">
<rect width="1063" height="1063" fill="white" transform="translate(1105)"/>
</clipPath>
</defs>
</svg>
