<svg width="1980" height="1651" viewBox="0 0 1980 1651" fill="none" xmlns="http://www.w3.org/2000/svg">
<path d="M1814.12 633.34H2694.55L2730.73 192.93H1865.38L1814.12 633.34Z" stroke="#FF9E18" stroke-width="6" stroke-miterlimit="10"/>
<path d="M1671.86 440.9H2552.29L2588.48 0.48999H1723.12L1671.86 440.9Z" fill="#FF9E18"/>
<path d="M190.62 633.34H-689.82L-726 192.93H139.36L190.62 633.34Z" stroke="#FF9E18" stroke-width="6" stroke-miterlimit="10"/>
<path d="M332.882 440.9H-547.558L-583.738 0.48999H281.622L332.882 440.9Z" fill="#FF9E18"/>
<g opacity="0.66">
<path d="M24.3791 1017.42L-59.2109 1146.87H-27.2209L-10.3109 1119.13H49.9091L55.9891 1146.87H85.9491L54.1391 1017.42H24.3691H24.3791ZM3.55906 1096.38L33.9791 1046.48L44.9191 1096.38H3.55906Z" stroke="#0038A8" stroke-miterlimit="10"/>
<path d="M155.491 1017.42H125.351L99.4609 1146.87H194.331L199.321 1122.46H134.411L155.491 1017.42Z" stroke="#0038A8" stroke-miterlimit="10"/>
<path d="M311.938 1092.87L316.568 1069.57H256.388L262.008 1041.46H329.878L334.868 1017.42H237.038L211.148 1146.87H311.388L316.378 1122.83H245.738L251.728 1092.87H311.938Z" stroke="#0038A8" stroke-miterlimit="10"/>
<path d="M439.18 1017.42L401.52 1059.02L379.81 1017.42H347.82L381.34 1079.77L319.34 1146.87H355.22L394.41 1102.8L417.35 1146.87H449.72L414.14 1081.65L473.2 1017.42H439.18Z" stroke="#0038A8" stroke-miterlimit="10"/>
<path d="M639.64 1086.12C644.69 1078.05 647.22 1068.58 647.22 1057.73C647.22 1045.03 642.81 1035.14 634 1028.05C625.18 1020.96 612.7 1017.42 596.55 1017.42H544.21L518.32 1146.87H548.46L555.55 1111.18H584.34C597.29 1111.18 608.47 1109.02 617.91 1104.71C627.34 1100.4 634.58 1094.2 639.64 1086.12ZM608.66 1080.02C603.17 1084.52 595.5 1086.77 585.64 1086.77H560.39L569.4 1041.83H592.86C600.5 1041.83 606.42 1043.34 610.61 1046.36C614.8 1049.38 616.9 1054.03 616.9 1060.32C616.9 1068.95 614.16 1075.52 608.67 1080.02H608.66Z" stroke="#0038A8" stroke-miterlimit="10"/>
<path d="M711.949 1017.42L628.359 1146.87H660.349L677.259 1119.13H737.479L743.559 1146.87H773.519L741.709 1017.42H711.939H711.949ZM691.129 1096.38L721.549 1046.48L732.489 1096.38H691.129Z" stroke="#0038A8" stroke-miterlimit="10"/>
<path d="M903.077 1027.96C894.257 1020.93 881.777 1017.42 865.627 1017.42H812.917L787.027 1146.87H817.167L824.367 1110.62H849.837L870.247 1146.87H901.867L879.277 1107.02C881.897 1106.2 884.397 1105.25 886.797 1104.15C896.227 1099.84 903.497 1093.7 908.617 1085.75C913.727 1077.8 916.287 1068.4 916.287 1057.55C916.287 1044.85 911.877 1034.99 903.067 1027.96H903.077ZM877.737 1080.02C872.247 1084.52 864.517 1086.77 854.527 1086.77H829.087L838.097 1041.83H861.737C869.377 1041.83 875.327 1043.34 879.587 1046.36C883.837 1049.38 885.967 1054.03 885.967 1060.32C885.967 1068.95 883.227 1075.52 877.737 1080.02Z" stroke="#0038A8" stroke-miterlimit="10"/>
<path d="M1023.74 1092.87L1028.36 1069.57H968.189L973.809 1041.46H1041.68L1046.67 1017.42H948.839L922.949 1146.87H1023.19L1028.18 1122.83H957.529L963.529 1092.87H1023.74Z" stroke="#0038A8" stroke-miterlimit="10"/>
<path d="M1139.14 1081.59C1135.32 1079.12 1131.12 1077.09 1126.56 1075.49C1122 1073.89 1117.44 1072.47 1112.88 1071.24C1108.32 1070.01 1104.12 1068.74 1100.3 1067.45C1096.48 1066.15 1093.43 1064.55 1091.15 1062.64C1088.87 1060.73 1087.73 1058.23 1087.73 1055.15C1087.73 1052.07 1088.81 1049.33 1090.97 1046.92C1093.13 1044.52 1096.27 1042.64 1100.4 1041.28C1104.53 1039.92 1109.49 1039.25 1115.29 1039.25C1121.7 1039.25 1127.93 1040.08 1133.97 1041.75C1140.01 1043.41 1145.5 1045.91 1150.43 1049.24L1161.71 1026.31C1156.16 1022.74 1149.5 1019.99 1141.74 1018.08C1133.97 1016.17 1125.71 1015.21 1116.96 1015.21C1105 1015.21 1094.58 1017.03 1085.71 1020.67C1076.83 1024.31 1069.96 1029.39 1065.09 1035.93C1060.22 1042.47 1057.79 1050.17 1057.79 1059.05C1057.79 1064.97 1058.96 1069.9 1061.3 1073.85C1063.64 1077.8 1066.69 1081.03 1070.45 1083.56C1074.21 1086.09 1078.4 1088.18 1083.03 1089.85C1087.65 1091.51 1092.24 1092.96 1096.81 1094.2C1101.37 1095.43 1105.53 1096.7 1109.29 1097.99C1113.05 1099.29 1116.1 1100.86 1118.44 1102.71C1120.78 1104.56 1121.95 1106.96 1121.95 1109.92C1121.95 1113.13 1120.87 1115.84 1118.71 1118.06C1116.55 1120.28 1113.47 1122.01 1109.46 1123.24C1105.45 1124.48 1100.68 1125.09 1095.13 1125.09C1090.07 1125.09 1085.02 1124.57 1079.97 1123.52C1074.91 1122.47 1070.08 1120.93 1065.45 1118.9C1060.83 1116.87 1056.48 1114.43 1052.41 1111.6L1040.2 1134.72C1043.9 1137.31 1048.43 1139.71 1053.79 1141.93C1059.15 1144.15 1065.13 1145.9 1071.73 1147.2C1078.32 1148.49 1085.14 1149.14 1092.16 1149.14C1104.24 1149.14 1114.75 1147.32 1123.69 1143.68C1132.63 1140.05 1139.56 1134.93 1144.5 1128.33C1149.43 1121.74 1151.9 1114 1151.9 1105.12C1151.9 1099.45 1150.73 1094.73 1148.39 1090.97C1146.05 1087.21 1142.96 1084.1 1139.14 1081.63V1081.59Z" stroke="#0038A8" stroke-miterlimit="10"/>
</g>
<g opacity="0.88">
<path d="M24.3791 1178.6L-59.2109 1308.05H-27.2209L-10.3109 1280.31H49.9091L55.9891 1308.05H85.9491L54.1391 1178.6H24.3691H24.3791ZM3.55906 1257.57L33.9791 1207.67L44.9191 1257.57H3.55906Z" stroke="#0038A8" stroke-miterlimit="10"/>
<path d="M155.491 1178.6H125.351L99.4609 1308.06H194.331L199.321 1283.65H134.411L155.491 1178.6Z" stroke="#0038A8" stroke-miterlimit="10"/>
<path d="M311.938 1254.06L316.568 1230.75H256.388L262.008 1202.64H329.878L334.868 1178.6H237.038L211.148 1308.06H311.388L316.378 1284.02H245.738L251.728 1254.06H311.938Z" stroke="#0038A8" stroke-miterlimit="10"/>
<path d="M439.18 1178.6L401.52 1220.21L379.81 1178.6H347.82L381.34 1240.95L319.34 1308.06H355.22L394.41 1263.98L417.35 1308.06H449.72L414.14 1242.84L473.2 1178.6H439.18Z" stroke="#0038A8" stroke-miterlimit="10"/>
<path d="M639.64 1247.31C644.69 1239.24 647.22 1229.77 647.22 1218.92C647.22 1206.22 642.81 1196.33 634 1189.24C625.18 1182.15 612.7 1178.61 596.55 1178.61H544.21L518.32 1308.06H548.46L555.55 1272.37H584.34C597.29 1272.37 608.47 1270.21 617.91 1265.9C627.34 1261.59 634.58 1255.39 639.64 1247.31ZM608.66 1241.2C603.17 1245.7 595.5 1247.95 585.64 1247.95H560.39L569.4 1203.01H592.86C600.5 1203.01 606.42 1204.52 610.61 1207.54C614.8 1210.56 616.9 1215.21 616.9 1221.5C616.9 1230.13 614.16 1236.7 608.67 1241.2H608.66Z" stroke="#0038A8" stroke-miterlimit="10"/>
<path d="M711.949 1178.6L628.359 1308.05H660.349L677.259 1280.31H737.479L743.559 1308.05H773.519L741.709 1178.6H711.939H711.949ZM691.129 1257.57L721.549 1207.67L732.489 1257.57H691.129Z" stroke="#0038A8" stroke-miterlimit="10"/>
<path d="M903.077 1189.14C894.257 1182.11 881.777 1178.6 865.627 1178.6H812.917L787.027 1308.05H817.167L824.367 1271.8H849.837L870.247 1308.05H901.867L879.277 1268.2C881.897 1267.38 884.397 1266.43 886.797 1265.33C896.227 1261.02 903.497 1254.88 908.617 1246.93C913.727 1238.98 916.287 1229.58 916.287 1218.73C916.287 1206.03 911.877 1196.17 903.067 1189.14H903.077ZM877.737 1241.2C872.247 1245.7 864.517 1247.95 854.527 1247.95H829.087L838.097 1203.01H861.737C869.377 1203.01 875.327 1204.52 879.587 1207.54C883.837 1210.56 885.967 1215.21 885.967 1221.5C885.967 1230.13 883.227 1236.7 877.737 1241.2Z" stroke="#0038A8" stroke-miterlimit="10"/>
<path d="M1023.74 1254.06L1028.36 1230.75H968.189L973.809 1202.64H1041.68L1046.67 1178.6H948.839L922.949 1308.06H1023.19L1028.18 1284.01H957.529L963.529 1254.06H1023.74Z" stroke="#0038A8" stroke-miterlimit="10"/>
<path d="M1139.14 1242.77C1135.32 1240.3 1131.12 1238.27 1126.56 1236.67C1122 1235.07 1117.44 1233.65 1112.88 1232.42C1108.32 1231.19 1104.12 1229.92 1100.3 1228.63C1096.48 1227.33 1093.43 1225.73 1091.15 1223.82C1088.87 1221.91 1087.73 1219.41 1087.73 1216.33C1087.73 1213.25 1088.81 1210.51 1090.97 1208.1C1093.13 1205.7 1096.27 1203.82 1100.4 1202.46C1104.53 1201.1 1109.49 1200.43 1115.29 1200.43C1121.7 1200.43 1127.93 1201.26 1133.97 1202.93C1140.01 1204.59 1145.5 1207.09 1150.43 1210.42L1161.71 1187.49C1156.16 1183.92 1149.5 1181.17 1141.74 1179.26C1133.97 1177.35 1125.71 1176.39 1116.96 1176.39C1105 1176.39 1094.58 1178.21 1085.71 1181.85C1076.83 1185.49 1069.96 1190.57 1065.09 1197.11C1060.22 1203.65 1057.79 1211.35 1057.79 1220.23C1057.79 1226.15 1058.96 1231.08 1061.3 1235.03C1063.64 1238.98 1066.69 1242.21 1070.45 1244.74C1074.21 1247.27 1078.4 1249.36 1083.03 1251.03C1087.65 1252.69 1092.24 1254.14 1096.81 1255.38C1101.37 1256.61 1105.53 1257.88 1109.29 1259.17C1113.05 1260.47 1116.1 1262.04 1118.44 1263.89C1120.78 1265.74 1121.95 1268.14 1121.95 1271.1C1121.95 1274.31 1120.87 1277.02 1118.71 1279.24C1116.55 1281.46 1113.47 1283.19 1109.46 1284.42C1105.45 1285.66 1100.68 1286.27 1095.13 1286.27C1090.07 1286.27 1085.02 1285.75 1079.97 1284.7C1074.91 1283.65 1070.08 1282.11 1065.45 1280.08C1060.83 1278.05 1056.48 1275.61 1052.41 1272.78L1040.2 1295.9C1043.9 1298.49 1048.43 1300.89 1053.79 1303.11C1059.15 1305.33 1065.13 1307.08 1071.73 1308.38C1078.32 1309.67 1085.14 1310.32 1092.16 1310.32C1104.24 1310.32 1114.75 1308.5 1123.69 1304.86C1132.63 1301.23 1139.56 1296.11 1144.5 1289.51C1149.43 1282.92 1151.9 1275.18 1151.9 1266.3C1151.9 1260.63 1150.73 1255.91 1148.39 1252.15C1146.05 1248.39 1142.96 1245.28 1139.14 1242.81V1242.77Z" stroke="#0038A8" stroke-miterlimit="10"/>
</g>
<path d="M24.3791 1339.79L-59.2109 1469.24H-27.2209L-10.3109 1441.5H49.9091L55.9891 1469.24H85.9491L54.1391 1339.79H24.3691H24.3791ZM3.55906 1418.75L33.9791 1368.85L44.9191 1418.75H3.55906Z" stroke="#0038A8" stroke-miterlimit="10"/>
<path d="M155.491 1339.79H125.351L99.4609 1469.24H194.331L199.321 1444.83H134.411L155.491 1339.79Z" stroke="#0038A8" stroke-miterlimit="10"/>
<path d="M311.938 1415.24L316.568 1391.94H256.388L262.008 1363.83H329.878L334.868 1339.79H237.038L211.148 1469.24H311.388L316.378 1445.2H245.738L251.728 1415.24H311.938Z" stroke="#0038A8" stroke-miterlimit="10"/>
<path d="M439.18 1339.79L401.52 1381.39L379.81 1339.79H347.82L381.34 1402.14L319.34 1469.24H355.22L394.41 1425.17L417.35 1469.24H449.72L414.14 1404.02L473.2 1339.79H439.18Z" stroke="#0038A8" stroke-miterlimit="10"/>
<path d="M639.64 1408.49C644.69 1400.42 647.22 1390.95 647.22 1380.1C647.22 1367.4 642.81 1357.51 634 1350.42C625.18 1343.33 612.7 1339.79 596.55 1339.79H544.21L518.32 1469.24H548.46L555.55 1433.55H584.34C597.29 1433.55 608.47 1431.39 617.91 1427.08C627.34 1422.77 634.58 1416.57 639.64 1408.49ZM608.66 1402.39C603.17 1406.89 595.5 1409.14 585.64 1409.14H560.39L569.4 1364.2H592.86C600.5 1364.2 606.42 1365.71 610.61 1368.73C614.8 1371.75 616.9 1376.4 616.9 1382.69C616.9 1391.32 614.16 1397.89 608.67 1402.39H608.66Z" stroke="#0038A8" stroke-miterlimit="10"/>
<path d="M711.949 1339.79L628.359 1469.24H660.349L677.259 1441.5H737.479L743.559 1469.24H773.519L741.709 1339.79H711.939H711.949ZM691.129 1418.75L721.549 1368.85L732.489 1418.75H691.129Z" stroke="#0038A8" stroke-miterlimit="10"/>
<path d="M903.077 1350.33C894.257 1343.3 881.777 1339.79 865.627 1339.79H812.917L787.027 1469.24H817.167L824.367 1432.99H849.837L870.247 1469.24H901.867L879.277 1429.39C881.897 1428.57 884.397 1427.62 886.797 1426.52C896.227 1422.21 903.497 1416.07 908.617 1408.12C913.727 1400.17 916.287 1390.77 916.287 1379.92C916.287 1367.22 911.877 1357.36 903.067 1350.33H903.077ZM877.737 1402.39C872.247 1406.89 864.517 1409.14 854.527 1409.14H829.087L838.097 1364.2H861.737C869.377 1364.2 875.327 1365.71 879.587 1368.73C883.837 1371.75 885.967 1376.4 885.967 1382.69C885.967 1391.32 883.227 1397.89 877.737 1402.39Z" stroke="#0038A8" stroke-miterlimit="10"/>
<path d="M1023.74 1415.24L1028.36 1391.94H968.189L973.809 1363.83H1041.68L1046.67 1339.79H948.839L922.949 1469.24H1023.19L1028.18 1445.2H957.529L963.529 1415.24H1023.74Z" stroke="#0038A8" stroke-miterlimit="10"/>
<path d="M1139.14 1403.96C1135.32 1401.49 1131.12 1399.46 1126.56 1397.86C1122 1396.26 1117.44 1394.84 1112.88 1393.61C1108.32 1392.38 1104.12 1391.11 1100.3 1389.82C1096.48 1388.52 1093.43 1386.92 1091.15 1385.01C1088.87 1383.1 1087.73 1380.6 1087.73 1377.52C1087.73 1374.44 1088.81 1371.7 1090.97 1369.29C1093.13 1366.89 1096.27 1365.01 1100.4 1363.65C1104.53 1362.29 1109.49 1361.62 1115.29 1361.62C1121.7 1361.62 1127.93 1362.45 1133.97 1364.12C1140.01 1365.78 1145.5 1368.28 1150.43 1371.61L1161.71 1348.68C1156.16 1345.11 1149.5 1342.36 1141.74 1340.45C1133.97 1338.54 1125.71 1337.58 1116.96 1337.58C1105 1337.58 1094.58 1339.4 1085.71 1343.04C1076.83 1346.68 1069.96 1351.76 1065.09 1358.3C1060.22 1364.84 1057.79 1372.54 1057.79 1381.42C1057.79 1387.34 1058.96 1392.27 1061.3 1396.22C1063.64 1400.17 1066.69 1403.4 1070.45 1405.93C1074.21 1408.46 1078.4 1410.55 1083.03 1412.22C1087.65 1413.88 1092.24 1415.33 1096.81 1416.57C1101.37 1417.8 1105.53 1419.07 1109.29 1420.36C1113.05 1421.66 1116.1 1423.23 1118.44 1425.08C1120.78 1426.93 1121.95 1429.33 1121.95 1432.29C1121.95 1435.5 1120.87 1438.21 1118.71 1440.43C1116.55 1442.65 1113.47 1444.38 1109.46 1445.61C1105.45 1446.85 1100.68 1447.46 1095.13 1447.46C1090.07 1447.46 1085.02 1446.94 1079.97 1445.89C1074.91 1444.84 1070.08 1443.3 1065.45 1441.27C1060.83 1439.24 1056.48 1436.8 1052.41 1433.97L1040.2 1457.09C1043.9 1459.68 1048.43 1462.08 1053.79 1464.3C1059.15 1466.52 1065.13 1468.27 1071.73 1469.57C1078.32 1470.86 1085.14 1471.51 1092.16 1471.51C1104.24 1471.51 1114.75 1469.69 1123.69 1466.05C1132.63 1462.42 1139.56 1457.3 1144.5 1450.7C1149.43 1444.11 1151.9 1436.37 1151.9 1427.49C1151.9 1421.82 1150.73 1417.1 1148.39 1413.34C1146.05 1409.58 1142.96 1406.47 1139.14 1404V1403.96Z" stroke="#0038A8" stroke-miterlimit="10"/>
<g opacity="0.26">
<path d="M24.3791 866.38L-59.2109 995.83H-27.2209L-10.3109 968.09H49.9091L55.9891 995.83H85.9491L54.1391 866.38H24.3691H24.3791ZM3.55906 945.35L33.9791 895.45L44.9191 945.35H3.55906Z" stroke="#0038A8" stroke-miterlimit="10"/>
<path d="M155.491 866.38H125.351L99.4609 995.83H194.331L199.321 971.42H134.411L155.491 866.38Z" stroke="#0038A8" stroke-miterlimit="10"/>
<path d="M311.938 941.83L316.568 918.53H256.388L262.008 890.42H329.878L334.868 866.38H237.038L211.148 995.83H311.388L316.378 971.79H245.738L251.728 941.84L311.938 941.83Z" stroke="#0038A8" stroke-miterlimit="10"/>
<path d="M439.18 866.38L401.52 907.99L379.81 866.38H347.82L381.34 928.73L319.34 995.83H355.22L394.41 951.76L417.35 995.83H449.72L414.14 930.61L473.2 866.38H439.18Z" stroke="#0038A8" stroke-miterlimit="10"/>
<path d="M639.64 935.08C644.69 927.01 647.22 917.54 647.22 906.69C647.22 893.99 642.81 884.1 634 877.01C625.18 869.92 612.7 866.38 596.55 866.38H544.21L518.32 995.83H548.46L555.55 960.14H584.34C597.29 960.14 608.47 957.98 617.91 953.67C627.34 949.36 634.58 943.16 639.64 935.08ZM608.66 928.98C603.17 933.48 595.5 935.73 585.64 935.73H560.39L569.4 890.79H592.86C600.5 890.79 606.42 892.3 610.61 895.32C614.8 898.34 616.9 902.99 616.9 909.28C616.9 917.91 614.16 924.48 608.67 928.98H608.66Z" stroke="#0038A8" stroke-miterlimit="10"/>
<path d="M711.949 866.38L628.359 995.83H660.349L677.259 968.09H737.479L743.559 995.83H773.519L741.709 866.38H711.939H711.949ZM691.129 945.35L721.549 895.45L732.489 945.35H691.129Z" stroke="#0038A8" stroke-miterlimit="10"/>
<path d="M903.077 876.92C894.257 869.89 881.777 866.38 865.627 866.38H812.917L787.027 995.83H817.167L824.367 959.58H849.837L870.247 995.83H901.867L879.277 955.98C881.897 955.16 884.397 954.21 886.797 953.11C896.227 948.8 903.497 942.66 908.617 934.71C913.727 926.76 916.287 917.36 916.287 906.51C916.287 893.81 911.877 883.95 903.067 876.92H903.077ZM877.737 928.98C872.247 933.48 864.517 935.73 854.527 935.73H829.087L838.097 890.79H861.737C869.377 890.79 875.327 892.3 879.587 895.32C883.837 898.34 885.967 902.99 885.967 909.28C885.967 917.91 883.227 924.48 877.737 928.98Z" stroke="#0038A8" stroke-miterlimit="10"/>
<path d="M1023.74 941.83L1028.36 918.53H968.189L973.809 890.42H1041.68L1046.67 866.38H948.839L922.949 995.83H1023.19L1028.18 971.79H957.529L963.529 941.83H1023.74Z" stroke="#0038A8" stroke-miterlimit="10"/>
<path d="M1139.14 930.55C1135.32 928.08 1131.12 926.05 1126.56 924.45C1122 922.85 1117.44 921.43 1112.88 920.2C1108.32 918.97 1104.12 917.7 1100.3 916.41C1096.48 915.11 1093.43 913.51 1091.15 911.6C1088.87 909.69 1087.73 907.19 1087.73 904.11C1087.73 901.03 1088.81 898.29 1090.97 895.88C1093.13 893.48 1096.27 891.6 1100.4 890.24C1104.53 888.88 1109.49 888.21 1115.29 888.21C1121.7 888.21 1127.93 889.04 1133.97 890.71C1140.01 892.37 1145.5 894.87 1150.43 898.2L1161.71 875.27C1156.16 871.7 1149.5 868.95 1141.74 867.04C1133.97 865.13 1125.71 864.17 1116.96 864.17C1105 864.17 1094.58 865.99 1085.71 869.63C1076.83 873.27 1069.96 878.35 1065.09 884.89C1060.22 891.43 1057.79 899.13 1057.79 908.01C1057.79 913.93 1058.96 918.86 1061.3 922.81C1063.64 926.76 1066.69 929.99 1070.45 932.52C1074.21 935.05 1078.4 937.14 1083.03 938.81C1087.65 940.47 1092.24 941.92 1096.81 943.16C1101.37 944.39 1105.53 945.66 1109.29 946.95C1113.05 948.25 1116.1 949.82 1118.44 951.67C1120.78 953.52 1121.95 955.92 1121.95 958.88C1121.95 962.09 1120.87 964.8 1118.71 967.02C1116.55 969.24 1113.47 970.97 1109.46 972.2C1105.45 973.44 1100.68 974.05 1095.13 974.05C1090.07 974.05 1085.02 973.53 1079.97 972.48C1074.91 971.43 1070.08 969.89 1065.45 967.86C1060.83 965.83 1056.48 963.39 1052.41 960.56L1040.2 983.68C1043.9 986.27 1048.43 988.67 1053.79 990.89C1059.15 993.11 1065.13 994.86 1071.73 996.16C1078.32 997.45 1085.14 998.1 1092.16 998.1C1104.24 998.1 1114.75 996.28 1123.69 992.64C1132.63 989.01 1139.56 983.89 1144.5 977.29C1149.43 970.7 1151.9 962.96 1151.9 954.08C1151.9 948.41 1150.73 943.69 1148.39 939.93C1146.05 936.17 1142.96 933.06 1139.14 930.59V930.55Z" stroke="#0038A8" stroke-miterlimit="10"/>
</g>
<mask id="mask0_417_2" style="mask-type:luminance" maskUnits="userSpaceOnUse" x="1210" y="1015" width="798" height="636">
<path d="M1255.12 1015L1210 1650.65H1970.11L2007.24 1015H1255.12Z" fill="white"/>
</mask>
<g mask="url(#mask0_417_2)">
<g opacity="0.66">
<path d="M1195.21 1017.42L1157.55 1059.02L1135.84 1017.42H1103.85L1137.37 1079.77L1075.37 1146.87H1111.25L1150.44 1102.8L1173.38 1146.87H1205.75L1170.17 1081.65L1229.23 1017.42H1195.21Z" stroke="#0038A8" stroke-miterlimit="10"/>
<path d="M1395.67 1086.12C1400.72 1078.05 1403.25 1068.58 1403.25 1057.73C1403.25 1045.03 1398.84 1035.14 1390.03 1028.05C1381.21 1020.96 1368.73 1017.42 1352.58 1017.42H1300.24L1274.35 1146.87H1304.49L1311.58 1111.18H1340.37C1353.32 1111.18 1364.5 1109.02 1373.94 1104.71C1383.37 1100.4 1390.61 1094.2 1395.67 1086.12ZM1364.69 1080.02C1359.2 1084.52 1351.53 1086.77 1341.67 1086.77H1316.42L1325.43 1041.83H1348.89C1356.53 1041.83 1362.45 1043.34 1366.64 1046.36C1370.83 1049.38 1372.93 1054.03 1372.93 1060.32C1372.93 1068.95 1370.19 1075.52 1364.7 1080.02H1364.69Z" stroke="#0038A8" stroke-miterlimit="10"/>
<path d="M1467.98 1017.42L1384.39 1146.87H1416.38L1433.29 1119.13H1493.51L1499.59 1146.87H1529.55L1497.74 1017.42H1467.97H1467.98ZM1447.16 1096.38L1477.58 1046.48L1488.52 1096.38H1447.16Z" stroke="#0038A8" stroke-miterlimit="10"/>
<path d="M1659.11 1027.96C1650.29 1020.93 1637.81 1017.42 1621.66 1017.42H1568.95L1543.06 1146.87H1573.2L1580.4 1110.62H1605.87L1626.28 1146.87H1657.9L1635.31 1107.02C1637.93 1106.2 1640.43 1105.25 1642.83 1104.15C1652.26 1099.84 1659.53 1093.7 1664.65 1085.75C1669.76 1077.8 1672.32 1068.4 1672.32 1057.55C1672.32 1044.85 1667.91 1034.99 1659.1 1027.96H1659.11ZM1633.77 1080.02C1628.28 1084.52 1620.55 1086.77 1610.56 1086.77H1585.12L1594.13 1041.83H1617.77C1625.41 1041.83 1631.36 1043.34 1635.62 1046.36C1639.87 1049.38 1642 1054.03 1642 1060.32C1642 1068.95 1639.26 1075.52 1633.77 1080.02Z" stroke="#0038A8" stroke-miterlimit="10"/>
<path d="M1779.77 1092.87L1784.39 1069.57H1724.22L1729.84 1041.46H1797.71L1802.7 1017.42H1704.87L1678.98 1146.87H1779.22L1784.21 1122.83H1713.56L1719.56 1092.87H1779.77Z" stroke="#0038A8" stroke-miterlimit="10"/>
<path d="M1895.17 1081.59C1891.35 1079.12 1887.15 1077.09 1882.59 1075.49C1878.03 1073.89 1873.47 1072.47 1868.91 1071.24C1864.35 1070.01 1860.15 1068.74 1856.33 1067.45C1852.51 1066.15 1849.46 1064.55 1847.18 1062.64C1844.9 1060.73 1843.76 1058.23 1843.76 1055.15C1843.76 1052.07 1844.84 1049.33 1847 1046.92C1849.16 1044.52 1852.3 1042.64 1856.43 1041.28C1860.56 1039.92 1865.52 1039.25 1871.32 1039.25C1877.73 1039.25 1883.96 1040.08 1890 1041.75C1896.04 1043.41 1901.53 1045.91 1906.46 1049.24L1917.74 1026.31C1912.19 1022.74 1905.53 1019.99 1897.77 1018.08C1890 1016.17 1881.74 1015.21 1872.99 1015.21C1861.03 1015.21 1850.61 1017.03 1841.74 1020.67C1832.86 1024.31 1825.99 1029.39 1821.12 1035.93C1816.25 1042.47 1813.82 1050.17 1813.82 1059.05C1813.82 1064.97 1814.99 1069.9 1817.33 1073.85C1819.67 1077.8 1822.72 1081.03 1826.48 1083.56C1830.24 1086.09 1834.43 1088.18 1839.06 1089.85C1843.68 1091.51 1848.27 1092.96 1852.84 1094.2C1857.4 1095.43 1861.56 1096.7 1865.32 1097.99C1869.08 1099.29 1872.13 1100.86 1874.47 1102.71C1876.81 1104.56 1877.98 1106.96 1877.98 1109.92C1877.98 1113.13 1876.9 1115.84 1874.74 1118.06C1872.58 1120.28 1869.5 1122.01 1865.49 1123.24C1861.48 1124.48 1856.71 1125.09 1851.16 1125.09C1846.1 1125.09 1841.05 1124.57 1836 1123.52C1830.94 1122.47 1826.11 1120.93 1821.48 1118.9C1816.86 1116.87 1812.51 1114.43 1808.44 1111.6L1796.23 1134.72C1799.93 1137.31 1804.46 1139.71 1809.82 1141.93C1815.18 1144.15 1821.16 1145.9 1827.76 1147.2C1834.35 1148.49 1841.17 1149.14 1848.19 1149.14C1860.27 1149.14 1870.78 1147.32 1879.72 1143.68C1888.66 1140.05 1895.59 1134.93 1900.53 1128.33C1905.46 1121.74 1907.93 1114 1907.93 1105.12C1907.93 1099.45 1906.76 1094.73 1904.42 1090.97C1902.08 1087.21 1898.99 1084.1 1895.17 1081.63V1081.59Z" stroke="#0038A8" stroke-miterlimit="10"/>
</g>
<g opacity="0.88">
<path d="M1195.21 1178.6L1157.55 1220.21L1135.84 1178.6H1103.85L1137.37 1240.95L1075.37 1308.06H1111.25L1150.44 1263.98L1173.38 1308.06H1205.75L1170.17 1242.84L1229.23 1178.6H1195.21Z" stroke="#0038A8" stroke-miterlimit="10"/>
<path d="M1395.67 1247.31C1400.72 1239.24 1403.25 1229.77 1403.25 1218.92C1403.25 1206.22 1398.84 1196.33 1390.03 1189.24C1381.21 1182.15 1368.73 1178.61 1352.58 1178.61H1300.24L1274.35 1308.06H1304.49L1311.58 1272.37H1340.37C1353.32 1272.37 1364.5 1270.21 1373.94 1265.9C1383.37 1261.59 1390.61 1255.39 1395.67 1247.31ZM1364.69 1241.2C1359.2 1245.7 1351.53 1247.95 1341.67 1247.95H1316.42L1325.43 1203.01H1348.89C1356.53 1203.01 1362.45 1204.52 1366.64 1207.54C1370.83 1210.56 1372.93 1215.21 1372.93 1221.5C1372.93 1230.13 1370.19 1236.7 1364.7 1241.2H1364.69Z" stroke="#0038A8" stroke-miterlimit="10"/>
<path d="M1467.98 1178.6L1384.39 1308.05H1416.38L1433.29 1280.31H1493.51L1499.59 1308.05H1529.55L1497.74 1178.6H1467.97H1467.98ZM1447.16 1257.57L1477.58 1207.67L1488.52 1257.57H1447.16Z" stroke="#0038A8" stroke-miterlimit="10"/>
<path d="M1659.11 1189.14C1650.29 1182.11 1637.81 1178.6 1621.66 1178.6H1568.95L1543.06 1308.05H1573.2L1580.4 1271.8H1605.87L1626.28 1308.05H1657.9L1635.31 1268.2C1637.93 1267.38 1640.43 1266.43 1642.83 1265.33C1652.26 1261.02 1659.53 1254.88 1664.65 1246.93C1669.76 1238.98 1672.32 1229.58 1672.32 1218.73C1672.32 1206.03 1667.91 1196.17 1659.1 1189.14H1659.11ZM1633.77 1241.2C1628.28 1245.7 1620.55 1247.95 1610.56 1247.95H1585.12L1594.13 1203.01H1617.77C1625.41 1203.01 1631.36 1204.52 1635.62 1207.54C1639.87 1210.56 1642 1215.21 1642 1221.5C1642 1230.13 1639.26 1236.7 1633.77 1241.2Z" stroke="#0038A8" stroke-miterlimit="10"/>
<path d="M1779.77 1254.06L1784.39 1230.75H1724.22L1729.84 1202.64H1797.71L1802.7 1178.6H1704.87L1678.98 1308.06H1779.22L1784.21 1284.01H1713.56L1719.56 1254.06H1779.77Z" stroke="#0038A8" stroke-miterlimit="10"/>
<path d="M1895.17 1242.77C1891.35 1240.3 1887.15 1238.27 1882.59 1236.67C1878.03 1235.07 1873.47 1233.65 1868.91 1232.42C1864.35 1231.19 1860.15 1229.92 1856.33 1228.63C1852.51 1227.33 1849.46 1225.73 1847.18 1223.82C1844.9 1221.91 1843.76 1219.41 1843.76 1216.33C1843.76 1213.25 1844.84 1210.51 1847 1208.1C1849.16 1205.7 1852.3 1203.82 1856.43 1202.46C1860.56 1201.1 1865.52 1200.43 1871.32 1200.43C1877.73 1200.43 1883.96 1201.26 1890 1202.93C1896.04 1204.59 1901.53 1207.09 1906.46 1210.42L1917.74 1187.49C1912.19 1183.92 1905.53 1181.17 1897.77 1179.26C1890 1177.35 1881.74 1176.39 1872.99 1176.39C1861.03 1176.39 1850.61 1178.21 1841.74 1181.85C1832.86 1185.49 1825.99 1190.57 1821.12 1197.11C1816.25 1203.65 1813.82 1211.35 1813.82 1220.23C1813.82 1226.15 1814.99 1231.08 1817.33 1235.03C1819.67 1238.98 1822.72 1242.21 1826.48 1244.74C1830.24 1247.27 1834.43 1249.36 1839.06 1251.03C1843.68 1252.69 1848.27 1254.14 1852.84 1255.38C1857.4 1256.61 1861.56 1257.88 1865.32 1259.17C1869.08 1260.47 1872.13 1262.04 1874.47 1263.89C1876.81 1265.74 1877.98 1268.14 1877.98 1271.1C1877.98 1274.31 1876.9 1277.02 1874.74 1279.24C1872.58 1281.46 1869.5 1283.19 1865.49 1284.42C1861.48 1285.66 1856.71 1286.27 1851.16 1286.27C1846.1 1286.27 1841.05 1285.75 1836 1284.7C1830.94 1283.65 1826.11 1282.11 1821.48 1280.08C1816.86 1278.05 1812.51 1275.61 1808.44 1272.78L1796.23 1295.9C1799.93 1298.49 1804.46 1300.89 1809.82 1303.11C1815.18 1305.33 1821.16 1307.08 1827.76 1308.38C1834.35 1309.67 1841.17 1310.32 1848.19 1310.32C1860.27 1310.32 1870.78 1308.5 1879.72 1304.86C1888.66 1301.23 1895.59 1296.11 1900.53 1289.51C1905.46 1282.92 1907.93 1275.18 1907.93 1266.3C1907.93 1260.63 1906.76 1255.91 1904.42 1252.15C1902.08 1248.39 1898.99 1245.28 1895.17 1242.81V1242.77Z" stroke="#0038A8" stroke-miterlimit="10"/>
</g>
<path d="M1195.21 1339.79L1157.55 1381.39L1135.84 1339.79H1103.85L1137.37 1402.14L1075.37 1469.24H1111.25L1150.44 1425.17L1173.38 1469.24H1205.75L1170.17 1404.02L1229.23 1339.79H1195.21Z" stroke="#0038A8" stroke-miterlimit="10"/>
<path d="M1395.67 1408.49C1400.72 1400.42 1403.25 1390.95 1403.25 1380.1C1403.25 1367.4 1398.84 1357.51 1390.03 1350.42C1381.21 1343.33 1368.73 1339.79 1352.58 1339.79H1300.24L1274.35 1469.24H1304.49L1311.58 1433.55H1340.37C1353.32 1433.55 1364.5 1431.39 1373.94 1427.08C1383.37 1422.77 1390.61 1416.57 1395.67 1408.49ZM1364.69 1402.39C1359.2 1406.89 1351.53 1409.14 1341.67 1409.14H1316.42L1325.43 1364.2H1348.89C1356.53 1364.2 1362.45 1365.71 1366.64 1368.73C1370.83 1371.75 1372.93 1376.4 1372.93 1382.69C1372.93 1391.32 1370.19 1397.89 1364.7 1402.39H1364.69Z" stroke="#0038A8" stroke-miterlimit="10"/>
<path d="M1467.98 1339.79L1384.39 1469.24H1416.38L1433.29 1441.5H1493.51L1499.59 1469.24H1529.55L1497.74 1339.79H1467.97H1467.98ZM1447.16 1418.75L1477.58 1368.85L1488.52 1418.75H1447.16Z" stroke="#0038A8" stroke-miterlimit="10"/>
<path d="M1659.11 1350.33C1650.29 1343.3 1637.81 1339.79 1621.66 1339.79H1568.95L1543.06 1469.24H1573.2L1580.4 1432.99H1605.87L1626.28 1469.24H1657.9L1635.31 1429.39C1637.93 1428.57 1640.43 1427.62 1642.83 1426.52C1652.26 1422.21 1659.53 1416.07 1664.65 1408.12C1669.76 1400.17 1672.32 1390.77 1672.32 1379.92C1672.32 1367.22 1667.91 1357.36 1659.1 1350.33H1659.11ZM1633.77 1402.39C1628.28 1406.89 1620.55 1409.14 1610.56 1409.14H1585.12L1594.13 1364.2H1617.77C1625.41 1364.2 1631.36 1365.71 1635.62 1368.73C1639.87 1371.75 1642 1376.4 1642 1382.69C1642 1391.32 1639.26 1397.89 1633.77 1402.39Z" stroke="#0038A8" stroke-miterlimit="10"/>
<path d="M1779.77 1415.24L1784.39 1391.94H1724.22L1729.84 1363.83H1797.71L1802.7 1339.79H1704.87L1678.98 1469.24H1779.22L1784.21 1445.2H1713.56L1719.56 1415.24H1779.77Z" stroke="#0038A8" stroke-miterlimit="10"/>
<path d="M1895.17 1403.96C1891.35 1401.49 1887.15 1399.46 1882.59 1397.86C1878.03 1396.26 1873.47 1394.84 1868.91 1393.61C1864.35 1392.38 1860.15 1391.11 1856.33 1389.82C1852.51 1388.52 1849.46 1386.92 1847.18 1385.01C1844.9 1383.1 1843.76 1380.6 1843.76 1377.52C1843.76 1374.44 1844.84 1371.7 1847 1369.29C1849.16 1366.89 1852.3 1365.01 1856.43 1363.65C1860.56 1362.29 1865.52 1361.62 1871.32 1361.62C1877.73 1361.62 1883.96 1362.45 1890 1364.12C1896.04 1365.78 1901.53 1368.28 1906.46 1371.61L1917.74 1348.68C1912.19 1345.11 1905.53 1342.36 1897.77 1340.45C1890 1338.54 1881.74 1337.58 1872.99 1337.58C1861.03 1337.58 1850.61 1339.4 1841.74 1343.04C1832.86 1346.68 1825.99 1351.76 1821.12 1358.3C1816.25 1364.84 1813.82 1372.54 1813.82 1381.42C1813.82 1387.34 1814.99 1392.27 1817.33 1396.22C1819.67 1400.17 1822.72 1403.4 1826.48 1405.93C1830.24 1408.46 1834.43 1410.55 1839.06 1412.22C1843.68 1413.88 1848.27 1415.33 1852.84 1416.57C1857.4 1417.8 1861.56 1419.07 1865.32 1420.36C1869.08 1421.66 1872.13 1423.23 1874.47 1425.08C1876.81 1426.93 1877.98 1429.33 1877.98 1432.29C1877.98 1435.5 1876.9 1438.21 1874.74 1440.43C1872.58 1442.65 1869.5 1444.38 1865.49 1445.61C1861.48 1446.85 1856.71 1447.46 1851.16 1447.46C1846.1 1447.46 1841.05 1446.94 1836 1445.89C1830.94 1444.84 1826.11 1443.3 1821.48 1441.27C1816.86 1439.24 1812.51 1436.8 1808.44 1433.97L1796.23 1457.09C1799.93 1459.68 1804.46 1462.08 1809.82 1464.3C1815.18 1466.52 1821.16 1468.27 1827.76 1469.57C1834.35 1470.86 1841.17 1471.51 1848.19 1471.51C1860.27 1471.51 1870.78 1469.69 1879.72 1466.05C1888.66 1462.42 1895.59 1457.3 1900.53 1450.7C1905.46 1444.11 1907.93 1436.37 1907.93 1427.49C1907.93 1421.82 1906.76 1417.1 1904.42 1413.34C1902.08 1409.58 1898.99 1406.47 1895.17 1404V1403.96Z" stroke="#0038A8" stroke-miterlimit="10"/>
</g>
</svg>
