<svg width="172" height="82" viewBox="0 0 172 82" fill="none" xmlns="http://www.w3.org/2000/svg">
<path d="M0.219955 39.46L9.11995 19.5H13.6799L22.6 39.46H17.75L10.45 21.84H12.27L4.93996 39.46H0.209961H0.219955ZM4.66995 35.18L5.89995 31.67H16.16L17.41 35.18H4.65996H4.66995Z" fill="#9B9B9B"/>
<path d="M31.2404 39.7999C29.6404 39.7999 28.1104 39.5899 26.6504 39.1599C25.1904 38.7299 24.0104 38.1799 23.1104 37.4899L24.6804 34.0099C25.5304 34.6199 26.5504 35.1199 27.7204 35.5099C28.8904 35.8999 30.0704 36.0899 31.2704 36.0899C32.1804 36.0899 32.9204 35.9999 33.4804 35.8199C34.0404 35.6399 34.4504 35.3899 34.7204 35.0599C34.9904 34.7399 35.1204 34.3699 35.1204 33.9499C35.1204 33.4199 34.9104 32.9999 34.4904 32.6799C34.0704 32.3699 33.5204 32.1099 32.8404 31.9099C32.1604 31.7099 31.4004 31.5199 30.5704 31.3399C29.7404 31.1599 28.9204 30.9399 28.0904 30.6699C27.2604 30.3999 26.5104 30.0599 25.8204 29.6399C25.1404 29.2199 24.5804 28.6699 24.1504 27.9899C23.7204 27.3099 23.5104 26.4299 23.5104 25.3699C23.5104 24.2299 23.8204 23.1899 24.4404 22.2499C25.0604 21.3099 25.9904 20.5599 27.2304 19.9999C28.4704 19.4399 30.0404 19.1599 31.9204 19.1599C33.1704 19.1599 34.4104 19.3099 35.6304 19.5999C36.8504 19.8899 37.9204 20.3399 38.8504 20.9299L37.4204 24.4399C36.4904 23.9099 35.5604 23.5099 34.6304 23.2599C33.7004 22.9999 32.7904 22.8799 31.8904 22.8799C30.9904 22.8799 30.2704 22.9799 29.6904 23.1899C29.1204 23.3999 28.7104 23.6699 28.4604 23.9999C28.2104 24.3299 28.0904 24.7199 28.0904 25.1499C28.0904 25.6599 28.3004 26.0799 28.7204 26.3899C29.1404 26.6999 29.6904 26.9599 30.3704 27.1499C31.0504 27.3399 31.8104 27.5299 32.6404 27.7199C33.4704 27.9099 34.2904 28.1299 35.1204 28.3799C35.9504 28.6299 36.7004 28.9599 37.3904 29.3799C38.0804 29.7999 38.6304 30.3499 39.0604 31.0299C39.4904 31.7099 39.7004 32.5799 39.7004 33.6199C39.7004 34.7399 39.3904 35.7699 38.7604 36.6999C38.1304 37.6299 37.2004 38.3799 35.9504 38.9499C34.7004 39.5199 33.1304 39.7999 31.2304 39.7999H31.2404Z" fill="#9B9B9B"/>
<path d="M47.4601 35.75H58.3201V39.46H42.8701V19.5H57.9501V23.21H47.4601V35.76V35.75ZM47.1201 27.54H56.7301V31.13H47.1201V27.54Z" fill="#9B9B9B"/>
<path d="M68.5597 39.7999C66.9597 39.7999 65.4297 39.5899 63.9697 39.1599C62.5097 38.7299 61.3297 38.1799 60.4297 37.4899L61.9997 34.0099C62.8497 34.6199 63.8697 35.1199 65.0397 35.5099C66.2097 35.8999 67.3897 36.0899 68.5897 36.0899C69.4997 36.0899 70.2397 35.9999 70.7997 35.8199C71.3597 35.6399 71.7697 35.3899 72.0397 35.0599C72.3097 34.7399 72.4397 34.3699 72.4397 33.9499C72.4397 33.4199 72.2297 32.9999 71.8097 32.6799C71.3897 32.3699 70.8397 32.1099 70.1597 31.9099C69.4797 31.7099 68.7197 31.5199 67.8897 31.3399C67.0597 31.1599 66.2397 30.9399 65.4097 30.6699C64.5797 30.3999 63.8297 30.0599 63.1397 29.6399C62.4597 29.2199 61.8997 28.6699 61.4697 27.9899C61.0397 27.3099 60.8297 26.4299 60.8297 25.3699C60.8297 24.2299 61.1397 23.1899 61.7597 22.2499C62.3797 21.3099 63.3097 20.5599 64.5497 19.9999C65.7897 19.4399 67.3597 19.1599 69.2397 19.1599C70.4897 19.1599 71.7297 19.3099 72.9497 19.5999C74.1697 19.8899 75.2397 20.3399 76.1697 20.9299L74.7397 24.4399C73.8097 23.9099 72.8797 23.5099 71.9497 23.2599C71.0197 22.9999 70.1097 22.8799 69.2097 22.8799C68.3097 22.8799 67.5897 22.9799 67.0097 23.1899C66.4397 23.3999 66.0297 23.6699 65.7797 23.9999C65.5297 24.3299 65.4097 24.7199 65.4097 25.1499C65.4097 25.6599 65.6197 26.0799 66.0397 26.3899C66.4597 26.6999 67.0097 26.9599 67.6897 27.1499C68.3697 27.3399 69.1297 27.5299 69.9597 27.7199C70.7897 27.9099 71.6097 28.1299 72.4397 28.3799C73.2697 28.6299 74.0197 28.9599 74.7097 29.3799C75.3997 29.7999 75.9497 30.3499 76.3797 31.0299C76.8097 31.7099 77.0197 32.5799 77.0197 33.6199C77.0197 34.7399 76.7097 35.7699 76.0797 36.6999C75.4497 37.6299 74.5197 38.3799 73.2697 38.9499C72.0197 39.5199 70.4497 39.7999 68.5497 39.7999H68.5597Z" fill="#9B9B9B"/>
<path d="M89.8904 39.8001C88.3104 39.8001 86.8504 39.5401 85.5104 39.0301C84.1704 38.5201 83.0104 37.7901 82.0304 36.8601C81.0504 35.9301 80.2904 34.8401 79.7504 33.5801C79.2104 32.3301 78.9404 30.9601 78.9404 29.4701C78.9404 27.9801 79.2104 26.6201 79.7504 25.3601C80.2904 24.1101 81.0604 23.0101 82.0404 22.0801C83.0304 21.1501 84.1904 20.4301 85.5204 19.9101C86.8504 19.4001 88.3004 19.1401 89.8504 19.1401C91.4004 19.1401 92.8804 19.4001 94.2004 19.9101C95.5204 20.4201 96.6704 21.1501 97.6504 22.0801C98.6304 23.0101 99.3904 24.1001 99.9504 25.3401C100.5 26.5901 100.78 27.9601 100.78 29.4601C100.78 30.9601 100.5 32.3201 99.9504 33.5801C99.4004 34.8401 98.6304 35.9401 97.6504 36.8601C96.6704 37.7801 95.5204 38.5001 94.2004 39.0101C92.8804 39.5201 91.4404 39.7801 89.8804 39.7801L89.8904 39.8001ZM89.8604 35.8701C90.7504 35.8701 91.5804 35.7201 92.3304 35.4101C93.0804 35.1101 93.7404 34.6701 94.3104 34.1001C94.8804 33.5301 95.3204 32.8601 95.6404 32.0801C95.9504 31.3001 96.1104 30.4401 96.1104 29.4901C96.1104 28.5401 95.9504 27.6701 95.6404 26.9001C95.3304 26.1201 94.8904 25.4501 94.3304 24.8801C93.7704 24.3101 93.1104 23.8701 92.3504 23.5701C91.5904 23.2701 90.7604 23.1101 89.8704 23.1101C88.9804 23.1101 88.1504 23.2601 87.4004 23.5701C86.6504 23.8801 85.9904 24.3101 85.4204 24.8801C84.8504 25.4501 84.4104 26.1301 84.0904 26.9001C83.7804 27.6801 83.6204 28.5401 83.6204 29.4901C83.6204 30.4401 83.7804 31.2801 84.0904 32.0701C84.4004 32.8601 84.8404 33.5401 85.4004 34.1101C85.9604 34.6801 86.6204 35.1201 87.3804 35.4201C88.1404 35.7201 88.9704 35.8801 89.8604 35.8801V35.8701Z" fill="#9B9B9B"/>
<path d="M104.26 39.46V19.5H112.9C114.69 19.5 116.23 19.79 117.52 20.37C118.81 20.95 119.81 21.78 120.51 22.86C121.21 23.94 121.56 25.24 121.56 26.74C121.56 28.24 121.21 29.5 120.51 30.58C119.81 31.65 118.81 32.48 117.52 33.05C116.23 33.62 114.69 33.91 112.9 33.91H106.83L108.88 31.89V39.47H104.26V39.46ZM108.88 32.39L106.83 30.22H112.65C114.08 30.22 115.14 29.91 115.84 29.29C116.54 28.67 116.89 27.82 116.89 26.74C116.89 25.66 116.54 24.78 115.84 24.17C115.14 23.56 114.07 23.26 112.65 23.26H106.83L108.88 21.07V32.39ZM116.95 39.46L111.96 32.22H116.89L121.94 39.46H116.95Z" fill="#9B9B9B"/>
<path d="M124.93 17.87L128.78 13.76H133.57L128.41 17.87H124.93ZM125.21 39.46V19.5H129.83V39.46H125.21Z" fill="#9B9B9B"/>
<path d="M131.94 39.46L140.84 19.5H145.4L154.32 39.46H149.47L142.17 21.84H143.99L136.66 39.46H131.93H131.94ZM136.39 35.18L137.62 31.67H147.88L149.13 35.18H136.38H136.39Z" fill="#9B9B9B"/>
<path d="M10.96 55.9001V45.1401H15.85C17.02 45.1401 18.05 45.3601 18.94 45.8101C19.83 46.2601 20.53 46.8801 21.03 47.6801C21.53 48.4801 21.78 49.4301 21.78 50.5201C21.78 51.6101 21.53 52.5501 21.03 53.3601C20.53 54.1601 19.83 54.7901 18.94 55.2401C18.05 55.6901 17.02 55.9101 15.85 55.9101H10.96V55.9001ZM13.45 53.8601H15.72C16.44 53.8601 17.06 53.7201 17.59 53.4501C18.12 53.1801 18.53 52.7901 18.82 52.2901C19.11 51.7901 19.2599 51.2001 19.2599 50.5201C19.2599 49.8401 19.11 49.2401 18.82 48.7401C18.53 48.2401 18.12 47.8601 17.59 47.5901C17.06 47.3201 16.44 47.1801 15.72 47.1801H13.45V53.8501V53.8601Z" fill="#9B9B9B"/>
<path d="M26.1302 53.9102H31.9901V55.9102H23.6602V45.1501H31.7902V47.1501H26.1302V53.9102ZM25.9502 49.4801H31.1302V51.4202H25.9502V49.4801Z" fill="#9B9B9B"/>
<path d="M38.3203 55.9001V45.1401H40.8103V53.8701H46.2003V55.9001H38.3203Z" fill="#9B9B9B"/>
<path d="M46.25 55.9001L51.05 45.1401H53.51L58.32 55.9001H55.71L51.78 46.4001H52.76L48.81 55.9001H46.26H46.25ZM48.65 53.6001L49.31 51.7101H54.84L55.52 53.6001H48.65Z" fill="#9B9B9B"/>
<path d="M62.7803 65.69V45.21H72.7903C75.3703 45.21 77.3003 45.7 78.6003 46.67C79.9003 47.65 80.5503 48.93 80.5503 50.53C80.5503 51.6 80.2903 52.53 79.7603 53.32C79.2303 54.11 78.5103 54.7199 77.5903 55.1499C76.6703 55.5799 75.6203 55.79 74.4303 55.79L74.9903 54.59C76.2803 54.59 77.4203 54.8 78.4103 55.22C79.4003 55.64 80.1803 56.2599 80.7403 57.0799C81.3003 57.8999 81.5703 58.9 81.5703 60.09C81.5703 61.85 80.8803 63.22 79.4903 64.2C78.1003 65.19 76.0703 65.6799 73.3703 65.6799H62.7803V65.69ZM67.4903 62.1199H73.0203C74.2503 62.1199 75.1803 61.9199 75.8103 61.5199C76.4403 61.1199 76.7603 60.48 76.7603 59.6C76.7603 58.72 76.4403 58.0999 75.8103 57.6799C75.1803 57.2599 74.2403 57.0499 73.0203 57.0499H67.1403V53.6H72.2003C73.3503 53.6 74.2303 53.4 74.8503 53C75.4703 52.6 75.7703 51.99 75.7703 51.17C75.7703 50.35 75.4603 49.7699 74.8503 49.3699C74.2403 48.9699 73.3503 48.77 72.2003 48.77H67.4903V62.1099V62.1199Z" fill="#FF9E18"/>
<path d="M94.2702 66.04C91.3602 66.04 89.0903 65.2299 87.4503 63.6099C85.8103 61.9899 84.9902 59.6799 84.9902 56.6799V45.21H89.7303V56.51C89.7303 58.46 90.1302 59.87 90.9302 60.72C91.7302 61.58 92.8502 62.01 94.3002 62.01C95.7502 62.01 96.8602 61.58 97.6602 60.72C98.4602 59.86 98.8602 58.46 98.8602 56.51V45.21H103.54V56.6799C103.54 59.6799 102.72 61.9999 101.08 63.6099C99.4402 65.2299 97.1703 66.04 94.2603 66.04H94.2702Z" fill="#FF9E18"/>
<path d="M112.94 61.88H124.09V65.6799H108.23V45.2H123.71V49H112.94V61.8699V61.88ZM112.58 53.46H122.44V57.1499H112.58V53.46Z" fill="#FF9E18"/>
<path d="M127.86 65.69V45.21H131.78L143.87 59.9599H141.97V45.21H146.65V65.69H142.76L130.65 50.94H132.55V65.69H127.87H127.86Z" fill="#FF9E18"/>
<path d="M148.811 65.69L157.941 45.21H162.621L171.781 65.69H166.811L159.321 47.61H161.191L153.671 65.69H148.811ZM153.371 61.2999L154.631 57.7H165.161L166.451 61.2999H153.371Z" fill="#FF9E18"/>
<path d="M163.04 40.7999H160.71V2.74994H12.6904V15.1099H10.3604V0.429932H163.04V40.7999Z" fill="#A8A8A8"/>
<path d="M163.04 81.8701H10.3604V60.3101H12.6904V79.55H160.71V70.0901H163.04V81.8701Z" fill="#A8A8A8"/>
</svg>
