<svg width="1207" height="255" viewBox="0 0 1207 255" fill="none" xmlns="http://www.w3.org/2000/svg">
<path d="M1112.41 66.4399H1204V252.49H3V66.4399H94.1539" stroke="#FB9C1A" stroke-width="5" stroke-miterlimit="10"/>
<path d="M83.9089 177.2C82.8702 177.2 81.8589 177.022 80.8749 176.667C79.8909 176.339 79.0435 175.847 78.3329 175.191L80.0139 172.239C80.5605 172.758 81.1619 173.155 81.8179 173.428C82.4739 173.701 83.1709 173.838 83.9089 173.838C84.8655 173.838 85.6582 173.592 86.2869 173.1C86.9155 172.608 87.5032 171.733 88.0499 170.476L89.4029 167.483L89.8129 166.991L98.3409 147.27H102.195L91.6579 171.173C91.0292 172.704 90.3185 173.906 89.5259 174.781C88.7605 175.656 87.9132 176.271 86.9839 176.626C86.0545 177.009 85.0295 177.2 83.9089 177.2ZM89.0749 169.697L79.1529 147.27H83.2529L91.6989 166.622L89.0749 169.697ZM125.858 169.246C123.753 169.246 121.867 168.781 120.2 167.852C118.56 166.923 117.262 165.624 116.305 163.957C115.348 162.29 114.87 160.349 114.87 158.135C114.87 155.921 115.348 153.994 116.305 152.354C117.262 150.687 118.56 149.388 120.2 148.459C121.867 147.53 123.753 147.065 125.858 147.065C127.689 147.065 129.343 147.475 130.819 148.295C132.295 149.115 133.47 150.345 134.345 151.985C135.247 153.625 135.698 155.675 135.698 158.135C135.698 160.595 135.261 162.645 134.386 164.285C133.539 165.925 132.377 167.169 130.901 168.016C129.425 168.836 127.744 169.246 125.858 169.246ZM126.186 165.802C127.553 165.802 128.783 165.488 129.876 164.859C130.997 164.23 131.871 163.342 132.5 162.194C133.156 161.019 133.484 159.666 133.484 158.135C133.484 156.577 133.156 155.238 132.5 154.117C131.871 152.969 130.997 152.081 129.876 151.452C128.783 150.823 127.553 150.509 126.186 150.509C124.792 150.509 123.548 150.823 122.455 151.452C121.362 152.081 120.487 152.969 119.831 154.117C119.175 155.238 118.847 156.577 118.847 158.135C118.847 159.666 119.175 161.019 119.831 162.194C120.487 163.342 121.362 164.23 122.455 164.859C123.548 165.488 124.792 165.802 126.186 165.802ZM133.607 169V163.137L133.853 158.094L133.443 153.051V138.578H137.379V169H133.607ZM154.502 169.246C152.179 169.246 150.129 168.768 148.352 167.811C146.603 166.854 145.236 165.542 144.252 163.875C143.296 162.208 142.817 160.294 142.817 158.135C142.817 155.976 143.282 154.062 144.211 152.395C145.168 150.728 146.466 149.429 148.106 148.5C149.774 147.543 151.646 147.065 153.723 147.065C155.828 147.065 157.687 147.53 159.299 148.459C160.912 149.388 162.169 150.7 163.071 152.395C164.001 154.062 164.465 156.017 164.465 158.258C164.465 158.422 164.452 158.613 164.424 158.832C164.424 159.051 164.411 159.256 164.383 159.447H145.892V156.618H162.333L160.734 157.602C160.762 156.208 160.475 154.964 159.873 153.871C159.272 152.778 158.438 151.93 157.372 151.329C156.334 150.7 155.117 150.386 153.723 150.386C152.357 150.386 151.14 150.7 150.074 151.329C149.008 151.93 148.175 152.791 147.573 153.912C146.972 155.005 146.671 156.263 146.671 157.684V158.34C146.671 159.789 146.999 161.087 147.655 162.235C148.339 163.356 149.282 164.23 150.484 164.859C151.687 165.488 153.067 165.802 154.625 165.802C155.91 165.802 157.072 165.583 158.11 165.146C159.176 164.709 160.106 164.053 160.898 163.178L163.071 165.72C162.087 166.868 160.857 167.743 159.381 168.344C157.933 168.945 156.306 169.246 154.502 169.246ZM176.163 169.246C174.359 169.246 172.637 169 170.997 168.508C169.384 168.016 168.113 167.415 167.184 166.704L168.824 163.588C169.753 164.217 170.901 164.75 172.268 165.187C173.634 165.624 175.028 165.843 176.45 165.843C178.281 165.843 179.593 165.583 180.386 165.064C181.206 164.545 181.616 163.82 181.616 162.891C181.616 162.208 181.37 161.675 180.878 161.292C180.386 160.909 179.73 160.622 178.91 160.431C178.117 160.24 177.229 160.076 176.245 159.939C175.261 159.775 174.277 159.584 173.293 159.365C172.309 159.119 171.407 158.791 170.587 158.381C169.767 157.944 169.111 157.356 168.619 156.618C168.127 155.853 167.881 154.841 167.881 153.584C167.881 152.272 168.25 151.124 168.988 150.14C169.726 149.156 170.764 148.404 172.104 147.885C173.47 147.338 175.083 147.065 176.942 147.065C178.363 147.065 179.798 147.243 181.247 147.598C182.723 147.926 183.925 148.404 184.855 149.033L183.174 152.149C182.19 151.493 181.165 151.042 180.099 150.796C179.033 150.55 177.967 150.427 176.901 150.427C175.179 150.427 173.894 150.714 173.047 151.288C172.199 151.835 171.776 152.545 171.776 153.42C171.776 154.158 172.022 154.732 172.514 155.142C173.033 155.525 173.689 155.825 174.482 156.044C175.302 156.263 176.204 156.454 177.188 156.618C178.172 156.755 179.156 156.946 180.14 157.192C181.124 157.411 182.012 157.725 182.805 158.135C183.625 158.545 184.281 159.119 184.773 159.857C185.292 160.595 185.552 161.579 185.552 162.809C185.552 164.121 185.169 165.255 184.404 166.212C183.638 167.169 182.559 167.92 181.165 168.467C179.771 168.986 178.103 169.246 176.163 169.246ZM199.942 169.246C197.728 169.246 195.746 168.768 193.997 167.811C192.275 166.854 190.922 165.542 189.938 163.875C188.954 162.208 188.462 160.294 188.462 158.135C188.462 155.976 188.954 154.062 189.938 152.395C190.922 150.728 192.275 149.429 193.997 148.5C195.746 147.543 197.728 147.065 199.942 147.065C201.91 147.065 203.659 147.461 205.19 148.254C206.748 149.019 207.95 150.167 208.798 151.698L205.805 153.625C205.094 152.559 204.219 151.78 203.181 151.288C202.169 150.769 201.076 150.509 199.901 150.509C198.479 150.509 197.208 150.823 196.088 151.452C194.967 152.081 194.079 152.969 193.423 154.117C192.767 155.238 192.439 156.577 192.439 158.135C192.439 159.693 192.767 161.046 193.423 162.194C194.079 163.342 194.967 164.23 196.088 164.859C197.208 165.488 198.479 165.802 199.901 165.802C201.076 165.802 202.169 165.556 203.181 165.064C204.219 164.545 205.094 163.752 205.805 162.686L208.798 164.572C207.95 166.075 206.748 167.237 205.19 168.057C203.659 168.85 201.91 169.246 199.942 169.246ZM223.037 169.246C221.178 169.246 219.538 168.904 218.117 168.221C216.723 167.538 215.629 166.499 214.837 165.105C214.071 163.684 213.689 161.907 213.689 159.775V147.27H217.625V159.324C217.625 161.456 218.13 163.055 219.142 164.121C220.18 165.187 221.629 165.72 223.488 165.72C224.854 165.72 226.043 165.447 227.055 164.9C228.066 164.326 228.845 163.506 229.392 162.44C229.938 161.347 230.212 160.035 230.212 158.504V147.27H234.148V169H230.417V163.137L231.032 164.695C230.321 166.144 229.255 167.264 227.834 168.057C226.412 168.85 224.813 169.246 223.037 169.246ZM253.162 169.246C251.303 169.246 249.622 168.836 248.119 168.016C246.643 167.169 245.467 165.925 244.593 164.285C243.745 162.645 243.322 160.595 243.322 158.135C243.322 155.675 243.759 153.625 244.634 151.985C245.536 150.345 246.725 149.115 248.201 148.295C249.704 147.475 251.358 147.065 253.162 147.065C255.294 147.065 257.18 147.53 258.82 148.459C260.46 149.388 261.758 150.687 262.715 152.354C263.671 153.994 264.15 155.921 264.15 158.135C264.15 160.349 263.671 162.29 262.715 163.957C261.758 165.624 260.46 166.923 258.82 167.852C257.18 168.781 255.294 169.246 253.162 169.246ZM241.641 169V138.578H245.577V153.051L245.167 158.094L245.413 163.137V169H241.641ZM252.834 165.802C254.228 165.802 255.471 165.488 256.565 164.859C257.685 164.23 258.56 163.342 259.189 162.194C259.845 161.019 260.173 159.666 260.173 158.135C260.173 156.577 259.845 155.238 259.189 154.117C258.56 152.969 257.685 152.081 256.565 151.452C255.471 150.823 254.228 150.509 252.834 150.509C251.467 150.509 250.223 150.823 249.103 151.452C248.009 152.081 247.135 152.969 246.479 154.117C245.85 155.238 245.536 156.577 245.536 158.135C245.536 159.666 245.85 161.019 246.479 162.194C247.135 163.342 248.009 164.23 249.103 164.859C250.223 165.488 251.467 165.802 252.834 165.802ZM269.588 169V147.27H273.36V153.174L272.991 151.698C273.592 150.195 274.604 149.047 276.025 148.254C277.446 147.461 279.196 147.065 281.273 147.065V150.878C281.109 150.851 280.945 150.837 280.781 150.837C280.644 150.837 280.508 150.837 280.371 150.837C278.266 150.837 276.599 151.466 275.369 152.723C274.139 153.98 273.524 155.798 273.524 158.176V169H269.588ZM295.6 169.246C293.277 169.246 291.227 168.768 289.45 167.811C287.701 166.854 286.334 165.542 285.35 163.875C284.393 162.208 283.915 160.294 283.915 158.135C283.915 155.976 284.38 154.062 285.309 152.395C286.266 150.728 287.564 149.429 289.204 148.5C290.871 147.543 292.744 147.065 294.821 147.065C296.926 147.065 298.784 147.53 300.397 148.459C302.01 149.388 303.267 150.7 304.169 152.395C305.098 154.062 305.563 156.017 305.563 158.258C305.563 158.422 305.549 158.613 305.522 158.832C305.522 159.051 305.508 159.256 305.481 159.447H286.99V156.618H303.431L301.832 157.602C301.859 156.208 301.572 154.964 300.971 153.871C300.37 152.778 299.536 151.93 298.47 151.329C297.431 150.7 296.215 150.386 294.821 150.386C293.454 150.386 292.238 150.7 291.172 151.329C290.106 151.93 289.272 152.791 288.671 153.912C288.07 155.005 287.769 156.263 287.769 157.684V158.34C287.769 159.789 288.097 161.087 288.753 162.235C289.436 163.356 290.379 164.23 291.582 164.859C292.785 165.488 294.165 165.802 295.723 165.802C297.008 165.802 298.169 165.583 299.208 165.146C300.274 164.709 301.203 164.053 301.996 163.178L304.169 165.72C303.185 166.868 301.955 167.743 300.479 168.344C299.03 168.945 297.404 169.246 295.6 169.246ZM331.51 169.246C329.296 169.246 327.314 168.768 325.565 167.811C323.843 166.854 322.49 165.542 321.506 163.875C320.522 162.208 320.03 160.294 320.03 158.135C320.03 155.976 320.522 154.062 321.506 152.395C322.49 150.728 323.843 149.429 325.565 148.5C327.314 147.543 329.296 147.065 331.51 147.065C333.478 147.065 335.227 147.461 336.758 148.254C338.316 149.019 339.519 150.167 340.366 151.698L337.373 153.625C336.662 152.559 335.788 151.78 334.749 151.288C333.738 150.769 332.644 150.509 331.469 150.509C330.048 150.509 328.777 150.823 327.656 151.452C326.535 152.081 325.647 152.969 324.991 154.117C324.335 155.238 324.007 156.577 324.007 158.135C324.007 159.693 324.335 161.046 324.991 162.194C325.647 163.342 326.535 164.23 327.656 164.859C328.777 165.488 330.048 165.802 331.469 165.802C332.644 165.802 333.738 165.556 334.749 165.064C335.788 164.545 336.662 163.752 337.373 162.686L340.366 164.572C339.519 166.075 338.316 167.237 336.758 168.057C335.227 168.85 333.478 169.246 331.51 169.246ZM354.449 169.246C352.262 169.246 350.321 168.768 348.627 167.811C346.932 166.854 345.593 165.542 344.609 163.875C343.625 162.18 343.133 160.267 343.133 158.135C343.133 155.976 343.625 154.062 344.609 152.395C345.593 150.728 346.932 149.429 348.627 148.5C350.321 147.543 352.262 147.065 354.449 147.065C356.608 147.065 358.535 147.543 360.23 148.5C361.952 149.429 363.291 150.728 364.248 152.395C365.232 154.035 365.724 155.948 365.724 158.135C365.724 160.294 365.232 162.208 364.248 163.875C363.291 165.542 361.952 166.854 360.23 167.811C358.535 168.768 356.608 169.246 354.449 169.246ZM354.449 165.802C355.843 165.802 357.086 165.488 358.18 164.859C359.3 164.23 360.175 163.342 360.804 162.194C361.432 161.019 361.747 159.666 361.747 158.135C361.747 156.577 361.432 155.238 360.804 154.117C360.175 152.969 359.3 152.081 358.18 151.452C357.086 150.823 355.843 150.509 354.449 150.509C353.055 150.509 351.811 150.823 350.718 151.452C349.624 152.081 348.75 152.969 348.094 154.117C347.438 155.238 347.11 156.577 347.11 158.135C347.11 159.666 347.438 161.019 348.094 162.194C348.75 163.342 349.624 164.23 350.718 164.859C351.811 165.488 353.055 165.802 354.449 165.802ZM351.333 144.113L356.909 138.783H361.911L355.023 144.113H351.333ZM398.35 147.065C400.099 147.065 401.644 147.407 402.983 148.09C404.322 148.773 405.361 149.812 406.099 151.206C406.864 152.6 407.247 154.363 407.247 156.495V169H403.311V156.946C403.311 154.841 402.819 153.256 401.835 152.19C400.851 151.124 399.471 150.591 397.694 150.591C396.382 150.591 395.234 150.864 394.25 151.411C393.266 151.958 392.501 152.764 391.954 153.83C391.435 154.896 391.175 156.222 391.175 157.807V169H387.239V156.946C387.239 154.841 386.747 153.256 385.763 152.19C384.806 151.124 383.426 150.591 381.622 150.591C380.337 150.591 379.203 150.864 378.219 151.411C377.235 151.958 376.47 152.764 375.923 153.83C375.376 154.896 375.103 156.222 375.103 157.807V169H371.167V147.27H374.939V153.051L374.324 151.575C375.007 150.154 376.06 149.047 377.481 148.254C378.902 147.461 380.556 147.065 382.442 147.065C384.519 147.065 386.31 147.584 387.813 148.623C389.316 149.634 390.3 151.179 390.765 153.256L389.166 152.6C389.822 150.933 390.97 149.593 392.61 148.582C394.25 147.571 396.163 147.065 398.35 147.065ZM423.796 169.246C421.61 169.246 419.669 168.768 417.974 167.811C416.28 166.854 414.94 165.542 413.956 163.875C412.972 162.18 412.48 160.267 412.48 158.135C412.48 155.976 412.972 154.062 413.956 152.395C414.94 150.728 416.28 149.429 417.974 148.5C419.669 147.543 421.61 147.065 423.796 147.065C425.956 147.065 427.883 147.543 429.577 148.5C431.299 149.429 432.639 150.728 433.595 152.395C434.579 154.035 435.071 155.948 435.071 158.135C435.071 160.294 434.579 162.208 433.595 163.875C432.639 165.542 431.299 166.854 429.577 167.811C427.883 168.768 425.956 169.246 423.796 169.246ZM423.796 165.802C425.19 165.802 426.434 165.488 427.527 164.859C428.648 164.23 429.523 163.342 430.151 162.194C430.78 161.019 431.094 159.666 431.094 158.135C431.094 156.577 430.78 155.238 430.151 154.117C429.523 152.969 428.648 152.081 427.527 151.452C426.434 150.823 425.19 150.509 423.796 150.509C422.402 150.509 421.159 150.823 420.065 151.452C418.972 152.081 418.097 152.969 417.441 154.117C416.785 155.238 416.457 156.577 416.457 158.135C416.457 159.666 416.785 161.019 417.441 162.194C418.097 163.342 418.972 164.23 420.065 164.859C421.159 165.488 422.402 165.802 423.796 165.802ZM451.525 169V138.578H455.461V169H451.525ZM476.466 169V164.408L476.261 163.547V155.716C476.261 154.049 475.769 152.764 474.785 151.862C473.828 150.933 472.379 150.468 470.439 150.468C469.154 150.468 467.897 150.687 466.667 151.124C465.437 151.534 464.398 152.094 463.551 152.805L461.911 149.853C463.031 148.951 464.371 148.268 465.929 147.803C467.514 147.311 469.168 147.065 470.89 147.065C473.869 147.065 476.165 147.789 477.778 149.238C479.39 150.687 480.197 152.901 480.197 155.88V169H476.466ZM469.332 169.246C467.719 169.246 466.298 168.973 465.068 168.426C463.865 167.879 462.936 167.128 462.28 166.171C461.624 165.187 461.296 164.08 461.296 162.85C461.296 161.675 461.569 160.609 462.116 159.652C462.69 158.695 463.605 157.93 464.863 157.356C466.147 156.782 467.869 156.495 470.029 156.495H476.917V159.324H470.193C468.225 159.324 466.899 159.652 466.216 160.308C465.532 160.964 465.191 161.757 465.191 162.686C465.191 163.752 465.614 164.613 466.462 165.269C467.309 165.898 468.484 166.212 469.988 166.212C471.464 166.212 472.748 165.884 473.842 165.228C474.962 164.572 475.769 163.615 476.261 162.358L477.04 165.064C476.52 166.349 475.605 167.374 474.293 168.139C472.981 168.877 471.327 169.246 469.332 169.246ZM508.167 169.246C505.844 169.246 503.794 168.768 502.017 167.811C500.268 166.854 498.901 165.542 497.917 163.875C496.961 162.208 496.482 160.294 496.482 158.135C496.482 155.976 496.947 154.062 497.876 152.395C498.833 150.728 500.131 149.429 501.771 148.5C503.439 147.543 505.311 147.065 507.388 147.065C509.493 147.065 511.352 147.53 512.964 148.459C514.577 149.388 515.834 150.7 516.736 152.395C517.666 154.062 518.13 156.017 518.13 158.258C518.13 158.422 518.117 158.613 518.089 158.832C518.089 159.051 518.076 159.256 518.048 159.447H499.557V156.618H515.998L514.399 157.602C514.427 156.208 514.14 154.964 513.538 153.871C512.937 152.778 512.103 151.93 511.037 151.329C509.999 150.7 508.782 150.386 507.388 150.386C506.022 150.386 504.805 150.7 503.739 151.329C502.673 151.93 501.84 152.791 501.238 153.912C500.637 155.005 500.336 156.263 500.336 157.684V158.34C500.336 159.789 500.664 161.087 501.32 162.235C502.004 163.356 502.947 164.23 504.149 164.859C505.352 165.488 506.732 165.802 508.29 165.802C509.575 165.802 510.737 165.583 511.775 165.146C512.841 164.709 513.771 164.053 514.563 163.178L516.736 165.72C515.752 166.868 514.522 167.743 513.046 168.344C511.598 168.945 509.971 169.246 508.167 169.246ZM535.199 147.065C536.975 147.065 538.533 147.407 539.873 148.09C541.239 148.773 542.305 149.812 543.071 151.206C543.836 152.6 544.219 154.363 544.219 156.495V169H540.283V156.946C540.283 154.841 539.763 153.256 538.725 152.19C537.713 151.124 536.278 150.591 534.42 150.591C533.026 150.591 531.809 150.864 530.771 151.411C529.732 151.958 528.926 152.764 528.352 153.83C527.805 154.896 527.532 156.222 527.532 157.807V169H523.596V147.27H527.368V153.133L526.753 151.575C527.463 150.154 528.557 149.047 530.033 148.254C531.509 147.461 533.231 147.065 535.199 147.065ZM561.179 169.246C558.856 169.246 556.806 168.768 555.029 167.811C553.28 166.854 551.913 165.542 550.929 163.875C549.972 162.208 549.494 160.294 549.494 158.135C549.494 155.976 549.959 154.062 550.888 152.395C551.845 150.728 553.143 149.429 554.783 148.5C556.45 147.543 558.323 147.065 560.4 147.065C562.505 147.065 564.363 147.53 565.976 148.459C567.589 149.388 568.846 150.7 569.748 152.395C570.677 154.062 571.142 156.017 571.142 158.258C571.142 158.422 571.128 158.613 571.101 158.832C571.101 159.051 571.087 159.256 571.06 159.447H552.569V156.618H569.01L567.411 157.602C567.438 156.208 567.151 154.964 566.55 153.871C565.949 152.778 565.115 151.93 564.049 151.329C563.01 150.7 561.794 150.386 560.4 150.386C559.033 150.386 557.817 150.7 556.751 151.329C555.685 151.93 554.851 152.791 554.25 153.912C553.649 155.005 553.348 156.263 553.348 157.684V158.34C553.348 159.789 553.676 161.087 554.332 162.235C555.015 163.356 555.958 164.23 557.161 164.859C558.364 165.488 559.744 165.802 561.302 165.802C562.587 165.802 563.748 165.583 564.787 165.146C565.853 164.709 566.782 164.053 567.575 163.178L569.748 165.72C568.764 166.868 567.534 167.743 566.058 168.344C564.609 168.945 562.983 169.246 561.179 169.246ZM576.607 169V147.27H580.379V153.174L580.01 151.698C580.612 150.195 581.623 149.047 583.044 148.254C584.466 147.461 586.215 147.065 588.292 147.065V150.878C588.128 150.851 587.964 150.837 587.8 150.837C587.664 150.837 587.527 150.837 587.39 150.837C585.286 150.837 583.618 151.466 582.388 152.723C581.158 153.98 580.543 155.798 580.543 158.176V169H576.607ZM602.455 177.2C600.46 177.2 598.519 176.913 596.633 176.339C594.775 175.792 593.258 175 592.082 173.961L593.968 170.927C594.98 171.802 596.223 172.485 597.699 172.977C599.175 173.496 600.72 173.756 602.332 173.756C604.902 173.756 606.788 173.155 607.99 171.952C609.193 170.749 609.794 168.918 609.794 166.458V161.866L610.204 157.561L609.999 153.215V147.27H613.73V166.048C613.73 169.875 612.774 172.69 610.86 174.494C608.947 176.298 606.145 177.2 602.455 177.2ZM601.963 168.098C599.859 168.098 597.973 167.661 596.305 166.786C594.665 165.884 593.353 164.64 592.369 163.055C591.413 161.47 590.934 159.638 590.934 157.561C590.934 155.456 591.413 153.625 592.369 152.067C593.353 150.482 594.665 149.252 596.305 148.377C597.973 147.502 599.859 147.065 601.963 147.065C603.822 147.065 605.517 147.448 607.047 148.213C608.578 148.951 609.794 150.099 610.696 151.657C611.626 153.215 612.09 155.183 612.09 157.561C612.09 159.912 611.626 161.866 610.696 163.424C609.794 164.982 608.578 166.157 607.047 166.95C605.517 167.715 603.822 168.098 601.963 168.098ZM602.414 164.654C603.863 164.654 605.148 164.353 606.268 163.752C607.389 163.151 608.264 162.317 608.892 161.251C609.548 160.185 609.876 158.955 609.876 157.561C609.876 156.167 609.548 154.937 608.892 153.871C608.264 152.805 607.389 151.985 606.268 151.411C605.148 150.81 603.863 150.509 602.414 150.509C600.966 150.509 599.667 150.81 598.519 151.411C597.399 151.985 596.51 152.805 595.854 153.871C595.226 154.937 594.911 156.167 594.911 157.561C594.911 158.955 595.226 160.185 595.854 161.251C596.51 162.317 597.399 163.151 598.519 163.752C599.667 164.353 600.966 164.654 602.414 164.654ZM621.251 169V147.27H625.187V169H621.251ZM620.144 144.113L625.72 138.783H630.722L623.834 144.113H620.144ZM646.191 169V164.408L645.986 163.547V155.716C645.986 154.049 645.494 152.764 644.51 151.862C643.554 150.933 642.105 150.468 640.164 150.468C638.88 150.468 637.622 150.687 636.392 151.124C635.162 151.534 634.124 152.094 633.276 152.805L631.636 149.853C632.757 148.951 634.096 148.268 635.654 147.803C637.24 147.311 638.893 147.065 640.615 147.065C643.595 147.065 645.891 147.789 647.503 149.238C649.116 150.687 649.922 152.901 649.922 155.88V169H646.191ZM639.057 169.246C637.445 169.246 636.023 168.973 634.793 168.426C633.591 167.879 632.661 167.128 632.005 166.171C631.349 165.187 631.021 164.08 631.021 162.85C631.021 161.675 631.295 160.609 631.841 159.652C632.415 158.695 633.331 157.93 634.588 157.356C635.873 156.782 637.595 156.495 639.754 156.495H646.642V159.324H639.918C637.95 159.324 636.625 159.652 635.941 160.308C635.258 160.964 634.916 161.757 634.916 162.686C634.916 163.752 635.34 164.613 636.187 165.269C637.035 165.898 638.21 166.212 639.713 166.212C641.189 166.212 642.474 165.884 643.567 165.228C644.688 164.572 645.494 163.615 645.986 162.358L646.765 165.064C646.246 166.349 645.33 167.374 644.018 168.139C642.706 168.877 641.053 169.246 639.057 169.246ZM674.449 169.246C672.645 169.246 670.923 169 669.283 168.508C667.67 168.016 666.399 167.415 665.47 166.704L667.11 163.588C668.039 164.217 669.187 164.75 670.554 165.187C671.921 165.624 673.315 165.843 674.736 165.843C676.567 165.843 677.879 165.583 678.672 165.064C679.492 164.545 679.902 163.82 679.902 162.891C679.902 162.208 679.656 161.675 679.164 161.292C678.672 160.909 678.016 160.622 677.196 160.431C676.403 160.24 675.515 160.076 674.531 159.939C673.547 159.775 672.563 159.584 671.579 159.365C670.595 159.119 669.693 158.791 668.873 158.381C668.053 157.944 667.397 157.356 666.905 156.618C666.413 155.853 666.167 154.841 666.167 153.584C666.167 152.272 666.536 151.124 667.274 150.14C668.012 149.156 669.051 148.404 670.39 147.885C671.757 147.338 673.369 147.065 675.228 147.065C676.649 147.065 678.084 147.243 679.533 147.598C681.009 147.926 682.212 148.404 683.141 149.033L681.46 152.149C680.476 151.493 679.451 151.042 678.385 150.796C677.319 150.55 676.253 150.427 675.187 150.427C673.465 150.427 672.18 150.714 671.333 151.288C670.486 151.835 670.062 152.545 670.062 153.42C670.062 154.158 670.308 154.732 670.8 155.142C671.319 155.525 671.975 155.825 672.768 156.044C673.588 156.263 674.49 156.454 675.474 156.618C676.458 156.755 677.442 156.946 678.426 157.192C679.41 157.411 680.298 157.725 681.091 158.135C681.911 158.545 682.567 159.119 683.059 159.857C683.578 160.595 683.838 161.579 683.838 162.809C683.838 164.121 683.455 165.255 682.69 166.212C681.925 167.169 680.845 167.92 679.451 168.467C678.057 168.986 676.39 169.246 674.449 169.246ZM698.064 169.246C695.877 169.246 693.937 168.768 692.242 167.811C690.547 166.854 689.208 165.542 688.224 163.875C687.24 162.18 686.748 160.267 686.748 158.135C686.748 155.976 687.24 154.062 688.224 152.395C689.208 150.728 690.547 149.429 692.242 148.5C693.937 147.543 695.877 147.065 698.064 147.065C700.223 147.065 702.15 147.543 703.845 148.5C705.567 149.429 706.906 150.728 707.863 152.395C708.847 154.035 709.339 155.948 709.339 158.135C709.339 160.294 708.847 162.208 707.863 163.875C706.906 165.542 705.567 166.854 703.845 167.811C702.15 168.768 700.223 169.246 698.064 169.246ZM698.064 165.802C699.458 165.802 700.702 165.488 701.795 164.859C702.916 164.23 703.79 163.342 704.419 162.194C705.048 161.019 705.362 159.666 705.362 158.135C705.362 156.577 705.048 155.238 704.419 154.117C703.79 152.969 702.916 152.081 701.795 151.452C700.702 150.823 699.458 150.509 698.064 150.509C696.67 150.509 695.426 150.823 694.333 151.452C693.24 152.081 692.365 152.969 691.709 154.117C691.053 155.238 690.725 156.577 690.725 158.135C690.725 159.666 691.053 161.019 691.709 162.194C692.365 163.342 693.24 164.23 694.333 164.859C695.426 165.488 696.67 165.802 698.064 165.802ZM714.782 169V138.578H718.718V169H714.782ZM739.722 169V164.408L739.517 163.547V155.716C739.517 154.049 739.025 152.764 738.041 151.862C737.085 150.933 735.636 150.468 733.695 150.468C732.411 150.468 731.153 150.687 729.923 151.124C728.693 151.534 727.655 152.094 726.807 152.805L725.167 149.853C726.288 148.951 727.627 148.268 729.185 147.803C730.771 147.311 732.424 147.065 734.146 147.065C737.126 147.065 739.422 147.789 741.034 149.238C742.647 150.687 743.453 152.901 743.453 155.88V169H739.722ZM732.588 169.246C730.976 169.246 729.554 168.973 728.324 168.426C727.122 167.879 726.192 167.128 725.536 166.171C724.88 165.187 724.552 164.08 724.552 162.85C724.552 161.675 724.826 160.609 725.372 159.652C725.946 158.695 726.862 157.93 728.119 157.356C729.404 156.782 731.126 156.495 733.285 156.495H740.173V159.324H733.449C731.481 159.324 730.156 159.652 729.472 160.308C728.789 160.964 728.447 161.757 728.447 162.686C728.447 163.752 728.871 164.613 729.718 165.269C730.566 165.898 731.741 166.212 733.244 166.212C734.72 166.212 736.005 165.884 737.098 165.228C738.219 164.572 739.025 163.615 739.517 162.358L740.296 165.064C739.777 166.349 738.861 167.374 737.549 168.139C736.237 168.877 734.584 169.246 732.588 169.246ZM750.737 169V147.27H754.509V153.174L754.14 151.698C754.742 150.195 755.753 149.047 757.174 148.254C758.596 147.461 760.345 147.065 762.422 147.065V150.878C762.258 150.851 762.094 150.837 761.93 150.837C761.794 150.837 761.657 150.837 761.52 150.837C759.416 150.837 757.748 151.466 756.518 152.723C755.288 153.98 754.673 155.798 754.673 158.176V169H750.737ZM790.085 169.246C788.281 169.246 786.628 168.836 785.124 168.016C783.648 167.169 782.459 165.925 781.557 164.285C780.683 162.645 780.245 160.595 780.245 158.135C780.245 155.675 780.669 153.625 781.516 151.985C782.391 150.345 783.566 149.115 785.042 148.295C786.546 147.475 788.227 147.065 790.085 147.065C792.217 147.065 794.103 147.53 795.743 148.459C797.383 149.388 798.682 150.687 799.638 152.354C800.595 153.994 801.073 155.921 801.073 158.135C801.073 160.349 800.595 162.29 799.638 163.957C798.682 165.624 797.383 166.923 795.743 167.852C794.103 168.781 792.217 169.246 790.085 169.246ZM778.564 176.954V147.27H782.336V153.133L782.09 158.176L782.5 163.219V176.954H778.564ZM789.757 165.802C791.151 165.802 792.395 165.488 793.488 164.859C794.609 164.23 795.484 163.342 796.112 162.194C796.768 161.019 797.096 159.666 797.096 158.135C797.096 156.577 796.768 155.238 796.112 154.117C795.484 152.969 794.609 152.081 793.488 151.452C792.395 150.823 791.151 150.509 789.757 150.509C788.391 150.509 787.147 150.823 786.026 151.452C784.933 152.081 784.058 152.969 783.402 154.117C782.774 155.238 782.459 156.577 782.459 158.135C782.459 159.666 782.774 161.019 783.402 162.194C784.058 163.342 784.933 164.23 786.026 164.859C787.147 165.488 788.391 165.802 789.757 165.802ZM815.655 169.246C813.796 169.246 812.156 168.904 810.735 168.221C809.341 167.538 808.247 166.499 807.455 165.105C806.689 163.684 806.307 161.907 806.307 159.775V147.27H810.243V159.324C810.243 161.456 810.748 163.055 811.76 164.121C812.798 165.187 814.247 165.72 816.106 165.72C817.472 165.72 818.661 165.447 819.673 164.9C820.684 164.326 821.463 163.506 822.01 162.44C822.556 161.347 822.83 160.035 822.83 158.504V147.27H826.766V169H823.035V163.137L823.65 164.695C822.939 166.144 821.873 167.264 820.452 168.057C819.03 168.85 817.431 169.246 815.655 169.246ZM843.935 169.246C841.611 169.246 839.561 168.768 837.785 167.811C836.035 166.854 834.669 165.542 833.685 163.875C832.728 162.208 832.25 160.294 832.25 158.135C832.25 155.976 832.714 154.062 833.644 152.395C834.6 150.728 835.899 149.429 837.539 148.5C839.206 147.543 841.078 147.065 843.156 147.065C845.26 147.065 847.119 147.53 848.732 148.459C850.344 149.388 851.602 150.7 852.504 152.395C853.433 154.062 853.898 156.017 853.898 158.258C853.898 158.422 853.884 158.613 853.857 158.832C853.857 159.051 853.843 159.256 853.816 159.447H835.325V156.618H851.766L850.167 157.602C850.194 156.208 849.907 154.964 849.306 153.871C848.704 152.778 847.871 151.93 846.805 151.329C845.766 150.7 844.55 150.386 843.156 150.386C841.789 150.386 840.573 150.7 839.507 151.329C838.441 151.93 837.607 152.791 837.006 153.912C836.404 155.005 836.104 156.263 836.104 157.684V158.34C836.104 159.789 836.432 161.087 837.088 162.235C837.771 163.356 838.714 164.23 839.917 164.859C841.119 165.488 842.5 165.802 844.058 165.802C845.342 165.802 846.504 165.583 847.543 165.146C848.609 164.709 849.538 164.053 850.331 163.178L852.504 165.72C851.52 166.868 850.29 167.743 848.814 168.344C847.365 168.945 845.739 169.246 843.935 169.246ZM868.342 169.246C866.238 169.246 864.352 168.781 862.684 167.852C861.044 166.923 859.746 165.624 858.789 163.957C857.833 162.29 857.354 160.349 857.354 158.135C857.354 155.921 857.833 153.994 858.789 152.354C859.746 150.687 861.044 149.388 862.684 148.459C864.352 147.53 866.238 147.065 868.342 147.065C870.174 147.065 871.827 147.475 873.303 148.295C874.779 149.115 875.955 150.345 876.829 151.985C877.731 153.625 878.182 155.675 878.182 158.135C878.182 160.595 877.745 162.645 876.87 164.285C876.023 165.925 874.861 167.169 873.385 168.016C871.909 168.836 870.228 169.246 868.342 169.246ZM868.67 165.802C870.037 165.802 871.267 165.488 872.36 164.859C873.481 164.23 874.356 163.342 874.984 162.194C875.64 161.019 875.968 159.666 875.968 158.135C875.968 156.577 875.64 155.238 874.984 154.117C874.356 152.969 873.481 152.081 872.36 151.452C871.267 150.823 870.037 150.509 868.67 150.509C867.276 150.509 866.033 150.823 864.939 151.452C863.846 152.081 862.971 152.969 862.315 154.117C861.659 155.238 861.331 156.577 861.331 158.135C861.331 159.666 861.659 161.019 862.315 162.194C862.971 163.342 863.846 164.23 864.939 164.859C866.033 165.488 867.276 165.802 868.67 165.802ZM876.091 169V163.137L876.337 158.094L875.927 153.051V138.578H879.863V169H876.091ZM896.987 169.246C894.663 169.246 892.613 168.768 890.837 167.811C889.087 166.854 887.721 165.542 886.737 163.875C885.78 162.208 885.302 160.294 885.302 158.135C885.302 155.976 885.766 154.062 886.696 152.395C887.652 150.728 888.951 149.429 890.591 148.5C892.258 147.543 894.13 147.065 896.208 147.065C898.312 147.065 900.171 147.53 901.784 148.459C903.396 149.388 904.654 150.7 905.556 152.395C906.485 154.062 906.95 156.017 906.95 158.258C906.95 158.422 906.936 158.613 906.909 158.832C906.909 159.051 906.895 159.256 906.868 159.447H888.377V156.618H904.818L903.219 157.602C903.246 156.208 902.959 154.964 902.358 153.871C901.756 152.778 900.923 151.93 899.857 151.329C898.818 150.7 897.602 150.386 896.208 150.386C894.841 150.386 893.625 150.7 892.559 151.329C891.493 151.93 890.659 152.791 890.058 153.912C889.456 155.005 889.156 156.263 889.156 157.684V158.34C889.156 159.789 889.484 161.087 890.14 162.235C890.823 163.356 891.766 164.23 892.969 164.859C894.171 165.488 895.552 165.802 897.11 165.802C898.394 165.802 899.556 165.583 900.595 165.146C901.661 164.709 902.59 164.053 903.383 163.178L905.556 165.72C904.572 166.868 903.342 167.743 901.866 168.344C900.417 168.945 898.791 169.246 896.987 169.246ZM934.947 169.246C933.088 169.246 931.407 168.836 929.904 168.016C928.428 167.169 927.252 165.925 926.378 164.285C925.53 162.645 925.107 160.595 925.107 158.135C925.107 155.675 925.544 153.625 926.419 151.985C927.321 150.345 928.51 149.115 929.986 148.295C931.489 147.475 933.143 147.065 934.947 147.065C937.079 147.065 938.965 147.53 940.605 148.459C942.245 149.388 943.543 150.687 944.5 152.354C945.456 153.994 945.935 155.921 945.935 158.135C945.935 160.349 945.456 162.29 944.5 163.957C943.543 165.624 942.245 166.923 940.605 167.852C938.965 168.781 937.079 169.246 934.947 169.246ZM923.426 169V138.578H927.362V153.051L926.952 158.094L927.198 163.137V169H923.426ZM934.619 165.802C936.013 165.802 937.256 165.488 938.35 164.859C939.47 164.23 940.345 163.342 940.974 162.194C941.63 161.019 941.958 159.666 941.958 158.135C941.958 156.577 941.63 155.238 940.974 154.117C940.345 152.969 939.47 152.081 938.35 151.452C937.256 150.823 936.013 150.509 934.619 150.509C933.252 150.509 932.008 150.823 930.888 151.452C929.794 152.081 928.92 152.969 928.264 154.117C927.635 155.238 927.321 156.577 927.321 158.135C927.321 159.666 927.635 161.019 928.264 162.194C928.92 163.342 929.794 164.23 930.888 164.859C932.008 165.488 933.252 165.802 934.619 165.802ZM951.373 169V147.27H955.145V153.174L954.776 151.698C955.377 150.195 956.389 149.047 957.81 148.254C959.231 147.461 960.981 147.065 963.058 147.065V150.878C962.894 150.851 962.73 150.837 962.566 150.837C962.429 150.837 962.293 150.837 962.156 150.837C960.051 150.837 958.384 151.466 957.154 152.723C955.924 153.98 955.309 155.798 955.309 158.176V169H951.373ZM967.909 169V147.27H971.845V169H967.909ZM969.877 143.088C969.112 143.088 968.47 142.842 967.95 142.35C967.458 141.858 967.212 141.257 967.212 140.546C967.212 139.808 967.458 139.193 967.95 138.701C968.47 138.209 969.112 137.963 969.877 137.963C970.643 137.963 971.271 138.209 971.763 138.701C972.283 139.166 972.542 139.753 972.542 140.464C972.542 141.202 972.296 141.831 971.804 142.35C971.312 142.842 970.67 143.088 969.877 143.088ZM990.963 147.065C992.74 147.065 994.298 147.407 995.637 148.09C997.004 148.773 998.07 149.812 998.835 151.206C999.601 152.6 999.983 154.363 999.983 156.495V169H996.047V156.946C996.047 154.841 995.528 153.256 994.489 152.19C993.478 151.124 992.043 150.591 990.184 150.591C988.79 150.591 987.574 150.864 986.535 151.411C985.497 151.958 984.69 152.764 984.116 153.83C983.57 154.896 983.296 156.222 983.296 157.807V169H979.36V147.27H983.132V153.133L982.517 151.575C983.228 150.154 984.321 149.047 985.797 148.254C987.273 147.461 988.995 147.065 990.963 147.065ZM1016.25 169.246C1014.14 169.246 1012.26 168.781 1010.59 167.852C1008.95 166.923 1007.65 165.624 1006.69 163.957C1005.74 162.29 1005.26 160.349 1005.26 158.135C1005.26 155.921 1005.74 153.994 1006.69 152.354C1007.65 150.687 1008.95 149.388 1010.59 148.459C1012.26 147.53 1014.14 147.065 1016.25 147.065C1018.08 147.065 1019.73 147.475 1021.21 148.295C1022.68 149.115 1023.86 150.345 1024.73 151.985C1025.64 153.625 1026.09 155.675 1026.09 158.135C1026.09 160.595 1025.65 162.645 1024.77 164.285C1023.93 165.925 1022.77 167.169 1021.29 168.016C1019.81 168.836 1018.13 169.246 1016.25 169.246ZM1016.57 165.802C1017.94 165.802 1019.17 165.488 1020.26 164.859C1021.39 164.23 1022.26 163.342 1022.89 162.194C1023.54 161.019 1023.87 159.666 1023.87 158.135C1023.87 156.577 1023.54 155.238 1022.89 154.117C1022.26 152.969 1021.39 152.081 1020.26 151.452C1019.17 150.823 1017.94 150.509 1016.57 150.509C1015.18 150.509 1013.94 150.823 1012.84 151.452C1011.75 152.081 1010.88 152.969 1010.22 154.117C1009.56 155.238 1009.24 156.577 1009.24 158.135C1009.24 159.666 1009.56 161.019 1010.22 162.194C1010.88 163.342 1011.75 164.23 1012.84 164.859C1013.94 165.488 1015.18 165.802 1016.57 165.802ZM1024 169V163.137L1024.24 158.094L1023.83 153.051V138.578H1027.77V169H1024ZM1048.7 169V164.408L1048.5 163.547V155.716C1048.5 154.049 1048.01 152.764 1047.02 151.862C1046.07 150.933 1044.62 150.468 1042.68 150.468C1041.39 150.468 1040.13 150.687 1038.9 151.124C1037.67 151.534 1036.64 152.094 1035.79 152.805L1034.15 149.853C1035.27 148.951 1036.61 148.268 1038.17 147.803C1039.75 147.311 1041.41 147.065 1043.13 147.065C1046.11 147.065 1048.4 147.789 1050.02 149.238C1051.63 150.687 1052.43 152.901 1052.43 155.88V169H1048.7ZM1041.57 169.246C1039.96 169.246 1038.54 168.973 1037.31 168.426C1036.1 167.879 1035.17 167.128 1034.52 166.171C1033.86 165.187 1033.53 164.08 1033.53 162.85C1033.53 161.675 1033.81 160.609 1034.35 159.652C1034.93 158.695 1035.84 157.93 1037.1 157.356C1038.39 156.782 1040.11 156.495 1042.27 156.495H1049.15V159.324H1042.43C1040.46 159.324 1039.14 159.652 1038.45 160.308C1037.77 160.964 1037.43 161.757 1037.43 162.686C1037.43 163.752 1037.85 164.613 1038.7 165.269C1039.55 165.898 1040.72 166.212 1042.23 166.212C1043.7 166.212 1044.99 165.884 1046.08 165.228C1047.2 164.572 1048.01 163.615 1048.5 162.358L1049.28 165.064C1048.76 166.349 1047.84 167.374 1046.53 168.139C1045.22 168.877 1043.57 169.246 1041.57 169.246ZM1059.72 169V147.27H1063.49V153.174L1063.12 151.698C1063.72 150.195 1064.73 149.047 1066.16 148.254C1067.58 147.461 1069.33 147.065 1071.4 147.065V150.878C1071.24 150.851 1071.08 150.837 1070.91 150.837C1070.78 150.837 1070.64 150.837 1070.5 150.837C1068.4 150.837 1066.73 151.466 1065.5 152.723C1064.27 153.98 1063.65 155.798 1063.65 158.176V169H1059.72ZM1084.6 169.246C1082.41 169.246 1080.72 168.658 1079.51 167.483C1078.31 166.308 1077.71 164.627 1077.71 162.44V142.514H1081.65V162.276C1081.65 163.451 1081.93 164.353 1082.51 164.982C1083.11 165.611 1083.96 165.925 1085.05 165.925C1086.28 165.925 1087.3 165.583 1088.12 164.9L1089.35 167.729C1088.75 168.248 1088.03 168.631 1087.18 168.877C1086.36 169.123 1085.5 169.246 1084.6 169.246ZM1074.02 150.509V147.27H1087.88V150.509H1074.02ZM1103.07 169.246C1100.74 169.246 1098.69 168.768 1096.92 167.811C1095.17 166.854 1093.8 165.542 1092.82 163.875C1091.86 162.208 1091.38 160.294 1091.38 158.135C1091.38 155.976 1091.85 154.062 1092.78 152.395C1093.73 150.728 1095.03 149.429 1096.67 148.5C1098.34 147.543 1100.21 147.065 1102.29 147.065C1104.39 147.065 1106.25 147.53 1107.86 148.459C1109.48 149.388 1110.73 150.7 1111.64 152.395C1112.57 154.062 1113.03 156.017 1113.03 158.258C1113.03 158.422 1113.02 158.613 1112.99 158.832C1112.99 159.051 1112.98 159.256 1112.95 159.447H1094.46V156.618H1110.9L1109.3 157.602C1109.33 156.208 1109.04 154.964 1108.44 153.871C1107.84 152.778 1107 151.93 1105.94 151.329C1104.9 150.7 1103.68 150.386 1102.29 150.386C1100.92 150.386 1099.71 150.7 1098.64 151.329C1097.57 151.93 1096.74 152.791 1096.14 153.912C1095.54 155.005 1095.24 156.263 1095.24 157.684V158.34C1095.24 159.789 1095.56 161.087 1096.22 162.235C1096.9 163.356 1097.85 164.23 1099.05 164.859C1100.25 165.488 1101.63 165.802 1103.19 165.802C1104.48 165.802 1105.64 165.583 1106.68 165.146C1107.74 164.709 1108.67 164.053 1109.46 163.178L1111.64 165.72C1110.65 166.868 1109.42 167.743 1107.95 168.344C1106.5 168.945 1104.87 169.246 1103.07 169.246ZM109.332 219V197.27H113.268V219H109.332ZM111.3 193.088C110.534 193.088 109.892 192.842 109.373 192.35C108.881 191.858 108.635 191.257 108.635 190.546C108.635 189.808 108.881 189.193 109.373 188.701C109.892 188.209 110.534 187.963 111.3 187.963C112.065 187.963 112.694 188.209 113.186 188.701C113.705 189.166 113.965 189.753 113.965 190.464C113.965 191.202 113.719 191.831 113.227 192.35C112.735 192.842 112.092 193.088 111.3 193.088ZM132.386 197.065C134.162 197.065 135.72 197.407 137.06 198.09C138.426 198.773 139.492 199.812 140.258 201.206C141.023 202.6 141.406 204.363 141.406 206.495V219H137.47V206.946C137.47 204.841 136.95 203.256 135.912 202.19C134.9 201.124 133.465 200.591 131.607 200.591C130.213 200.591 128.996 200.864 127.958 201.411C126.919 201.958 126.113 202.764 125.539 203.83C124.992 204.896 124.719 206.222 124.719 207.807V219H120.783V197.27H124.555V203.133L123.94 201.575C124.65 200.154 125.744 199.047 127.22 198.254C128.696 197.461 130.418 197.065 132.386 197.065ZM157.669 219.246C155.564 219.246 153.678 218.781 152.011 217.852C150.371 216.923 149.073 215.624 148.116 213.957C147.159 212.29 146.681 210.349 146.681 208.135C146.681 205.921 147.159 203.994 148.116 202.354C149.073 200.687 150.371 199.388 152.011 198.459C153.678 197.53 155.564 197.065 157.669 197.065C159.5 197.065 161.154 197.475 162.63 198.295C164.106 199.115 165.281 200.345 166.156 201.985C167.058 203.625 167.509 205.675 167.509 208.135C167.509 210.595 167.072 212.645 166.197 214.285C165.35 215.925 164.188 217.169 162.712 218.016C161.236 218.836 159.555 219.246 157.669 219.246ZM157.997 215.802C159.364 215.802 160.594 215.488 161.687 214.859C162.808 214.23 163.682 213.342 164.311 212.194C164.967 211.019 165.295 209.666 165.295 208.135C165.295 206.577 164.967 205.238 164.311 204.117C163.682 202.969 162.808 202.081 161.687 201.452C160.594 200.823 159.364 200.509 157.997 200.509C156.603 200.509 155.359 200.823 154.266 201.452C153.173 202.081 152.298 202.969 151.642 204.117C150.986 205.238 150.658 206.577 150.658 208.135C150.658 209.666 150.986 211.019 151.642 212.194C152.298 213.342 153.173 214.23 154.266 214.859C155.359 215.488 156.603 215.802 157.997 215.802ZM165.418 219V213.137L165.664 208.094L165.254 203.051V188.578H169.19V219H165.418ZM186.313 219.246C183.99 219.246 181.94 218.768 180.163 217.811C178.414 216.854 177.047 215.542 176.063 213.875C175.107 212.208 174.628 210.294 174.628 208.135C174.628 205.976 175.093 204.062 176.022 202.395C176.979 200.728 178.277 199.429 179.917 198.5C181.585 197.543 183.457 197.065 185.534 197.065C187.639 197.065 189.498 197.53 191.11 198.459C192.723 199.388 193.98 200.7 194.882 202.395C195.812 204.062 196.276 206.017 196.276 208.258C196.276 208.422 196.263 208.613 196.235 208.832C196.235 209.051 196.222 209.256 196.194 209.447H177.703V206.618H194.144L192.545 207.602C192.573 206.208 192.286 204.964 191.684 203.871C191.083 202.778 190.249 201.93 189.183 201.329C188.145 200.7 186.928 200.386 185.534 200.386C184.168 200.386 182.951 200.7 181.885 201.329C180.819 201.93 179.986 202.791 179.384 203.912C178.783 205.005 178.482 206.263 178.482 207.684V208.34C178.482 209.789 178.81 211.087 179.466 212.235C180.15 213.356 181.093 214.23 182.295 214.859C183.498 215.488 184.878 215.802 186.436 215.802C187.721 215.802 188.883 215.583 189.921 215.146C190.987 214.709 191.917 214.053 192.709 213.178L194.882 215.72C193.898 216.868 192.668 217.743 191.192 218.344C189.744 218.945 188.117 219.246 186.313 219.246ZM213.263 219.246C211.459 219.246 209.805 218.836 208.302 218.016C206.826 217.169 205.637 215.925 204.735 214.285C203.86 212.645 203.423 210.595 203.423 208.135C203.423 205.675 203.846 203.625 204.694 201.985C205.568 200.345 206.744 199.115 208.22 198.295C209.723 197.475 211.404 197.065 213.263 197.065C215.395 197.065 217.281 197.53 218.921 198.459C220.561 199.388 221.859 200.687 222.816 202.354C223.772 203.994 224.251 205.921 224.251 208.135C224.251 210.349 223.772 212.29 222.816 213.957C221.859 215.624 220.561 216.923 218.921 217.852C217.281 218.781 215.395 219.246 213.263 219.246ZM201.742 226.954V197.27H205.514V203.133L205.268 208.176L205.678 213.219V226.954H201.742ZM212.935 215.802C214.329 215.802 215.572 215.488 216.666 214.859C217.786 214.23 218.661 213.342 219.29 212.194C219.946 211.019 220.274 209.666 220.274 208.135C220.274 206.577 219.946 205.238 219.29 204.117C218.661 202.969 217.786 202.081 216.666 201.452C215.572 200.823 214.329 200.509 212.935 200.509C211.568 200.509 210.324 200.823 209.204 201.452C208.11 202.081 207.236 202.969 206.58 204.117C205.951 205.238 205.637 206.577 205.637 208.135C205.637 209.666 205.951 211.019 206.58 212.194C207.236 213.342 208.11 214.23 209.204 214.859C210.324 215.488 211.568 215.802 212.935 215.802ZM239.365 219.246C237.042 219.246 234.992 218.768 233.215 217.811C231.466 216.854 230.099 215.542 229.115 213.875C228.158 212.208 227.68 210.294 227.68 208.135C227.68 205.976 228.145 204.062 229.074 202.395C230.031 200.728 231.329 199.429 232.969 198.5C234.636 197.543 236.509 197.065 238.586 197.065C240.691 197.065 242.549 197.53 244.162 198.459C245.775 199.388 247.032 200.7 247.934 202.395C248.863 204.062 249.328 206.017 249.328 208.258C249.328 208.422 249.314 208.613 249.287 208.832C249.287 209.051 249.273 209.256 249.246 209.447H230.755V206.618H247.196L245.597 207.602C245.624 206.208 245.337 204.964 244.736 203.871C244.135 202.778 243.301 201.93 242.235 201.329C241.196 200.7 239.98 200.386 238.586 200.386C237.219 200.386 236.003 200.7 234.937 201.329C233.871 201.93 233.037 202.791 232.436 203.912C231.835 205.005 231.534 206.263 231.534 207.684V208.34C231.534 209.789 231.862 211.087 232.518 212.235C233.201 213.356 234.144 214.23 235.347 214.859C236.55 215.488 237.93 215.802 239.488 215.802C240.773 215.802 241.934 215.583 242.973 215.146C244.039 214.709 244.968 214.053 245.761 213.178L247.934 215.72C246.95 216.868 245.72 217.743 244.244 218.344C242.795 218.945 241.169 219.246 239.365 219.246ZM266.397 197.065C268.173 197.065 269.731 197.407 271.071 198.09C272.437 198.773 273.503 199.812 274.269 201.206C275.034 202.6 275.417 204.363 275.417 206.495V219H271.481V206.946C271.481 204.841 270.961 203.256 269.923 202.19C268.911 201.124 267.476 200.591 265.618 200.591C264.224 200.591 263.007 200.864 261.969 201.411C260.93 201.958 260.124 202.764 259.55 203.83C259.003 204.896 258.73 206.222 258.73 207.807V219H254.794V197.27H258.566V203.133L257.951 201.575C258.661 200.154 259.755 199.047 261.231 198.254C262.707 197.461 264.429 197.065 266.397 197.065ZM291.68 219.246C289.575 219.246 287.689 218.781 286.022 217.852C284.382 216.923 283.083 215.624 282.127 213.957C281.17 212.29 280.692 210.349 280.692 208.135C280.692 205.921 281.17 203.994 282.127 202.354C283.083 200.687 284.382 199.388 286.022 198.459C287.689 197.53 289.575 197.065 291.68 197.065C293.511 197.065 295.165 197.475 296.641 198.295C298.117 199.115 299.292 200.345 300.167 201.985C301.069 203.625 301.52 205.675 301.52 208.135C301.52 210.595 301.082 212.645 300.208 214.285C299.36 215.925 298.199 217.169 296.723 218.016C295.247 218.836 293.566 219.246 291.68 219.246ZM292.008 215.802C293.374 215.802 294.604 215.488 295.698 214.859C296.818 214.23 297.693 213.342 298.322 212.194C298.978 211.019 299.306 209.666 299.306 208.135C299.306 206.577 298.978 205.238 298.322 204.117C297.693 202.969 296.818 202.081 295.698 201.452C294.604 200.823 293.374 200.509 292.008 200.509C290.614 200.509 289.37 200.823 288.277 201.452C287.183 202.081 286.309 202.969 285.653 204.117C284.997 205.238 284.669 206.577 284.669 208.135C284.669 209.666 284.997 211.019 285.653 212.194C286.309 213.342 287.183 214.23 288.277 214.859C289.37 215.488 290.614 215.802 292.008 215.802ZM299.429 219V213.137L299.675 208.094L299.265 203.051V188.578H303.201V219H299.429ZM320.324 219.246C318.001 219.246 315.951 218.768 314.174 217.811C312.425 216.854 311.058 215.542 310.074 213.875C309.117 212.208 308.639 210.294 308.639 208.135C308.639 205.976 309.104 204.062 310.033 202.395C310.99 200.728 312.288 199.429 313.928 198.5C315.595 197.543 317.468 197.065 319.545 197.065C321.65 197.065 323.508 197.53 325.121 198.459C326.734 199.388 327.991 200.7 328.893 202.395C329.822 204.062 330.287 206.017 330.287 208.258C330.287 208.422 330.273 208.613 330.246 208.832C330.246 209.051 330.232 209.256 330.205 209.447H311.714V206.618H328.155L326.556 207.602C326.583 206.208 326.296 204.964 325.695 203.871C325.094 202.778 324.26 201.93 323.194 201.329C322.155 200.7 320.939 200.386 319.545 200.386C318.178 200.386 316.962 200.7 315.896 201.329C314.83 201.93 313.996 202.791 313.395 203.912C312.794 205.005 312.493 206.263 312.493 207.684V208.34C312.493 209.789 312.821 211.087 313.477 212.235C314.16 213.356 315.103 214.23 316.306 214.859C317.509 215.488 318.889 215.802 320.447 215.802C321.732 215.802 322.893 215.583 323.932 215.146C324.998 214.709 325.927 214.053 326.72 213.178L328.893 215.72C327.909 216.868 326.679 217.743 325.203 218.344C323.754 218.945 322.128 219.246 320.324 219.246ZM347.355 197.065C349.132 197.065 350.69 197.407 352.029 198.09C353.396 198.773 354.462 199.812 355.227 201.206C355.993 202.6 356.375 204.363 356.375 206.495V219H352.439V206.946C352.439 204.841 351.92 203.256 350.881 202.19C349.87 201.124 348.435 200.591 346.576 200.591C345.182 200.591 343.966 200.864 342.927 201.411C341.889 201.958 341.082 202.764 340.508 203.83C339.962 204.896 339.688 206.222 339.688 207.807V219H335.752V197.27H339.524V203.133L338.909 201.575C339.62 200.154 340.713 199.047 342.189 198.254C343.665 197.461 345.387 197.065 347.355 197.065ZM373.131 219.246C370.917 219.246 368.935 218.768 367.186 217.811C365.464 216.854 364.111 215.542 363.127 213.875C362.143 212.208 361.651 210.294 361.651 208.135C361.651 205.976 362.143 204.062 363.127 202.395C364.111 200.728 365.464 199.429 367.186 198.5C368.935 197.543 370.917 197.065 373.131 197.065C375.099 197.065 376.848 197.461 378.379 198.254C379.937 199.019 381.139 200.167 381.987 201.698L378.994 203.625C378.283 202.559 377.408 201.78 376.37 201.288C375.358 200.769 374.265 200.509 373.09 200.509C371.668 200.509 370.397 200.823 369.277 201.452C368.156 202.081 367.268 202.969 366.612 204.117C365.956 205.238 365.628 206.577 365.628 208.135C365.628 209.693 365.956 211.046 366.612 212.194C367.268 213.342 368.156 214.23 369.277 214.859C370.397 215.488 371.668 215.802 373.09 215.802C374.265 215.802 375.358 215.556 376.37 215.064C377.408 214.545 378.283 213.752 378.994 212.686L381.987 214.572C381.139 216.075 379.937 217.237 378.379 218.057C376.848 218.85 375.099 219.246 373.131 219.246ZM386.802 219V197.27H390.738V219H386.802ZM388.77 193.088C388.005 193.088 387.363 192.842 386.843 192.35C386.351 191.858 386.105 191.257 386.105 190.546C386.105 189.808 386.351 189.193 386.843 188.701C387.363 188.209 388.005 187.963 388.77 187.963C389.536 187.963 390.164 188.209 390.656 188.701C391.176 189.166 391.435 189.753 391.435 190.464C391.435 191.202 391.189 191.831 390.697 192.35C390.205 192.842 389.563 193.088 388.77 193.088ZM411.742 219V214.408L411.537 213.547V205.716C411.537 204.049 411.045 202.764 410.061 201.862C409.105 200.933 407.656 200.468 405.715 200.468C404.431 200.468 403.173 200.687 401.943 201.124C400.713 201.534 399.675 202.094 398.827 202.805L397.187 199.853C398.308 198.951 399.647 198.268 401.205 197.803C402.791 197.311 404.444 197.065 406.166 197.065C409.146 197.065 411.442 197.789 413.054 199.238C414.667 200.687 415.473 202.901 415.473 205.88V219H411.742ZM404.608 219.246C402.996 219.246 401.574 218.973 400.344 218.426C399.142 217.879 398.212 217.128 397.556 216.171C396.9 215.187 396.572 214.08 396.572 212.85C396.572 211.675 396.846 210.609 397.392 209.652C397.966 208.695 398.882 207.93 400.139 207.356C401.424 206.782 403.146 206.495 405.305 206.495H412.193V209.324H405.469C403.501 209.324 402.176 209.652 401.492 210.308C400.809 210.964 400.467 211.757 400.467 212.686C400.467 213.752 400.891 214.613 401.738 215.269C402.586 215.898 403.761 216.212 405.264 216.212C406.74 216.212 408.025 215.884 409.118 215.228C410.239 214.572 411.045 213.615 411.537 212.358L412.316 215.064C411.797 216.349 410.881 217.374 409.569 218.139C408.257 218.877 406.604 219.246 404.608 219.246ZM443.444 219.246C441.121 219.246 439.071 218.768 437.294 217.811C435.545 216.854 434.178 215.542 433.194 213.875C432.237 212.208 431.759 210.294 431.759 208.135C431.759 205.976 432.224 204.062 433.153 202.395C434.11 200.728 435.408 199.429 437.048 198.5C438.715 197.543 440.588 197.065 442.665 197.065C444.77 197.065 446.628 197.53 448.241 198.459C449.854 199.388 451.111 200.7 452.013 202.395C452.942 204.062 453.407 206.017 453.407 208.258C453.407 208.422 453.393 208.613 453.366 208.832C453.366 209.051 453.352 209.256 453.325 209.447H434.834V206.618H451.275L449.676 207.602C449.703 206.208 449.416 204.964 448.815 203.871C448.214 202.778 447.38 201.93 446.314 201.329C445.275 200.7 444.059 200.386 442.665 200.386C441.298 200.386 440.082 200.7 439.016 201.329C437.95 201.93 437.116 202.791 436.515 203.912C435.914 205.005 435.613 206.263 435.613 207.684V208.34C435.613 209.789 435.941 211.087 436.597 212.235C437.28 213.356 438.223 214.23 439.426 214.859C440.629 215.488 442.009 215.802 443.567 215.802C444.852 215.802 446.013 215.583 447.052 215.146C448.118 214.709 449.047 214.053 449.84 213.178L452.013 215.72C451.029 216.868 449.799 217.743 448.323 218.344C446.874 218.945 445.248 219.246 443.444 219.246ZM470.476 197.065C472.252 197.065 473.81 197.407 475.15 198.09C476.516 198.773 477.582 199.812 478.348 201.206C479.113 202.6 479.496 204.363 479.496 206.495V219H475.56V206.946C475.56 204.841 475.04 203.256 474.002 202.19C472.99 201.124 471.555 200.591 469.697 200.591C468.303 200.591 467.086 200.864 466.048 201.411C465.009 201.958 464.203 202.764 463.629 203.83C463.082 204.896 462.809 206.222 462.809 207.807V219H458.873V197.27H462.645V203.133L462.03 201.575C462.74 200.154 463.834 199.047 465.31 198.254C466.786 197.461 468.508 197.065 470.476 197.065ZM496.456 219.246C494.132 219.246 492.082 218.768 490.306 217.811C488.556 216.854 487.19 215.542 486.206 213.875C485.249 212.208 484.771 210.294 484.771 208.135C484.771 205.976 485.235 204.062 486.165 202.395C487.121 200.728 488.42 199.429 490.06 198.5C491.727 197.543 493.599 197.065 495.677 197.065C497.781 197.065 499.64 197.53 501.253 198.459C502.865 199.388 504.123 200.7 505.025 202.395C505.954 204.062 506.419 206.017 506.419 208.258C506.419 208.422 506.405 208.613 506.378 208.832C506.378 209.051 506.364 209.256 506.337 209.447H487.846V206.618H504.287L502.688 207.602C502.715 206.208 502.428 204.964 501.827 203.871C501.225 202.778 500.392 201.93 499.326 201.329C498.287 200.7 497.071 200.386 495.677 200.386C494.31 200.386 493.094 200.7 492.028 201.329C490.962 201.93 490.128 202.791 489.527 203.912C488.925 205.005 488.625 206.263 488.625 207.684V208.34C488.625 209.789 488.953 211.087 489.609 212.235C490.292 213.356 491.235 214.23 492.438 214.859C493.64 215.488 495.021 215.802 496.579 215.802C497.863 215.802 499.025 215.583 500.064 215.146C501.13 214.709 502.059 214.053 502.852 213.178L505.025 215.72C504.041 216.868 502.811 217.743 501.335 218.344C499.886 218.945 498.26 219.246 496.456 219.246ZM511.884 219V197.27H515.656V203.174L515.287 201.698C515.889 200.195 516.9 199.047 518.321 198.254C519.743 197.461 521.492 197.065 523.569 197.065V200.878C523.405 200.851 523.241 200.837 523.077 200.837C522.941 200.837 522.804 200.837 522.667 200.837C520.563 200.837 518.895 201.466 517.665 202.723C516.435 203.98 515.82 205.798 515.82 208.176V219H511.884ZM537.732 227.2C535.737 227.2 533.796 226.913 531.91 226.339C530.052 225.792 528.535 225 527.359 223.961L529.245 220.927C530.257 221.802 531.5 222.485 532.976 222.977C534.452 223.496 535.997 223.756 537.609 223.756C540.179 223.756 542.065 223.155 543.267 221.952C544.47 220.749 545.071 218.918 545.071 216.458V211.866L545.481 207.561L545.276 203.215V197.27H549.007V216.048C549.007 219.875 548.051 222.69 546.137 224.494C544.224 226.298 541.422 227.2 537.732 227.2ZM537.24 218.098C535.136 218.098 533.25 217.661 531.582 216.786C529.942 215.884 528.63 214.64 527.646 213.055C526.69 211.47 526.211 209.638 526.211 207.561C526.211 205.456 526.69 203.625 527.646 202.067C528.63 200.482 529.942 199.252 531.582 198.377C533.25 197.502 535.136 197.065 537.24 197.065C539.099 197.065 540.794 197.448 542.324 198.213C543.855 198.951 545.071 200.099 545.973 201.657C546.903 203.215 547.367 205.183 547.367 207.561C547.367 209.912 546.903 211.866 545.973 213.424C545.071 214.982 543.855 216.157 542.324 216.95C540.794 217.715 539.099 218.098 537.24 218.098ZM537.691 214.654C539.14 214.654 540.425 214.353 541.545 213.752C542.666 213.151 543.541 212.317 544.169 211.251C544.825 210.185 545.153 208.955 545.153 207.561C545.153 206.167 544.825 204.937 544.169 203.871C543.541 202.805 542.666 201.985 541.545 201.411C540.425 200.81 539.14 200.509 537.691 200.509C536.243 200.509 534.944 200.81 533.796 201.411C532.676 201.985 531.787 202.805 531.131 203.871C530.503 204.937 530.188 206.167 530.188 207.561C530.188 208.955 530.503 210.185 531.131 211.251C531.787 212.317 532.676 213.151 533.796 213.752C534.944 214.353 536.243 214.654 537.691 214.654ZM566.204 219.246C563.881 219.246 561.831 218.768 560.054 217.811C558.305 216.854 556.938 215.542 555.954 213.875C554.997 212.208 554.519 210.294 554.519 208.135C554.519 205.976 554.984 204.062 555.913 202.395C556.87 200.728 558.168 199.429 559.808 198.5C561.475 197.543 563.348 197.065 565.425 197.065C567.53 197.065 569.388 197.53 571.001 198.459C572.614 199.388 573.871 200.7 574.773 202.395C575.702 204.062 576.167 206.017 576.167 208.258C576.167 208.422 576.153 208.613 576.126 208.832C576.126 209.051 576.112 209.256 576.085 209.447H557.594V206.618H574.035L572.436 207.602C572.463 206.208 572.176 204.964 571.575 203.871C570.974 202.778 570.14 201.93 569.074 201.329C568.035 200.7 566.819 200.386 565.425 200.386C564.058 200.386 562.842 200.7 561.776 201.329C560.71 201.93 559.876 202.791 559.275 203.912C558.674 205.005 558.373 206.263 558.373 207.684V208.34C558.373 209.789 558.701 211.087 559.357 212.235C560.04 213.356 560.983 214.23 562.186 214.859C563.389 215.488 564.769 215.802 566.327 215.802C567.612 215.802 568.773 215.583 569.812 215.146C570.878 214.709 571.807 214.053 572.6 213.178L574.773 215.72C573.789 216.868 572.559 217.743 571.083 218.344C569.634 218.945 568.008 219.246 566.204 219.246ZM562.309 194.113L567.885 188.783H572.887L565.999 194.113H562.309ZM589.094 219.246C586.908 219.246 585.213 218.658 584.01 217.483C582.808 216.308 582.206 214.627 582.206 212.44V192.514H586.142V212.276C586.142 213.451 586.429 214.353 587.003 214.982C587.605 215.611 588.452 215.925 589.545 215.925C590.775 215.925 591.8 215.583 592.62 214.9L593.85 217.729C593.249 218.248 592.525 218.631 591.677 218.877C590.857 219.123 589.996 219.246 589.094 219.246ZM578.516 200.509V197.27H592.374V200.509H578.516ZM598.609 219V197.27H602.545V219H598.609ZM600.577 193.088C599.812 193.088 599.169 192.842 598.65 192.35C598.158 191.858 597.912 191.257 597.912 190.546C597.912 189.808 598.158 189.193 598.65 188.701C599.169 188.209 599.812 187.963 600.577 187.963C601.342 187.963 601.971 188.209 602.463 188.701C602.982 189.166 603.242 189.753 603.242 190.464C603.242 191.202 602.996 191.831 602.504 192.35C602.012 192.842 601.37 193.088 600.577 193.088ZM619.531 219.246C617.317 219.246 615.335 218.768 613.586 217.811C611.864 216.854 610.511 215.542 609.527 213.875C608.543 212.208 608.051 210.294 608.051 208.135C608.051 205.976 608.543 204.062 609.527 202.395C610.511 200.728 611.864 199.429 613.586 198.5C615.335 197.543 617.317 197.065 619.531 197.065C621.499 197.065 623.248 197.461 624.779 198.254C626.337 199.019 627.54 200.167 628.387 201.698L625.394 203.625C624.683 202.559 623.809 201.78 622.77 201.288C621.759 200.769 620.665 200.509 619.49 200.509C618.069 200.509 616.798 200.823 615.677 201.452C614.556 202.081 613.668 202.969 613.012 204.117C612.356 205.238 612.028 206.577 612.028 208.135C612.028 209.693 612.356 211.046 613.012 212.194C613.668 213.342 614.556 214.23 615.677 214.859C616.798 215.488 618.069 215.802 619.49 215.802C620.665 215.802 621.759 215.556 622.77 215.064C623.809 214.545 624.683 213.752 625.394 212.686L628.387 214.572C627.54 216.075 626.337 217.237 624.779 218.057C623.248 218.85 621.499 219.246 619.531 219.246ZM646.972 219V214.408L646.767 213.547V205.716C646.767 204.049 646.275 202.764 645.291 201.862C644.334 200.933 642.886 200.468 640.945 200.468C639.66 200.468 638.403 200.687 637.173 201.124C635.943 201.534 634.904 202.094 634.057 202.805L632.417 199.853C633.538 198.951 634.877 198.268 636.435 197.803C638.02 197.311 639.674 197.065 641.396 197.065C644.375 197.065 646.671 197.789 648.284 199.238C649.897 200.687 650.703 202.901 650.703 205.88V219H646.972ZM639.838 219.246C638.225 219.246 636.804 218.973 635.574 218.426C634.371 217.879 633.442 217.128 632.786 216.171C632.13 215.187 631.802 214.08 631.802 212.85C631.802 211.675 632.075 210.609 632.622 209.652C633.196 208.695 634.112 207.93 635.369 207.356C636.654 206.782 638.376 206.495 640.535 206.495H647.423V209.324H640.699C638.731 209.324 637.405 209.652 636.722 210.308C636.039 210.964 635.697 211.757 635.697 212.686C635.697 213.752 636.121 214.613 636.968 215.269C637.815 215.898 638.991 216.212 640.494 216.212C641.97 216.212 643.255 215.884 644.348 215.228C645.469 214.572 646.275 213.615 646.767 212.358L647.546 215.064C647.027 216.349 646.111 217.374 644.799 218.139C643.487 218.877 641.833 219.246 639.838 219.246ZM669.941 227.2C668.902 227.2 667.891 227.022 666.907 226.667C665.923 226.339 665.075 225.847 664.365 225.191L666.046 222.239C666.592 222.758 667.194 223.155 667.85 223.428C668.506 223.701 669.203 223.838 669.941 223.838C670.897 223.838 671.69 223.592 672.319 223.1C672.947 222.608 673.535 221.733 674.082 220.476L675.435 217.483L675.845 216.991L684.373 197.27H688.227L677.69 221.173C677.061 222.704 676.35 223.906 675.558 224.781C674.792 225.656 673.945 226.271 673.016 226.626C672.086 227.009 671.061 227.2 669.941 227.2ZM675.107 219.697L665.185 197.27H669.285L677.731 216.622L675.107 219.697ZM716.4 219V214.408L716.195 213.547V205.716C716.195 204.049 715.703 202.764 714.719 201.862C713.762 200.933 712.313 200.468 710.373 200.468C709.088 200.468 707.831 200.687 706.601 201.124C705.371 201.534 704.332 202.094 703.485 202.805L701.845 199.853C702.965 198.951 704.305 198.268 705.863 197.803C707.448 197.311 709.102 197.065 710.824 197.065C713.803 197.065 716.099 197.789 717.712 199.238C719.324 200.687 720.131 202.901 720.131 205.88V219H716.4ZM709.266 219.246C707.653 219.246 706.232 218.973 705.002 218.426C703.799 217.879 702.87 217.128 702.214 216.171C701.558 215.187 701.23 214.08 701.23 212.85C701.23 211.675 701.503 210.609 702.05 209.652C702.624 208.695 703.539 207.93 704.797 207.356C706.081 206.782 707.803 206.495 709.963 206.495H716.851V209.324H710.127C708.159 209.324 706.833 209.652 706.15 210.308C705.466 210.964 705.125 211.757 705.125 212.686C705.125 213.752 705.548 214.613 706.396 215.269C707.243 215.898 708.418 216.212 709.922 216.212C711.398 216.212 712.682 215.884 713.776 215.228C714.896 214.572 715.703 213.615 716.195 212.358L716.974 215.064C716.454 216.349 715.539 217.374 714.227 218.139C712.915 218.877 711.261 219.246 709.266 219.246ZM739.018 197.065C740.794 197.065 742.352 197.407 743.692 198.09C745.058 198.773 746.124 199.812 746.89 201.206C747.655 202.6 748.038 204.363 748.038 206.495V219H744.102V206.946C744.102 204.841 743.582 203.256 742.544 202.19C741.532 201.124 740.097 200.591 738.239 200.591C736.845 200.591 735.628 200.864 734.59 201.411C733.551 201.958 732.745 202.764 732.171 203.83C731.624 204.896 731.351 206.222 731.351 207.807V219H727.415V188.578H731.351V203.133L730.572 201.575C731.282 200.154 732.376 199.047 733.852 198.254C735.328 197.461 737.05 197.065 739.018 197.065ZM764.629 219.246C762.442 219.246 760.501 218.768 758.807 217.811C757.112 216.854 755.773 215.542 754.789 213.875C753.805 212.18 753.313 210.267 753.313 208.135C753.313 205.976 753.805 204.062 754.789 202.395C755.773 200.728 757.112 199.429 758.807 198.5C760.501 197.543 762.442 197.065 764.629 197.065C766.788 197.065 768.715 197.543 770.41 198.5C772.132 199.429 773.471 200.728 774.428 202.395C775.412 204.035 775.904 205.948 775.904 208.135C775.904 210.294 775.412 212.208 774.428 213.875C773.471 215.542 772.132 216.854 770.41 217.811C768.715 218.768 766.788 219.246 764.629 219.246ZM764.629 215.802C766.023 215.802 767.266 215.488 768.36 214.859C769.48 214.23 770.355 213.342 770.984 212.194C771.612 211.019 771.927 209.666 771.927 208.135C771.927 206.577 771.612 205.238 770.984 204.117C770.355 202.969 769.48 202.081 768.36 201.452C767.266 200.823 766.023 200.509 764.629 200.509C763.235 200.509 761.991 200.823 760.898 201.452C759.804 202.081 758.93 202.969 758.274 204.117C757.618 205.238 757.29 206.577 757.29 208.135C757.29 209.666 757.618 211.019 758.274 212.194C758.93 213.342 759.804 214.23 760.898 214.859C761.991 215.488 763.235 215.802 764.629 215.802ZM781.347 219V197.27H785.119V203.174L784.75 201.698C785.352 200.195 786.363 199.047 787.784 198.254C789.206 197.461 790.955 197.065 793.032 197.065V200.878C792.868 200.851 792.704 200.837 792.54 200.837C792.404 200.837 792.267 200.837 792.13 200.837C790.026 200.837 788.358 201.466 787.128 202.723C785.898 203.98 785.283 205.798 785.283 208.176V219H781.347ZM797.883 219V197.27H801.655V203.174L801.286 201.698C801.888 200.195 802.899 199.047 804.32 198.254C805.742 197.461 807.491 197.065 809.568 197.065V200.878C809.404 200.851 809.24 200.837 809.076 200.837C808.94 200.837 808.803 200.837 808.666 200.837C806.562 200.837 804.894 201.466 803.664 202.723C802.434 203.98 801.819 205.798 801.819 208.176V219H797.883ZM823.526 219.246C821.34 219.246 819.399 218.768 817.704 217.811C816.01 216.854 814.67 215.542 813.686 213.875C812.702 212.18 812.21 210.267 812.21 208.135C812.21 205.976 812.702 204.062 813.686 202.395C814.67 200.728 816.01 199.429 817.704 198.5C819.399 197.543 821.34 197.065 823.526 197.065C825.686 197.065 827.613 197.543 829.307 198.5C831.029 199.429 832.369 200.728 833.325 202.395C834.309 204.035 834.801 205.948 834.801 208.135C834.801 210.294 834.309 212.208 833.325 213.875C832.369 215.542 831.029 216.854 829.307 217.811C827.613 218.768 825.686 219.246 823.526 219.246ZM823.526 215.802C824.92 215.802 826.164 215.488 827.257 214.859C828.378 214.23 829.253 213.342 829.881 212.194C830.51 211.019 830.824 209.666 830.824 208.135C830.824 206.577 830.51 205.238 829.881 204.117C829.253 202.969 828.378 202.081 827.257 201.452C826.164 200.823 824.92 200.509 823.526 200.509C822.132 200.509 820.889 200.823 819.795 201.452C818.702 202.081 817.827 202.969 817.171 204.117C816.515 205.238 816.187 206.577 816.187 208.135C816.187 209.666 816.515 211.019 817.171 212.194C817.827 213.342 818.702 214.23 819.795 214.859C820.889 215.488 822.132 215.802 823.526 215.802ZM860.931 219.246C858.608 219.246 856.558 218.768 854.781 217.811C853.032 216.854 851.665 215.542 850.681 213.875C849.725 212.208 849.246 210.294 849.246 208.135C849.246 205.976 849.711 204.062 850.64 202.395C851.597 200.728 852.895 199.429 854.535 198.5C856.203 197.543 858.075 197.065 860.152 197.065C862.257 197.065 864.116 197.53 865.728 198.459C867.341 199.388 868.598 200.7 869.5 202.395C870.43 204.062 870.894 206.017 870.894 208.258C870.894 208.422 870.881 208.613 870.853 208.832C870.853 209.051 870.84 209.256 870.812 209.447H852.321V206.618H868.762L867.163 207.602C867.191 206.208 866.904 204.964 866.302 203.871C865.701 202.778 864.867 201.93 863.801 201.329C862.763 200.7 861.546 200.386 860.152 200.386C858.786 200.386 857.569 200.7 856.503 201.329C855.437 201.93 854.604 202.791 854.002 203.912C853.401 205.005 853.1 206.263 853.1 207.684V208.34C853.1 209.789 853.428 211.087 854.084 212.235C854.768 213.356 855.711 214.23 856.913 214.859C858.116 215.488 859.496 215.802 861.054 215.802C862.339 215.802 863.501 215.583 864.539 215.146C865.605 214.709 866.535 214.053 867.327 213.178L869.5 215.72C868.516 216.868 867.286 217.743 865.81 218.344C864.362 218.945 862.735 219.246 860.931 219.246ZM885.831 219.246C883.617 219.246 881.635 218.768 879.886 217.811C878.164 216.854 876.811 215.542 875.827 213.875C874.843 212.208 874.351 210.294 874.351 208.135C874.351 205.976 874.843 204.062 875.827 202.395C876.811 200.728 878.164 199.429 879.886 198.5C881.635 197.543 883.617 197.065 885.831 197.065C887.799 197.065 889.548 197.461 891.079 198.254C892.637 199.019 893.84 200.167 894.687 201.698L891.694 203.625C890.983 202.559 890.109 201.78 889.07 201.288C888.059 200.769 886.965 200.509 885.79 200.509C884.369 200.509 883.098 200.823 881.977 201.452C880.856 202.081 879.968 202.969 879.312 204.117C878.656 205.238 878.328 206.577 878.328 208.135C878.328 209.693 878.656 211.046 879.312 212.194C879.968 213.342 880.856 214.23 881.977 214.859C883.098 215.488 884.369 215.802 885.79 215.802C886.965 215.802 888.059 215.556 889.07 215.064C890.109 214.545 890.983 213.752 891.694 212.686L894.687 214.572C893.84 216.075 892.637 217.237 891.079 218.057C889.548 218.85 887.799 219.246 885.831 219.246ZM908.769 219.246C906.583 219.246 904.642 218.768 902.947 217.811C901.253 216.854 899.913 215.542 898.929 213.875C897.945 212.18 897.453 210.267 897.453 208.135C897.453 205.976 897.945 204.062 898.929 202.395C899.913 200.728 901.253 199.429 902.947 198.5C904.642 197.543 906.583 197.065 908.769 197.065C910.929 197.065 912.856 197.543 914.55 198.5C916.272 199.429 917.612 200.728 918.568 202.395C919.552 204.035 920.044 205.948 920.044 208.135C920.044 210.294 919.552 212.208 918.568 213.875C917.612 215.542 916.272 216.854 914.55 217.811C912.856 218.768 910.929 219.246 908.769 219.246ZM908.769 215.802C910.163 215.802 911.407 215.488 912.5 214.859C913.621 214.23 914.496 213.342 915.124 212.194C915.753 211.019 916.067 209.666 916.067 208.135C916.067 206.577 915.753 205.238 915.124 204.117C914.496 202.969 913.621 202.081 912.5 201.452C911.407 200.823 910.163 200.509 908.769 200.509C907.375 200.509 906.132 200.823 905.038 201.452C903.945 202.081 903.07 202.969 902.414 204.117C901.758 205.238 901.43 206.577 901.43 208.135C901.43 209.666 901.758 211.019 902.414 212.194C903.07 213.342 903.945 214.23 905.038 214.859C906.132 215.488 907.375 215.802 908.769 215.802ZM937.091 197.065C938.868 197.065 940.426 197.407 941.765 198.09C943.132 198.773 944.198 199.812 944.963 201.206C945.728 202.6 946.111 204.363 946.111 206.495V219H942.175V206.946C942.175 204.841 941.656 203.256 940.617 202.19C939.606 201.124 938.171 200.591 936.312 200.591C934.918 200.591 933.702 200.864 932.663 201.411C931.624 201.958 930.818 202.764 930.244 203.83C929.697 204.896 929.424 206.222 929.424 207.807V219H925.488V197.27H929.26V203.133L928.645 201.575C929.356 200.154 930.449 199.047 931.925 198.254C933.401 197.461 935.123 197.065 937.091 197.065ZM962.702 219.246C960.515 219.246 958.575 218.768 956.88 217.811C955.185 216.854 953.846 215.542 952.862 213.875C951.878 212.18 951.386 210.267 951.386 208.135C951.386 205.976 951.878 204.062 952.862 202.395C953.846 200.728 955.185 199.429 956.88 198.5C958.575 197.543 960.515 197.065 962.702 197.065C964.861 197.065 966.788 197.543 968.483 198.5C970.205 199.429 971.544 200.728 972.501 202.395C973.485 204.035 973.977 205.948 973.977 208.135C973.977 210.294 973.485 212.208 972.501 213.875C971.544 215.542 970.205 216.854 968.483 217.811C966.788 218.768 964.861 219.246 962.702 219.246ZM962.702 215.802C964.096 215.802 965.34 215.488 966.433 214.859C967.554 214.23 968.428 213.342 969.057 212.194C969.686 211.019 970 209.666 970 208.135C970 206.577 969.686 205.238 969.057 204.117C968.428 202.969 967.554 202.081 966.433 201.452C965.34 200.823 964.096 200.509 962.702 200.509C961.308 200.509 960.064 200.823 958.971 201.452C957.878 202.081 957.003 202.969 956.347 204.117C955.691 205.238 955.363 206.577 955.363 208.135C955.363 209.666 955.691 211.019 956.347 212.194C957.003 213.342 957.878 214.23 958.971 214.859C960.064 215.488 961.308 215.802 962.702 215.802ZM959.586 194.113L965.162 188.783H970.164L963.276 194.113H959.586ZM1006.6 197.065C1008.35 197.065 1009.9 197.407 1011.24 198.09C1012.58 198.773 1013.61 199.812 1014.35 201.206C1015.12 202.6 1015.5 204.363 1015.5 206.495V219H1011.56V206.946C1011.56 204.841 1011.07 203.256 1010.09 202.19C1009.1 201.124 1007.72 200.591 1005.95 200.591C1004.64 200.591 1003.49 200.864 1002.5 201.411C1001.52 201.958 1000.75 202.764 1000.21 203.83C999.688 204.896 999.428 206.222 999.428 207.807V219H995.492V206.946C995.492 204.841 995 203.256 994.016 202.19C993.06 201.124 991.679 200.591 989.875 200.591C988.591 200.591 987.456 200.864 986.472 201.411C985.488 201.958 984.723 202.764 984.176 203.83C983.63 204.896 983.356 206.222 983.356 207.807V219H979.42V197.27H983.192V203.051L982.577 201.575C983.261 200.154 984.313 199.047 985.734 198.254C987.156 197.461 988.809 197.065 990.695 197.065C992.773 197.065 994.563 197.584 996.066 198.623C997.57 199.634 998.554 201.179 999.018 203.256L997.419 202.6C998.075 200.933 999.223 199.593 1000.86 198.582C1002.5 197.571 1004.42 197.065 1006.6 197.065ZM1022.74 219V197.27H1026.68V219H1022.74ZM1024.71 193.088C1023.95 193.088 1023.3 192.842 1022.78 192.35C1022.29 191.858 1022.05 191.257 1022.05 190.546C1022.05 189.808 1022.29 189.193 1022.78 188.701C1023.3 188.209 1023.95 187.963 1024.71 187.963C1025.48 187.963 1026.1 188.209 1026.6 188.701C1027.12 189.166 1027.38 189.753 1027.38 190.464C1027.38 191.202 1027.13 191.831 1026.64 192.35C1026.15 192.842 1025.5 193.088 1024.71 193.088ZM1043.66 219.246C1041.45 219.246 1039.47 218.768 1037.72 217.811C1036 216.854 1034.64 215.542 1033.66 213.875C1032.68 212.208 1032.18 210.294 1032.18 208.135C1032.18 205.976 1032.68 204.062 1033.66 202.395C1034.64 200.728 1036 199.429 1037.72 198.5C1039.47 197.543 1041.45 197.065 1043.66 197.065C1045.63 197.065 1047.38 197.461 1048.91 198.254C1050.47 199.019 1051.67 200.167 1052.52 201.698L1049.53 203.625C1048.82 202.559 1047.94 201.78 1046.9 201.288C1045.89 200.769 1044.8 200.509 1043.62 200.509C1042.2 200.509 1040.93 200.823 1039.81 201.452C1038.69 202.081 1037.8 202.969 1037.15 204.117C1036.49 205.238 1036.16 206.577 1036.16 208.135C1036.16 209.693 1036.49 211.046 1037.15 212.194C1037.8 213.342 1038.69 214.23 1039.81 214.859C1040.93 215.488 1042.2 215.802 1043.62 215.802C1044.8 215.802 1045.89 215.556 1046.9 215.064C1047.94 214.545 1048.82 213.752 1049.53 212.686L1052.52 214.572C1051.67 216.075 1050.47 217.237 1048.91 218.057C1047.38 218.85 1045.63 219.246 1043.66 219.246ZM1066.6 219.246C1064.42 219.246 1062.48 218.768 1060.78 217.811C1059.09 216.854 1057.75 215.542 1056.76 213.875C1055.78 212.18 1055.29 210.267 1055.29 208.135C1055.29 205.976 1055.78 204.062 1056.76 202.395C1057.75 200.728 1059.09 199.429 1060.78 198.5C1062.48 197.543 1064.42 197.065 1066.6 197.065C1068.76 197.065 1070.69 197.543 1072.38 198.5C1074.11 199.429 1075.45 200.728 1076.4 202.395C1077.39 204.035 1077.88 205.948 1077.88 208.135C1077.88 210.294 1077.39 212.208 1076.4 213.875C1075.45 215.542 1074.11 216.854 1072.38 217.811C1070.69 218.768 1068.76 219.246 1066.6 219.246ZM1066.6 215.802C1068 215.802 1069.24 215.488 1070.33 214.859C1071.46 214.23 1072.33 213.342 1072.96 212.194C1073.59 211.019 1073.9 209.666 1073.9 208.135C1073.9 206.577 1073.59 205.238 1072.96 204.117C1072.33 202.969 1071.46 202.081 1070.33 201.452C1069.24 200.823 1068 200.509 1066.6 200.509C1065.21 200.509 1063.97 200.823 1062.87 201.452C1061.78 202.081 1060.9 202.969 1060.25 204.117C1059.59 205.238 1059.26 206.577 1059.26 208.135C1059.26 209.666 1059.59 211.019 1060.25 212.194C1060.9 213.342 1061.78 214.23 1062.87 214.859C1063.97 215.488 1065.21 215.802 1066.6 215.802ZM1083.78 219.246C1083.02 219.246 1082.36 218.986 1081.82 218.467C1081.27 217.92 1081 217.237 1081 216.417C1081 215.597 1081.27 214.927 1081.82 214.408C1082.36 213.889 1083.02 213.629 1083.78 213.629C1084.52 213.629 1085.15 213.889 1085.67 214.408C1086.22 214.927 1086.49 215.597 1086.49 216.417C1086.49 217.237 1086.22 217.92 1085.67 218.467C1085.15 218.986 1084.52 219.246 1083.78 219.246Z" fill="#606060"/>
<path d="M150.7 103V28.1H183.121C189.826 28.1 195.604 29.2057 200.455 31.417C205.306 33.557 209.051 36.66 211.69 40.726C214.329 44.792 215.649 49.6427 215.649 55.278C215.649 60.842 214.329 65.657 211.69 69.723C209.051 73.7177 205.306 76.785 200.455 78.925C195.604 81.065 189.826 82.135 183.121 82.135H160.33L168.034 74.538V103H150.7ZM198.315 103L179.59 75.822H198.101L217.04 103H198.315ZM168.034 76.464L160.33 68.332H182.158C187.508 68.332 191.503 67.1907 194.142 64.908C196.781 62.554 198.101 59.344 198.101 55.278C198.101 51.1407 196.781 47.9307 194.142 45.648C191.503 43.3653 187.508 42.224 182.158 42.224H160.33L168.034 33.985V76.464ZM256.775 103.856C250.212 103.856 244.434 102.572 239.441 100.004C234.519 97.436 230.702 93.9407 227.992 89.518C225.281 85.024 223.926 79.9237 223.926 74.217C223.926 68.439 225.245 63.3387 227.885 58.916C230.595 54.422 234.269 50.9267 238.906 48.43C243.542 45.862 248.785 44.578 254.635 44.578C260.27 44.578 265.335 45.7907 269.829 48.216C274.394 50.57 277.996 53.994 280.636 58.488C283.275 62.9107 284.595 68.225 284.595 74.431C284.595 75.073 284.559 75.822 284.488 76.678C284.416 77.4627 284.345 78.2117 284.274 78.925H237.515V69.188H275.5L269.08 72.077C269.08 69.081 268.473 66.4773 267.261 64.266C266.048 62.0547 264.372 60.3427 262.232 59.13C260.092 57.846 257.595 57.204 254.742 57.204C251.888 57.204 249.356 57.846 247.145 59.13C245.005 60.3427 243.328 62.0903 242.116 64.373C240.903 66.5843 240.297 69.2237 240.297 72.291V74.859C240.297 77.9977 240.974 80.7797 242.33 83.205C243.756 85.559 245.718 87.378 248.215 88.662C250.783 89.8747 253.779 90.481 257.203 90.481C260.27 90.481 262.945 90.0173 265.228 89.09C267.582 88.1627 269.722 86.7717 271.648 84.917L280.529 94.547C277.889 97.543 274.572 99.8613 270.578 101.502C266.583 103.071 261.982 103.856 256.775 103.856ZM322.778 124.614C317.357 124.614 312.114 123.936 307.049 122.581C302.056 121.297 297.883 119.335 294.53 116.696L301.164 104.712C303.59 106.709 306.657 108.279 310.366 109.42C314.147 110.633 317.856 111.239 321.494 111.239C327.415 111.239 331.695 109.919 334.334 107.28C337.045 104.641 338.4 100.717 338.4 95.51V86.843L339.47 72.398L339.256 57.846V45.434H355.092V93.37C355.092 104.07 352.31 111.952 346.746 117.017C341.182 122.082 333.193 124.614 322.778 124.614ZM320.21 100.218C314.86 100.218 310.01 99.0767 305.658 96.794C301.378 94.44 297.919 91.1943 295.279 87.057C292.711 82.8483 291.427 77.962 291.427 72.398C291.427 66.7627 292.711 61.8763 295.279 57.739C297.919 53.5303 301.378 50.2847 305.658 48.002C310.01 45.7193 314.86 44.578 320.21 44.578C325.061 44.578 329.341 45.5767 333.05 47.574C336.76 49.5 339.649 52.5317 341.717 56.669C343.786 60.735 344.82 65.978 344.82 72.398C344.82 78.7467 343.786 83.9897 341.717 88.127C339.649 92.193 336.76 95.2247 333.05 97.222C329.341 99.2193 325.061 100.218 320.21 100.218ZM323.527 86.522C326.452 86.522 329.056 85.9513 331.338 84.81C333.621 83.5973 335.404 81.921 336.688 79.781C337.972 77.641 338.614 75.18 338.614 72.398C338.614 69.5447 337.972 67.0837 336.688 65.015C335.404 62.875 333.621 61.2343 331.338 60.093C329.056 58.8803 326.452 58.274 323.527 58.274C320.603 58.274 317.999 58.8803 315.716 60.093C313.434 61.2343 311.615 62.875 310.259 65.015C308.975 67.0837 308.333 69.5447 308.333 72.398C308.333 75.18 308.975 77.641 310.259 79.781C311.615 81.921 313.434 83.5973 315.716 84.81C317.999 85.9513 320.603 86.522 323.527 86.522ZM370.628 103V45.434H387.32V103H370.628ZM369.237 38.051L383.682 22.643H401.658L382.291 38.051H369.237ZM422.179 103.856C417.257 103.856 412.513 103.285 407.948 102.144C403.454 100.931 399.887 99.4333 397.248 97.65L402.812 85.666C405.451 87.3067 408.554 88.662 412.121 89.732C415.759 90.7307 419.326 91.23 422.821 91.23C426.673 91.23 429.384 90.7663 430.953 89.839C432.594 88.9117 433.414 87.6277 433.414 85.987C433.414 84.6317 432.772 83.633 431.488 82.991C430.275 82.2777 428.635 81.7427 426.566 81.386C424.497 81.0293 422.215 80.6727 419.718 80.316C417.293 79.9593 414.832 79.4957 412.335 78.925C409.838 78.283 407.556 77.3557 405.487 76.143C403.418 74.9303 401.742 73.2897 400.458 71.221C399.245 69.1523 398.639 66.4773 398.639 63.196C398.639 59.558 399.673 56.348 401.742 53.566C403.882 50.784 406.949 48.6083 410.944 47.039C414.939 45.3983 419.718 44.578 425.282 44.578C429.205 44.578 433.2 45.006 437.266 45.862C441.332 46.718 444.72 47.9663 447.431 49.607L441.867 61.484C439.085 59.8433 436.267 58.7377 433.414 58.167C430.632 57.525 427.921 57.204 425.282 57.204C421.573 57.204 418.862 57.7033 417.15 58.702C415.438 59.7007 414.582 60.9847 414.582 62.554C414.582 63.9807 415.188 65.0507 416.401 65.764C417.685 66.4773 419.361 67.048 421.43 67.476C423.499 67.904 425.746 68.2963 428.171 68.653C430.668 68.9383 433.164 69.402 435.661 70.044C438.158 70.686 440.405 71.6133 442.402 72.826C444.471 73.9673 446.147 75.5723 447.431 77.641C448.715 79.6383 449.357 82.2777 449.357 85.559C449.357 89.1257 448.287 92.3 446.147 95.082C444.007 97.7927 440.904 99.9327 436.838 101.502C432.843 103.071 427.957 103.856 422.179 103.856ZM483.196 103.856C476.419 103.856 471.14 102.144 467.36 98.72C463.579 95.2247 461.689 90.053 461.689 83.205V32.701H478.381V82.991C478.381 85.4163 479.023 87.3067 480.307 88.662C481.591 89.946 483.338 90.588 485.55 90.588C488.189 90.588 490.436 89.8747 492.291 88.448L496.785 100.218C495.073 101.431 493.004 102.358 490.579 103C488.225 103.571 485.764 103.856 483.196 103.856ZM452.808 59.558V46.718H492.719V59.558H452.808ZM506.155 103V45.434H522.098V61.698L519.851 56.99C521.563 52.924 524.309 49.8567 528.09 47.788C531.87 45.648 536.471 44.578 541.893 44.578V59.986C541.179 59.9147 540.537 59.879 539.967 59.879C539.396 59.8077 538.79 59.772 538.148 59.772C533.582 59.772 529.873 61.0917 527.02 63.731C524.238 66.299 522.847 70.3293 522.847 75.822V103H506.155ZM583.366 103V91.765L582.296 89.304V69.188C582.296 65.6213 581.19 62.8393 578.979 60.842C576.839 58.8447 573.522 57.846 569.028 57.846C565.961 57.846 562.929 58.3453 559.933 59.344C557.008 60.2713 554.512 61.5553 552.443 63.196L546.451 51.533C549.59 49.3217 553.37 47.6097 557.793 46.397C562.216 45.1843 566.71 44.578 571.275 44.578C580.049 44.578 586.861 46.6467 591.712 50.784C596.563 54.9213 598.988 61.377 598.988 70.151V103H583.366ZM565.818 103.856C561.324 103.856 557.472 103.107 554.262 101.609C551.052 100.04 548.591 97.9353 546.879 95.296C545.167 92.6567 544.311 89.6963 544.311 86.415C544.311 82.991 545.131 79.995 546.772 77.427C548.484 74.859 551.159 72.8617 554.797 71.435C558.435 69.937 563.179 69.188 569.028 69.188H584.329V78.925H570.847C566.924 78.925 564.213 79.567 562.715 80.851C561.288 82.135 560.575 83.74 560.575 85.666C560.575 87.806 561.395 89.518 563.036 90.802C564.748 92.0147 567.066 92.621 569.991 92.621C572.773 92.621 575.27 91.979 577.481 90.695C579.692 89.3397 581.297 87.378 582.296 84.81L584.864 92.514C583.651 96.2233 581.44 99.041 578.23 100.967C575.02 102.893 570.883 103.856 565.818 103.856ZM637.635 103.856C630.859 103.856 625.58 102.144 621.799 98.72C618.019 95.2247 616.128 90.053 616.128 83.205V32.701H632.82V82.991C632.82 85.4163 633.462 87.3067 634.746 88.662C636.03 89.946 637.778 90.588 639.989 90.588C642.629 90.588 644.876 89.8747 646.73 88.448L651.224 100.218C649.512 101.431 647.444 102.358 645.018 103C642.664 103.571 640.203 103.856 637.635 103.856ZM607.247 59.558V46.718H647.158V59.558H607.247ZM687.387 103.856C680.824 103.856 675.046 102.572 670.053 100.004C665.131 97.436 661.314 93.9407 658.604 89.518C655.893 85.024 654.538 79.9237 654.538 74.217C654.538 68.439 655.857 63.3387 658.497 58.916C661.207 54.422 664.881 50.9267 669.518 48.43C674.154 45.862 679.397 44.578 685.247 44.578C690.882 44.578 695.947 45.7907 700.441 48.216C705.006 50.57 708.609 53.994 711.248 58.488C713.887 62.9107 715.207 68.225 715.207 74.431C715.207 75.073 715.171 75.822 715.1 76.678C715.028 77.4627 714.957 78.2117 714.886 78.925H668.127V69.188H706.112L699.692 72.077C699.692 69.081 699.085 66.4773 697.873 64.266C696.66 62.0547 694.984 60.3427 692.844 59.13C690.704 57.846 688.207 57.204 685.354 57.204C682.5 57.204 679.968 57.846 677.757 59.13C675.617 60.3427 673.94 62.0903 672.728 64.373C671.515 66.5843 670.909 69.2237 670.909 72.291V74.859C670.909 77.9977 671.586 80.7797 672.942 83.205C674.368 85.559 676.33 87.378 678.827 88.662C681.395 89.8747 684.391 90.481 687.815 90.481C690.882 90.481 693.557 90.0173 695.84 89.09C698.194 88.1627 700.334 86.7717 702.26 84.917L711.141 94.547C708.502 97.543 705.185 99.8613 701.19 101.502C697.195 103.071 692.594 103.856 687.387 103.856ZM791.933 103V91.765L790.863 89.304V69.188C790.863 65.6213 789.757 62.8393 787.546 60.842C785.406 58.8447 782.089 57.846 777.595 57.846C774.527 57.846 771.496 58.3453 768.5 59.344C765.575 60.2713 763.078 61.5553 761.01 63.196L755.018 51.533C758.156 49.3217 761.937 47.6097 766.36 46.397C770.782 45.1843 775.276 44.578 779.842 44.578C788.616 44.578 795.428 46.6467 800.279 50.784C805.129 54.9213 807.555 61.377 807.555 70.151V103H791.933ZM774.385 103.856C769.891 103.856 766.039 103.107 762.829 101.609C759.619 100.04 757.158 97.9353 755.446 95.296C753.734 92.6567 752.878 89.6963 752.878 86.415C752.878 82.991 753.698 79.995 755.339 77.427C757.051 74.859 759.726 72.8617 763.364 71.435C767.002 69.937 771.745 69.188 777.595 69.188H792.896V78.925H779.414C775.49 78.925 772.78 79.567 771.282 80.851C769.855 82.135 769.142 83.74 769.142 85.666C769.142 87.806 769.962 89.518 771.603 90.802C773.315 92.0147 775.633 92.621 778.558 92.621C781.34 92.621 783.836 91.979 786.048 90.695C788.259 89.3397 789.864 87.378 790.863 84.81L793.431 92.514C792.218 96.2233 790.007 99.041 786.797 100.967C783.587 102.893 779.449 103.856 774.385 103.856ZM857.651 44.578C862.216 44.578 866.282 45.5053 869.849 47.36C873.487 49.1433 876.34 51.9253 878.409 55.706C880.477 59.4153 881.512 64.1947 881.512 70.044V103H864.82V72.612C864.82 67.9753 863.785 64.5513 861.717 62.34C859.719 60.1287 856.866 59.023 853.157 59.023C850.517 59.023 848.128 59.5937 845.988 60.735C843.919 61.805 842.278 63.4813 841.066 65.764C839.924 68.0467 839.354 70.9713 839.354 74.538V103H822.662V23.606H839.354V61.377L835.609 56.562C837.677 52.71 840.638 49.7497 844.49 47.681C848.342 45.6123 852.729 44.578 857.651 44.578ZM924.452 103.856C918.317 103.856 912.86 102.572 908.081 100.004C903.373 97.436 899.628 93.9407 896.846 89.518C894.135 85.024 892.78 79.9237 892.78 74.217C892.78 68.439 894.135 63.3387 896.846 58.916C899.628 54.422 903.373 50.9267 908.081 48.43C912.86 45.862 918.317 44.578 924.452 44.578C930.515 44.578 935.937 45.862 940.716 48.43C945.495 50.9267 949.24 54.3863 951.951 58.809C954.662 63.2317 956.017 68.3677 956.017 74.217C956.017 79.9237 954.662 85.024 951.951 89.518C949.24 93.9407 945.495 97.436 940.716 100.004C935.937 102.572 930.515 103.856 924.452 103.856ZM924.452 90.16C927.234 90.16 929.731 89.518 931.942 88.234C934.153 86.95 935.901 85.131 937.185 82.777C938.469 80.3517 939.111 77.4983 939.111 74.217C939.111 70.8643 938.469 68.011 937.185 65.657C935.901 63.303 934.153 61.484 931.942 60.2C929.731 58.916 927.234 58.274 924.452 58.274C921.67 58.274 919.173 58.916 916.962 60.2C914.751 61.484 912.967 63.303 911.612 65.657C910.328 68.011 909.686 70.8643 909.686 74.217C909.686 77.4983 910.328 80.3517 911.612 82.777C912.967 85.131 914.751 86.95 916.962 88.234C919.173 89.518 921.67 90.16 924.452 90.16ZM967.174 103V45.434H983.117V61.698L980.87 56.99C982.582 52.924 985.329 49.8567 989.109 47.788C992.89 45.648 997.491 44.578 1002.91 44.578V59.986C1002.2 59.9147 1001.56 59.879 1000.99 59.879C1000.42 59.8077 999.809 59.772 999.167 59.772C994.602 59.772 990.893 61.0917 988.039 63.731C985.257 66.299 983.866 70.3293 983.866 75.822V103H967.174ZM1044.39 103V91.765L1043.32 89.304V69.188C1043.32 65.6213 1042.21 62.8393 1040 60.842C1037.86 58.8447 1034.54 57.846 1030.05 57.846C1026.98 57.846 1023.95 58.3453 1020.95 59.344C1018.03 60.2713 1015.53 61.5553 1013.46 63.196L1007.47 51.533C1010.61 49.3217 1014.39 47.6097 1018.81 46.397C1023.24 45.1843 1027.73 44.578 1032.29 44.578C1041.07 44.578 1047.88 46.6467 1052.73 50.784C1057.58 54.9213 1060.01 61.377 1060.01 70.151V103H1044.39ZM1026.84 103.856C1022.34 103.856 1018.49 103.107 1015.28 101.609C1012.07 100.04 1009.61 97.9353 1007.9 95.296C1006.19 92.6567 1005.33 89.6963 1005.33 86.415C1005.33 82.991 1006.15 79.995 1007.79 77.427C1009.5 74.859 1012.18 72.8617 1015.82 71.435C1019.45 69.937 1024.2 69.188 1030.05 69.188H1045.35V78.925H1031.87C1027.94 78.925 1025.23 79.567 1023.73 80.851C1022.31 82.135 1021.59 83.74 1021.59 85.666C1021.59 87.806 1022.41 89.518 1024.06 90.802C1025.77 92.0147 1028.09 92.621 1031.01 92.621C1033.79 92.621 1036.29 91.979 1038.5 90.695C1040.71 89.3397 1042.32 87.378 1043.32 84.81L1045.88 92.514C1044.67 96.2233 1042.46 99.041 1039.25 100.967C1036.04 102.893 1031.9 103.856 1026.84 103.856Z" fill="#1D429B"/>
</svg>
