<?xml version="1.0" encoding="utf-8"?>
<!-- Generator: Adobe Illustrator 28.0.0, SVG Export Plug-In . SVG Version: 6.00 Build 0)  -->
<svg version="1.1" id="Capa_1" xmlns="http://www.w3.org/2000/svg" xmlns:xlink="http://www.w3.org/1999/xlink" x="0px" y="0px"
	 viewBox="0 0 80 42" style="enable-background:new 0 0 80 42;" xml:space="preserve">
<style type="text/css">
	.st0{fill:#FFFFFF;}
	.st1{fill:#CF1C31;}
	.st2{fill:#3A3870;}
	.st3{fill:#002096;}
	.st4{fill:#FF0623;}
</style>
<g>
	<rect x="0" y="0.16" class="st0" width="80" height="41.9"/>
	<rect x="0" y="0" class="st1" width="80" height="3.31"/>
	<rect x="0" y="6.48" class="st1" width="80" height="3.31"/>
	<rect x="0" y="12.97" class="st1" width="80" height="3.31"/>
	<rect x="0" y="19.45" class="st1" width="80" height="3.31"/>
	<rect x="0" y="25.93" class="st1" width="80" height="3.31"/>
	<rect x="0" y="32.41" class="st1" width="80" height="3.31"/>
	<rect x="0" y="38.9" class="st1" width="80" height="3.31"/>
	<rect class="st2" width="31.92" height="22.76"/>
	<g>
		<polygon class="st0" points="2.72,0.87 3.01,1.8 3.98,1.8 3.2,2.38 3.5,3.3 2.72,2.73 1.93,3.3 2.23,2.38 1.45,1.8 2.42,1.8 		"/>
		<polygon class="st0" points="5.35,3.21 5.65,4.14 6.61,4.14 5.83,4.71 6.13,5.64 5.35,5.07 4.56,5.64 4.86,4.71 4.08,4.14 
			5.05,4.14 		"/>
		<polygon class="st0" points="5.35,7.77 5.65,8.7 6.61,8.7 5.83,9.27 6.13,10.2 5.35,9.63 4.56,10.2 4.86,9.27 4.08,8.7 5.05,8.7 
					"/>
		<polygon class="st0" points="5.35,12.33 5.65,13.26 6.61,13.26 5.83,13.84 6.13,14.77 5.35,14.19 4.56,14.77 4.86,13.84 
			4.08,13.26 5.05,13.26 		"/>
		<polygon class="st0" points="5.35,16.9 5.65,17.83 6.61,17.83 5.83,18.4 6.13,19.33 5.35,18.76 4.56,19.33 4.86,18.4 4.08,17.83 
			5.05,17.83 		"/>
		<polygon class="st0" points="10.68,3.21 10.98,4.14 11.95,4.14 11.16,4.71 11.46,5.64 10.68,5.07 9.9,5.64 10.2,4.71 9.41,4.14 
			10.38,4.14 		"/>
		<polygon class="st0" points="10.68,7.77 10.98,8.7 11.95,8.7 11.16,9.27 11.46,10.2 10.68,9.63 9.9,10.2 10.2,9.27 9.41,8.7 
			10.38,8.7 		"/>
		<polygon class="st0" points="10.68,12.33 10.98,13.26 11.95,13.26 11.16,13.84 11.46,14.77 10.68,14.19 9.9,14.77 10.2,13.84 
			9.41,13.26 10.38,13.26 		"/>
		<polygon class="st0" points="10.68,16.9 10.98,17.83 11.95,17.83 11.16,18.4 11.46,19.33 10.68,18.76 9.9,19.33 10.2,18.4 
			9.41,17.83 10.38,17.83 		"/>
		<polygon class="st0" points="16.01,3.21 16.31,4.14 17.28,4.14 16.5,4.71 16.8,5.64 16.01,5.07 15.23,5.64 15.53,4.71 14.75,4.14 
			15.71,4.14 		"/>
		<polygon class="st0" points="16.01,7.77 16.31,8.7 17.28,8.7 16.5,9.27 16.8,10.2 16.01,9.63 15.23,10.2 15.53,9.27 14.75,8.7 
			15.71,8.7 		"/>
		<polygon class="st0" points="16.01,12.33 16.31,13.26 17.28,13.26 16.5,13.84 16.8,14.77 16.01,14.19 15.23,14.77 15.53,13.84 
			14.75,13.26 15.71,13.26 		"/>
		<polygon class="st0" points="16.01,16.9 16.31,17.83 17.28,17.83 16.5,18.4 16.8,19.33 16.01,18.76 15.23,19.33 15.53,18.4 
			14.75,17.83 15.71,17.83 		"/>
		<polygon class="st0" points="21.35,3.21 21.65,4.14 22.61,4.14 21.83,4.71 22.13,5.64 21.35,5.07 20.56,5.64 20.86,4.71 
			20.08,4.14 21.05,4.14 		"/>
		<polygon class="st0" points="21.35,7.77 21.65,8.7 22.61,8.7 21.83,9.27 22.13,10.2 21.35,9.63 20.56,10.2 20.86,9.27 20.08,8.7 
			21.05,8.7 		"/>
		<polygon class="st0" points="21.35,12.33 21.65,13.26 22.61,13.26 21.83,13.84 22.13,14.77 21.35,14.19 20.56,14.77 20.86,13.84 
			20.08,13.26 21.05,13.26 		"/>
		<polygon class="st0" points="21.35,16.9 21.65,17.83 22.61,17.83 21.83,18.4 22.13,19.33 21.35,18.76 20.56,19.33 20.86,18.4 
			20.08,17.83 21.05,17.83 		"/>
		<polygon class="st0" points="26.68,3.21 26.98,4.14 27.95,4.14 27.16,4.71 27.46,5.64 26.68,5.07 25.9,5.64 26.2,4.71 25.41,4.14 
			26.38,4.14 		"/>
		<polygon class="st0" points="26.68,7.77 26.98,8.7 27.95,8.7 27.16,9.27 27.46,10.2 26.68,9.63 25.9,10.2 26.2,9.27 25.41,8.7 
			26.38,8.7 		"/>
		<polygon class="st0" points="26.68,12.33 26.98,13.26 27.95,13.26 27.16,13.84 27.46,14.77 26.68,14.19 25.9,14.77 26.2,13.84 
			25.41,13.26 26.38,13.26 		"/>
		<polygon class="st0" points="26.68,16.9 26.98,17.83 27.95,17.83 27.16,18.4 27.46,19.33 26.68,18.76 25.9,19.33 26.2,18.4 
			25.41,17.83 26.38,17.83 		"/>
		<polygon class="st0" points="2.72,5.44 3.01,6.36 3.98,6.36 3.2,6.94 3.5,7.87 2.72,7.29 1.93,7.87 2.23,6.94 1.45,6.36 
			2.42,6.36 		"/>
		<polygon class="st0" points="2.72,10 3.01,10.93 3.98,10.93 3.2,11.5 3.5,12.43 2.72,11.86 1.93,12.43 2.23,11.5 1.45,10.93 
			2.42,10.93 		"/>
		<polygon class="st0" points="2.72,14.56 3.01,15.49 3.98,15.49 3.2,16.07 3.5,17 2.72,16.42 1.93,17 2.23,16.07 1.45,15.49 
			2.42,15.49 		"/>
		<polygon class="st0" points="2.72,19.13 3.01,20.06 3.98,20.06 3.2,20.63 3.5,21.56 2.72,20.98 1.93,21.56 2.23,20.63 1.45,20.06 
			2.42,20.06 		"/>
		<polygon class="st0" points="7.98,0.87 8.28,1.8 9.24,1.8 8.46,2.38 8.76,3.3 7.98,2.73 7.2,3.3 7.49,2.38 6.71,1.8 7.68,1.8 		
			"/>
		<polygon class="st0" points="7.98,5.44 8.28,6.36 9.24,6.36 8.46,6.94 8.76,7.87 7.98,7.29 7.2,7.87 7.49,6.94 6.71,6.36 
			7.68,6.36 		"/>
		<polygon class="st0" points="7.98,10 8.28,10.93 9.24,10.93 8.46,11.5 8.76,12.43 7.98,11.86 7.2,12.43 7.49,11.5 6.71,10.93 
			7.68,10.93 		"/>
		<polygon class="st0" points="7.98,14.56 8.28,15.49 9.24,15.49 8.46,16.07 8.76,17 7.98,16.42 7.2,17 7.49,16.07 6.71,15.49 
			7.68,15.49 		"/>
		<polygon class="st0" points="7.98,19.13 8.28,20.06 9.24,20.06 8.46,20.63 8.76,21.56 7.98,20.98 7.2,21.56 7.49,20.63 
			6.71,20.06 7.68,20.06 		"/>
		<polygon class="st0" points="13.38,0.87 13.68,1.8 14.65,1.8 13.87,2.38 14.16,3.3 13.38,2.73 12.6,3.3 12.9,2.38 12.12,1.8 
			13.08,1.8 		"/>
		<polygon class="st0" points="13.38,5.44 13.68,6.36 14.65,6.36 13.87,6.94 14.16,7.87 13.38,7.29 12.6,7.87 12.9,6.94 12.12,6.36 
			13.08,6.36 		"/>
		<polygon class="st0" points="13.38,10 13.68,10.93 14.65,10.93 13.87,11.5 14.16,12.43 13.38,11.86 12.6,12.43 12.9,11.5 
			12.12,10.93 13.08,10.93 		"/>
		<polygon class="st0" points="13.38,14.56 13.68,15.49 14.65,15.49 13.87,16.07 14.16,17 13.38,16.42 12.6,17 12.9,16.07 
			12.12,15.49 13.08,15.49 		"/>
		<polygon class="st0" points="13.38,19.13 13.68,20.06 14.65,20.06 13.87,20.63 14.16,21.56 13.38,20.98 12.6,21.56 12.9,20.63 
			12.12,20.06 13.08,20.06 		"/>
		<polygon class="st0" points="18.68,0.87 18.98,1.8 19.95,1.8 19.16,2.38 19.46,3.3 18.68,2.73 17.9,3.3 18.2,2.38 17.41,1.8 
			18.38,1.8 		"/>
		<polygon class="st0" points="18.68,5.44 18.98,6.36 19.95,6.36 19.16,6.94 19.46,7.87 18.68,7.29 17.9,7.87 18.2,6.94 17.41,6.36 
			18.38,6.36 		"/>
		<polygon class="st0" points="18.68,10 18.98,10.93 19.95,10.93 19.16,11.5 19.46,12.43 18.68,11.86 17.9,12.43 18.2,11.5 
			17.41,10.93 18.38,10.93 		"/>
		<polygon class="st0" points="18.68,14.56 18.98,15.49 19.95,15.49 19.16,16.07 19.46,17 18.68,16.42 17.9,17 18.2,16.07 
			17.41,15.49 18.38,15.49 		"/>
		<polygon class="st0" points="18.68,19.13 18.98,20.06 19.95,20.06 19.16,20.63 19.46,21.56 18.68,20.98 17.9,21.56 18.2,20.63 
			17.41,20.06 18.38,20.06 		"/>
		<polygon class="st0" points="23.98,0.87 24.28,1.8 25.24,1.8 24.46,2.38 24.76,3.3 23.98,2.73 23.2,3.3 23.49,2.38 22.71,1.8 
			23.68,1.8 		"/>
		<polygon class="st0" points="23.98,5.44 24.28,6.36 25.24,6.36 24.46,6.94 24.76,7.87 23.98,7.29 23.2,7.87 23.49,6.94 
			22.71,6.36 23.68,6.36 		"/>
		<polygon class="st0" points="23.98,10 24.28,10.93 25.24,10.93 24.46,11.5 24.76,12.43 23.98,11.86 23.2,12.43 23.49,11.5 
			22.71,10.93 23.68,10.93 		"/>
		<polygon class="st0" points="23.98,14.56 24.28,15.49 25.24,15.49 24.46,16.07 24.76,17 23.98,16.42 23.2,17 23.49,16.07 
			22.71,15.49 23.68,15.49 		"/>
		<polygon class="st0" points="23.98,19.13 24.28,20.06 25.24,20.06 24.46,20.63 24.76,21.56 23.98,20.98 23.2,21.56 23.49,20.63 
			22.71,20.06 23.68,20.06 		"/>
		<polygon class="st0" points="29.38,0.87 29.68,1.8 30.65,1.8 29.87,2.38 30.16,3.3 29.38,2.73 28.6,3.3 28.9,2.38 28.12,1.8 
			29.08,1.8 		"/>
		<polygon class="st0" points="29.38,5.44 29.68,6.36 30.65,6.36 29.87,6.94 30.16,7.87 29.38,7.29 28.6,7.87 28.9,6.94 28.12,6.36 
			29.08,6.36 		"/>
		<polygon class="st0" points="29.38,10 29.68,10.93 30.65,10.93 29.87,11.5 30.16,12.43 29.38,11.86 28.6,12.43 28.9,11.5 
			28.12,10.93 29.08,10.93 		"/>
		<polygon class="st0" points="29.38,14.56 29.68,15.49 30.65,15.49 29.87,16.07 30.16,17 29.38,16.42 28.6,17 28.9,16.07 
			28.12,15.49 29.08,15.49 		"/>
		<polygon class="st0" points="29.38,19.13 29.68,20.06 30.65,20.06 29.87,20.63 30.16,21.56 29.38,20.98 28.6,21.56 28.9,20.63 
			28.12,20.06 29.08,20.06 		"/>
	</g>
</g>
</svg>
