<?xml version="1.0" encoding="utf-8"?>
<!-- Generator: Adobe Illustrator 28.0.0, SVG Export Plug-In . SVG Version: 6.00 Build 0)  -->
<svg version="1.1" id="Capa_1" xmlns="http://www.w3.org/2000/svg" xmlns:xlink="http://www.w3.org/1999/xlink" x="0px" y="0px"
	 viewBox="0 0 80 42" style="enable-background:new 0 0 80 42;" xml:space="preserve">
<style type="text/css">
	.st0{fill:#FFFFFF;}
	.st1{fill:#CF1C31;}
	.st2{fill:#3A3870;}
	.st3{fill:#002096;}
	.st4{fill:#FF0623;}
</style>
<g>
	<g>
		<polygon class="st0" points="0,27.29 0,33.77 80,33.77 80,27.29 80,25.33 0,25.33 		"/>
		<polygon class="st3" points="0,35.73 0,42.21 80,42.21 80,35.73 80,33.77 0,33.77 		"/>
		<rect y="16.88" class="st3" width="80" height="8.44"/>
		<polygon class="st0" points="80,14.63 80,8.44 0,8.44 0,14.63 0,14.63 0,16.88 80,16.88 		"/>
		<polygon class="st3" points="80,6.18 80,0 0,0 0,6.18 0,6.18 0,8.44 80,8.44 		"/>
	</g>
	<polygon class="st4" points="30.69,21.11 0,42.21 0,21.11 0,0 	"/>
	<polygon class="st0" points="9.42,13.12 10.92,17.49 15.34,17.64 11.85,20.49 13.08,24.95 9.42,22.35 5.76,24.95 6.99,20.49 
		3.5,17.64 7.92,17.49 	"/>
</g>
</svg>
