<?xml version="1.0" encoding="utf-8"?>
<!-- Generator: Adobe Illustrator 24.3.0, SVG Export Plug-In . SVG Version: 6.00 Build 0)  -->
<svg version="1.1" id="Layer_1" xmlns="http://www.w3.org/2000/svg" xmlns:xlink="http://www.w3.org/1999/xlink" x="0px" y="0px"
	 viewBox="0 0 1080 1080" style="enable-background:new 0 0 1080 1080;" xml:space="preserve">
<style type="text/css">
	.st0{fill:#1C4C99;}
	.st1{fill:#FFFFFF;}
</style>
<g>
	<circle class="st0" cx="540" cy="540" r="442"/>
	<polygon class="st1" points="526.27,458.55 474.17,494.57 432.23,498.27 485.44,464.41 	"/>
	<polygon class="st1" points="609.28,446.7 556.91,487.25 498.17,492.42 552.65,454.77 	"/>
	<polygon class="st1" points="539.4,500.78 456.26,565.13 393.63,564.65 478.27,506.19 	"/>
	<polygon class="st1" points="454.27,508.3 372.89,564.53 328.68,564.21 410.38,512.2 	"/>
	<polygon class="st1" points="440.98,576.95 325.02,666.69 262.34,655.39 376.51,576.47 	"/>
	<polygon class="st1" points="355.82,576.35 245.74,652.36 202.45,644.56 310.13,575.99 	"/>
	<polygon class="st1" points="756.53,579.14 651.15,725.59 487.9,696.14 608.17,578.1 	"/>
	<polygon class="st1" points="591.25,577.98 473.54,693.51 368.99,674.65 489.49,577.27 	"/>
	<polygon class="st1" points="682.86,488.08 603.35,566.12 504.18,565.45 589.74,496.32 	"/>
	<polygon class="st1" points="831.46,474.99 765.04,567.24 620.26,566.24 701.57,486.45 	"/>
	<polygon class="st1" points="879.65,407.97 840.65,462.18 714.98,473.28 764.76,424.41 	"/>
	<polygon class="st1" points="744.83,427.28 696.23,474.95 606.34,482.91 660.22,439.37 	"/>
	<path class="st1" d="M524.35,411.51c-3.3,0-5.97-2.67-5.97-5.97v-73.77c0-3.3,2.67-5.97,5.97-5.97c3.3,0,5.97,2.67,5.97,5.97v73.77
		C530.32,408.83,527.65,411.51,524.35,411.51z"/>
	<path class="st1" d="M500.45,413.84c-2.76,0-5.23-1.92-5.83-4.73l-15.34-72.16c-0.69-3.23,1.37-6.39,4.6-7.08
		c3.19-0.7,6.39,1.37,7.08,4.6l15.34,72.16c0.69,3.23-1.37,6.39-4.6,7.08C501.28,413.8,500.86,413.84,500.45,413.84z"/>
	<path class="st1" d="M477.58,421.08c-2.29,0-4.47-1.32-5.46-3.54l-30.01-67.39c-1.34-3.01,0.01-6.54,3.02-7.88
		c3.01-1.34,6.54,0.01,7.88,3.03l30.01,67.39c1.34,3.01-0.01,6.54-3.02,7.88C479.21,420.92,478.39,421.08,477.58,421.08z"/>
	<path class="st1" d="M456.7,432.93c-1.85,0-3.66-0.85-4.83-2.46l-43.36-59.68c-1.94-2.67-1.34-6.4,1.32-8.34
		c2.67-1.93,6.4-1.34,8.34,1.32l43.36,59.68c1.94,2.67,1.34,6.4-1.32,8.34C459.14,432.56,457.92,432.93,456.7,432.93z"/>
	<path class="st1" d="M438.74,448.85c-1.43,0-2.85-0.51-4-1.53l-54.82-49.36c-2.45-2.21-2.65-5.98-0.44-8.43
		c2.2-2.45,5.98-2.64,8.43-0.44l54.82,49.36c2.45,2.21,2.65,5.98,0.44,8.43C442,448.19,440.37,448.85,438.74,448.85z"/>
	<path class="st1" d="M424.48,468.17c-1.01,0-2.04-0.26-2.98-0.8l-63.89-36.89c-2.86-1.65-3.83-5.3-2.18-8.15
		c1.65-2.86,5.3-3.84,8.15-2.18l63.89,36.89c2.86,1.65,3.83,5.3,2.18,8.15C428.55,467.1,426.54,468.17,424.48,468.17z"/>
	<path class="st1" d="M414.56,490.02c-0.61,0-1.23-0.1-1.85-0.29l-70.16-22.8c-3.13-1.02-4.85-4.39-3.83-7.52
		c1.02-3.13,4.38-4.85,7.52-3.83l70.16,22.8c3.13,1.02,4.85,4.39,3.83,7.52C419.42,488.42,417.08,490.02,414.56,490.02z"/>
	<path class="st1" d="M385.21,510.92c-0.21,0-0.42-0.01-0.63-0.03l-49.17-5.17c-3.28-0.34-5.65-3.28-5.31-6.56
		c0.35-3.28,3.29-5.66,6.56-5.31l49.17,5.17c3.28,0.34,5.65,3.28,5.31,6.56C390.82,508.64,388.22,510.92,385.21,510.92z"/>
	<path class="st1" d="M632.64,429.2c-1.63,0-3.26-0.67-4.44-1.98c-2.2-2.45-2.01-6.22,0.44-8.43l31.57-28.42
		c2.45-2.2,6.22-2.01,8.43,0.44c2.2,2.45,2.01,6.22-0.44,8.43l-31.57,28.42C635.49,428.69,634.07,429.2,632.64,429.2z"/>
	<path class="st1" d="M591.66,433.94c-1.22,0-2.44-0.37-3.51-1.14c-2.67-1.94-3.26-5.67-1.32-8.34l43.36-59.68
		c1.94-2.67,5.67-3.26,8.34-1.32c2.67,1.94,3.26,5.67,1.32,8.34l-43.36,59.68C595.33,433.09,593.51,433.94,591.66,433.94z"/>
	<path class="st1" d="M570.97,421.79c-0.81,0-1.64-0.17-2.43-0.52c-3.01-1.34-4.36-4.87-3.02-7.88l30.01-67.39
		c1.34-3.01,4.87-4.36,7.88-3.03c3.01,1.34,4.36,4.87,3.02,7.88l-30.01,67.39C575.44,420.46,573.26,421.79,570.97,421.79z"/>
	<path class="st1" d="M548.21,414.2c-0.41,0-0.83-0.04-1.25-0.13c-3.23-0.69-5.29-3.86-4.6-7.08l15.34-72.16
		c0.68-3.23,3.87-5.3,7.08-4.6c3.23,0.69,5.29,3.86,4.6,7.08l-15.34,72.16C553.44,412.27,550.96,414.2,548.21,414.2z"/>
</g>
</svg>
