<?xml version="1.0" encoding="utf-8"?>
<!-- Generator: Adobe Illustrator 24.3.0, SVG Export Plug-In . SVG Version: 6.00 Build 0)  -->
<svg version="1.1" id="Layer_1" xmlns="http://www.w3.org/2000/svg" xmlns:xlink="http://www.w3.org/1999/xlink" x="0px" y="0px"
	 viewBox="0 0 1080 1080" style="enable-background:new 0 0 1080 1080;" xml:space="preserve">
<style type="text/css">
	.st0{fill:#1C4C99;}
	.st1{fill:#FFFFFF;}
</style>
<g>
	<circle class="st0" cx="540" cy="540" r="442"/>
	<path class="st1" d="M596.68,818.15H419.35c-1.79,0-3.48-0.8-4.62-2.19c-1.13-1.38-1.59-3.2-1.24-4.96l64.85-322.91
		c0.65-3.23,3.79-5.31,7.03-4.68c3.23,0.65,5.33,3.8,4.68,7.03l-63.41,315.76h162.76l-63.41-315.76c-0.65-3.23,1.45-6.38,4.68-7.03
		c3.24-0.64,6.38,1.45,7.03,4.68l64.85,322.91c0.35,1.75-0.1,3.57-1.24,4.96C600.16,817.34,598.47,818.15,596.68,818.15z"/>
	<path class="st1" d="M531.83,495.25h-47.64c-3.3,0-5.97-2.67-5.97-5.97v-45.43c0-2.8,1.95-5.23,4.68-5.83l47.64-10.5
		c1.77-0.38,3.62,0.05,5.02,1.18c1.41,1.13,2.23,2.84,2.23,4.65v55.92C537.8,492.57,535.13,495.25,531.83,495.25z M490.16,483.31
		h35.7v-42.53l-35.7,7.87V483.31z"/>
	<path class="st1" d="M723.43,394.38L273.54,498.92c-1.59,0.4-3.22,0.56-4.82,0.56c-3.9,0-7.76-1.07-11.14-3.18
		c-4.82-2.98-8.16-7.68-9.43-13.17l-3.78-16.16c-2.63-11.38,4.5-22.76,15.84-25.43L710.1,336.99c1.55-0.4,3.14-0.12,4.5,0.72
		c1.35,0.84,2.31,2.19,2.67,3.74l10.63,45.77C728.64,390.4,726.65,393.62,723.43,394.38z"/>
	<g>
		<path class="st1" d="M798.24,502.7c-0.01,0-0.03,0-0.04,0c-1.93-0.01-3.73-0.96-4.84-2.53l-76.16-108.18
			c-0.44-0.63-0.76-1.34-0.93-2.09l-10.64-45.76c-0.17-0.75-0.2-1.53-0.08-2.28l20.64-130.69c0.3-1.9,1.5-3.55,3.23-4.41
			c1.73-0.86,3.76-0.84,5.46,0.06c44.61,23.62,79.51,73.31,93.37,132.93c13.86,59.62,4.45,119.61-25.17,160.48
			C801.95,501.78,800.15,502.7,798.24,502.7z M727.63,386.07l70.52,100.16c23.83-37.82,30.77-90.82,18.47-143.76
			c-12.31-52.94-41.91-97.45-79.98-120.88l-19.11,120.99L727.63,386.07z"/>
	</g>
	<path class="st1" d="M722.07,394.52c-3.03,0-5.63-2.3-5.93-5.38c-0.33-3.28,2.07-6.2,5.35-6.53l49.14-4.91
		c3.27-0.3,6.21,2.07,6.53,5.35c0.33,3.28-2.07,6.2-5.35,6.53l-49.14,4.91C722.47,394.51,722.26,394.52,722.07,394.52z"/>
	<path class="st1" d="M711.44,348.76c-2.4,0-4.66-1.46-5.57-3.83c-1.18-3.08,0.36-6.53,3.44-7.71l46.3-17.76
		c3.09-1.19,6.53,0.36,7.71,3.44c1.18,3.08-0.36,6.53-3.44,7.71l-46.3,17.76C712.87,348.64,712.15,348.76,711.44,348.76z"/>
	<path class="st1" d="M798.24,698.16c-3.3,0-5.97-2.67-5.97-5.97V496.73c0-3.3,2.67-5.97,5.97-5.97s5.97,2.67,5.97,5.97v195.46
		C804.21,695.49,801.54,698.16,798.24,698.16z"/>
	<path class="st1" d="M836.85,692.17v119.98c0,3.3-2.67,5.97-5.97,5.97h-65.27c-3.3,0-5.97-2.67-5.97-5.97V692.17
		c0-3.26,2.67-5.97,5.97-5.97h65.27C834.18,686.2,836.85,688.91,836.85,692.17z"/>
	<path class="st1" d="M298.04,818.15c-3.3,0-5.97-2.67-5.97-5.97v-322.9c0-3.3,2.67-5.97,5.97-5.97s5.97,2.67,5.97,5.97v322.9
		C304,815.47,301.33,818.15,298.04,818.15z"/>
	<path class="st1" d="M596.68,818.15c-1.54,0-3.07-0.59-4.24-1.77l-147.44-148.7c-2.29-2.31-2.31-6.04-0.04-8.37l97.77-100.23
		c2.3-2.36,6.08-2.4,8.44-0.1c2.36,2.3,2.41,6.08,0.1,8.45l-93.67,96.03l143.31,144.53c2.32,2.34,2.31,6.12-0.03,8.45
		C599.72,817.57,598.2,818.15,596.68,818.15z"/>
	<path class="st1" d="M419.35,818.15c-1.52,0-3.04-0.58-4.2-1.73c-2.34-2.32-2.36-6.1-0.03-8.44l143.43-144.53l-93.58-96.03
		c-2.3-2.36-2.25-6.14,0.11-8.44c2.36-2.3,6.14-2.25,8.44,0.11l97.68,100.23c2.27,2.33,2.26,6.06-0.04,8.37l-147.57,148.7
		C422.42,817.56,420.88,818.15,419.35,818.15z"/>
	<path class="st1" d="M798.24,502.7c-0.01,0-0.03,0-0.04,0c-1.93-0.01-3.73-0.96-4.84-2.53l-31.22-44.34
		c-0.98-1.39-1.32-3.14-0.93-4.8c7.09-30.23,6.82-63.52-0.8-96.3v0c-7.55-32.5-21.83-62.31-41.28-86.2
		c-1.07-1.32-1.53-3.02-1.27-4.7l8.32-52.65c0.3-1.9,1.5-3.55,3.23-4.41c1.73-0.86,3.76-0.84,5.46,0.06
		c44.61,23.62,79.51,73.31,93.37,132.93c13.86,59.62,4.45,119.61-25.17,160.48C801.95,501.78,800.15,502.7,798.24,502.7z
		 M773.43,451.12l24.71,35.1c23.83-37.82,30.77-90.82,18.47-143.76c-12.31-52.94-41.91-97.45-79.98-120.88l-6.56,41.5
		c19.73,24.93,34.22,55.62,41.97,88.95v0C779.85,385.63,780.32,419.83,773.43,451.12z"/>
</g>
</svg>
