<?xml version="1.0" encoding="utf-8"?>
<!-- Generator: Adobe Illustrator 28.0.0, SVG Export Plug-In . SVG Version: 6.00 Build 0)  -->
<svg version="1.1" id="Layer_1" xmlns="http://www.w3.org/2000/svg" xmlns:xlink="http://www.w3.org/1999/xlink" x="0px" y="0px"
	 viewBox="0 0 1080 1080" style="enable-background:new 0 0 1080 1080;" xml:space="preserve">
<style type="text/css">
	.st0{fill:#1C4C99;}
	.st1{fill:#FFFFFF;}
</style>
<circle class="st0" cx="546.94" cy="540" r="442"/>
<polygon class="st1" points="675.47,603.03 790.54,603.03 790.54,574.42 704.9,574.42 704.9,535.25 767.81,535.25 767.81,506.64 
	704.9,506.64 704.9,467.4 790.54,467.4 790.54,438.79 675.47,438.79 "/>
<path class="st1" d="M442.85,539.74l-85.51-101.03h-28.77v164.31h29.44V485.25c23.2,27.62,96.08,114.4,97.08,115.53
	c1.86,2.13,4.58,3.34,7.45,3.34c5.5,0,9.79-4.29,9.79-9.8V438.64h-29.48V539.74z"/>
<polygon class="st1" points="212.81,438.8 134,603.03 167.19,603.03 222.79,486.36 278.37,603.03 311.59,603.03 232.77,438.8 "/>
<path class="st1" d="M910.03,486.73c0,14.43-6.63,20.59-22.17,20.59h-41.65V467h38.66C907.16,467,910.03,477.55,910.03,486.73
	 M909.67,532.04c18.4-7.02,29.28-23.75,29.28-45.31c0-35.26-29.42-47.78-54.62-47.78h-67.47v163.85h29.36v-67.05h31.28l41.86,67.09
	H954L909.67,532.04z"/>
<path class="st1" d="M208.16,639.74c1.1-11.85,2.05-23.73,3.4-35.55c0.51-4.54-1.01-5.84-5.34-5.51c-4.27,0.32-8.59,0.07-14.52,0.07
	c14.63-19.15,28.41-37.17,42.18-55.18c0.37,0.18,0.74,0.35,1.1,0.53c-1.06,11.24-2.03,22.48-3.23,33.7
	c-0.81,7.63-0.95,7.62,6.43,7.62c4.09,0.01,8.17,0,13.64,0c-14.66,18.96-28.57,36.96-42.48,54.95
	C208.94,640.16,208.55,639.95,208.16,639.74"/>
<polygon class="st1" points="584.26,543.99 620.98,602.83 656.07,602.83 603.55,518.99 "/>
<path class="st1" d="M650.15,438.64h-37.3l-76.8,99.75v-99.75h-29.48v155.88c0,5.42,4.48,9.82,9.96,9.82c3.03,0,5.91-1.36,7.89-3.78
	L650.15,438.64z"/>
</svg>
