<?xml version="1.0" encoding="utf-8"?>
<!-- Generator: Adobe Illustrator 28.0.0, SVG Export Plug-In . SVG Version: 6.00 Build 0)  -->
<svg version="1.1" id="Capa_1" xmlns="http://www.w3.org/2000/svg" xmlns:xlink="http://www.w3.org/1999/xlink" x="0px" y="0px"
	 viewBox="0 0 209.84 71.11" style="enable-background:new 0 0 209.84 71.11;" xml:space="preserve">
<style type="text/css">
	.st0{clip-path:url(#SVGID_00000072959332581757151670000008213302698426085253_);}
	
		.st1{clip-path:url(#SVGID_00000183958960815640573560000011185734802665263032_);fill-rule:evenodd;clip-rule:evenodd;fill:#0038A8;}
	
		.st2{clip-path:url(#SVGID_00000183958960815640573560000011185734802665263032_);fill-rule:evenodd;clip-rule:evenodd;fill:#231F20;}
	.st3{clip-path:url(#SVGID_00000183958960815640573560000011185734802665263032_);fill:#FF9E18;}
	.st4{clip-path:url(#SVGID_00000183958960815640573560000011185734802665263032_);fill:#6F6F6E;}
	.st5{clip-path:url(#SVGID_00000183958960815640573560000011185734802665263032_);fill:#0038A8;}
	.st6{clip-path:url(#SVGID_00000072959332581757151670000008213302698426085253_);fill:#FF9E18;}
	.st7{fill:#231F20;}
	.st8{fill:#1D1D1B;}
	.st9{fill-rule:evenodd;clip-rule:evenodd;fill:#231F20;}
	.st10{fill-rule:evenodd;clip-rule:evenodd;fill:#0038A8;}
	.st11{fill:#FF9E18;}
	.st12{fill:#0038A8;}
	.st13{fill-rule:evenodd;clip-rule:evenodd;fill:#FFFFFF;}
	.st14{fill:#FFFFFF;}
	.st15{fill-rule:evenodd;clip-rule:evenodd;fill:#1D1D1B;}
	.st16{fill:#6F6F6E;}
	.st17{fill:none;}
	
		.st18{clip-path:url(#SVGID_00000120540120151551367710000014466620592174429090_);fill:none;stroke:#9B9B9B;stroke-width:4;stroke-miterlimit:10;}
	.st19{clip-path:url(#SVGID_00000120540120151551367710000014466620592174429090_);fill:#0038A8;}
	
		.st20{clip-path:url(#SVGID_00000181769750512750029510000002272339806993027748_);fill-rule:evenodd;clip-rule:evenodd;fill:#FFFFFF;}
	.st21{clip-path:url(#SVGID_00000181769750512750029510000002272339806993027748_);fill:#FFFFFF;}
	.st22{clip-path:url(#SVGID_00000181769750512750029510000002272339806993027748_);fill:#FF9E18;}
	.st23{clip-path:url(#SVGID_00000181769750512750029510000002272339806993027748_);fill:#6F6F6E;}
	.st24{clip-path:url(#SVGID_00000181769750512750029510000002272339806993027748_);fill:none;stroke:#000000;stroke-miterlimit:10;}
	.st25{clip-path:url(#SVGID_00000181769750512750029510000002272339806993027748_);fill:#1D1D1B;}
	.st26{clip-path:url(#SVGID_00000181769750512750029510000002272339806993027748_);fill:#0038A8;}
	.st27{clip-path:url(#SVGID_00000181769750512750029510000002272339806993027748_);fill:#263778;}
	.st28{clip-path:url(#SVGID_00000085230606536444612800000013834285850823213186_);fill:#333333;}
	
		.st29{clip-path:url(#SVGID_00000049905702454503249420000013014328639083544991_);fill:url(#SVGID_00000150796153216899339440000004828983691870771902_);}
	
		.st30{clip-path:url(#SVGID_00000027569268715724676220000001183568543244129678_);fill:url(#SVGID_00000034772331920793650720000015526971018587573135_);}
	.st31{clip-path:url(#SVGID_00000031187243642134771740000012856722942058735262_);fill:#9B9B9B;}
	.st32{clip-path:url(#SVGID_00000031187243642134771740000012856722942058735262_);fill:#FF9E18;}
	.st33{clip-path:url(#SVGID_00000031187243642134771740000012856722942058735262_);fill:#0038A8;}
	.st34{clip-path:url(#SVGID_00000031187243642134771740000012856722942058735262_);}
	.st35{clip-path:url(#SVGID_00000116201183210690454330000008101849456869054111_);fill:#F49B1D;}
	.st36{clip-path:url(#SVGID_00000116201183210690454330000008101849456869054111_);fill:#FF9E18;}
	.st37{clip-path:url(#SVGID_00000116201183210690454330000008101849456869054111_);fill:#194D9B;}
	.st38{clip-path:url(#SVGID_00000116201183210690454330000008101849456869054111_);fill:#0038A8;}
	
		.st39{clip-path:url(#SVGID_00000116201183210690454330000008101849456869054111_);fill-rule:evenodd;clip-rule:evenodd;fill:#FFFFFF;}
	.st40{clip-path:url(#SVGID_00000116201183210690454330000008101849456869054111_);fill:#FFFFFF;}
	.st41{clip-path:url(#SVGID_00000116201183210690454330000008101849456869054111_);fill:#F9C884;}
	.st42{clip-path:url(#SVGID_00000116201183210690454330000008101849456869054111_);fill:#F7B85F;}
	.st43{clip-path:url(#SVGID_00000116201183210690454330000008101849456869054111_);fill:#333333;}
	
		.st44{clip-path:url(#SVGID_00000116201183210690454330000008101849456869054111_);fill-rule:evenodd;clip-rule:evenodd;fill:#F49B1D;}
	
		.st45{clip-path:url(#SVGID_00000116201183210690454330000008101849456869054111_);fill-rule:evenodd;clip-rule:evenodd;fill:#0038A8;}
	.st46{clip-path:url(#SVGID_00000116201183210690454330000008101849456869054111_);fill:none;}
	.st47{clip-path:url(#SVGID_00000042699496802916466380000017361912071192886718_);fill:#0038A8;}
	.st48{clip-path:url(#SVGID_00000042699496802916466380000017361912071192886718_);fill:#FF9E18;}
	.st49{clip-path:url(#SVGID_00000042699496802916466380000017361912071192886718_);fill:#194D9B;}
	.st50{clip-path:url(#SVGID_00000042699496802916466380000017361912071192886718_);fill:#F49B1D;}
	.st51{clip-path:url(#SVGID_00000042699496802916466380000017361912071192886718_);}
	
		.st52{clip-path:url(#SVGID_00000011745170829738971010000009970715047973250192_);fill-rule:evenodd;clip-rule:evenodd;fill:#FFFFFF;}
	.st53{clip-path:url(#SVGID_00000011745170829738971010000009970715047973250192_);fill:#FFFFFF;}
	.st54{clip-path:url(#SVGID_00000011745170829738971010000009970715047973250192_);fill:#FF9E18;}
	.st55{clip-path:url(#SVGID_00000066490687162871031350000010574020849287674041_);fill:#FF9E18;}
	.st56{clip-path:url(#SVGID_00000066490687162871031350000010574020849287674041_);fill:#FFFFFF;}
	.st57{clip-path:url(#SVGID_00000090266363420151816290000001964691116969263019_);fill:#FF9E18;}
	.st58{clip-path:url(#SVGID_00000090266363420151816290000001964691116969263019_);fill:#194D9B;}
	.st59{fill:#00A6E0;}
	.st60{fill:#333333;}
	.st61{fill:#00A8E1;}
	.st62{fill:none;stroke:#000000;stroke-miterlimit:10;}
	.st63{fill-rule:evenodd;clip-rule:evenodd;}
	.st64{fill:#787878;}
	.st65{fill:#F6921E;}
	.st66{fill:#66666A;}
	.st67{fill:#4374B9;}
	.st68{fill:#A0BDDF;}
	.st69{fill-rule:evenodd;clip-rule:evenodd;fill:#A0BEE0;}
</style>
<path class="st66" d="M19.31,32.19c0.8,1.52,2.47,2.41,4.21,2.41h3.62v13.37h3.3V34.6h3.61c1.88,0,3.66-1.03,4.39-2.73
	c0.09-0.21,0.16-0.42,0.22-0.63H18.94C19.02,31.56,19.14,31.88,19.31,32.19"/>
<path class="st66" d="M166.26,34.6h11.1c1.88,0,3.66-1.03,4.39-2.73c0.09-0.21,0.16-0.42,0.22-0.63h-20.29
	c0.08,0.32,0.2,0.64,0.37,0.95C162.84,33.71,164.51,34.59,166.26,34.6L166.26,34.6z"/>
<polygon class="st66" points="161.67,37.91 161.67,47.92 165.24,47.92 165.24,41.73 178.4,41.73 178.4,47.92 181.96,47.92 
	181.96,37.91 "/>
<path class="st66" d="M54.93,38.85c0.8,1.52,2.47,2.41,4.21,2.41h10.54c1.88,0,3.66-1.03,4.39-2.73c0.09-0.21,0.16-0.42,0.22-0.63
	H54.56C54.64,38.22,54.76,38.54,54.93,38.85L54.93,38.85z"/>
<path class="st66" d="M54.93,45.52c0.8,1.52,2.47,2.41,4.21,2.41h10.54c1.88,0,3.66-1.03,4.39-2.73c0.09-0.21,0.16-0.42,0.22-0.63
	H54.56C54.64,44.88,54.76,45.2,54.93,45.52L54.93,45.52z"/>
<path class="st66" d="M54.93,32.19c0.8,1.52,2.47,2.41,4.21,2.41h10.54c1.88,0,3.66-1.03,4.39-2.73c0.09-0.21,0.16-0.42,0.22-0.63
	H54.56C54.64,31.55,54.76,31.88,54.93,32.19L54.93,32.19z"/>
<path class="st66" d="M132.11,31.24h-3.57v16.68h15.27c1.88,0,3.66-1.03,4.39-2.72c0.09-0.2,0.16-0.42,0.21-0.63h-16.3V31.24z"/>
<path class="st66" d="M104.86,34.6c1.88,0,3.66-1.04,4.38-2.73c0.09-0.2,0.16-0.42,0.21-0.63H90.7v9.89h15.46v3.44H94.33
	c-1.88,0-3.66,1.04-4.39,2.73c-0.09,0.21-0.16,0.42-0.21,0.63h19.73l0.01-10.01H94.01v-3.32L104.86,34.6z"/>
</svg>
