<?xml version="1.0" encoding="utf-8"?>
<!-- Generator: Adobe Illustrator 24.3.0, SVG Export Plug-In . SVG Version: 6.00 Build 0)  -->
<svg version="1.1" id="Layer_1" xmlns="http://www.w3.org/2000/svg" xmlns:xlink="http://www.w3.org/1999/xlink" x="0px" y="0px"
	 viewBox="0 0 1080 1080" style="enable-background:new 0 0 1080 1080;" xml:space="preserve">
<style type="text/css">
	.st0{fill:#1C4C99;}
	.st1{fill:#FFFFFF;}
</style>
<g>
	<circle class="st0" cx="540" cy="540" r="442"/>
	<path class="st1" d="M778.29,591.03c0,4.03-1.58,7.83-4.43,10.68c-2.81,2.81-6.7,4.43-10.68,4.43c-3.98,0-7.87-1.62-10.68-4.43
		l-81.78-81.78v305.59H343.77V519.92l-81.79,81.79c-2.81,2.81-6.7,4.43-10.68,4.43c-3.98,0-7.87-1.62-10.69-4.43
		c-2.84-2.85-4.41-6.65-4.41-10.68c0-4.03,1.58-7.83,4.43-10.68l255.94-255.93c2.86-2.86,6.65-4.43,10.68-4.43
		c4.03,0,7.83,1.56,10.68,4.43l255.94,255.93C776.71,583.2,778.29,587,778.29,591.03z"/>
	<path class="st1" d="M787,575.75c-2.28,0-4.43-0.89-6.04-2.5L525.02,317.32c-1.61-1.61-2.5-3.76-2.5-6.04
		c0-2.28,0.89-4.43,2.5-6.04c1.61-1.61,3.76-2.5,6.04-2.5c2.28,0,4.43,0.89,6.04,2.5l255.94,255.93c1.61,1.61,2.5,3.76,2.5,6.04
		c0,2.28-0.89,4.43-2.5,6.04C791.43,574.86,789.28,575.75,787,575.75z"/>
	<path class="st1" d="M658.9,404.62c-1.53,0-3.05-0.58-4.22-1.75c-2.33-2.33-2.33-6.11,0-8.44l103.45-103.45
		c2.33-2.33,6.11-2.33,8.44,0c2.33,2.33,2.33,6.11,0,8.44L663.12,402.87C661.95,404.04,660.43,404.62,658.9,404.62z"/>
	<path class="st1" d="M618.17,363.89c-1.53,0-3.05-0.58-4.22-1.75c-2.33-2.33-2.33-6.11,0-8.44L717.4,250.25
		c2.33-2.33,6.11-2.33,8.44,0c2.33,2.33,2.33,6.11,0,8.44L622.39,362.14C621.22,363.31,619.7,363.89,618.17,363.89z"/>
	<path class="st1" d="M699.63,445.34c-1.53,0-3.05-0.58-4.22-1.75c-2.33-2.33-2.33-6.11,0-8.44l103.45-103.44
		c2.33-2.33,6.11-2.33,8.44,0s2.33,6.11,0,8.44L703.85,443.59C702.69,444.76,701.16,445.34,699.63,445.34z"/>
	<path class="st1" d="M740.36,486.07c-1.53,0-3.05-0.58-4.22-1.75c-2.33-2.33-2.33-6.11,0-8.44l103.45-103.44
		c2.33-2.33,6.11-2.33,8.44,0s2.33,6.11,0,8.44L744.58,484.32C743.41,485.49,741.89,486.07,740.36,486.07z"/>
	<path class="st1" d="M795.54,486.07h-55.18c-3.3,0-5.97-2.67-5.97-5.97s2.67-5.97,5.97-5.97h55.18c3.3,0,5.97,2.67,5.97,5.97
		S798.84,486.07,795.54,486.07z"/>
	<path class="st1" d="M618.17,363.89c-3.3,0-5.97-2.67-5.97-5.97v-55.18c0-3.3,2.67-5.97,5.97-5.97s5.97,2.67,5.97,5.97v55.18
		C624.14,361.22,621.47,363.89,618.17,363.89z"/>
</g>
</svg>
