<?xml version="1.0" encoding="utf-8"?>
<!-- Generator: Adobe Illustrator 28.0.0, SVG Export Plug-In . SVG Version: 6.00 Build 0)  -->
<svg version="1.1" id="Layer_1" xmlns="http://www.w3.org/2000/svg" xmlns:xlink="http://www.w3.org/1999/xlink" x="0px" y="0px"
	 viewBox="0 0 1080 1080" style="enable-background:new 0 0 1080 1080;" xml:space="preserve">
<style type="text/css">
	.st0{fill:#1C4C99;}
	.st1{fill:#FFFFFF;}
	.st2{fill-rule:evenodd;clip-rule:evenodd;fill:#FFFFFF;}
</style>
<circle class="st0" cx="-553.06" cy="540" r="442"/>
<polygon class="st1" points="-424.53,603.03 -309.46,603.03 -309.46,574.42 -395.1,574.42 -395.1,535.25 -332.19,535.25 
	-332.19,506.64 -395.1,506.64 -395.1,467.4 -309.46,467.4 -309.46,438.79 -424.53,438.79 "/>
<path class="st1" d="M-657.15,539.74l-85.51-101.03h-28.77v164.31h29.44V485.25c23.2,27.62,96.08,114.4,97.08,115.53
	c1.86,2.13,4.58,3.34,7.45,3.34c5.5,0,9.79-4.29,9.79-9.8V438.64h-29.48V539.74z"/>
<polygon class="st1" points="-887.19,438.8 -966,603.03 -932.81,603.03 -877.21,486.36 -821.63,603.03 -788.41,603.03 
	-867.23,438.8 "/>
<path class="st1" d="M-189.97,486.73c0,14.43-6.63,20.59-22.17,20.59h-41.65V467h38.66C-192.84,467-189.97,477.55-189.97,486.73
	 M-190.33,532.04c18.4-7.02,29.28-23.75,29.28-45.31c0-35.26-29.42-47.78-54.62-47.78h-67.47v163.85h29.36v-67.05h31.28l41.86,67.09
	H-146L-190.33,532.04z"/>
<path class="st1" d="M-891.84,639.74c1.1-11.85,2.05-23.73,3.4-35.55c0.51-4.54-1.01-5.84-5.34-5.51
	c-4.27,0.32-8.59,0.07-14.52,0.07c14.63-19.15,28.41-37.17,42.18-55.18c0.37,0.18,0.74,0.35,1.1,0.53
	c-1.06,11.24-2.03,22.48-3.23,33.7c-0.81,7.63-0.95,7.62,6.43,7.62c4.09,0.01,8.17,0,13.64,0c-14.66,18.96-28.57,36.96-42.48,54.95
	C-891.06,640.16-891.45,639.95-891.84,639.74"/>
<polygon class="st1" points="-515.74,543.99 -479.02,602.83 -443.93,602.83 -496.45,518.99 "/>
<path class="st1" d="M-449.85,438.64h-37.3l-76.8,99.75v-99.75h-29.48v155.88c0,5.42,4.48,9.82,9.96,9.82
	c3.03,0,5.91-1.36,7.89-3.78L-449.85,438.64z"/>
<circle class="st0" cx="549.44" cy="540" r="442"/>
<path class="st1" d="M571.63,726.73h-2.15h-0.56l-3.73,9.35h-10.94l13-32.73H580c6.03,0,9.7,1.31,11.61,3.51
	c1.59,1.82,2.03,4.25,1.7,6.83c-0.4,3.09-1.69,5.85-4.22,8.09c-1.58,1.4-3.65,2.57-6.38,3.42l3.14,10.89h-11.78L571.63,726.73z
	 M575.95,718.92c2.15,0,3.82-0.61,4.82-1.5c0.68-0.6,1.11-1.4,1.22-2.24c0.08-0.65-0.07-1.26-0.48-1.73
	c-0.53-0.6-1.57-0.93-3.11-0.93h-3.88l-2.55,6.41H575.95z"/>
<path class="st1" d="M645.28,717.52c-0.67,5.19-3.44,10.05-7.45,13.6c-3.85,3.42-8.91,5.61-14.28,5.61
	c-9.64,0-15.45-6.45-14.37-14.82c0.67-5.19,3.44-10.06,7.45-13.61c3.86-3.42,8.91-5.61,14.28-5.61
	C640.55,702.69,646.36,709.15,645.28,717.52 M630.66,725.04c1.9-1.68,3.2-4.16,3.5-6.55c0.45-3.46-1.31-6.17-5.24-6.17
	c-1.96,0-3.71,0.79-5.13,2.06c-1.9,1.68-3.2,4.16-3.5,6.55c-0.45,3.46,1.31,6.17,5.24,6.17C627.5,727.1,629.24,726.31,630.66,725.04
	"/>
<path class="st1" d="M698.36,717.52c-0.67,5.19-3.44,10.05-7.45,13.6c-3.85,3.42-8.91,5.61-14.28,5.61
	c-9.63,0-15.44-6.45-14.37-14.82c0.67-5.19,3.44-10.06,7.45-13.61c3.86-3.42,8.91-5.61,14.28-5.61
	C693.62,702.69,699.43,709.15,698.36,717.52 M683.74,725.04c1.9-1.68,3.2-4.16,3.5-6.55c0.45-3.46-1.31-6.17-5.24-6.17
	c-1.96,0-3.71,0.79-5.13,2.06c-1.9,1.68-3.2,4.16-3.51,6.55c-0.44,3.46,1.31,6.17,5.24,6.17
	C680.57,727.1,682.31,726.31,683.74,725.04"/>
<polygon class="st1" points="723.09,703.35 750.49,703.35 746.76,712.7 730.31,712.7 728.65,716.86 743.94,716.86 740.55,725.37 
	725.26,725.37 721.03,736.08 710.09,736.08 "/>
<polygon class="st1" points="769.05,703.35 779.99,703.35 767,736.08 756.06,736.08 "/>
<polygon class="st1" points="799.54,703.35 809.78,703.35 815.21,718.96 821.43,703.35 832.27,703.35 819.27,736.08 809.55,736.08 
	803.88,719.81 797.39,736.08 786.54,736.08 "/>
<path class="st1" d="M843.74,722.19c0.67-5.19,3.24-9.91,7.19-13.42c4.22-3.74,10.09-6.13,16.92-6.13c6.17,0,11.11,2.67,13,5.42
	l-7.73,7.02c-1.65-1.73-4.29-2.95-7.19-2.95c-3.09,0-5.7,1.07-7.6,2.76c-1.95,1.73-3.19,4.11-3.54,6.78
	c-0.52,4.07,2.17,6.08,5.58,6.08c1.17,0,2.13-0.18,2.92-0.51l1.53-3.51h-5.38l2.68-7.01h15.76l-6.82,16.69
	c-3.47,1.92-8.28,3.37-13.01,3.37C849.9,736.78,842.42,732.48,843.74,722.19"/>
<path class="st2" d="M152.46,612.05l40.4-0.42l-0.79,55.77l51.49-55.77h9.77l9.5,55.34l40.13-55.34h13.2l-55.44,74.84h-19.81
	l-6.08-51.73l-48.85,51.73h-18.22l0.26-64.71c-2.73-4.52-7.92-6.47-15.57-5.88C151.07,614.61,151.07,613.33,152.46,612.05"/>
<path class="st2" d="M355.63,614.55l46.43-5.85l-6.02,19.07c8.07-6.06,16.16-10.82,24.23-14.76c9.72-4.74,48.29-10.36,46.19,12.3
	l-24.34,60.15h-24.44l21.59-54.52c3.18-17.85-26.34-14.1-48.74,9.25l-18.69,45.27h-25.17l23.69-57.26
	c1.39-8.05-0.84-10.64-15.64-10.18C353.14,617.49,353.53,615.49,355.63,614.55"/>
<path class="st2" d="M540.75,651.97l4.73-11.32c3.89-13.78,0.12-25.84-16.52-24.35c-31.26,3.23-61.43,61.3-23.28,60.98
	C520.09,677.39,533.35,665.37,540.75,651.97 M531.32,674.56c-22.93,15.62-67.05,20.43-69.68-9.96
	c-1.47-17.06,12.18-37.46,32.21-48.59c12.07-6.71,26.06-8.89,37.6-8.25c10.72,0.61,19.33,4.19,22.33,13.05l12.6-30.15
	c2.72-7.85-1.82-11.36-13.78-11c-1.69-0.31-1.03-4.06,1.96-4.56l43.55-3.5l-45.1,113.75h-26.21L531.32,674.56z"/>
<path class="st2" d="M587.44,614.55l46.44-5.85l-6.03,19.07c8.08-6.06,13.9-10.82,21.98-14.76c9.71-4.74,48.29-10.36,46.19,12.3
	l-0.69,1.7c7.31-5.48,14.32-10.01,21.46-14c9.7-5.43,48.28-11.5,46.18,12.3l-24.34,60.15h-23.87l22.43-54.52
	c3.13-19.56-24.56-14.85-46.71,8.04l-18.81,46.48h-24.44l21.59-54.52c3.19-17.85-24.08-14.1-46.48,9.25l-18.69,45.27h-25.18
	l23.69-57.26c1.39-8.05-0.83-10.64-15.63-10.18C584.95,617.49,585.34,615.49,587.44,614.55"/>
<path class="st2" d="M866.13,612.85l46.43-5.85l-6.02,19.07c8.08-6.06,14.07-12.51,22.14-16.45c5.18-2.53,19.17-4.82,30.79-2.97
	l-11.21,17.07c-6.19-6.99-29.27-2.97-47.22,14.78l-18.69,45.26h-25.17l23.69-57.26c1.39-8.06-0.83-10.64-15.64-10.19
	C863.63,615.8,864.03,613.79,866.13,612.85"/>
<path class="st2" d="M818.05,662.92l6.47-14.84c-22.13-0.74-37.5,4.22-43.06,17.46c-3.17,7.9,2.39,13.71,16.7,10.47
	C806.8,673.57,813.3,669.21,818.05,662.92 M826.65,643.18c-30.56-2.37-64.4,6.46-71.9,23.74c-8.73,22.71,32.08,25.53,57.68,8.93
	l-3.61,8.29h27.35l19.31-52.17c14.28-30.26-34.78-28.97-57.1-21.85c-11.07,3.53-20.24,9.76-27,19.39h30.52
	c4.53-20.19,38.65-21.74,32.82-4.89L826.65,643.18z"/>
<polygon class="st2" points="382.42,394.02 387.88,543.48 405.24,526.25 "/>
<polygon class="st2" points="235.78,583.23 360.81,501.49 384.78,505.95 "/>
<polygon class="st2" points="506.84,591.6 354.53,544.07 347.73,526.49 "/>
<polygon class="st2" points="373.74,517.78 382.03,521.41 382.73,527.55 375.46,531.74 367.51,528.38 366.82,521.97 "/>
<polygon class="st2" points="355.63,550.97 372.75,556.54 321.07,685.67 292.3,685.67 "/>
<path class="st1" d="M327.19,544.29l-93.53,48.51h88.65C322.24,576.79,323.8,560.55,327.19,544.29"/>
<path class="st1" d="M376.69,443.15l-2.09-57.07l-45.9-18.23l23.02,57.95l-108.39-12.75l65.14,87.64l-61.54,9.15l39.55,31.26
	l51.94-33.96C347.82,483.38,360.84,461.9,376.69,443.15"/>
<path class="st1" d="M809.38,548.39l48.78-38.55l-61.54-9.15l65.14-87.63L753.38,425.8l22.73-57.95l-57.65,23.02l12.47-108.44
	l-87.59,65.18l-8.87-61.57l-38.81,48.81l-43.25-100.4l-43.24,100.4l-38.52-48.81l-9.16,61.57l-87.59-65.18l6.62,56.33l14.66,84.95
	c12.86-12.05,27.01-22.62,42.2-31.46c51-29.4,113.37-39.38,174.62-23.02c61.54,16.63,110.34,56.29,139.73,107.32
	c20.21,34.78,31.25,74.85,30.99,116.24H906.8l2.64-1.14L809.38,548.39z"/>
<circle class="st0" cx="1649.44" cy="540" r="442"/>
<path class="st1" d="M1251.22,521.43c3.98,7.56,12.3,11.96,20.96,11.96h18.02v66.47h16.43v-66.42h17.97
	c9.36,0,18.17-5.14,21.81-13.57c0.45-1.06,0.8-2.08,1.09-3.15h-98.12C1249.77,518.32,1250.37,519.92,1251.22,521.43"/>
<path class="st1" d="M1981.89,533.44h55.21c9.36,0,18.17-5.14,21.81-13.57c0.45-1.06,0.79-2.08,1.09-3.15h-100.91
	c0.39,1.6,0.99,3.2,1.84,4.7c3.98,7.56,12.3,11.96,20.96,11.96V533.44z"/>
<polygon class="st1" points="1959.09,549.87 1959.09,599.68 1976.86,599.68 1976.86,568.86 2042.28,568.86 2042.28,599.68 
	2060,599.68 2060,549.87 "/>
<path class="st1" d="M1428.3,554.56c3.98,7.56,12.3,11.96,20.96,11.96h52.42c9.36,0,18.17-5.13,21.8-13.57
	c0.45-1.06,0.8-2.08,1.1-3.15h-98.12c0.4,1.6,0.99,3.2,1.84,4.7V554.56z"/>
<path class="st1" d="M1428.3,587.7c3.98,7.56,12.3,11.96,20.96,11.96h52.42c9.36,0,18.17-5.13,21.8-13.57
	c0.45-1.06,0.8-2.08,1.1-3.15h-98.12c0.4,1.6,0.99,3.2,1.84,4.7V587.7z"/>
<path class="st1" d="M1428.3,521.43c3.98,7.56,12.3,11.96,20.96,11.96h52.42c9.36,0,18.17-5.13,21.8-13.57
	c0.45-1.06,0.8-2.08,1.1-3.15h-98.12c0.4,1.6,0.99,3.2,1.84,4.7V521.43z"/>
<path class="st1" d="M1812.08,516.73h-17.77v82.94h75.92c9.36,0,18.22-5.14,21.85-13.52c0.45-1.02,0.81-2.08,1.04-3.15h-81.04
	V516.73z"/>
<path class="st1" d="M1676.62,533.44c9.36,0,18.22-5.18,21.8-13.57c0.45-1.02,0.8-2.08,1.04-3.15h-93.29v49.17h76.87V583h-58.8
	c-9.36,0-18.22,5.18-21.8,13.57c-0.45,1.02-0.8,2.08-1.05,3.15h98.12l0.05-49.8h-76.92v-16.52L1676.62,533.44z"/>
</svg>
