<?xml version="1.0" encoding="utf-8"?>
<!-- Generator: Adobe Illustrator 24.3.0, SVG Export Plug-In . SVG Version: 6.00 Build 0)  -->
<svg version="1.1" id="Layer_1" xmlns="http://www.w3.org/2000/svg" xmlns:xlink="http://www.w3.org/1999/xlink" x="0px" y="0px"
	 viewBox="0 0 1080 1080" style="enable-background:new 0 0 1080 1080;" xml:space="preserve">
<style type="text/css">
	.st0{fill:#1C4C99;}
	.st1{fill:#FFFFFF;}
</style>
<g>
	<circle class="st0" cx="540" cy="540" r="442"/>
	<path class="st1" d="M637.27,679.34H442.73c-3.3,0-5.97-2.67-5.97-5.97v-0.65c0-26.32-10.78-51.77-30.35-71.64
		c-38.31-38.91-57.71-92.6-53.2-147.29c7.51-91.25,82.1-164.83,173.5-171.13c52.63-3.63,102.78,14.1,141.17,49.93
		c37.86,35.34,59.57,85.29,59.57,137.06c0,50.35-19.71,97.61-55.49,133.07c-18.25,18.09-28.72,43.59-28.72,69.98v0.67
		C643.24,676.67,640.56,679.34,637.27,679.34z M448.57,667.4h182.85c1.32-27.65,12.86-54.06,32.13-73.16
		c33.5-33.2,51.96-77.45,51.96-124.59c0-48.47-20.33-95.24-55.78-128.33c-35.94-33.55-82.91-50.15-132.2-46.75
		c-85.57,5.91-155.39,74.78-162.43,160.2c-4.22,51.22,13.94,101.5,49.81,137.93C435.39,613.49,447.22,639.84,448.57,667.4z"/>
	<path class="st1" d="M638.42,717.61H441.58c-3.3,0-5.97-2.67-5.97-5.97s2.67-5.97,5.97-5.97h196.84c3.3,0,5.97,2.67,5.97,5.97
		S641.72,717.61,638.42,717.61z"/>
	<path class="st1" d="M577.65,850.83h-75.3c-36.8,0-66.74-29.94-66.74-66.74v-33.43c0-3.3,2.67-5.97,5.97-5.97h196.84
		c3.3,0,5.97,2.67,5.97,5.97v33.43C644.39,820.89,614.45,850.83,577.65,850.83z M447.55,756.63v27.46c0,30.22,24.58,54.8,54.8,54.8
		h75.3c30.22,0,54.8-24.58,54.8-54.8v-27.46H447.55z"/>
	<path class="st1" d="M540,891.79c-19.33,0-35.06-15.73-35.06-35.06V846.5c0-3.3,2.67-5.97,5.97-5.97c3.3,0,5.97,2.67,5.97,5.97
		v10.23c0,12.75,10.37,23.12,23.12,23.12s23.12-10.37,23.12-23.12v-10.32c0-3.3,2.67-5.97,5.97-5.97c3.3,0,5.97,2.67,5.97,5.97
		v10.32C575.06,876.07,559.33,891.79,540,891.79z"/>
	<path class="st1" d="M540,247.03c-3.3,0-5.97-2.67-5.97-5.97v-46.88c0-3.3,2.67-5.97,5.97-5.97c3.3,0,5.97,2.67,5.97,5.97v46.88
		C545.97,244.36,543.3,247.03,540,247.03z"/>
	<path class="st1" d="M461.92,260.8c-2.44,0-4.73-1.51-5.61-3.93l-16.03-44.06c-1.13-3.1,0.47-6.52,3.57-7.65
		c3.1-1.13,6.53,0.47,7.65,3.57l16.04,44.06c1.13,3.1-0.47,6.52-3.57,7.65C463.29,260.68,462.6,260.8,461.92,260.8z"/>
	<path class="st1" d="M393.27,300.44c-1.7,0-3.4-0.72-4.58-2.13l-30.14-35.92c-2.12-2.53-1.79-6.29,0.73-8.41
		c2.53-2.12,6.29-1.79,8.41,0.73l30.14,35.92c2.12,2.53,1.79,6.29-0.73,8.41C395.98,299.98,394.62,300.44,393.27,300.44z"/>
	<path class="st1" d="M342.29,361.17c-1.01,0-2.04-0.26-2.98-0.8l-40.6-23.44c-2.85-1.65-3.83-5.3-2.18-8.15
		c1.65-2.85,5.3-3.84,8.15-2.18l40.6,23.44c2.85,1.65,3.83,5.3,2.18,8.15C346.36,360.1,344.36,361.17,342.29,361.17z"/>
	<path class="st1" d="M315.19,435.68c-0.35,0-0.69-0.03-1.04-0.09l-46.17-8.14c-3.25-0.57-5.42-3.67-4.84-6.91
		c0.57-3.25,3.7-5.42,6.91-4.84l46.17,8.14c3.25,0.57,5.42,3.67,4.84,6.91C320.55,433.64,318.03,435.68,315.19,435.68z"/>
	<path class="st1" d="M269,523.1c-2.84,0-5.36-2.04-5.87-4.94c-0.57-3.25,1.6-6.34,4.84-6.91l46.17-8.14
		c3.25-0.57,6.34,1.6,6.91,4.84c0.57,3.25-1.6,6.34-4.84,6.91l-46.17,8.14C269.7,523.07,269.35,523.1,269,523.1z"/>
	<path class="st1" d="M810.99,523.1c-0.35,0-0.69-0.03-1.05-0.09l-46.17-8.14c-3.25-0.57-5.41-3.67-4.84-6.91
		c0.58-3.25,3.66-5.42,6.92-4.84l46.17,8.14c3.25,0.57,5.41,3.67,4.84,6.91C816.35,521.06,813.83,523.1,810.99,523.1z"/>
	<path class="st1" d="M764.81,435.68c-2.84,0-5.36-2.04-5.87-4.93c-0.57-3.25,1.6-6.34,4.84-6.92l46.17-8.14
		c3.23-0.57,6.34,1.59,6.92,4.84c0.57,3.25-1.6,6.34-4.84,6.92l-46.17,8.14C765.5,435.64,765.15,435.68,764.81,435.68z"/>
	<path class="st1" d="M737.7,361.17c-2.06,0-4.07-1.07-5.17-2.99c-1.65-2.85-0.67-6.51,2.18-8.15l40.6-23.44
		c2.85-1.65,6.51-0.68,8.15,2.18c1.65,2.85,0.67,6.51-2.18,8.15l-40.6,23.44C739.74,360.92,738.72,361.17,737.7,361.17z"/>
	<path class="st1" d="M686.73,300.44c-1.35,0-2.72-0.46-3.83-1.4c-2.53-2.12-2.86-5.88-0.74-8.41l30.14-35.92
		c2.12-2.52,5.89-2.86,8.41-0.73c2.53,2.12,2.86,5.88,0.74,8.41l-30.14,35.92C690.13,299.71,688.44,300.44,686.73,300.44z"/>
	<path class="st1" d="M618.08,260.8c-0.68,0-1.37-0.12-2.04-0.36c-3.1-1.13-4.7-4.55-3.57-7.65l16.04-44.06
		c1.13-3.1,4.57-4.69,7.65-3.57c3.1,1.13,4.7,4.55,3.57,7.65l-16.04,44.06C622.8,259.29,620.51,260.8,618.08,260.8z"/>
	<circle class="st1" cx="540" cy="469.65" r="123.12"/>
</g>
</svg>
