<?xml version="1.0" encoding="utf-8"?>
<!-- Generator: Adobe Illustrator 28.0.0, SVG Export Plug-In . SVG Version: 6.00 Build 0)  -->
<svg version="1.1" id="Layer_1" xmlns="http://www.w3.org/2000/svg" xmlns:xlink="http://www.w3.org/1999/xlink" x="0px" y="0px"
	 viewBox="0 0 1080 1080" style="enable-background:new 0 0 1080 1080;" xml:space="preserve">
<style type="text/css">
	.st0{fill:#1C4C99;}
	.st1{fill:#FFFFFF;}
	.st2{fill-rule:evenodd;clip-rule:evenodd;fill:#FFFFFF;}
</style>
<circle class="st0" cx="549.44" cy="540" r="442"/>
<path class="st1" d="M151.22,521.43c3.98,7.56,12.3,11.96,20.96,11.96h18.02v66.47h16.43v-66.42h17.97
	c9.36,0,18.17-5.14,21.81-13.57c0.45-1.06,0.8-2.08,1.09-3.15h-98.12C149.77,518.32,150.37,519.92,151.22,521.43"/>
<path class="st1" d="M881.89,533.44h55.21c9.36,0,18.17-5.14,21.81-13.57c0.45-1.06,0.79-2.08,1.09-3.15H859.09
	c0.39,1.6,0.99,3.2,1.84,4.7c3.98,7.56,12.3,11.96,20.96,11.96V533.44z"/>
<polygon class="st1" points="859.09,549.87 859.09,599.68 876.86,599.68 876.86,568.86 942.28,568.86 942.28,599.68 960,599.68 
	960,549.87 "/>
<path class="st1" d="M328.3,554.56c3.98,7.56,12.3,11.96,20.96,11.96h52.42c9.36,0,18.17-5.13,21.8-13.57
	c0.45-1.06,0.8-2.08,1.1-3.15h-98.12c0.4,1.6,0.99,3.2,1.84,4.7V554.56z"/>
<path class="st1" d="M328.3,587.7c3.98,7.56,12.3,11.96,20.96,11.96h52.42c9.36,0,18.17-5.13,21.8-13.57
	c0.45-1.06,0.8-2.08,1.1-3.15h-98.12c0.4,1.6,0.99,3.2,1.84,4.7V587.7z"/>
<path class="st1" d="M328.3,521.43c3.98,7.56,12.3,11.96,20.96,11.96h52.42c9.36,0,18.17-5.13,21.8-13.57
	c0.45-1.06,0.8-2.08,1.1-3.15h-98.12c0.4,1.6,0.99,3.2,1.84,4.7V521.43z"/>
<path class="st1" d="M712.08,516.73h-17.77v82.94h75.92c9.36,0,18.22-5.14,21.85-13.52c0.45-1.02,0.81-2.08,1.04-3.15h-81.04V516.73
	z"/>
<path class="st1" d="M576.62,533.44c9.36,0,18.22-5.18,21.8-13.57c0.45-1.02,0.8-2.08,1.04-3.15h-93.29v49.17h76.87V583h-58.8
	c-9.36,0-18.22,5.18-21.8,13.57c-0.45,1.02-0.8,2.08-1.05,3.15h98.12l0.05-49.8h-76.92v-16.52L576.62,533.44z"/>
</svg>
