<svg width="152" height="152" viewBox="0 0 152 152" fill="none" xmlns="http://www.w3.org/2000/svg">
<path d="M76.8899 0.319946C78.6399 1.16995 79.2299 2.61001 79.1999 4.51001C79.1299 8.19001 79.1799 11.86 79.1799 15.54C79.1799 16.83 78.8499 17.97 77.6699 18.7C75.8999 19.81 73.2299 19.01 73.1199 16.99C72.8599 12.16 72.9599 7.30998 73.1399 2.47998C73.1699 1.73998 74.4299 1.03996 75.1199 0.329956C75.7099 0.319956 76.2999 0.319946 76.8899 0.319946Z" fill="#FB9C1A"/>
<path d="M0.469727 74.96C1.31973 73.2 2.75973 72.62 4.65973 72.65C8.37973 72.72 12.1097 72.6401 15.8397 72.6801C18.2997 72.7101 19.9897 74.6801 19.1597 76.6801C18.7997 77.5501 17.7697 78.72 16.9997 78.75C12.2597 78.94 7.50973 78.93 2.76973 78.73C1.97973 78.7 1.23973 77.42 0.469727 76.72C0.469727 76.15 0.469727 75.56 0.469727 74.96Z" fill="#FB9C1A"/>
<path d="M82.88 63.24C83.62 63.24 84.15 63.24 84.68 63.24C90.97 63.24 97.27 63.25 103.56 63.23C105.02 63.23 106.31 63.5201 107.07 64.9101C107.83 66.3001 107.38 67.5401 106.57 68.7601C94.37 87.2601 82.19 105.76 70 124.27C68.86 126 67.47 126.57 65.91 125.99C64.38 125.42 63.7 124.03 63.97 121.99C65.69 109.09 67.42 96.1901 69.13 83.2801C69.17 82.9501 69.14 82.61 69.14 82.12C68.57 82.12 68.04 82.12 67.51 82.12C61.17 82.12 54.83 82.1001 48.48 82.1301C46.95 82.1401 45.62 81.8701 44.88 80.3901C44.14 78.9001 44.72 77.68 45.64 76.46C57.89 60.15 70.12 43.8401 82.35 27.5101C83.14 26.4501 83.98 25.51 85.42 25.48C87.44 25.44 88.85 27.2201 88.5 29.4101C87.16 37.6001 85.79 45.78 84.43 53.97C83.92 56.98 83.42 59.98 82.88 63.24ZM53.98 75.85C60.38 75.85 66.42 75.84 72.46 75.86C74.94 75.87 76.26 77.42 75.94 79.87C74.81 88.34 73.67 96.8101 72.54 105.28C72.37 106.53 72.26 107.79 72.13 109.05C72.24 109.07 72.35 109.09 72.45 109.12C81.07 96.0201 89.7 82.93 98.47 69.59C97.6 69.59 97.06 69.59 96.53 69.59C90.93 69.59 85.32 69.61 79.72 69.58C77.08 69.57 75.69 68.01 76.09 65.57C76.9 60.68 77.74 55.7901 78.56 50.9001C79.09 47.7401 79.6 44.5801 80.11 41.4201C80.03 41.3901 79.95 41.36 79.87 41.33C71.31 52.74 62.75 64.16 53.98 75.85Z" fill="#FB9C1A"/>
<path d="M142.169 72.68C144.029 72.68 145.899 72.66 147.759 72.68C150.109 72.7 151.549 73.94 151.529 75.88C151.509 77.77 150.099 79 147.839 79.01C144.019 79.04 140.189 79.03 136.359 79.01C134.099 79 132.689 77.77 132.669 75.88C132.639 73.94 134.089 72.7 136.429 72.67C138.339 72.66 140.259 72.68 142.169 72.68Z" fill="#FB9C1A"/>
<path d="M79.1792 142C79.1792 143.91 79.1993 145.83 79.1693 147.74C79.1293 149.98 77.8793 151.39 75.9793 151.38C74.0893 151.37 72.8492 149.95 72.8392 147.7C72.8092 143.88 72.8192 140.05 72.8392 136.22C72.8492 133.96 74.0693 132.54 75.9493 132.51C77.8893 132.48 79.1393 133.92 79.1693 136.26C79.1893 138.18 79.1792 140.09 79.1792 142Z" fill="#FB9C1A"/>
<path d="M25.3394 21.53C25.7094 21.73 26.5394 21.99 27.0994 22.54C30.0294 25.38 32.9094 28.2701 35.7694 31.1801C37.1694 32.6101 37.1794 34.55 35.9294 35.79C34.6694 37.04 32.7394 37 31.3194 35.61C28.4394 32.79 25.6094 29.9201 22.7694 27.0601C21.7394 26.0301 21.3594 24.8101 21.9794 23.4301C22.5194 22.1801 23.5194 21.56 25.3394 21.53Z" fill="#FB9C1A"/>
<path d="M117.959 36.96C117.179 36.33 116.159 35.8 115.569 34.97C114.839 33.95 114.929 32.6099 115.829 31.6899C118.939 28.4799 122.089 25.3 125.319 22.21C126.449 21.12 128.239 21.34 129.349 22.4C130.509 23.5 130.789 25.35 129.659 26.53C126.579 29.77 123.379 32.9 120.179 36.02C119.719 36.45 118.949 36.55 117.959 36.96Z" fill="#FB9C1A"/>
<path d="M25.21 130.19C23.46 130.09 22.5 129.48 21.97 128.3C21.41 127.05 21.62 125.87 22.55 124.89C24.18 123.19 25.87 121.53 27.53 119.86C28.78 118.61 30.01 117.34 31.29 116.11C32.74 114.72 34.63 114.65 35.9 115.89C37.17 117.13 37.17 119.07 35.77 120.5C32.92 123.42 30.04 126.31 27.1 129.14C26.52 129.72 25.62 129.97 25.21 130.19Z" fill="#FB9C1A"/>
<path d="M126.75 130.2C126.32 129.96 125.44 129.68 124.85 129.1C121.92 126.26 119.04 123.37 116.19 120.46C114.86 119.1 114.85 117.2 116.04 115.96C117.28 114.68 119.22 114.67 120.64 116.06C123.56 118.91 126.43 121.81 129.3 124.71C130.33 125.75 130.64 126.99 130.01 128.36C129.46 129.53 128.48 130.11 126.75 130.2Z" fill="#FB9C1A"/>
</svg>
