<svg width="392" height="46" viewBox="0 0 392 46" fill="none" xmlns="http://www.w3.org/2000/svg">
<path d="M386.35 0.590088H5.8297C2.98543 0.590088 0.679688 2.89578 0.679688 5.74005V39.7101C0.679688 42.5543 2.98543 44.8601 5.8297 44.8601H386.35C389.194 44.8601 391.5 42.5543 391.5 39.7101V5.74005C391.5 2.89578 389.194 0.590088 386.35 0.590088Z" fill="url(#paint0_linear_141_5)" stroke="white" stroke-miterlimit="10"/>
<path d="M36.2621 32.6833C34.8975 32.6833 33.6256 32.4643 32.4463 32.0263C31.2839 31.5714 30.2731 30.9313 29.4139 30.1058C28.5547 29.2803 27.8809 28.3116 27.3923 27.1997C26.9206 26.0878 26.6847 24.8665 26.6847 23.5356C26.6847 22.2047 26.9206 20.9833 27.3923 19.8714C27.8809 18.7595 28.5547 17.7909 29.4139 16.9654C30.2899 16.1399 31.3092 15.5081 32.4716 15.0701C33.634 14.6153 34.9059 14.3878 36.2873 14.3878C37.8204 14.3878 39.2018 14.6574 40.4316 15.1965C41.6783 15.7187 42.7228 16.4937 43.5651 17.5213L40.937 19.9472C40.3305 19.2565 39.6567 18.7427 38.9154 18.4058C38.1742 18.052 37.3655 17.8751 36.4895 17.8751C35.664 17.8751 34.9059 18.0099 34.2152 18.2794C33.5245 18.549 32.9264 18.9364 32.421 19.4418C31.9156 19.9472 31.5197 20.5453 31.2333 21.236C30.9638 21.9267 30.829 22.6932 30.829 23.5356C30.829 24.3779 30.9638 25.1444 31.2333 25.8351C31.5197 26.5258 31.9156 27.1239 32.421 27.6293C32.9264 28.1347 33.5245 28.5222 34.2152 28.7917C34.9059 29.0613 35.664 29.196 36.4895 29.196C37.3655 29.196 38.1742 29.0276 38.9154 28.6906C39.6567 28.3369 40.3305 27.8062 40.937 27.0986L43.5651 29.5246C42.7228 30.5522 41.6783 31.3356 40.4316 31.8747C39.2018 32.4138 37.812 32.6833 36.2621 32.6833ZM54.5512 32.6833C53.153 32.6833 51.8558 32.4559 50.6597 32.001C49.4804 31.5462 48.4527 30.906 47.5767 30.0805C46.7175 29.255 46.0437 28.2863 45.5551 27.1744C45.0834 26.0626 44.8476 24.8496 44.8476 23.5356C44.8476 22.2215 45.0834 21.0086 45.5551 19.8967C46.0437 18.7848 46.726 17.8161 47.602 16.9906C48.478 16.1651 49.5057 15.525 50.6849 15.0701C51.8642 14.6153 53.1445 14.3878 54.526 14.3878C55.9242 14.3878 57.2046 14.6153 58.367 15.0701C59.5463 15.525 60.5655 16.1651 61.4247 16.9906C62.3007 17.8161 62.983 18.7848 63.4716 19.8967C63.9601 20.9917 64.2044 22.2047 64.2044 23.5356C64.2044 24.8496 63.9601 26.071 63.4716 27.1997C62.983 28.3116 62.3007 29.2803 61.4247 30.1058C60.5655 30.9144 59.5463 31.5462 58.367 32.001C57.2046 32.4559 55.9327 32.6833 54.5512 32.6833ZM54.526 29.196C55.3178 29.196 56.0422 29.0613 56.6992 28.7917C57.3731 28.5222 57.9627 28.1347 58.4681 27.6293C58.9735 27.1239 59.361 26.5258 59.6305 25.8351C59.9169 25.1444 60.0601 24.3779 60.0601 23.5356C60.0601 22.6932 59.9169 21.9267 59.6305 21.236C59.361 20.5453 58.9735 19.9472 58.4681 19.4418C57.9795 18.9364 57.3983 18.549 56.7245 18.2794C56.0506 18.0099 55.3178 17.8751 54.526 17.8751C53.7342 17.8751 53.0013 18.0099 52.3275 18.2794C51.6705 18.549 51.0893 18.9364 50.5839 19.4418C50.0785 19.9472 49.6826 20.5453 49.3962 21.236C49.1266 21.9267 48.9918 22.6932 48.9918 23.5356C48.9918 24.3611 49.1266 25.1276 49.3962 25.8351C49.6826 26.5258 50.07 27.1239 50.5586 27.6293C51.064 28.1347 51.6536 28.5222 52.3275 28.7917C53.0013 29.0613 53.7342 29.196 54.526 29.196ZM70.6984 32.3801V18.0267H65.0379V14.6911H80.4526V18.0267H74.7921V32.3801H70.6984ZM82.6552 32.3801V14.6911H86.749V32.3801H82.6552ZM89.8098 32.3801V29.7267L100.752 16.5358L101.257 18.0267H90.012V14.6911H104.896V17.3444L93.9794 30.5354L93.474 29.0444H105.275V32.3801H89.8098ZM105.576 32.3801L113.46 14.6911H117.503L125.413 32.3801H121.117L114.648 16.7632H116.265L109.771 32.3801H105.576ZM109.518 28.5896L110.604 25.4814H119.702L120.814 28.5896H109.518ZM142.946 32.6833C141.547 32.6833 140.259 32.4643 139.079 32.0263C137.917 31.5714 136.898 30.9313 136.022 30.1058C135.163 29.2803 134.489 28.3116 134 27.1997C133.528 26.0878 133.293 24.8665 133.293 23.5356C133.293 22.2047 133.528 20.9833 134 19.8714C134.489 18.7595 135.171 17.7909 136.047 16.9654C136.923 16.1399 137.951 15.5081 139.13 15.0701C140.309 14.6153 141.606 14.3878 143.022 14.3878C144.588 14.3878 145.995 14.6489 147.242 15.1712C148.505 15.6934 149.566 16.4515 150.426 17.4455L147.798 19.8714C147.157 19.1975 146.458 18.7006 145.7 18.3805C144.942 18.0436 144.117 17.8751 143.224 17.8751C142.364 17.8751 141.581 18.0099 140.874 18.2794C140.166 18.549 139.551 18.9364 139.029 19.4418C138.523 19.9472 138.128 20.5453 137.841 21.236C137.572 21.9267 137.437 22.6932 137.437 23.5356C137.437 24.3611 137.572 25.1192 137.841 25.8099C138.128 26.5006 138.523 27.1071 139.029 27.6293C139.551 28.1347 140.158 28.5222 140.848 28.7917C141.556 29.0613 142.331 29.196 143.173 29.196C143.982 29.196 144.765 29.0697 145.523 28.817C146.298 28.5474 147.048 28.101 147.772 27.4777L150.097 30.4343C149.137 31.1587 148.017 31.7146 146.736 32.1021C145.473 32.4896 144.209 32.6833 142.946 32.6833ZM146.357 29.9036V23.2576H150.097V30.4343L146.357 29.9036ZM153.9 32.3801V14.6911H161.557C163.14 14.6911 164.505 14.9522 165.65 15.4744C166.796 15.9798 167.68 16.7127 168.304 17.6729C168.927 18.6332 169.239 19.7788 169.239 21.1096C169.239 22.4237 168.927 23.5608 168.304 24.5211C167.68 25.4645 166.796 26.1889 165.65 26.6943C164.505 27.1997 163.14 27.4524 161.557 27.4524H156.174L157.994 25.6582V32.3801H153.9ZM165.145 32.3801L160.723 25.9615H165.094L169.567 32.3801H165.145ZM157.994 26.1131L156.174 24.1926H161.329C162.593 24.1926 163.536 23.923 164.159 23.3839C164.783 22.828 165.094 22.0699 165.094 21.1096C165.094 20.1325 164.783 19.3744 164.159 18.8353C163.536 18.2963 162.593 18.0267 161.329 18.0267H156.174L157.994 16.0809V26.1131ZM170.157 32.3801L178.042 14.6911H182.085L189.994 32.3801H185.698L179.229 16.7632H180.847L174.352 32.3801H170.157ZM174.099 28.5896L175.186 25.4814H184.283L185.395 28.5896H174.099ZM194.605 32.3801V18.0267H188.945V14.6911H204.36V18.0267H198.699V32.3801H194.605ZM206.562 32.3801V14.6911H210.656V32.3801H206.562ZM220.666 32.6833C219.251 32.6833 217.895 32.498 216.597 32.1274C215.3 31.7399 214.256 31.2429 213.464 30.6364L214.854 27.5535C215.612 28.0926 216.505 28.539 217.532 28.8928C218.577 29.2297 219.63 29.3982 220.691 29.3982C221.5 29.3982 222.148 29.3224 222.637 29.1708C223.142 29.0023 223.513 28.7749 223.749 28.4885C223.985 28.2021 224.103 27.8736 224.103 27.503C224.103 27.0312 223.917 26.6606 223.547 26.3911C223.176 26.1047 222.688 25.8773 222.081 25.7088C221.475 25.5235 220.801 25.355 220.059 25.2034C219.335 25.0349 218.602 24.8328 217.861 24.5969C217.137 24.3611 216.471 24.0578 215.865 23.6872C215.258 23.3166 214.761 22.828 214.374 22.2215C214.003 21.615 213.818 20.8401 213.818 19.8967C213.818 18.8859 214.087 17.9677 214.626 17.1423C215.182 16.2999 216.008 15.6345 217.103 15.1459C218.215 14.6405 219.605 14.3878 221.272 14.3878C222.384 14.3878 223.479 14.5226 224.558 14.7921C225.636 15.0448 226.588 15.4323 227.413 15.9546L226.15 19.0628C225.324 18.5911 224.499 18.2457 223.673 18.0267C222.848 17.7909 222.039 17.6729 221.247 17.6729C220.455 17.6729 219.807 17.7656 219.301 17.9509C218.796 18.1362 218.434 18.3805 218.215 18.6837C217.996 18.9701 217.886 19.3071 217.886 19.6945C217.886 20.1494 218.072 20.52 218.442 20.8064C218.813 21.076 219.301 21.295 219.908 21.4634C220.514 21.6319 221.18 21.8004 221.904 21.9688C222.645 22.1373 223.378 22.331 224.103 22.55C224.844 22.769 225.518 23.0639 226.124 23.4345C226.731 23.8051 227.219 24.2937 227.59 24.9001C227.977 25.5066 228.171 26.2731 228.171 27.1997C228.171 28.1937 227.893 29.1034 227.337 29.9289C226.781 30.7544 225.947 31.4198 224.836 31.9252C223.74 32.4306 222.351 32.6833 220.666 32.6833ZM235.8 32.3801L243.684 14.6911H247.728L255.637 32.3801H251.341L244.872 16.7632H246.489L239.995 32.3801H235.8ZM239.742 28.5896L240.829 25.4814H249.926L251.038 28.5896H239.742ZM265.792 32.6833C264.411 32.6833 263.122 32.4559 261.926 32.001C260.746 31.5462 259.719 30.906 258.843 30.0805C257.984 29.255 257.31 28.2863 256.821 27.1744C256.349 26.0626 256.114 24.8496 256.114 23.5356C256.114 22.2215 256.349 21.0086 256.821 19.8967C257.31 18.7848 257.992 17.8161 258.868 16.9906C259.744 16.1651 260.772 15.525 261.951 15.0701C263.13 14.6153 264.411 14.3878 265.792 14.3878C267.19 14.3878 268.471 14.6153 269.633 15.0701C270.812 15.525 271.832 16.1651 272.691 16.9906C273.567 17.7993 274.249 18.7595 274.738 19.8714C275.226 20.9833 275.47 22.2047 275.47 23.5356C275.47 24.8496 275.226 26.071 274.738 27.1997C274.249 28.3116 273.567 29.2803 272.691 30.1058C271.832 30.9144 270.812 31.5462 269.633 32.001C268.471 32.4559 267.19 32.6833 265.792 32.6833ZM271.579 36.4485C270.888 36.4485 270.231 36.3727 269.608 36.2211C269.001 36.0695 268.395 35.8252 267.788 35.4883C267.199 35.1513 266.575 34.6965 265.918 34.1237C265.278 33.5509 264.579 32.8433 263.821 32.001L268.117 30.9144C268.572 31.5377 268.993 32.0347 269.38 32.4053C269.768 32.776 270.138 33.0371 270.492 33.1887C270.863 33.3403 271.25 33.4161 271.655 33.4161C272.733 33.4161 273.693 32.9781 274.535 32.1021L276.355 34.2753C275.159 35.7241 273.567 36.4485 271.579 36.4485ZM265.792 29.196C266.584 29.196 267.308 29.0613 267.965 28.7917C268.639 28.5222 269.229 28.1347 269.734 27.6293C270.24 27.1239 270.627 26.5258 270.897 25.8351C271.183 25.1276 271.326 24.3611 271.326 23.5356C271.326 22.6932 271.183 21.9267 270.897 21.236C270.627 20.5453 270.24 19.9472 269.734 19.4418C269.229 18.9364 268.639 18.549 267.965 18.2794C267.308 18.0099 266.584 17.8751 265.792 17.8751C265 17.8751 264.267 18.0099 263.594 18.2794C262.92 18.549 262.33 18.9364 261.825 19.4418C261.336 19.9472 260.949 20.5453 260.662 21.236C260.393 21.9267 260.258 22.6932 260.258 23.5356C260.258 24.3611 260.393 25.1276 260.662 25.8351C260.949 26.5258 261.336 27.1239 261.825 27.6293C262.33 28.1347 262.92 28.5222 263.594 28.7917C264.267 29.0613 265 29.196 265.792 29.196ZM286.406 32.6833C283.896 32.6833 281.933 31.9842 280.518 30.5859C279.103 29.1876 278.395 27.1913 278.395 24.5969V14.6911H282.489V24.4453C282.489 26.13 282.835 27.3429 283.525 28.0842C284.216 28.8254 285.185 29.196 286.431 29.196C287.678 29.196 288.647 28.8254 289.337 28.0842C290.028 27.3429 290.373 26.13 290.373 24.4453V14.6911H294.417V24.5969C294.417 27.1913 293.709 29.1876 292.294 30.5859C290.879 31.9842 288.916 32.6833 286.406 32.6833ZM298.462 32.3801V14.6911H302.556V32.3801H298.462ZM298.209 13.2507L301.621 9.61179H305.866L301.292 13.2507H298.209Z" fill="white"/>
<path d="M357.87 11.3301L369.28 22.7401L357.89 34.1201" stroke="white" stroke-width="2" stroke-miterlimit="10" stroke-linecap="round"/>
<defs>
<linearGradient id="paint0_linear_141_5" x1="0.679688" y1="22.7201" x2="391.5" y2="22.7201" gradientUnits="userSpaceOnUse">
<stop stop-color="white" stop-opacity="0"/>
<stop offset="0.14" stop-color="white" stop-opacity="0.17"/>
<stop offset="0.42" stop-color="white" stop-opacity="0.5"/>
<stop offset="1" stop-color="white" stop-opacity="0.07"/>
</linearGradient>
</defs>
</svg>
