<svg xmlns="http://www.w3.org/2000/svg" width="766.01" height="210.02" viewBox="0 0 766.01 210.02"><g transform="translate(-142 -40.99)"><path d="M381.73,147.14" fill="#fff" fill-rule="evenodd"/><path d="M609.55,147.12l37.25-4.69-4.83,15.3c6.48-4.86,11.15-8.68,17.63-11.84,7.79-3.8,38.75-8.31,37.05,9.87l-.55,1.36a151.757,151.757,0,0,1,17.22-11.23c7.79-4.35,38.74-9.23,37.05,9.87L730.84,204H711.69l17.99-43.74c2.51-15.69-19.7-11.91-37.47,6.45L677.13,204H657.52l17.32-43.74c2.56-14.32-19.32-11.31-37.28,7.42l-15,36.32h-20.2l19-45.94c1.12-6.46-.67-8.54-12.54-8.17-1.26-.4-.96-2.02.73-2.77" fill="#1b4c99" fill-rule="evenodd"/><path d="M833.13,145.76l37.25-4.69-4.83,15.3c6.48-4.86,11.28-10.03,17.76-13.2,4.16-2.03,15.38-3.87,24.7-2.39l-9,13.7c-4.97-5.61-23.49-2.38-37.88,11.85l-15,36.32H825.94l19-45.94c1.12-6.46-.67-8.54-12.54-8.17-1.28-.41-.96-2.03.73-2.78" fill="#1b4c99" fill-rule="evenodd"/><path d="M794.55,185.93l5.19-11.91c-17.76-.59-30.09,3.38-34.54,14.01-2.54,6.34,1.92,11,13.4,8.39a29.012,29.012,0,0,0,15.95-10.49m6.9-15.84c-24.51-1.9-51.66,5.18-57.68,19.04-7,18.22,25.74,20.48,46.27,7.17l-2.89,6.65h21.94l15.49-41.85c11.46-24.28-27.9-23.25-45.81-17.53a40.7,40.7,0,0,0-21.66,15.56H781.6c3.63-16.19,31-17.44,26.33-3.92Z" fill="#1b4c99" fill-rule="evenodd"/><path d="M244.71,145.12l32.41-.34-.64,44.75,41.31-44.75h7.84l7.62,44.4,32.2-44.4h10.59l-44.48,60.04H315.67l-4.88-41.5-39.19,41.5H256.98l.21-51.92q-3.285-5.43-12.5-4.71a1.841,1.841,0,0,1,.02-3.07" fill="#222020" fill-rule="evenodd"/><path d="M423.59,147.12l37.69-4.75-6.16,15.68a128.476,128.476,0,0,1,20.33-12.17c7.79-3.8,38.74-8.31,37.05,9.87L492.98,204H473.37l17.32-43.74c2.55-14.32-21.13-11.31-39.1,7.42l-15,36.32H416.4l19-45.94c1.12-6.46-.67-8.54-12.54-8.17-1.27-.4-.96-2.02.73-2.77" fill="#222020" fill-rule="evenodd"/><path d="M572.1,177.15l3.79-9.08c3.12-11.05.1-20.73-13.25-19.54-25.07,2.59-49.28,49.17-18.67,48.92,11.55.08,22.19-9.56,28.13-20.3m-7.57,18.11c-18.39,12.53-53.79,16.39-55.9-7.99-1.18-13.69,9.77-30.05,25.84-38.98a57,57,0,0,1,30.16-6.62c8.6.49,15.5,3.36,17.92,10.47l10.11-24.19c2.18-6.3-1.47-9.11-11.06-8.82-1.35-.25-.82-3.25,1.58-3.66l34.94-2.81-36.18,91.25H560.9Z" fill="#222020" fill-rule="evenodd"/><path d="M416.8,146.42l1.12-2.6-34.94,2.81c-2.4.4-2.93,3.41-1.58,3.66,9.59-.29,13.23,2.53,11.06,8.82l-6.05,16.3L373.9,204.17h18.54Z" fill="#222020" fill-rule="evenodd"/><path d="M584.26,245.85l6.28-6.5a13.386,13.386,0,0,0,9.07,4.02c1.22,0,2.13-.45,2.23-1.26.11-.89-.38-1.18-4.32-2.72-5.03-1.95-7.27-3.82-6.73-8.01.71-5.49,6.32-9.96,14.08-9.96,5.08,0,9.38,1.63,12.13,4.27l-6.28,6.5a12.023,12.023,0,0,0-7.8-3.17c-1.22,0-2.11.33-2.22,1.14-.11.85.48,1.02,4.23,2.48,4.61,1.79,7.43,3.82,6.88,8.17-.74,5.73-6.03,10.2-14.19,10.2A18.336,18.336,0,0,1,584.26,245.85Z" fill="#656363"/><path d="M641.62,238.13c1.13-8.82,9.34-16.7,18.89-16.7,8.37,0,13.42,5.61,12.49,12.88-1.13,8.82-9.34,16.7-18.89,16.7C645.74,251.02,640.69,245.41,641.62,238.13Zm21.72-2.96c.39-3.01-1.14-5.36-4.55-5.36-3.98,0-7.04,3.9-7.5,7.48-.39,3.01,1.14,5.37,4.55,5.37C659.82,242.64,662.88,238.74,663.34,235.17Z" fill="#656363"/><path d="M708.32,222h9.51l-8.06,20.32h12.96l-3.24,8.13H697.02Z" fill="#656363"/><path d="M770.53,221.8h9.43l.63,28.65H770.47v-3.82h-9.96l-2.97,3.82H747.18Zm.28,18.08.12-6.91-5.32,6.91Z" fill="#656363"/><path d="M820.22,222h11.1c5.24,0,8.43,1.14,10.09,3.05a7.328,7.328,0,0,1,1.47,5.93c-.57,4.43-3.38,8.25-9.21,10l2.73,9.47H826.16l-2.13-8.13h-2.36l-3.24,8.13h-9.51Zm7.56,13.53c3.17,0,5.02-1.46,5.25-3.25a1.844,1.844,0,0,0-.42-1.5,3.517,3.517,0,0,0-2.7-.81h-3.37l-2.22,5.57h3.46Z" fill="#656363"/><path d="M426.81,131.56l-33.86-9.36,8.7-22.42-25.41,10.15,3.65-31.72,2.42-16.08-.63.47.05-.47L343.64,90.48l-3.98-26.75-.38.48-.07-.48L322.48,84.78,303.62,40.99l-.29.66-.29-.66L284.18,84.78,267.45,63.73l-.07.48-.38-.49-3.98,26.75L224.93,62.12l.05.47-.63-.47,2.42,16.08,3.65,31.72L205.01,99.77l10.02,25.55-47.78-5.62,28.71,38.63-27.13,4.03,25.28,19.98L142,204.54h59.93c-.56-21.29,4.91-41.51,13.82-56.84a101.371,101.371,0,0,1,86.66-50.76h1.8a101.409,101.409,0,0,1,78.44,38.6Z" fill="#ed9e3e"/></g></svg>