<svg xmlns="http://www.w3.org/2000/svg" width="499.997" height="321" viewBox="0 0 499.997 321">
  <g id="logo_pr" transform="translate(-0.003 -89.5)">
    <path id="Path_15" data-name="Path 15" d="M.64,323.15l25-.26-.49,34.51,31.86-34.51h6.05l5.88,34.25,24.84-34.25h8.17L67.64,369.2H55.38l-3.76-32.01L21.39,369.2H10.12l.16-40.04c-1.69-2.79-4.9-4.01-9.64-3.63a1.429,1.429,0,0,1,0-2.38" fill="#1e439a" fill-rule="evenodd"/>
    <path id="Path_16" data-name="Path 16" d="M126.36,324.7l28.73-3.62-3.72,11.8a92.775,92.775,0,0,1,15-9.14c6.01-2.93,29.88-6.41,28.58,7.61l-15.06,37.22H164.77l13.36-33.74c1.97-11.05-16.3-8.73-30.16,5.72L136.4,368.56H120.82l14.66-35.43c.86-4.98-.52-6.58-9.67-6.3-.99-.31-.75-1.55.55-2.13" fill="#1e439a" fill-rule="evenodd"/>
    <path id="Path_17" data-name="Path 17" d="M240.91,347.86l2.93-7.01c2.41-8.52.08-15.99-10.22-15.07-19.34,1.99-38.01,37.93-14.4,37.74,8.9.06,17.11-7.37,21.69-15.66m-5.84,13.97c-14.19,9.66-41.49,12.64-43.11-6.16-.91-10.56,7.53-23.18,19.93-30.06a43.981,43.981,0,0,1,23.27-5.1c6.63.38,11.96,2.59,13.82,8.08l7.8-18.66c1.68-4.86-1.13-7.03-8.53-6.81-1.04-.19-.64-2.51,1.22-2.82l26.95-2.17-27.91,70.39H232.29Z" fill="#1e439a" fill-rule="evenodd"/>
    <path id="Path_18" data-name="Path 18" d="M269.8,324.7l28.73-3.62-3.73,11.8c5-3.75,8.6-6.69,13.6-9.14,6.01-2.93,29.88-6.41,28.58,7.61l-.43,1.05a115.7,115.7,0,0,1,13.28-8.66c6.01-3.36,29.88-7.12,28.58,7.61l-15.06,37.22H348.58l13.88-33.74c1.94-12.11-15.19-9.19-28.9,4.98l-11.64,28.76H306.8l13.36-33.74c1.97-11.05-14.9-8.73-28.76,5.72l-11.57,28.01H264.25l14.66-35.43c.86-4.98-.51-6.58-9.67-6.3-.98-.31-.74-1.55.56-2.13" fill="#1e439a" fill-rule="evenodd"/>
    <path id="Path_19" data-name="Path 19" d="M442.25,323.65l28.73-3.62-3.73,11.8c5-3.75,8.7-7.74,13.7-10.18,3.21-1.57,11.86-2.99,19.05-1.84l-6.94,10.57c-3.83-4.33-18.12-1.83-29.22,9.14l-11.57,28.01H436.7l14.65-35.43c.86-4.98-.51-6.58-9.67-6.3-.98-.33-.74-1.57.57-2.15" fill="#1e439a" fill-rule="evenodd"/>
    <path id="Path_20" data-name="Path 20" d="M412.5,354.63l4-9.18c-13.7-.46-23.21,2.61-26.65,10.81-1.96,4.89,1.48,8.49,10.34,6.47a22.443,22.443,0,0,0,12.31-8.1m5.32-12.22c-18.91-1.47-39.85,4-44.49,14.69-5.4,14.05,19.85,15.79,35.69,5.53l-2.23,5.13h16.92l11.95-32.28c8.84-18.72-21.52-17.93-35.33-13.52a31.343,31.343,0,0,0-16.7,12h18.89c2.8-12.49,23.91-13.45,20.31-3.02Z" fill="#1e439a" fill-rule="evenodd"/>
    <g id="Group_6" data-name="Group 6">
      <path id="Path_21" data-name="Path 21" d="M259.93,379.99h5.61l-4.32,11.23h10.21l4.31-11.23h5.63l-11.46,29.76h-5.59l5.19-13.51H259.29l-5.21,13.51h-5.56Z" fill="#1e439a"/>
      <path id="Path_22" data-name="Path 22" d="M326.83,379.24q6.135,0,9.14,3.95t1.51,10.01a22.31,22.31,0,0,1-4.52,8.77,23.693,23.693,0,0,1-7.83,6.32,21.221,21.221,0,0,1-9.54,2.21q-6.36,0-9.22-3.76t-1.34-9.91a22.962,22.962,0,0,1,7.5-12A21.277,21.277,0,0,1,326.83,379.24Zm-1.5,5.28a13.538,13.538,0,0,0-6.22,1.55,16.578,16.578,0,0,0-5.36,4.45,15.479,15.479,0,0,0-3.1,6,7.728,7.728,0,0,0,.71,6.21q1.62,2.55,5.82,2.55a14.286,14.286,0,0,0,9.13-3.44,15.262,15.262,0,0,0,5.47-8.36q1.005-4.065-.79-6.51C329.81,385.34,327.91,384.52,325.33,384.52Z" fill="#1e439a"/>
      <path id="Path_23" data-name="Path 23" d="M374.76,379.99h5.07l-.08,20.74,15.41-20.74h4.82l-6.95,29.76h-5.22l4.16-17.8-13.23,17.8h-4.27l.09-18.69-9.37,18.69h-5.34Z" fill="#1e439a"/>
      <path id="Path_24" data-name="Path 24" d="M434.45,379.99h16l-1.99,5.28H438.08l-2.37,6.15h10.44l-1.98,5.24H433.68l-3.05,7.89h10.56l-1.96,5.2h-16.2Z" fill="#1e439a"/>
    </g>
    <path id="Path_25" data-name="Path 25" d="M142.94,188.24l3.38,92.48,10.74-10.66Z" fill="#1e439a" fill-rule="evenodd"/>
    <path id="Path_26" data-name="Path 26" d="M52.2,305.32l77.37-50.58,14.83,2.76Z" fill="#1e439a" fill-rule="evenodd"/>
    <path id="Path_27" data-name="Path 27" d="M219.92,310.5l-94.24-29.41-4.21-10.88Z" fill="#1e439a" fill-rule="evenodd"/>
    <path id="Path_28" data-name="Path 28" d="M137.57,264.82l5.13,2.25.43,3.8-4.5,2.59-4.92-2.08-.42-3.97Z" fill="#1e439a" fill-rule="evenodd"/>
    <path id="Path_29" data-name="Path 29" d="M126.36,285.36l10.6,3.44-31.99,79.91H87.17Z" fill="#1e439a" fill-rule="evenodd"/>
    <g id="Group_7" data-name="Group 7">
      <path id="Path_30" data-name="Path 30" d="M108.77,281.22,50.9,311.24h54.85A142.639,142.639,0,0,1,108.77,281.22Z" fill="#f19a33"/>
      <path id="Path_31" data-name="Path 31" d="M139.39,218.64l-1.29-35.31-28.4-11.28,14.24,35.86-67.07-7.89,40.31,54.23L59.1,259.91l24.47,19.34,32.14-21.01A142.417,142.417,0,0,1,139.39,218.64Z" fill="#f19a33"/>
      <path id="Path_32" data-name="Path 32" d="M407.13,283.77l30.18-23.86-38.08-5.66,40.31-54.23-67.07,7.89,14.07-35.86-35.67,14.24,7.72-67.1-54.2,40.33-5.49-38.1-24.01,30.2L248.13,89.5l-26.76,62.12-23.84-30.2-5.67,38.1-54.2-40.33,4.1,34.86,9.07,52.56a143.909,143.909,0,0,1,26.11-19.46,142.579,142.579,0,0,1,213.69,124.1h76.78l1.64-.71Z" fill="#f19a33"/>
    </g>
  </g>
</svg>
