<?xml version="1.0" encoding="utf-8"?>
<!-- Generator: Adobe Illustrator 28.0.0, SVG Export Plug-In . SVG Version: 6.00 Build 0)  -->
<svg version="1.1" id="Capa_1" xmlns="http://www.w3.org/2000/svg" xmlns:xlink="http://www.w3.org/1999/xlink" x="0px" y="0px"
	 viewBox="0 0 162.94 103.15" style="enable-background:new 0 0 162.94 103.15;" xml:space="preserve">
<style type="text/css">
	.st0{clip-path:url(#SVGID_00000124124543095975930120000003846479364844851391_);}
	
		.st1{clip-path:url(#SVGID_00000006674960610674344330000016647264087743529915_);fill-rule:evenodd;clip-rule:evenodd;fill:#0038A8;}
	
		.st2{clip-path:url(#SVGID_00000006674960610674344330000016647264087743529915_);fill-rule:evenodd;clip-rule:evenodd;fill:#231F20;}
	.st3{clip-path:url(#SVGID_00000006674960610674344330000016647264087743529915_);fill:#FF9E18;}
	.st4{clip-path:url(#SVGID_00000006674960610674344330000016647264087743529915_);fill:#6F6F6E;}
	.st5{clip-path:url(#SVGID_00000006674960610674344330000016647264087743529915_);fill:#0038A8;}
	.st6{clip-path:url(#SVGID_00000124124543095975930120000003846479364844851391_);fill:#FF9E18;}
	.st7{fill:#231F20;}
	.st8{fill:#1D1D1B;}
	.st9{fill-rule:evenodd;clip-rule:evenodd;fill:#231F20;}
	.st10{fill-rule:evenodd;clip-rule:evenodd;fill:#0038A8;}
	.st11{fill:#FF9E18;}
	.st12{fill:#0038A8;}
	.st13{fill-rule:evenodd;clip-rule:evenodd;fill:#FFFFFF;}
	.st14{fill:#FFFFFF;}
	.st15{fill-rule:evenodd;clip-rule:evenodd;fill:#1D1D1B;}
	.st16{fill:#6F6F6E;}
	.st17{fill:none;}
	
		.st18{clip-path:url(#SVGID_00000034065875272336106120000010391735075820952451_);fill:none;stroke:#9B9B9B;stroke-width:4;stroke-miterlimit:10;}
	.st19{clip-path:url(#SVGID_00000034065875272336106120000010391735075820952451_);fill:#0038A8;}
	
		.st20{clip-path:url(#SVGID_00000122717785902287359040000012912738770195168175_);fill-rule:evenodd;clip-rule:evenodd;fill:#FFFFFF;}
	.st21{clip-path:url(#SVGID_00000122717785902287359040000012912738770195168175_);fill:#FFFFFF;}
	.st22{clip-path:url(#SVGID_00000122717785902287359040000012912738770195168175_);fill:#FF9E18;}
	.st23{clip-path:url(#SVGID_00000122717785902287359040000012912738770195168175_);fill:#6F6F6E;}
	.st24{clip-path:url(#SVGID_00000122717785902287359040000012912738770195168175_);fill:none;stroke:#000000;stroke-miterlimit:10;}
	.st25{clip-path:url(#SVGID_00000122717785902287359040000012912738770195168175_);fill:#1D1D1B;}
	.st26{clip-path:url(#SVGID_00000122717785902287359040000012912738770195168175_);fill:#0038A8;}
	.st27{clip-path:url(#SVGID_00000122717785902287359040000012912738770195168175_);fill:#263778;}
	.st28{clip-path:url(#SVGID_00000159454069571179627640000009009691339526384285_);fill:#333333;}
	
		.st29{clip-path:url(#SVGID_00000099661873033268190160000010146168715760486570_);fill:url(#SVGID_00000016782476097737933270000016211638019744238235_);}
	
		.st30{clip-path:url(#SVGID_00000154422937947101943030000010107119096986272169_);fill:url(#SVGID_00000089545970022995228250000004779748348439614620_);}
	.st31{clip-path:url(#SVGID_00000080171737503909880810000004160011661168567720_);fill:#9B9B9B;}
	.st32{clip-path:url(#SVGID_00000080171737503909880810000004160011661168567720_);fill:#FF9E18;}
	.st33{clip-path:url(#SVGID_00000080171737503909880810000004160011661168567720_);fill:#0038A8;}
	.st34{clip-path:url(#SVGID_00000080171737503909880810000004160011661168567720_);}
	.st35{clip-path:url(#SVGID_00000174592414686374618780000011261961520439239040_);fill:#F49B1D;}
	.st36{clip-path:url(#SVGID_00000174592414686374618780000011261961520439239040_);fill:#FF9E18;}
	.st37{clip-path:url(#SVGID_00000174592414686374618780000011261961520439239040_);fill:#194D9B;}
	.st38{clip-path:url(#SVGID_00000174592414686374618780000011261961520439239040_);fill:#0038A8;}
	
		.st39{clip-path:url(#SVGID_00000174592414686374618780000011261961520439239040_);fill-rule:evenodd;clip-rule:evenodd;fill:#FFFFFF;}
	.st40{clip-path:url(#SVGID_00000174592414686374618780000011261961520439239040_);fill:#FFFFFF;}
	.st41{clip-path:url(#SVGID_00000174592414686374618780000011261961520439239040_);fill:#F9C884;}
	.st42{clip-path:url(#SVGID_00000174592414686374618780000011261961520439239040_);fill:#F7B85F;}
	.st43{clip-path:url(#SVGID_00000174592414686374618780000011261961520439239040_);fill:#333333;}
	
		.st44{clip-path:url(#SVGID_00000174592414686374618780000011261961520439239040_);fill-rule:evenodd;clip-rule:evenodd;fill:#F49B1D;}
	
		.st45{clip-path:url(#SVGID_00000174592414686374618780000011261961520439239040_);fill-rule:evenodd;clip-rule:evenodd;fill:#0038A8;}
	.st46{clip-path:url(#SVGID_00000174592414686374618780000011261961520439239040_);fill:none;}
	.st47{clip-path:url(#SVGID_00000047740493721502968350000005550560842129225649_);fill:#0038A8;}
	.st48{clip-path:url(#SVGID_00000047740493721502968350000005550560842129225649_);fill:#FF9E18;}
	.st49{clip-path:url(#SVGID_00000047740493721502968350000005550560842129225649_);fill:#194D9B;}
	.st50{clip-path:url(#SVGID_00000047740493721502968350000005550560842129225649_);fill:#F49B1D;}
	.st51{clip-path:url(#SVGID_00000047740493721502968350000005550560842129225649_);}
	
		.st52{clip-path:url(#SVGID_00000004530022425125398670000017054825386494856865_);fill-rule:evenodd;clip-rule:evenodd;fill:#FFFFFF;}
	.st53{clip-path:url(#SVGID_00000004530022425125398670000017054825386494856865_);fill:#FFFFFF;}
	.st54{clip-path:url(#SVGID_00000004530022425125398670000017054825386494856865_);fill:#FF9E18;}
	.st55{clip-path:url(#SVGID_00000178181854556755107510000007934361089932355986_);fill:#FF9E18;}
	.st56{clip-path:url(#SVGID_00000178181854556755107510000007934361089932355986_);fill:#FFFFFF;}
	.st57{clip-path:url(#SVGID_00000043439464397633986280000013612555447493469826_);fill:#FF9E18;}
	.st58{clip-path:url(#SVGID_00000043439464397633986280000013612555447493469826_);fill:#194D9B;}
	.st59{clip-path:url(#SVGID_00000029011152534606837030000013410507958773368973_);}
	.st60{clip-path:url(#SVGID_00000029011152534606837030000013410507958773368973_);fill:#00A6E0;}
	.st61{clip-path:url(#SVGID_00000029011152534606837030000013410507958773368973_);fill:#0038A8;}
	
		.st62{clip-path:url(#SVGID_00000100359761130900045780000003421673787033948554_);fill-rule:evenodd;clip-rule:evenodd;fill:#FFFFFF;}
	.st63{clip-path:url(#SVGID_00000100359761130900045780000003421673787033948554_);fill:#FFFFFF;}
	.st64{clip-path:url(#SVGID_00000100359761130900045780000003421673787033948554_);fill:#FF9E18;}
	.st65{clip-path:url(#SVGID_00000100359761130900045780000003421673787033948554_);fill:#00A6E0;}
	
		.st66{clip-path:url(#SVGID_00000100359761130900045780000003421673787033948554_);fill-rule:evenodd;clip-rule:evenodd;fill:#1D1D1B;}
	
		.st67{clip-path:url(#SVGID_00000100359761130900045780000003421673787033948554_);fill-rule:evenodd;clip-rule:evenodd;fill:#0038A8;}
	.st68{clip-path:url(#SVGID_00000100359761130900045780000003421673787033948554_);fill:#6F6F6E;}
	.st69{clip-path:url(#SVGID_00000100359761130900045780000003421673787033948554_);fill:#333333;}
	.st70{clip-path:url(#SVGID_00000100359761130900045780000003421673787033948554_);}
	.st71{clip-path:url(#SVGID_00000100359761130900045780000003421673787033948554_);fill:#00A8E1;}
	.st72{fill:none;stroke:#000000;stroke-miterlimit:10;}
	.st73{fill-rule:evenodd;clip-rule:evenodd;}
	.st74{fill:#787878;}
	.st75{fill:#F6921E;}
	.st76{clip-path:url(#SVGID_00000126290882543652134470000008397310573777437824_);fill:#66666A;}
	.st77{clip-path:url(#SVGID_00000126290882543652134470000008397310573777437824_);fill:#4374B9;}
	.st78{clip-path:url(#SVGID_00000126290882543652134470000008397310573777437824_);fill:#0038A8;}
	.st79{clip-path:url(#SVGID_00000126290882543652134470000008397310573777437824_);fill:#FFFFFF;}
	.st80{clip-path:url(#SVGID_00000126290882543652134470000008397310573777437824_);fill:#FF9E18;}
	.st81{clip-path:url(#SVGID_00000126290882543652134470000008397310573777437824_);}
	
		.st82{clip-path:url(#SVGID_00000142152574758324093370000008910986790276843955_);fill-rule:evenodd;clip-rule:evenodd;fill:#FFFFFF;}
	.st83{clip-path:url(#SVGID_00000142152574758324093370000008910986790276843955_);fill:#FFFFFF;}
	.st84{clip-path:url(#SVGID_00000142152574758324093370000008910986790276843955_);fill:#FF9E18;}
	.st85{clip-path:url(#SVGID_00000142152574758324093370000008910986790276843955_);fill:#4374B9;}
	.st86{clip-path:url(#SVGID_00000142152574758324093370000008910986790276843955_);fill:#66666A;}
	.st87{fill:#A0BDDF;}
	.st88{fill-rule:evenodd;clip-rule:evenodd;fill:#A0BEE0;}
</style>
<path class="st14" d="M25.12,88.79l1.29-1.34c0.6,0.56,1.25,0.83,1.87,0.83c0.25,0,0.44-0.09,0.46-0.26
	c0.02-0.18-0.08-0.24-0.89-0.56c-1.04-0.4-1.5-0.79-1.39-1.65c0.06-0.49,0.32-0.94,0.72-1.3c0.52-0.46,1.28-0.75,2.18-0.75
	c1.05,0,1.93,0.34,2.5,0.88l-1.29,1.34c-0.4-0.36-0.99-0.65-1.61-0.65c-0.25,0-0.43,0.07-0.46,0.23c-0.02,0.18,0.1,0.21,0.87,0.51
	c0.95,0.37,1.53,0.79,1.42,1.68c-0.07,0.53-0.32,1-0.74,1.37c-0.5,0.44-1.26,0.73-2.18,0.73C26.71,89.85,25.75,89.43,25.12,88.79"/>
<path class="st14" d="M40.54,86.41c-0.12,0.93-0.62,1.8-1.33,2.43c-0.69,0.61-1.59,1-2.55,1c-1.72,0-2.76-1.15-2.57-2.65
	c0.12-0.93,0.62-1.8,1.33-2.43c0.69-0.61,1.59-1,2.55-1C39.69,83.76,40.73,84.91,40.54,86.41 M37.93,87.76
	c0.34-0.3,0.57-0.74,0.63-1.17c0.08-0.62-0.23-1.1-0.94-1.1c-0.35,0-0.66,0.14-0.92,0.37c-0.34,0.3-0.57,0.74-0.63,1.17
	c-0.08,0.62,0.23,1.1,0.94,1.1C37.36,88.13,37.67,87.98,37.93,87.76"/>
<polygon class="st14" points="44.97,83.88 46.92,83.88 45.27,88.06 47.93,88.06 47.27,89.73 42.64,89.73 "/>
<path class="st14" d="M54.93,83.84h1.94l0.13,5.9h-2.08v-0.79h-2.05l-0.61,0.79h-2.13L54.93,83.84z M54.98,87.56l0.02-1.42
	l-1.1,1.42H54.98z"/>
<path class="st14" d="M63.09,88.06h-0.39h-0.1l-0.67,1.67h-1.96l2.32-5.85h2.28c1.08,0,1.74,0.23,2.08,0.63
	c0.29,0.33,0.36,0.76,0.3,1.22c-0.07,0.55-0.3,1.05-0.76,1.45c-0.28,0.25-0.65,0.46-1.14,0.61l0.56,1.95h-2.11L63.09,88.06z
	 M63.86,86.66c0.38,0,0.68-0.11,0.86-0.27c0.12-0.11,0.2-0.25,0.22-0.4c0.01-0.12-0.01-0.23-0.09-0.31
	c-0.1-0.11-0.28-0.17-0.56-0.17h-0.69l-0.46,1.15H63.86z"/>
<polygon class="st14" points="71.13,87.62 69.7,87.62 70.35,85.96 71.78,85.96 72.34,84.56 74.06,84.56 73.51,85.96 74.94,85.96 
	74.28,87.62 72.85,87.62 72.29,89.03 70.57,89.03 "/>
<path class="st14" d="M80.09,88.06h-0.39h-0.1l-0.67,1.67h-1.96l2.33-5.85h2.28c1.08,0,1.74,0.23,2.08,0.63
	c0.28,0.33,0.36,0.76,0.3,1.22c-0.07,0.55-0.3,1.05-0.76,1.45c-0.28,0.25-0.65,0.46-1.14,0.61l0.56,1.95h-2.11L80.09,88.06z
	 M80.87,86.66c0.38,0,0.68-0.11,0.86-0.27c0.12-0.11,0.2-0.25,0.22-0.4c0.01-0.12-0.01-0.23-0.09-0.31
	c-0.1-0.11-0.28-0.17-0.56-0.17h-0.69l-0.46,1.15H80.87z"/>
<path class="st14" d="M93.27,86.41c-0.12,0.93-0.61,1.8-1.33,2.43c-0.69,0.61-1.59,1-2.55,1c-1.72,0-2.76-1.15-2.57-2.65
	c0.12-0.93,0.62-1.8,1.33-2.43c0.69-0.61,1.59-1,2.55-1C92.42,83.76,93.46,84.91,93.27,86.41 M90.66,87.76
	c0.34-0.3,0.57-0.74,0.63-1.17c0.08-0.62-0.23-1.1-0.94-1.1c-0.35,0-0.66,0.14-0.92,0.37c-0.34,0.3-0.57,0.74-0.63,1.17
	c-0.08,0.62,0.23,1.1,0.94,1.1C90.09,88.13,90.4,87.98,90.66,87.76"/>
<path class="st14" d="M102.76,86.41c-0.12,0.93-0.61,1.8-1.33,2.43c-0.69,0.61-1.59,1-2.55,1c-1.72,0-2.76-1.15-2.57-2.65
	c0.12-0.93,0.62-1.8,1.33-2.43c0.69-0.61,1.59-1,2.55-1C101.92,83.76,102.96,84.91,102.76,86.41 M100.15,87.76
	c0.34-0.3,0.57-0.74,0.63-1.17c0.08-0.62-0.23-1.1-0.94-1.1c-0.35,0-0.66,0.14-0.92,0.37c-0.34,0.3-0.57,0.74-0.63,1.17
	c-0.08,0.62,0.23,1.1,0.94,1.1C99.58,88.13,99.89,87.98,100.15,87.76"/>
<polygon class="st14" points="107.19,83.88 112.09,83.88 111.42,85.55 108.48,85.55 108.18,86.29 110.92,86.29 110.31,87.82 
	107.58,87.82 106.82,89.73 104.86,89.73 "/>
<polygon class="st14" points="115.41,83.88 117.37,83.88 115.04,89.73 113.09,89.73 "/>
<polygon class="st14" points="120.86,83.88 122.7,83.88 123.67,86.67 124.78,83.88 126.72,83.88 124.39,89.73 122.66,89.73 
	121.64,86.82 120.48,89.73 118.54,89.73 "/>
<path class="st14" d="M128.77,87.25c0.12-0.93,0.58-1.77,1.29-2.4c0.76-0.67,1.8-1.1,3.03-1.1c1.1,0,1.99,0.48,2.33,0.97l-1.38,1.25
	c-0.29-0.31-0.77-0.53-1.29-0.53c-0.55,0-1.02,0.19-1.36,0.49c-0.35,0.31-0.57,0.74-0.63,1.21c-0.09,0.73,0.39,1.09,1,1.09
	c0.21,0,0.38-0.03,0.52-0.09l0.27-0.63h-0.96l0.48-1.25h2.82l-1.22,2.99c-0.62,0.34-1.48,0.6-2.33,0.6
	C129.87,89.86,128.53,89.09,128.77,87.25"/>
<path class="st13" d="M4.76,67.55l7.23-0.08l-0.14,9.98l9.21-9.98h1.75l1.7,9.9l7.18-9.9h2.36l-9.92,13.39h-3.54l-1.09-9.25
	l-8.74,9.25H7.49l0.05-11.58c-0.49-0.81-1.42-1.16-2.79-1.05C4.51,68,4.51,67.77,4.76,67.55"/>
<path class="st13" d="M41.1,67.99l8.3-1.05l-1.08,3.41c1.44-1.08,2.89-1.94,4.34-2.64c1.74-0.85,8.64-1.85,8.26,2.2l-4.35,10.76
	H52.2l3.86-9.75c0.57-3.19-4.71-2.52-8.72,1.65L44,80.68h-4.5l4.24-10.24c0.25-1.44-0.15-1.9-2.8-1.82
	C40.65,68.52,40.72,68.16,41.1,67.99"/>
<path class="st13" d="M74.21,74.69l0.85-2.02c0.7-2.47,0.02-4.62-2.96-4.36c-5.59,0.58-10.99,10.96-4.16,10.91
	C70.52,79.23,72.89,77.08,74.21,74.69 M72.53,78.73c-4.1,2.79-11.99,3.66-12.46-1.78c-0.26-3.05,2.18-6.7,5.76-8.69
	c2.16-1.2,4.66-1.59,6.73-1.47c1.92,0.11,3.46,0.75,3.99,2.33l2.25-5.39c0.49-1.4-0.33-2.03-2.47-1.97
	c-0.3-0.05-0.18-0.73,0.35-0.82l7.79-0.63l-8.07,20.35h-4.69L72.53,78.73z"/>
<path class="st13" d="M82.57,67.99l8.31-1.05l-1.08,3.41c1.45-1.08,2.49-1.94,3.93-2.64c1.74-0.85,8.64-1.85,8.26,2.2l-0.12,0.3
	c1.31-0.98,2.56-1.79,3.84-2.5c1.74-0.97,8.64-2.06,8.26,2.2l-4.35,10.76h-4.27l4.01-9.75c0.56-3.5-4.39-2.66-8.35,1.44l-3.36,8.31
	h-4.37l3.86-9.75c0.57-3.19-4.31-2.52-8.31,1.65l-3.34,8.1h-4.5l4.24-10.24c0.25-1.44-0.15-1.9-2.8-1.82
	C82.12,68.52,82.19,68.16,82.57,67.99"/>
<path class="st13" d="M132.42,67.69l8.3-1.05l-1.08,3.41c1.45-1.08,2.52-2.24,3.96-2.94c0.93-0.45,3.43-0.86,5.51-0.53l-2.01,3.05
	c-1.11-1.25-5.24-0.53-8.45,2.64l-3.34,8.1h-4.5l4.24-10.24c0.25-1.44-0.15-1.9-2.8-1.82C131.97,68.22,132.04,67.86,132.42,67.69"/>
<path class="st13" d="M123.82,76.64l1.16-2.65c-3.96-0.13-6.71,0.76-7.7,3.12c-0.57,1.41,0.43,2.45,2.99,1.87
	C121.81,78.55,122.97,77.77,123.82,76.64 M125.36,73.11c-5.47-0.42-11.52,1.16-12.86,4.25c-1.56,4.06,5.74,4.57,10.32,1.6
	l-0.64,1.48h4.89l3.45-9.33c2.56-5.41-6.22-5.18-10.21-3.91c-1.98,0.63-3.62,1.75-4.83,3.47h5.46c0.81-3.61,6.91-3.89,5.87-0.87
	L125.36,73.11z"/>
<polygon class="st13" points="45.89,28.55 46.87,55.28 49.97,52.2 "/>
<polygon class="st13" points="19.66,62.39 42.03,47.77 46.31,48.57 "/>
<polygon class="st13" points="68.15,63.89 40.9,55.38 39.69,52.24 "/>
<polygon class="st13" points="44.34,50.68 45.82,51.33 45.95,52.43 44.65,53.18 43.22,52.58 43.1,51.43 "/>
<polygon class="st13" points="41.1,56.62 44.16,57.62 34.92,80.71 29.77,80.71 "/>
<path class="st14" d="M36.01,55.42L19.28,64.1h15.86C35.13,61.24,35.4,58.33,36.01,55.42"/>
<path class="st14" d="M44.87,37.33l-0.37-10.21l-8.21-3.26l4.12,10.37l-19.39-2.28l11.65,15.68l-11.01,1.64l7.07,5.59l9.29-6.07
	C39.7,44.53,42.03,40.69,44.87,37.33"/>
<path class="st14" d="M122.27,56.16l8.73-6.9l-11.01-1.64l11.65-15.68l-19.39,2.28l4.07-10.37L106,27.98l2.23-19.4L92.56,20.24
	L90.98,9.23l-6.94,8.73L76.3,0l-7.73,17.96l-6.89-8.73l-1.64,11.01L44.37,8.58l1.18,10.08l2.62,15.2c2.3-2.16,4.83-4.05,7.55-5.63
	c9.12-5.26,20.28-7.04,31.24-4.12c11.01,2.97,19.74,10.07,24.99,19.2c3.61,6.22,5.59,13.39,5.54,20.79h22.2l0.47-0.2L122.27,56.16z"
	/>
</svg>
