<?xml version="1.0" encoding="UTF-8" standalone="no"?>
<!-- Created with Inkscape (http://www.inkscape.org/) -->

<svg
   xmlns:dc="http://purl.org/dc/elements/1.1/"
   xmlns:cc="http://creativecommons.org/ns#"
   xmlns:rdf="http://www.w3.org/1999/02/22-rdf-syntax-ns#"
   xmlns:svg="http://www.w3.org/2000/svg"
   xmlns="http://www.w3.org/2000/svg"
   xmlns:sodipodi="http://sodipodi.sourceforge.net/DTD/sodipodi-0.dtd"
   xmlns:inkscape="http://www.inkscape.org/namespaces/inkscape"
   width="500"
   height="137"
   viewBox="0 0 500.00001 137"
   id="svg2"
   version="1.1"
   inkscape:version="0.91 r13725"
   sodipodi:docname="logo_fl.svg">
  <defs
     id="defs4" />
  <sodipodi:namedview
     id="base"
     pagecolor="#ffffff"
     bordercolor="#666666"
     borderopacity="1.0"
     inkscape:pageopacity="0.0"
     inkscape:pageshadow="2"
     inkscape:zoom="0.98994949"
     inkscape:cx="411.80741"
     inkscape:cy="299.8505"
     inkscape:document-units="px"
     inkscape:current-layer="layer1"
     showgrid="false"
     units="px"
     inkscape:window-width="1440"
     inkscape:window-height="2537"
     inkscape:window-x="1072"
     inkscape:window-y="-8"
     inkscape:window-maximized="1" />
  <metadata
     id="metadata7">
    <rdf:RDF>
      <cc:Work
         rdf:about="">
        <dc:format>image/svg+xml</dc:format>
        <dc:type
           rdf:resource="http://purl.org/dc/dcmitype/StillImage" />
        <dc:title></dc:title>
      </cc:Work>
    </rdf:RDF>
  </metadata>
  <g
     inkscape:label="Layer 1"
     inkscape:groupmode="layer"
     id="layer1"
     transform="translate(0,-915.36216)">
    <g
       id="g4138"
       transform="matrix(0.65273299,0,0,0.65231879,-92.688085,888.62366)">
      <path
         id="path4140"
         d="M 381.73,147.14"
         inkscape:connector-curvature="0"
         style="fill:#ffffff;fill-rule:evenodd" />
      <path
         id="path4142"
         d="m 609.55,147.12 37.25,-4.69 -4.83,15.3 c 6.48,-4.86 11.15,-8.68 17.63,-11.84 7.79,-3.8 38.75,-8.31 37.05,9.87 l -0.55,1.36 a 151.757,151.757 0 0 1 17.22,-11.23 c 7.79,-4.35 38.74,-9.23 37.05,9.87 l -19.53,48.24 -19.15,0 17.99,-43.74 c 2.51,-15.69 -19.7,-11.91 -37.47,6.45 l -15.08,37.29 -19.61,0 17.32,-43.74 c 2.56,-14.32 -19.32,-11.31 -37.28,7.42 l -15,36.32 -20.2,0 19,-45.94 c 1.12,-6.46 -0.67,-8.54 -12.54,-8.17 -1.26,-0.4 -0.96,-2.02 0.73,-2.77"
         inkscape:connector-curvature="0"
         style="fill:#1b4c99;fill-rule:evenodd" />
      <path
         id="path4144"
         d="m 833.13,145.76 37.25,-4.69 -4.83,15.3 c 6.48,-4.86 11.28,-10.03 17.76,-13.2 4.16,-2.03 15.38,-3.87 24.7,-2.39 l -9,13.7 c -4.97,-5.61 -23.49,-2.38 -37.88,11.85 l -15,36.32 -20.19,0 19,-45.94 c 1.12,-6.46 -0.67,-8.54 -12.54,-8.17 -1.28,-0.41 -0.96,-2.03 0.73,-2.78"
         inkscape:connector-curvature="0"
         style="fill:#1b4c99;fill-rule:evenodd" />
      <path
         id="path4146"
         d="m 794.55,185.93 5.19,-11.91 c -17.76,-0.59 -30.09,3.38 -34.54,14.01 -2.54,6.34 1.92,11 13.4,8.39 a 29.012,29.012 0 0 0 15.95,-10.49 m 6.9,-15.84 c -24.51,-1.9 -51.66,5.18 -57.68,19.04 -7,18.22 25.74,20.48 46.27,7.17 l -2.89,6.65 21.94,0 15.49,-41.85 c 11.46,-24.28 -27.9,-23.25 -45.81,-17.53"
         inkscape:connector-curvature="0"
         style="fill:#1b4c99;fill-rule:evenodd" />
      <path
         id="path4148"
         d="m 244.71,145.12 32.41,-0.34 -0.64,44.75 41.31,-44.75 7.84,0 7.62,44.4 32.2,-44.4 10.59,0 -44.48,60.04 -15.89,0 -4.88,-41.5 -39.19,41.5 -14.62,0 0.21,-51.92 q -3.285,-5.43 -12.5,-4.71 a 1.841,1.841 0 0 1 0.02,-3.07"
         inkscape:connector-curvature="0"
         style="fill:#222020;fill-rule:evenodd" />
      <path
         id="path4150"
         d="m 423.59,147.12 37.69,-4.75 -6.16,15.68 a 128.476,128.476 0 0 1 20.33,-12.17 c 7.79,-3.8 38.74,-8.31 37.05,9.87 l -19.52,48.25 -19.61,0 17.32,-43.74 c 2.55,-14.32 -21.13,-11.31 -39.1,7.42 l -15,36.32 -20.19,0 19,-45.94 c 1.12,-6.46 -0.67,-8.54 -12.54,-8.17 -1.27,-0.4 -0.96,-2.02 0.73,-2.77"
         inkscape:connector-curvature="0"
         style="fill:#222020;fill-rule:evenodd" />
      <path
         id="path4152"
         d="m 572.1,177.15 3.79,-9.08 c 3.12,-11.05 0.1,-20.73 -13.25,-19.54 -25.07,2.59 -49.28,49.17 -18.67,48.92 11.55,0.08 22.19,-9.56 28.13,-20.3 m -7.57,18.11 c -18.39,12.53 -53.79,16.39 -55.9,-7.99 -1.18,-13.69 9.77,-30.05 25.84,-38.98 a 57,57 0 0 1 30.16,-6.62 c 8.6,0.49 15.5,3.36 17.92,10.47 l 10.11,-24.19 c 2.18,-6.3 -1.47,-9.11 -11.06,-8.82 -1.35,-0.25 -0.82,-3.25 1.58,-3.66 l 34.94,-2.81 -36.18,91.25 -21.04,0 z"
         inkscape:connector-curvature="0"
         style="fill:#222020;fill-rule:evenodd" />
      <path
         id="path4154"
         d="m 416.8,146.42 1.12,-2.6 -34.94,2.81 c -2.4,0.4 -2.93,3.41 -1.58,3.66 9.59,-0.29 13.23,2.53 11.06,8.82 l -6.05,16.3 -12.51,28.76 18.54,0 z"
         inkscape:connector-curvature="0"
         style="fill:#222020;fill-rule:evenodd" />
      <path
         id="path4156"
         d="m 584.26,245.85 6.28,-6.5 a 13.386,13.386 0 0 0 9.07,4.02 c 1.22,0 2.13,-0.45 2.23,-1.26 0.11,-0.89 -0.38,-1.18 -4.32,-2.72 -5.03,-1.95 -7.27,-3.82 -6.73,-8.01 0.71,-5.49 6.32,-9.96 14.08,-9.96 5.08,0 9.38,1.63 12.13,4.27 l -6.28,6.5"
         inkscape:connector-curvature="0"
         style="fill:#656363" />
      <path
         id="path4158"
         d="m 641.62,238.13 c 1.13,-8.82 9.34,-16.7 18.89,-16.7 8.37,0 13.42,5.61 12.49,12.88 -1.13,8.82 -9.34,16.7 -18.89,16.7 -8.37,0.01 -13.42,-5.6 -12.49,-12.88 z m 21.72,-2.96 c 0.39,-3.01 -1.14,-5.36 -4.55,-5.36 -3.98,0 -7.04,3.9 -7.5,7.48 -0.39,3.01 1.14,5.37 4.55,5.37 3.98,-0.02 7.04,-3.92 7.5,-7.49 z"
         inkscape:connector-curvature="0"
         style="fill:#656363" />
      <path
         id="path4160"
         d="m 708.32,222 9.51,0 -8.06,20.32 12.96,0 -3.24,8.13 -22.47,0 z"
         inkscape:connector-curvature="0"
         style="fill:#656363" />
      <path
         id="path4162"
         d="m 770.53,221.8 9.43,0 0.63,28.65 -10.12,0 0,-3.82 -9.96,0 -2.97,3.82 -10.36,0 z m 0.28,18.08 0.12,-6.91 -5.32,6.91 z"
         inkscape:connector-curvature="0"
         style="fill:#656363" />
      <path
         id="path4164"
         d="m 820.22,222 11.1,0 c 5.24,0 8.43,1.14 10.09,3.05 a 7.328,7.328 0 0 1 1.47,5.93 c -0.57,4.43 -3.38,8.25 -9.21,10 l 2.73,9.47 -10.24,0 -2.13,-8.13 -2.36,0 -3.24,8.13 -9.51,0 z m 7.56,13.53 c 3.17,0 5.02,-1.46 5.25,-3.25"
         inkscape:connector-curvature="0"
         style="fill:#656363" />
      <path
         id="path4166"
         d="m 426.81,131.56 -33.86,-9.36 8.7,-22.42 -25.41,10.15 3.65,-31.72 2.42,-16.08 -0.63,0.47 0.05,-0.47 -38.09,28.35 -3.98,-26.75 -0.38,0.48 -0.07,-0.48 -16.73,21.05 -18.86,-43.79 -0.29,0.66 -0.29,-0.66 -18.86,43.79 -16.73,-21.05 -0.07,0.48 -0.38,-0.49 -3.98,26.75 -38.09,-28.35 0.05,0.47 -0.63,-0.47 2.42,16.08 3.65,31.72 -25.41,-10.15 10.02,25.55 -47.78,-5.62 28.71,38.63 -27.13,4.03 25.28,19.98 -52.11,22.2 59.93,0 c -0.56,-21.29 4.91,-41.51 13.82,-56.84 a 101.371,101.371 0 0 1 86.66,-50.76 l 1.8,0 a 101.409,101.409 0 0 1 78.44,38.6 z"
         inkscape:connector-curvature="0"
         style="fill:#ed9e3e" />
    </g>
  </g>
</svg>
