<?xml version="1.0" encoding="utf-8"?>
<!-- Generator: Adobe Illustrator 28.0.0, SVG Export Plug-In . SVG Version: 6.00 Build 0)  -->
<svg version="1.1" id="Capa_1" xmlns="http://www.w3.org/2000/svg" xmlns:xlink="http://www.w3.org/1999/xlink" x="0px" y="0px"
	 viewBox="0 0 149.83 94.31" style="enable-background:new 0 0 149.83 94.31;" xml:space="preserve">
<style type="text/css">
	.st0{clip-path:url(#SVGID_00000009559234016551159480000016925634585544000646_);}
	
		.st1{clip-path:url(#SVGID_00000125573526225013614050000007552323936336428694_);fill-rule:evenodd;clip-rule:evenodd;fill:#0038A8;}
	
		.st2{clip-path:url(#SVGID_00000125573526225013614050000007552323936336428694_);fill-rule:evenodd;clip-rule:evenodd;fill:#231F20;}
	.st3{clip-path:url(#SVGID_00000125573526225013614050000007552323936336428694_);fill:#FF9E18;}
	.st4{clip-path:url(#SVGID_00000125573526225013614050000007552323936336428694_);fill:#6F6F6E;}
	.st5{clip-path:url(#SVGID_00000125573526225013614050000007552323936336428694_);fill:#0038A8;}
	.st6{clip-path:url(#SVGID_00000009559234016551159480000016925634585544000646_);fill:#FF9E18;}
	.st7{fill:#231F20;}
	.st8{fill:#1D1D1B;}
	.st9{fill-rule:evenodd;clip-rule:evenodd;fill:#231F20;}
	.st10{fill-rule:evenodd;clip-rule:evenodd;fill:#0038A8;}
	.st11{fill:#FF9E18;}
	.st12{fill:#0038A8;}
	.st13{fill-rule:evenodd;clip-rule:evenodd;fill:#FFFFFF;}
	.st14{fill:#FFFFFF;}
	.st15{fill-rule:evenodd;clip-rule:evenodd;fill:#1D1D1B;}
	.st16{fill:#6F6F6E;}
	.st17{fill:none;}
	
		.st18{clip-path:url(#SVGID_00000093876313750051891690000015955715674702550674_);fill:none;stroke:#9B9B9B;stroke-width:4;stroke-miterlimit:10;}
	.st19{clip-path:url(#SVGID_00000093876313750051891690000015955715674702550674_);fill:#0038A8;}
	
		.st20{clip-path:url(#SVGID_00000049219304221109770180000005327503246711230120_);fill-rule:evenodd;clip-rule:evenodd;fill:#FFFFFF;}
	.st21{clip-path:url(#SVGID_00000049219304221109770180000005327503246711230120_);fill:#FFFFFF;}
	.st22{clip-path:url(#SVGID_00000049219304221109770180000005327503246711230120_);fill:#FF9E18;}
	.st23{clip-path:url(#SVGID_00000049219304221109770180000005327503246711230120_);fill:#6F6F6E;}
	.st24{clip-path:url(#SVGID_00000049219304221109770180000005327503246711230120_);fill:none;stroke:#000000;stroke-miterlimit:10;}
	.st25{clip-path:url(#SVGID_00000049219304221109770180000005327503246711230120_);fill:#1D1D1B;}
	.st26{clip-path:url(#SVGID_00000049219304221109770180000005327503246711230120_);fill:#0038A8;}
	.st27{clip-path:url(#SVGID_00000049219304221109770180000005327503246711230120_);fill:#263778;}
	.st28{clip-path:url(#SVGID_00000172437296113297206550000006003557970406515884_);fill:#333333;}
	
		.st29{clip-path:url(#SVGID_00000127751727495367052310000010966095608373305229_);fill:url(#SVGID_00000155827600748179025990000009094848244415814819_);}
	
		.st30{clip-path:url(#SVGID_00000119099661802906040490000010392752057020016783_);fill:url(#SVGID_00000024679871756643177320000000653935897425636540_);}
	.st31{clip-path:url(#SVGID_00000157994271934893746490000009195369048025505188_);fill:#9B9B9B;}
	.st32{clip-path:url(#SVGID_00000157994271934893746490000009195369048025505188_);fill:#FF9E18;}
	.st33{clip-path:url(#SVGID_00000157994271934893746490000009195369048025505188_);fill:#0038A8;}
	.st34{clip-path:url(#SVGID_00000157994271934893746490000009195369048025505188_);}
	.st35{clip-path:url(#SVGID_00000048470557472500696740000003785130600161295250_);fill:#F49B1D;}
	.st36{clip-path:url(#SVGID_00000048470557472500696740000003785130600161295250_);fill:#FF9E18;}
	.st37{clip-path:url(#SVGID_00000048470557472500696740000003785130600161295250_);fill:#194D9B;}
	.st38{clip-path:url(#SVGID_00000048470557472500696740000003785130600161295250_);fill:#0038A8;}
	
		.st39{clip-path:url(#SVGID_00000048470557472500696740000003785130600161295250_);fill-rule:evenodd;clip-rule:evenodd;fill:#FFFFFF;}
	.st40{clip-path:url(#SVGID_00000048470557472500696740000003785130600161295250_);fill:#FFFFFF;}
	.st41{clip-path:url(#SVGID_00000048470557472500696740000003785130600161295250_);fill:#F9C884;}
	.st42{clip-path:url(#SVGID_00000048470557472500696740000003785130600161295250_);fill:#F7B85F;}
	.st43{clip-path:url(#SVGID_00000048470557472500696740000003785130600161295250_);fill:#333333;}
	
		.st44{clip-path:url(#SVGID_00000048470557472500696740000003785130600161295250_);fill-rule:evenodd;clip-rule:evenodd;fill:#F49B1D;}
	
		.st45{clip-path:url(#SVGID_00000048470557472500696740000003785130600161295250_);fill-rule:evenodd;clip-rule:evenodd;fill:#0038A8;}
	.st46{clip-path:url(#SVGID_00000048470557472500696740000003785130600161295250_);fill:none;}
	.st47{clip-path:url(#SVGID_00000090278211271925773350000010637038818582774199_);fill:#0038A8;}
	.st48{clip-path:url(#SVGID_00000090278211271925773350000010637038818582774199_);fill:#FF9E18;}
	.st49{clip-path:url(#SVGID_00000090278211271925773350000010637038818582774199_);fill:#194D9B;}
	.st50{clip-path:url(#SVGID_00000090278211271925773350000010637038818582774199_);fill:#F49B1D;}
	.st51{clip-path:url(#SVGID_00000090278211271925773350000010637038818582774199_);}
	
		.st52{clip-path:url(#SVGID_00000072993114408098512290000013506313332984926854_);fill-rule:evenodd;clip-rule:evenodd;fill:#FFFFFF;}
	.st53{clip-path:url(#SVGID_00000072993114408098512290000013506313332984926854_);fill:#FFFFFF;}
	.st54{clip-path:url(#SVGID_00000072993114408098512290000013506313332984926854_);fill:#FF9E18;}
	.st55{clip-path:url(#SVGID_00000088099019534947177100000002336215980551019949_);fill:#FF9E18;}
	.st56{clip-path:url(#SVGID_00000088099019534947177100000002336215980551019949_);fill:#FFFFFF;}
	.st57{clip-path:url(#SVGID_00000030480094613534708530000004846964625622925217_);fill:#FF9E18;}
	.st58{clip-path:url(#SVGID_00000030480094613534708530000004846964625622925217_);fill:#194D9B;}
	.st59{clip-path:url(#SVGID_00000013190153437619742150000001894328365042232984_);}
	.st60{clip-path:url(#SVGID_00000013190153437619742150000001894328365042232984_);fill:#00A6E0;}
	.st61{clip-path:url(#SVGID_00000013190153437619742150000001894328365042232984_);fill:#0038A8;}
	
		.st62{clip-path:url(#SVGID_00000176008469265855317910000012168227065981596859_);fill-rule:evenodd;clip-rule:evenodd;fill:#FFFFFF;}
	.st63{clip-path:url(#SVGID_00000176008469265855317910000012168227065981596859_);fill:#FFFFFF;}
	.st64{clip-path:url(#SVGID_00000176008469265855317910000012168227065981596859_);fill:#FF9E18;}
	.st65{clip-path:url(#SVGID_00000176008469265855317910000012168227065981596859_);fill:#00A6E0;}
	
		.st66{clip-path:url(#SVGID_00000176008469265855317910000012168227065981596859_);fill-rule:evenodd;clip-rule:evenodd;fill:#1D1D1B;}
	
		.st67{clip-path:url(#SVGID_00000176008469265855317910000012168227065981596859_);fill-rule:evenodd;clip-rule:evenodd;fill:#0038A8;}
	.st68{clip-path:url(#SVGID_00000176008469265855317910000012168227065981596859_);fill:#6F6F6E;}
	.st69{clip-path:url(#SVGID_00000176008469265855317910000012168227065981596859_);fill:#333333;}
	.st70{clip-path:url(#SVGID_00000176008469265855317910000012168227065981596859_);}
	.st71{clip-path:url(#SVGID_00000176008469265855317910000012168227065981596859_);fill:#00A8E1;}
	.st72{fill:none;stroke:#000000;stroke-miterlimit:10;}
	.st73{fill-rule:evenodd;clip-rule:evenodd;}
	.st74{fill:#787878;}
	.st75{fill:#F6921E;}
	.st76{clip-path:url(#SVGID_00000082328353914904889850000010531606978705676167_);fill:#66666A;}
	.st77{clip-path:url(#SVGID_00000082328353914904889850000010531606978705676167_);fill:#4374B9;}
	.st78{clip-path:url(#SVGID_00000082328353914904889850000010531606978705676167_);fill:#0038A8;}
	.st79{clip-path:url(#SVGID_00000082328353914904889850000010531606978705676167_);fill:#FFFFFF;}
	.st80{clip-path:url(#SVGID_00000082328353914904889850000010531606978705676167_);fill:#FF9E18;}
	.st81{clip-path:url(#SVGID_00000082328353914904889850000010531606978705676167_);}
	
		.st82{clip-path:url(#SVGID_00000176040366363493413490000002882485713492335295_);fill-rule:evenodd;clip-rule:evenodd;fill:#FFFFFF;}
	.st83{clip-path:url(#SVGID_00000176040366363493413490000002882485713492335295_);fill:#FFFFFF;}
	.st84{clip-path:url(#SVGID_00000176040366363493413490000002882485713492335295_);fill:#FF9E18;}
	.st85{clip-path:url(#SVGID_00000176040366363493413490000002882485713492335295_);fill:#4374B9;}
	.st86{clip-path:url(#SVGID_00000176040366363493413490000002882485713492335295_);fill:#66666A;}
	.st87{fill:#A0BDDF;}
	.st88{fill-rule:evenodd;clip-rule:evenodd;fill:#A0BEE0;}
</style>
<path class="st13" d="M14.03,61.46l6.1-0.06l-0.12,7.9l7.78-7.9h1.48l1.44,7.84l6.06-7.84h1.99l-8.38,10.6H27.4l-0.92-7.33
	l-7.38,7.33h-2.75l0.04-9.17c-0.41-0.64-1.2-0.92-2.35-0.83C13.82,61.83,13.82,61.64,14.03,61.46"/>
<path class="st13" d="M44.73,61.82l7.01-0.83l-0.91,2.7c1.22-0.86,2.44-1.53,3.66-2.09c1.47-0.67,7.3-1.47,6.98,1.74l-3.68,8.52
	H54.1l3.26-7.72c0.48-2.53-3.98-2-7.36,1.31l-2.82,6.41h-3.8l3.58-8.11c0.21-1.14-0.13-1.51-2.36-1.44
	C44.35,62.23,44.41,61.95,44.73,61.82"/>
<path class="st13" d="M72.7,67.12l0.72-1.6c0.59-1.95,0.02-3.66-2.5-3.45c-4.72,0.46-9.28,8.69-3.52,8.64
	C69.57,70.72,71.58,69.02,72.7,67.12 M71.27,70.32c-3.46,2.21-10.13,2.9-10.53-1.41c-0.22-2.42,1.84-5.31,4.87-6.88
	c1.82-0.95,3.94-1.26,5.68-1.17c1.62,0.09,2.92,0.59,3.37,1.85l1.9-4.27c0.41-1.11-0.28-1.61-2.08-1.56
	c-0.25-0.04-0.16-0.58,0.3-0.65l6.58-0.5l-6.81,16.12h-3.96L71.27,70.32z"/>
<path class="st13" d="M79.75,61.82l7.02-0.83l-0.91,2.7c1.22-0.86,2.1-1.53,3.32-2.09c1.47-0.67,7.3-1.47,6.98,1.74l-0.11,0.24
	c1.11-0.78,2.16-1.42,3.24-1.98c1.47-0.77,7.3-1.63,6.98,1.74l-3.68,8.52h-3.6l3.39-7.72c0.47-2.77-3.71-2.1-7.06,1.14l-2.84,6.58
	h-3.69l3.26-7.72c0.48-2.53-3.64-2-7.02,1.31l-2.83,6.41h-3.8l3.58-8.11c0.21-1.14-0.12-1.51-2.36-1.44
	C79.37,62.23,79.43,61.95,79.75,61.82"/>
<path class="st13" d="M121.85,61.58l7.01-0.83l-0.91,2.7c1.22-0.86,2.12-1.77,3.35-2.33c0.78-0.36,2.9-0.68,4.65-0.42l-1.69,2.42
	c-0.93-0.99-4.42-0.42-7.13,2.09l-2.82,6.41h-3.8l3.58-8.11c0.21-1.14-0.12-1.51-2.36-1.44C121.48,61.99,121.53,61.71,121.85,61.58"
	/>
<path class="st13" d="M114.59,68.67l0.98-2.1c-3.34-0.1-5.67,0.6-6.51,2.47c-0.48,1.12,0.36,1.94,2.52,1.48
	C112.89,70.18,113.87,69.56,114.59,68.67 M115.89,65.87c-4.62-0.34-9.73,0.92-10.86,3.36c-1.32,3.22,4.85,3.62,8.71,1.26l-0.54,1.17
	h4.13l2.92-7.39c2.16-4.29-5.25-4.1-8.63-3.1c-1.67,0.5-3.06,1.38-4.08,2.75h4.61c0.68-2.86,5.84-3.08,4.96-0.69L115.89,65.87z"/>
<polygon class="st14" points="77.34,74.48 78.71,74.48 77.65,77.05 80.14,77.05 81.2,74.48 82.57,74.48 79.77,81.29 78.41,81.29 
	79.67,78.2 77.18,78.2 75.91,81.29 74.55,81.29 "/>
<path class="st14" d="M93.67,74.31c1,0,1.74,0.3,2.23,0.9c0.49,0.6,0.61,1.37,0.37,2.29c-0.19,0.71-0.56,1.38-1.11,2.01
	c-0.55,0.63-1.19,1.11-1.91,1.45c-0.73,0.34-1.5,0.5-2.33,0.5c-1.03,0-1.78-0.29-2.25-0.86c-0.47-0.57-0.57-1.33-0.33-2.27
	c0.28-1.06,0.89-1.98,1.83-2.75C91.23,74.73,92.39,74.31,93.67,74.31 M93.3,75.51c-0.52,0-1.03,0.12-1.52,0.35
	c-0.49,0.24-0.93,0.58-1.31,1.02c-0.38,0.44-0.63,0.9-0.76,1.37c-0.15,0.56-0.09,1.03,0.17,1.42c0.26,0.39,0.74,0.58,1.42,0.58
	c0.79,0,1.54-0.26,2.23-0.79c0.69-0.53,1.14-1.16,1.34-1.91c0.16-0.62,0.1-1.12-0.19-1.49C94.4,75.7,93.94,75.51,93.3,75.51"/>
<polygon class="st14" points="105.38,74.48 106.61,74.48 106.59,79.22 110.36,74.48 111.53,74.48 109.84,81.29 108.56,81.29 
	109.58,77.21 106.35,81.29 105.3,81.29 105.32,77.01 103.04,81.29 101.73,81.29 "/>
<polygon class="st14" points="119.95,74.48 123.86,74.48 123.37,75.69 120.83,75.69 120.25,77.09 122.8,77.09 122.32,78.29 
	119.76,78.29 119.02,80.1 121.59,80.1 121.12,81.29 117.16,81.29 "/>
<polygon class="st13" points="48.77,30.57 49.6,51.75 52.22,49.31 "/>
<polygon class="st13" points="26.62,57.38 45.51,45.8 49.13,46.43 "/>
<polygon class="st13" points="67.57,58.57 44.56,51.83 43.53,49.34 "/>
<polygon class="st13" points="47.46,48.11 48.72,48.62 48.82,49.49 47.72,50.08 46.52,49.61 46.42,48.7 "/>
<polygon class="st13" points="44.73,52.81 47.31,53.6 39.51,71.89 35.16,71.89 "/>
<path class="st14" d="M40.43,51.86L26.3,58.74h13.39C39.68,56.47,39.92,54.17,40.43,51.86"/>
<path class="st14" d="M47.91,37.54l-0.32-8.08l-6.93-2.58l3.48,8.21l-16.38-1.81l9.84,12.42l-9.3,1.3l5.97,4.43l7.85-4.81
	C43.55,43.23,45.51,40.19,47.91,37.54"/>
<path class="st14" d="M113.28,52.45l7.37-5.46l-9.3-1.3l9.84-12.42l-16.38,1.81l3.43-8.21l-8.71,3.26l1.89-15.36L88.19,24
	l-1.34-8.72l-5.86,6.92L74.46,7.97l-6.53,14.22l-5.82-6.92L60.72,24l-13.23-9.23l1,7.98l2.22,12.03c1.94-1.71,4.08-3.2,6.37-4.46
	c7.71-4.16,17.13-5.58,26.38-3.26c9.3,2.36,16.67,7.98,21.11,15.21c3.05,4.93,4.72,10.6,4.68,16.47H128l0.4-0.16L113.28,52.45z"/>
</svg>
