<?xml version="1.0" encoding="UTF-8" standalone="no"?>
<!-- Created with Inkscape (http://www.inkscape.org/) -->

<svg
   xmlns:dc="http://purl.org/dc/elements/1.1/"
   xmlns:cc="http://creativecommons.org/ns#"
   xmlns:rdf="http://www.w3.org/1999/02/22-rdf-syntax-ns#"
   xmlns:svg="http://www.w3.org/2000/svg"
   xmlns="http://www.w3.org/2000/svg"
   xmlns:sodipodi="http://sodipodi.sourceforge.net/DTD/sodipodi-0.dtd"
   xmlns:inkscape="http://www.inkscape.org/namespaces/inkscape"
   width="95"
   height="21"
   viewBox="0 0 95.000001 21"
   id="svg5004"
   version="1.1"
   inkscape:version="0.91 r13725"
   sodipodi:docname="windmargroup.svg">
  <defs
     id="defs5006" />
  <sodipodi:namedview
     id="base"
     pagecolor="#ffffff"
     bordercolor="#666666"
     borderopacity="1.0"
     inkscape:pageopacity="0.0"
     inkscape:pageshadow="2"
     inkscape:zoom="2.8"
     inkscape:cx="57.199622"
     inkscape:cy="87.186314"
     inkscape:document-units="px"
     inkscape:current-layer="layer1"
     showgrid="false"
     units="px"
     inkscape:window-width="1080"
     inkscape:window-height="1897"
     inkscape:window-x="-8"
     inkscape:window-y="-8"
     inkscape:window-maximized="1" />
  <metadata
     id="metadata5009">
    <rdf:RDF>
      <cc:Work
         rdf:about="">
        <dc:format>image/svg+xml</dc:format>
        <dc:type
           rdf:resource="http://purl.org/dc/dcmitype/StillImage" />
        <dc:title></dc:title>
      </cc:Work>
    </rdf:RDF>
  </metadata>
  <g
     inkscape:label="Layer 1"
     inkscape:groupmode="layer"
     id="layer1"
     transform="translate(0,-1031.3622)">
    <g
       id="g5687"
       transform="matrix(1.025421,0,0,1.025421,-3.7945778,-22.251709)">
      <g
         transform="matrix(0.29257817,0,0,-0.29257817,79.610542,1042.302)"
         id="g336">
        <path
           inkscape:connector-curvature="0"
           id="path338"
           style="fill:#ffffff;fill-opacity:1;fill-rule:evenodd;stroke:none"
           d="m 0,0 c -0.579,0.373 -1.365,0.561 -2.338,0.561 -1.009,0 -1.988,-0.205 -2.905,-0.611 -0.921,-0.41 -1.739,-0.993 -2.432,-1.734 -0.693,-0.74 -1.225,-1.613 -1.581,-2.596 -0.341,-0.946 -0.44,-1.772 -0.293,-2.452 0.135,-0.633 0.46,-1.109 0.993,-1.457 1.16,-0.759 3.432,-0.743 5.241,0.054 0.927,0.408 1.749,0.99 2.444,1.732 0.694,0.744 1.226,1.617 1.579,2.596 0.342,0.944 0.441,1.769 0.294,2.453 C 0.867,-0.821 0.539,-0.345 0,0" />
      </g>
      <g
         transform="matrix(0.29257817,0,0,-0.29257817,73.026568,1042.2165)"
         id="g340">
        <path
           inkscape:connector-curvature="0"
           id="path342"
           style="fill:#ffffff;fill-opacity:1;fill-rule:evenodd;stroke:none"
           d="m 0,0 -3.728,0 -1.236,-3.423 3.227,0 c 0.795,0 1.466,0.173 1.997,0.514 0.516,0.334 0.879,0.799 1.105,1.423 0.184,0.513 0.186,0.884 0.004,1.104 C 1.16,-0.132 0.687,0 0,0" />
      </g>
      <g
         transform="matrix(0.29257817,0,0,-0.29257817,91.098331,1042.2519)"
         id="g344">
        <path
           inkscape:connector-curvature="0"
           id="path346"
           style="fill:#ffffff;fill-opacity:1;fill-rule:evenodd;stroke:none"
           d="m 0,0 -3.86,0 -1.386,-3.839 3.359,0 c 0.787,0 1.46,0.193 2.057,0.592 0.588,0.391 0.99,0.903 1.227,1.564 C 1.7,-0.847 1.462,-0.541 1.383,-0.441 1.154,-0.148 0.69,0 0,0" />
      </g>
      <g
         transform="matrix(0.29257817,0,0,-0.29257817,93.157965,1042.8758)"
         id="g348">
        <path
           inkscape:connector-curvature="0"
           id="path350"
           style="fill:#ffffff;fill-opacity:1;fill-rule:evenodd;stroke:none"
           d="M 0,0 C -0.477,-1.327 -1.22,-2.506 -2.207,-3.503 -3.19,-4.497 -4.365,-5.269 -5.697,-5.8 -7.019,-6.326 -8.459,-6.594 -9.975,-6.594 l -4.045,0 -1.747,-4.839 -5.832,0 6.674,18.5 9.376,0 c 1.546,0 2.833,-0.28 3.822,-0.832 C -0.669,5.645 0.018,4.781 0.317,3.669 0.602,2.603 0.496,1.368 0,0 m -24.959,-9.636 c -2.068,-1.436 -4.539,-2.164 -7.339,-2.164 -2.894,0 -4.928,0.783 -6.047,2.329 -1.126,1.55 -1.208,3.688 -0.249,6.353 l 3.677,10.185 5.831,0 -3.846,-10.658 c -0.395,-1.092 -0.426,-1.93 -0.094,-2.487 0.314,-0.528 0.969,-0.785 2.006,-0.785 1.111,0 2.079,0.322 2.958,0.985 0.892,0.671 1.534,1.574 1.961,2.76 l 3.676,10.185 5.83,0 -3.845,-10.658 c -0.928,-2.573 -2.447,-4.607 -4.519,-6.045 m -14.975,7.217 c -0.678,-1.879 -1.718,-3.551 -3.091,-4.965 -1.372,-1.417 -3.009,-2.526 -4.867,-3.299 -1.858,-0.773 -3.854,-1.166 -5.934,-1.166 -2.116,0 -3.872,0.407 -5.221,1.211 -1.404,0.834 -2.309,2.036 -2.688,3.571 -0.366,1.484 -0.201,3.206 0.49,5.121 0.675,1.874 1.715,3.545 3.089,4.965 1.369,1.413 3.007,2.522 4.867,3.299 1.861,0.774 3.857,1.165 5.936,1.165 2.113,0 3.869,-0.406 5.219,-1.209 1.404,-0.837 2.309,-2.04 2.689,-3.572 0.365,-1.482 0.202,-3.205 -0.489,-5.121 m -24.445,-9.014 -6.755,0 -2.684,5.646 -1.59,0 -2.037,-5.646 -5.833,0 6.674,18.5 9.535,0 c 1.459,0 2.675,-0.273 3.614,-0.812 1.001,-0.576 1.649,-1.407 1.925,-2.471 0.267,-1.014 0.17,-2.173 -0.29,-3.441 -0.509,-1.41 -1.352,-2.636 -2.506,-3.638 -0.941,-0.818 -2.044,-1.448 -3.286,-1.878 l 3.233,-6.26 z m -19.834,2.626 c -1.329,-0.969 -2.819,-1.722 -4.431,-2.239 -1.615,-0.516 -3.299,-0.779 -5.004,-0.779 -2.082,0 -3.806,0.404 -5.122,1.201 -1.374,0.829 -2.252,2.03 -2.612,3.567 -0.345,1.476 -0.171,3.196 0.518,5.11 0.662,1.831 1.709,3.482 3.114,4.909 1.399,1.419 3.06,2.54 4.939,3.331 1.88,0.79 3.881,1.19 5.944,1.19 1.53,0 2.852,-0.252 3.932,-0.748 1.103,-0.506 2.021,-1.285 2.729,-2.316 l 0.394,-0.573 -4.625,-3.174 -0.398,0.55 c -0.317,0.438 -0.748,0.77 -1.316,1.014 -0.59,0.255 -1.26,0.384 -1.992,0.384 -1.655,0 -3.082,-0.442 -4.364,-1.35 -1.266,-0.899 -2.191,-2.14 -2.749,-3.689 -0.348,-0.967 -0.457,-1.814 -0.323,-2.517 0.126,-0.646 0.443,-1.13 0.97,-1.482 0.566,-0.377 1.343,-0.569 2.31,-0.569 1.523,0 2.891,0.344 4.07,1.023 l 0.524,1.448 -5.04,0 1.658,4.595 10.207,0 -3.162,-8.76 -0.171,-0.126 z m 87.993,21.864 -103.316,0 c -3.074,0 -5.8,-1.975 -6.756,-4.897 l -5.324,-16.263 c -1.505,-4.596 1.919,-9.32 6.754,-9.32 l 103.317,0 c 3.074,0 5.8,1.975 6.756,4.896 l 5.325,16.264 c 1.505,4.596 -1.92,9.32 -6.756,9.32" />
      </g>
      <g
         transform="matrix(0.29257817,0,0,-0.29257817,32.655549,1034.8645)"
         id="g352">
        <path
           inkscape:connector-curvature="0"
           id="path354"
           style="fill:#ffffff;fill-opacity:1;fill-rule:evenodd;stroke:none"
           d="M 0,0 C 17.403,-2.873 35.057,-4.221 52.688,-4.231 66.787,-4.11 80.919,-3.34 94.815,-0.961 80.852,-2.773 66.756,-3.266 52.693,-3.16 35.113,-2.937 17.57,-1.449 0.214,1.311 -4.059,1.983 -8.808,2.637 -13.799,3.154 -15.02,2.902 -16.23,2.61 -17.432,2.279 -11.197,1.675 -5.258,0.834 0,0" />
      </g>
      <g
         transform="matrix(0.29257817,0,0,-0.29257817,11.603584,1036.505)"
         id="g356">
        <path
           inkscape:connector-curvature="0"
           id="path358"
           style="fill:#ffffff;fill-opacity:1;fill-rule:evenodd;stroke:none"
           d="M 0,0 C 7.595,5.095 17.474,7.496 27.935,8.356 L 27.903,9.197 C 17.358,8.131 7.454,5.452 0,0" />
      </g>
      <g
         transform="matrix(0.29257817,0,0,-0.29257817,20.656421,1033.7337)"
         id="g360">
        <path
           inkscape:connector-curvature="0"
           id="path362"
           style="fill:#ffffff;fill-opacity:1;fill-rule:evenodd;stroke:none"
           d="m 0,0 0.165,-0.891 c 7.183,0.378 14.548,0.087 21.594,-0.537 0.993,0.339 1.988,0.675 3,0.957 C 16.766,0.267 8.248,0.59 0,0" />
      </g>
      <g
         transform="matrix(0.29257817,0,0,-0.29257817,22.627432,1036.505)"
         id="g364">
        <path
           inkscape:connector-curvature="0"
           id="path366"
           style="fill:#ffffff;fill-opacity:1;fill-rule:evenodd;stroke:none"
           d="M 0,0 C 5.081,3.628 10.831,6.232 16.843,7.887 16.243,7.945 15.63,7.991 15.023,8.044 9.602,6.192 4.479,3.539 0,0" />
      </g>
      <g
         transform="matrix(0.29257817,0,0,-0.29257817,41.248921,1035.0796)"
         id="g368">
        <path
           inkscape:connector-curvature="0"
           id="path370"
           style="fill:#ffffff;fill-opacity:1;fill-rule:evenodd;stroke:none"
           d="M 0,0 C 10.99,-2.04 22.323,-1.51 33.266,0.492 44.204,2.502 54.902,5.505 65.444,8.917 60.666,7.659 54.119,5.903 49.34,4.835 38.608,2.327 27.672,0.214 16.643,-0.019 2.711,-0.482 -10.566,4.292 -24.297,5.928 -31.399,6.68 -38.708,6.059 -45.624,4.129 -44.8,4.053 -43.981,3.974 -43.17,3.89 c 3.472,0.717 6.999,1.151 10.527,1.233 C -21.519,5.386 -10.874,1.96 0,0" />
      </g>
      <g
         transform="matrix(0.29257817,0,0,-0.29257817,14.081839,1041.5629)"
         id="g372">
        <path
           inkscape:connector-curvature="0"
           id="path374"
           style="fill:#ffffff;fill-opacity:1;fill-rule:evenodd;stroke:none"
           d="M 0,0 -9.397,-12.151 -11.622,0 -13.91,0 -25.967,-12.246 -25.78,0 -35.24,-0.094 c -0.323,-0.279 -0.323,-0.56 0,-0.841 1.793,0.132 3.009,-0.298 3.648,-1.289 l -0.063,-14.209 4.266,0 11.438,11.357 1.424,-11.357 4.637,0 L 3.091,0 0,0 Z" />
      </g>
      <g
         transform="matrix(0.29257817,0,0,-0.29257817,22.118142,1041.6512)"
         id="g376">
        <path
           inkscape:connector-curvature="0"
           id="path378"
           style="fill:#ffffff;fill-opacity:1;fill-rule:evenodd;stroke:none"
           d="m 0,0 c -1.891,-0.866 -3.784,-1.91 -5.674,-3.241 l 1.408,4.186 -10.87,-1.285 c -0.493,-0.206 -0.583,-0.647 -0.213,-0.76 3.464,0.101 3.985,-0.467 3.66,-2.235 l -5.546,-12.572 5.895,0 4.376,9.94 c 5.244,5.127 12.155,5.95 11.411,2.031 l -5.054,-11.971 5.723,0 5.697,13.207 C 11.307,2.275 2.274,1.041 0,0" />
      </g>
      <g
         transform="matrix(0.29257817,0,0,-0.29257817,30.695188,1043.4276)"
         id="g380">
        <path
           inkscape:connector-curvature="0"
           id="path382"
           style="fill:#ffffff;fill-opacity:1;fill-rule:evenodd;stroke:none"
           d="m 0,0 -1.108,-2.486 c -1.734,-2.94 -4.84,-5.579 -8.21,-5.558 -8.931,-0.068 -1.867,12.683 5.45,13.391 C 0.028,5.673 0.91,3.025 0,0 m 2.123,14.388 c -0.701,-0.11 -0.854,-0.933 -0.46,-1 2.8,0.078 3.863,-0.692 3.227,-2.415 L 1.94,4.353 C 1.237,6.3 -0.779,7.086 -3.289,7.22 -5.99,7.362 -9.266,6.883 -12.091,5.409 c -4.691,-2.444 -7.884,-6.922 -7.541,-10.668 0.616,-6.671 10.945,-5.614 16.314,-2.185 l -1.057,-2.374 6.137,0 10.56,24.975 -10.199,-0.769 z" />
      </g>
      <g
         transform="matrix(0.29257817,0,0,-0.29257817,42.42965,1041.6512)"
         id="g384">
        <path
           inkscape:connector-curvature="0"
           id="path386"
           style="fill:#ffffff;fill-opacity:1;fill-rule:evenodd;stroke:none"
           d="m 0,0 c -1.671,-0.875 -3.312,-1.87 -5.025,-3.074 l 0.162,0.374 c 0.494,4.975 -8.54,3.74 -10.814,2.7 -1.892,-0.866 -3.254,-1.91 -5.146,-3.241 l 1.41,4.186 -10.871,-1.285 c -0.493,-0.206 -0.582,-0.647 -0.212,-0.76 3.464,0.101 3.985,-0.467 3.658,-2.235 l -5.546,-12.572 5.895,0 4.378,9.94 c 5.241,5.127 11.626,5.95 10.881,2.031 l -5.055,-11.971 5.722,0 4.406,10.205 c 5.185,5.026 11.667,6.061 10.934,1.766 l -5.25,-11.971 5.588,0 5.698,13.207 C 11.305,2.526 2.273,1.191 0,0" />
      </g>
      <g
         transform="matrix(0.29257817,0,0,-0.29257817,56.94457,1041.434)"
         id="g388">
        <path
           inkscape:connector-curvature="0"
           id="path390"
           style="fill:#ffffff;fill-opacity:1;fill-rule:evenodd;stroke:none"
           d="m 0,0 c -1.89,-0.866 -3.292,-2.28 -5.183,-3.612 l 1.41,4.187 -10.871,-1.285 c -0.493,-0.206 -0.584,-0.648 -0.214,-0.76 3.465,0.1 3.987,-0.467 3.66,-2.236 l -5.544,-12.572 5.893,0 4.376,9.939 c 4.202,3.895 9.607,4.78 11.056,3.244 L 7.208,0.654 C 4.489,1.06 1.213,0.556 0,0" />
      </g>
      <g
         transform="matrix(0.29257817,0,0,-0.29257817,49.366502,1044.8579)"
         id="g392">
        <path
           inkscape:connector-curvature="0"
           id="path394"
           style="fill:#ffffff;fill-opacity:1;fill-rule:evenodd;stroke:none"
           d="m 0,0 c -1.111,-1.38 -2.634,-2.339 -4.657,-2.873 -3.35,-0.713 -4.652,0.562 -3.911,2.297 1.301,2.909 4.9,3.998 10.083,3.835 L 0,0 Z m -4.606,11.594 c -2.593,-0.776 -4.74,-2.143 -6.321,-4.258 l 7.147,0 c 1.059,4.431 9.048,4.772 7.683,1.072 L 2.014,4.335 c -7.154,0.52 -15.078,-1.419 -16.836,-5.212 -2.042,-4.985 7.513,-5.604 13.504,-1.961 l -0.844,-1.821 6.403,0 4.521,11.455 c 3.345,6.644 -8.142,6.362 -13.368,4.798" />
      </g>
      <g
         transform="matrix(0.29257817,0,0,-0.29257817,19.524729,1027.5843)"
         id="g396">
        <path
           inkscape:connector-curvature="0"
           id="path398"
           style="fill:#ffffff;fill-opacity:1;fill-rule:evenodd;stroke:none"
           d="m 0,0 0.829,-21.293 c 1.009,0.102 2.019,0.202 3.039,0.275 L 0,0 Z" />
      </g>
      <g
         transform="matrix(0.29257817,0,0,-0.29257817,19.89721,1037.1484)"
         id="g400">
        <path
           inkscape:connector-curvature="0"
           id="path402"
           style="fill:#ffffff;fill-opacity:1;fill-rule:evenodd;stroke:none"
           d="M 0,0 0.099,-0.038 4.07,3.656 2.76,10.78 C 1.696,10.724 0.642,10.642 -0.412,10.555 L 0,0 Z" />
      </g>
      <g
         transform="matrix(0.29257817,0,0,-0.29257817,18.044225,1034.4878)"
         id="g404">
        <path
           inkscape:connector-curvature="0"
           id="path406"
           style="fill:#ffffff;fill-opacity:1;fill-rule:evenodd;stroke:none"
           d="M 0,0 -29.273,-17.946 5.613,-0.979 0,0 Z" />
      </g>
      <g
         transform="matrix(0.29257817,0,0,-0.29257817,19.89721,1037.1484)"
         id="g408">
        <path
           inkscape:connector-curvature="0"
           id="path410"
           style="fill:#ffffff;fill-opacity:1;fill-rule:evenodd;stroke:none"
           d="M 0,0 -9.396,3.606 -7.803,-0.255 27.857,-10.692 0.099,-0.038 0.004,-0.126 0,0 Z" />
      </g>
      <g
         transform="matrix(0.29257817,0,0,-0.29257817,18.455911,1035.8032)"
         id="g412">
        <path
           inkscape:connector-curvature="0"
           id="path414"
           style="fill:#ffffff;fill-opacity:1;fill-rule:evenodd;stroke:none"
           d="M 0,0 0.162,-1.41 2.023,-2.145 3.724,-1.226 3.562,0.122 1.619,0.919 0,0 Z" />
      </g>
      <g
         transform="matrix(0.29257817,0,0,-0.29257817,17.689327,1037.6664)"
         id="g416">
        <path
           inkscape:connector-curvature="0"
           id="path418"
           style="fill:#ffffff;fill-opacity:1;fill-rule:evenodd;stroke:none"
           d="m 0,0 -14.829,-29.575 6.737,0 L 4.009,-1.222 0,0 Z" />
      </g>
    </g>
  </g>
</svg>
