<?xml version="1.0" encoding="UTF-8"?>
<svg id="Layer_1" data-name="Layer 1" xmlns="http://www.w3.org/2000/svg" version="1.1" viewBox="0 0 1367 766">
  <defs>
    <style>
      .cls-1 {
        fill: #ff9e18;
      }

      .cls-1, .cls-2 {
        stroke-width: 0px;
      }

      .cls-2 {
        fill: #fff;
      }
    </style>
  </defs>
  <g>
    <polygon class="cls-1" points="389.6 493.63 463.02 493.63 463.02 465.17 389.6 465.17 389.6 430.83 472.73 430.83 472.73 401.47 353.24 401.47 353.24 559.6 475.67 559.6 475.67 530.23 389.6 530.23 389.6 493.63"/>
    <polygon class="cls-1" points="613.7 497.4 535.08 401.47 504.81 401.47 504.81 559.6 540.96 559.6 540.96 463.63 619.8 559.6 649.84 559.6 649.84 401.47 613.7 401.47 613.7 497.4"/>
    <polygon class="cls-1" points="723.7 493.63 797.12 493.63 797.12 465.17 723.7 465.17 723.7 430.83 806.84 430.83 806.84 401.47 687.34 401.47 687.34 559.6 809.78 559.6 809.78 530.23 723.7 530.23 723.7 493.63"/>
    <path class="cls-1" d="M943.96,508.77c10.24-4.52,18.15-11.03,23.72-19.54,5.57-8.51,8.36-18.64,8.36-30.38s-2.79-22.14-8.36-30.73c-5.57-8.58-13.48-15.17-23.72-19.77-10.25-4.59-22.44-6.89-36.6-6.89h-68.44v158.13h36.59v-44.05h31.85c.58,0,1.11-.06,1.68-.07l30.39,44.12h39.53l-35.33-50.71c.1-.04.22-.07.32-.12ZM930.63,438.52c5.57,4.82,8.36,11.6,8.36,20.33s-2.79,15.32-8.36,20.21c-5.57,4.9-14.01,7.34-25.3,7.34h-29.82v-55.12h29.82c11.3,0,19.73,2.41,25.3,7.23Z"/>
    <path class="cls-1" d="M1046.39,443.94c4.59-4.52,10.05-7.98,16.38-10.39,6.33-2.41,13.33-3.61,21.01-3.61s15.36,1.47,22.14,4.4c6.78,2.94,13.03,7.42,18.75,13.45l23.49-21.69c-7.68-8.88-17.13-15.66-28.35-20.33-11.22-4.67-23.83-7.01-37.84-7.01-12.64,0-24.25,2-34.78,5.99-10.54,4-19.73,9.68-27.56,17.06s-13.89,16.04-18.18,25.98c-4.3,9.93-6.44,20.86-6.44,32.75s2.14,22.82,6.44,32.75c4.29,9.94,10.31,18.6,18.07,25.98,7.75,7.38,16.86,13.07,27.33,17.06,10.47,3.98,21.95,5.99,34.45,5.99,11.3,0,22.63-1.73,34-5.2,11.37-3.46,21.34-8.43,29.93-14.91v-64.15h-33.43v46.17c-2.43,1.27-4.86,2.57-7.34,3.42-6.85,2.34-13.89,3.5-21.12,3.5s-14.42-1.2-20.67-3.61c-6.25-2.41-11.67-5.91-16.27-10.51-4.59-4.59-8.13-9.97-10.61-16.15s-3.73-12.95-3.73-20.33,1.24-14.38,3.73-20.55,6.02-11.52,10.61-16.04Z"/>
    <polygon class="cls-1" points="1316.46 401.47 1280.54 401.47 1238.21 471.66 1196.05 401.47 1157.2 401.47 1218.42 503.23 1218.42 559.6 1255.01 559.6 1255.01 503.61 1316.46 401.47"/>
  </g>
  <g>
    <path class="cls-2" d="M168.25,215.02c-9.57-4.29-20.97-6.43-34.19-6.43h-63.95v147.74h34.19v-40.73h29.76c13.23,0,24.62-2.14,34.19-6.44,9.56-4.29,16.95-10.44,22.16-18.47,5.2-8.02,7.81-17.52,7.81-28.49s-2.61-20.68-7.81-28.71c-5.2-8.02-12.6-14.17-22.16-18.47ZM155.79,280.97c-5.2,4.5-13.09,6.75-23.64,6.75h-27.86v-51.28h27.86c10.55,0,18.43,2.25,23.64,6.75s7.81,10.83,7.81,18.99-2.61,14.29-7.81,18.79Z"/>
    <path class="cls-2" d="M353.86,227.79c-7.24-6.89-15.75-12.24-25.53-16.04-9.78-3.8-20.51-5.7-32.19-5.7s-22.23,1.9-32.08,5.7c-9.85,3.8-18.43,9.14-25.75,16.04-7.31,6.89-12.98,14.98-16.98,24.27-4.01,9.29-6.02,19.42-6.02,30.39s2.01,21.11,6.02,30.39c4,9.29,9.63,17.38,16.88,24.27,7.24,6.89,15.83,12.24,25.74,16.04s20.72,5.7,32.4,5.7,22.19-1.9,31.98-5.7c9.78-3.8,18.29-9.11,25.53-15.93,7.25-6.82,12.91-14.92,16.99-24.27,4.08-9.35,6.12-19.52,6.12-30.49s-2.04-21.28-6.12-30.5c-4.08-9.21-9.74-17.27-16.99-24.16ZM338.88,301.66c-2.32,5.77-5.59,10.76-9.81,14.99-4.22,4.22-9.12,7.45-14.67,9.71-5.56,2.25-11.64,3.38-18.26,3.38s-12.73-1.13-18.36-3.38-10.51-5.49-14.67-9.71c-4.15-4.22-7.38-9.25-9.71-15.09-2.32-5.84-3.49-12.2-3.49-19.1s1.16-13.43,3.49-19.21c2.32-5.77,5.59-10.76,9.81-14.99,4.22-4.22,9.11-7.45,14.67-9.71s11.64-3.38,18.25-3.38,12.74,1.13,18.37,3.38c5.62,2.25,10.51,5.49,14.66,9.71,4.15,4.22,7.39,9.22,9.71,14.99s3.48,12.17,3.48,19.21-1.16,13.44-3.48,19.21Z"/>
    <path class="cls-2" d="M496.85,281.61c-5.06-3.1-10.66-5.56-16.78-7.38-6.12-1.83-12.24-3.45-18.36-4.86s-11.71-2.81-16.78-4.22c-5.06-1.4-9.14-3.27-12.24-5.59s-4.64-5.38-4.64-9.18c0-3.24.92-6.08,2.75-8.55,1.82-2.46,4.86-4.47,9.07-6.02,4.22-1.54,9.63-2.32,16.25-2.32s13.36.95,20.26,2.85c6.89,1.9,13.79,4.82,20.68,8.75l10.55-25.96c-6.89-4.36-14.85-7.63-23.85-9.81-9-2.18-18.15-3.27-27.43-3.27-13.93,0-25.51,2.08-34.72,6.23-9.22,4.15-16.12,9.71-20.68,16.67-4.58,6.97-6.87,14.67-6.87,23.11,0,7.88,1.58,14.36,4.75,19.42,3.17,5.07,7.28,9.15,12.35,12.24,5.07,3.1,10.66,5.63,16.78,7.6,6.12,1.97,12.24,3.63,18.36,4.96,6.12,1.34,11.71,2.74,16.78,4.22,5.06,1.48,9.14,3.38,12.24,5.7s4.64,5.45,4.64,9.39c0,3.1-.99,5.84-2.95,8.23-1.97,2.39-5.03,4.26-9.18,5.59-4.15,1.34-9.61,2-16.36,2-8.87,0-17.62-1.44-26.28-4.32s-16.15-6.57-22.48-11.08l-11.61,25.75c6.62,5.06,15.34,9.18,26.17,12.35s22.17,4.75,33.98,4.75c14.07,0,25.72-2.12,34.93-6.33,9.22-4.22,16.15-9.78,20.79-16.67s6.97-14.49,6.97-22.8c0-7.73-1.58-14.14-4.75-19.21-3.17-5.06-7.28-9.14-12.35-12.24Z"/>
    <rect class="cls-2" x="537.37" y="208.58" width="34.19" height="147.74"/>
    <polygon class="cls-2" points="589.92 236.44 637.2 236.44 637.2 356.32 671.38 356.32 671.38 236.44 718.66 236.44 718.66 208.58 589.92 208.58 589.92 236.44"/>
    <rect class="cls-2" x="737.02" y="208.58" width="34.19" height="147.74"/>
    <polygon class="cls-2" points="867.85 314.1 822.92 208.58 785.98 208.58 849.73 356.32 883.49 356.32 947.44 208.58 913.46 208.58 867.85 314.1"/>
    <polygon class="cls-2" points="993.66 328.89 993.66 294.69 1062.25 294.69 1062.25 268.1 993.66 268.1 993.66 236.02 1071.32 236.02 1071.32 208.58 959.68 208.58 959.68 356.32 1074.07 356.32 1074.07 328.89 993.66 328.89"/>
  </g>
  <g>
    <polygon class="cls-2" points="1245.93 371.67 1227.97 371.67 1227.97 77.96 85.25 77.96 85.25 173.35 67.29 173.35 67.29 60 1245.93 60 1245.93 371.67"/>
    <polygon class="cls-2" points="1245.93 688.75 67.29 688.75 67.29 398.75 85.25 398.75 85.25 670.79 1227.97 670.79 1227.97 597.75 1245.93 597.75 1245.93 688.75"/>
  </g>
</svg>